<svg xmlns="http://www.w3.org/2000/svg" viewBox="0 0 365.82 72.53">
    <g id="Layer_2" data-name="Layer 2">
        <g id="Layer_1-2" data-name="Layer 1">
            <path
                d="M33,36.07a2.36,2.36,0,0,0,2.34-2.34c0-4.43,0-13.92-.64-16.89-.92-4.23-1.39-8-5.09-11.7A9.44,9.44,0,0,0,14,14.71,9.44,9.44,0,0,0,4.42,30.4c3.7,3.7,7.48,4.16,11.71,5.07C19.11,36.1,28.6,36.11,33,36.07Z"
                fill="#65a165" />
            <path
                d="M58.38,17A8.83,8.83,0,0,0,43.71,8.05C40.26,11.51,39.82,15,39,19c-.59,2.78-.6,11.65-.56,15.78A2.19,2.19,0,0,0,40.59,37c4.14,0,13,0,15.79-.59,3.95-.86,7.47-1.3,10.93-4.76A8.82,8.82,0,0,0,58.38,17Z"
                fill="#65a165" />
            <path
                d="M35.09,39.9a2.31,2.31,0,0,0-2.29-2.28c-4.33,0-13.61,0-16.52.62-4.13.89-7.82,1.35-11.43,5A9.23,9.23,0,0,0,14.2,58.54a9.23,9.23,0,0,0,15.34,9.32c3.62-3.61,4.07-7.31,5-11.44C35.12,53.51,35.12,44.23,35.09,39.9Z"
                fill="#65a165" />
            <path
                d="M15.1,69.3A10.33,10.33,0,0,1,12,60.58a10.27,10.27,0,0,1-8.71-3.14A10.6,10.6,0,0,1,0,49.29a13.87,13.87,0,0,1,4.45-8.95,18.14,18.14,0,0,1,7.46-4.07,18.22,18.22,0,0,1-7.44-4.06,13.91,13.91,0,0,1-4.46-9A10.58,10.58,0,0,1,3.25,15.1,10.3,10.3,0,0,1,12,12,10.34,10.34,0,0,1,15.1,3.24,10.65,10.65,0,0,1,23.25,0a13.93,13.93,0,0,1,9,4.46,18.32,18.32,0,0,1,4.07,7.45,18.32,18.32,0,0,1,4.06-7.46A13.92,13.92,0,0,1,49.29,0a10.6,10.6,0,0,1,8.15,3.21A10.33,10.33,0,0,1,60.59,12a10.31,10.31,0,0,1,8.71,3.14,10.76,10.76,0,0,1,3.24,7.62c0,3-1.29,6.3-4.47,9.48s-9.42,5.26-19,6.31c-2.23.25-4.37.4-6.23.5,4.89,6.06,15.06,15.82,29.75,15.81v5.67a38.8,38.8,0,0,1-16.49-3.69,47.17,47.17,0,0,1-11.86-8A57.17,57.17,0,0,1,39,43.3C38.87,45,38.72,47,38.5,49c-1,9.62-3.11,15.86-6.3,19.05a13.94,13.94,0,0,1-9,4.45A10.59,10.59,0,0,1,15.1,69.3ZM22.94,5.68a5,5,0,0,0-3.83,1.57,4.71,4.71,0,0,0-1.56,3.44,5.67,5.67,0,0,0,.26,1.67,9.67,9.67,0,0,0,1.63,3.07l1.91,1.91-4,4-1.91-1.91a10,10,0,0,0-2.93-1.58,4.75,4.75,0,0,0-5.25,1.26,5,5,0,0,0-1.56,3.83A8.39,8.39,0,0,0,8.5,28.2c1.24,1.24,4.92,3.5,15.6,4.67,2.89.32,5.65.48,7.81.56l1.49,0c0-.46,0-1,0-1.48-.08-2.17-.24-4.93-.56-7.82C31.71,13.41,29.45,9.73,28.2,8.49A8.39,8.39,0,0,0,22.94,5.68ZM64.06,28.19c3.23-3.24,3.69-6.63,1.23-9.09a4.71,4.71,0,0,0-5.11-1.3,9.58,9.58,0,0,0-3.06,1.63l-2.84,2.83-4-4,2.83-2.83a9.75,9.75,0,0,0,1.62-3.06,4.71,4.71,0,0,0-1.3-5.12A5,5,0,0,0,49.6,5.67a8.52,8.52,0,0,0-5.26,2.81c-1.24,1.24-3.49,4.92-4.67,15.6-.32,2.9-.48,5.66-.56,7.83,0,.56,0,1.09,0,1.56,2.28,0,5.65-.2,9.24-.6C59.13,31.69,62.82,29.43,64.06,28.19ZM22.94,66.86a8.49,8.49,0,0,0,5.25-2.81c1.24-1.24,3.5-4.92,4.67-15.6.4-3.61.55-7,.61-9.3l-1.57,0c-2.14.08-4.88.24-7.77.56C13.41,40.84,9.72,43.1,8.48,44.34A8.52,8.52,0,0,0,5.67,49.6v.26a5,5,0,0,0,1.57,3.57,4.73,4.73,0,0,0,5.12,1.3,9.7,9.7,0,0,0,3.06-1.63l2-2,4,4-2,2a9.7,9.7,0,0,0-1.63,3.06,4.72,4.72,0,0,0,1.3,5.12A5,5,0,0,0,22.94,66.86Z"
                fill="#ffffff" />
            <path fill="#ffffff"
                d="M91.54,50.5H84.15V12.91h7.39V28.42h14V12.91H113V50.5h-7.37V34.89h-14Zm38.5.73h0a11,11,0,0,1-5.84-1.61A11.52,11.52,0,0,1,120,45.2a13.08,13.08,0,0,1-1.54-6.42h0A13.18,13.18,0,0,1,120,32.49a11.46,11.46,0,0,1,4.09-4.42,11.1,11.1,0,0,1,6-1.62h0a11.46,11.46,0,0,1,4.64.94A9.24,9.24,0,0,1,138.19,30h0V27.17h7V50.5h-7V47.42a11.15,11.15,0,0,1-3.66,2.83A10.42,10.42,0,0,1,130,51.23Zm2.08-5.95h0a6.23,6.23,0,0,0,3.22-.83,5.93,5.93,0,0,0,2.21-2.29,6.83,6.83,0,0,0,.8-3.33h0a6.68,6.68,0,0,0-.81-3.33,5.84,5.84,0,0,0-2.21-2.28,6.19,6.19,0,0,0-3.21-.83h0a6.25,6.25,0,0,0-3.22.83,6,6,0,0,0-2.23,2.29,6.62,6.62,0,0,0-.82,3.32h0a6.73,6.73,0,0,0,.81,3.33,6,6,0,0,0,2.22,2.29A6.3,6.3,0,0,0,132.12,45.28ZM158.5,50.5h-7V27.17h7v2.6a12.86,12.86,0,0,1,3.44-2.53,8.64,8.64,0,0,1,3.69-.79h0a9.89,9.89,0,0,1,4.86,1.2,7.09,7.09,0,0,1,3.09,3.24h0a12.54,12.54,0,0,1,3.66-3.33,9,9,0,0,1,4.49-1.11h0a9.44,9.44,0,0,1,4.49,1,7.78,7.78,0,0,1,3.08,3A8.78,8.78,0,0,1,190.43,35h0V50.5h-7V36.92a5.14,5.14,0,0,0-1.19-3.58A4,4,0,0,0,179.09,32h0a4.89,4.89,0,0,0-2.4.57,4.27,4.27,0,0,0-1.63,1.52,4,4,0,0,0-.59,2.12h0V50.5h-7V36.78a5.07,5.07,0,0,0-1.15-3.46A4.05,4.05,0,0,0,163.15,32h0a5,5,0,0,0-2.4.57,4.16,4.16,0,0,0-1.65,1.54,4.1,4.1,0,0,0-.6,2.17h0Zm44.88,0h-7V27.17h7v3.35a9.42,9.42,0,0,1,3.18-3,8.18,8.18,0,0,1,4.05-1.05h0a9.68,9.68,0,0,1,2.55.36,8.08,8.08,0,0,1,2.21.93h0l-2.92,5.9a6.41,6.41,0,0,0-1.81-.83,6.61,6.61,0,0,0-1.92-.31h0a5.26,5.26,0,0,0-2.6.7,6,6,0,0,0-2,1.85,4.24,4.24,0,0,0-.75,2.42h0Zm25.3.73h0a15,15,0,0,1-7-1.59,12.6,12.6,0,0,1-4.91-4.37A11.48,11.48,0,0,1,215,38.83h0a11.52,11.52,0,0,1,1.82-6.43A12.49,12.49,0,0,1,221.72,28a15.22,15.22,0,0,1,7-1.57h0a15.17,15.17,0,0,1,7,1.57,12.56,12.56,0,0,1,4.91,4.38,11.52,11.52,0,0,1,1.81,6.43h0a11.55,11.55,0,0,1-1.81,6.44,12.53,12.53,0,0,1-4.91,4.37A15.06,15.06,0,0,1,228.68,51.23Zm0-6h0a6.54,6.54,0,0,0,3.23-.82,6.11,6.11,0,0,0,2.3-2.27,6.55,6.55,0,0,0,.84-3.34h0a6.49,6.49,0,0,0-.84-3.33,6,6,0,0,0-2.3-2.27,6.44,6.44,0,0,0-3.23-.82h0a6.41,6.41,0,0,0-3.25.82,6,6,0,0,0-2.29,2.27,6.49,6.49,0,0,0-.84,3.33h0a6.55,6.55,0,0,0,.84,3.34,6.09,6.09,0,0,0,2.29,2.27A6.51,6.51,0,0,0,228.71,45.26Zm26.34,5.24h-7.38V12.91h12.8A15.79,15.79,0,0,1,267,14.19,10.23,10.23,0,0,1,271.47,18a11.3,11.3,0,0,1,1.64,6.28h0a11.86,11.86,0,0,1-1.64,6.37A10.67,10.67,0,0,1,267,34.68a14.62,14.62,0,0,1-6.51,1.4h-5.42Zm0-31.68V30.18h3.14a10.68,10.68,0,0,0,3.56-.57,5.74,5.74,0,0,0,2.64-1.82,5.2,5.2,0,0,0,1-3.31h0a5.16,5.16,0,0,0-1-3.31,5.63,5.63,0,0,0-2.64-1.8,10.94,10.94,0,0,0-3.56-.55h-3.14Zm29.87,32.41h0a11,11,0,0,1-5.84-1.61,11.6,11.6,0,0,1-4.17-4.42,13.08,13.08,0,0,1-1.54-6.42h0a13.3,13.3,0,0,1,1.48-6.29,11.46,11.46,0,0,1,4.09-4.42,11.12,11.12,0,0,1,6-1.62h0a11.39,11.39,0,0,1,4.64.94A9.24,9.24,0,0,1,293.07,30h0V27.17h7V50.5h-7V47.42a11.15,11.15,0,0,1-3.66,2.83A10.42,10.42,0,0,1,284.92,51.23ZM287,45.28h0a6.29,6.29,0,0,0,3.23-.83,5.93,5.93,0,0,0,2.21-2.29,6.83,6.83,0,0,0,.79-3.33h0a6.67,6.67,0,0,0-.8-3.33,6,6,0,0,0-2.21-2.28,6.23,6.23,0,0,0-3.22-.83h0a6.3,6.3,0,0,0-3.22.83,6.06,6.06,0,0,0-2.23,2.29,6.72,6.72,0,0,0-.81,3.32h0a6.73,6.73,0,0,0,.8,3.33,6,6,0,0,0,2.22,2.29A6.32,6.32,0,0,0,287,45.28Zm25.81,5.95h0a14.17,14.17,0,0,1-5.29-.94,9.69,9.69,0,0,1-3.88-2.74h0l2.94-4.68a11.47,11.47,0,0,0,3,2.37,7,7,0,0,0,3.19.81h0a3.62,3.62,0,0,0,1.54-.29,2.3,2.3,0,0,0,1.4-2.21h0a1.94,1.94,0,0,0-.51-1.43,4.7,4.7,0,0,0-1.55-1c-.71-.3-1.61-.68-2.72-1.13h0a21.38,21.38,0,0,1-2.71-1.35,6.47,6.47,0,0,1-2.11-1.91,5,5,0,0,1-.81-2.94h0A6.32,6.32,0,0,1,306.55,30a8,8,0,0,1,3.34-2.58,12,12,0,0,1,4.91-.94h0a13.28,13.28,0,0,1,3.63.53,22.43,22.43,0,0,1,4.06,1.59h0l-2.39,4.48a10,10,0,0,0-5.26-1.89h0a3.43,3.43,0,0,0-2.07.57A1.73,1.73,0,0,0,312,33.2h0a1.74,1.74,0,0,0,.8,1.43,8.62,8.62,0,0,0,2,1.07c.78.31,1.53.6,2.24.85h0A20.52,20.52,0,0,1,320.14,38a5.94,5.94,0,0,1,2.12,2A6.2,6.2,0,0,1,323,43.3h0a7.39,7.39,0,0,1-1.21,4.29,7.66,7.66,0,0,1-3.51,2.7A14.63,14.63,0,0,1,312.81,51.23Zm24.55,0h0a11,11,0,0,1-5.84-1.61,11.52,11.52,0,0,1-4.17-4.42,13.08,13.08,0,0,1-1.54-6.42h0a13.18,13.18,0,0,1,1.48-6.29,11.46,11.46,0,0,1,4.09-4.42,11.1,11.1,0,0,1,6-1.62h0a11.42,11.42,0,0,1,4.64.94A9.24,9.24,0,0,1,345.51,30h0V27.17h7V50.5h-7V47.42a11.15,11.15,0,0,1-3.66,2.83A10.42,10.42,0,0,1,337.36,51.23Zm2.08-5.95h0a6.23,6.23,0,0,0,3.22-.83,6,6,0,0,0,2.22-2.29,6.83,6.83,0,0,0,.79-3.33h0a6.78,6.78,0,0,0-.8-3.33,5.93,5.93,0,0,0-2.22-2.28,6.19,6.19,0,0,0-3.21-.83h0a6.28,6.28,0,0,0-3.22.83A6,6,0,0,0,334,35.51a6.72,6.72,0,0,0-.82,3.32h0a6.73,6.73,0,0,0,.81,3.33,6,6,0,0,0,2.22,2.29A6.3,6.3,0,0,0,339.44,45.28Zm26.38,5.22h-7V11.32h7Z" />
        </g>
    </g>
</svg>