<svg width="674" height="564" viewBox="0 0 674 564" fill="none" xmlns="http://www.w3.org/2000/svg">
<path fill-rule="evenodd" clip-rule="evenodd" d="M76.9625 284.779C36.3677 300.113 -15.5118 375.93 27.6081 456.471C74.8182 544.652 206.293 573.25 320.884 516.313C394.565 479.701 451.686 449.197 542.667 438.691C591.484 433.056 708.286 282.465 635.124 141.242C561.962 0.0187531 317.683 -37.5624 251.58 76.1531C163.285 228.038 146.561 258.488 76.9625 284.779Z" fill="#64FCD9"/>
<path fill-rule="evenodd" clip-rule="evenodd" d="M385.82 353.528L392.601 342.233L393.096 330.184C393.096 330.184 398.355 328.222 400.773 329.505C400.773 329.505 408.191 327.838 409.902 321.929C409.902 321.929 400.635 323.614 395.731 323.262C395.731 323.262 397.704 303.14 399.845 294.432C399.845 294.432 396.478 283.902 389.661 294.766C382.844 305.628 386.24 314.79 386.894 327.984C387.545 341.174 387.157 349.145 385.82 353.528Z" fill="white"/>
<path fill-rule="evenodd" clip-rule="evenodd" d="M318.13 412.577C318.13 412.577 312.451 409.95 316.925 402.246C317.896 400.571 315.026 400.841 313.294 399.466C310.371 397.144 306.947 393.535 303.426 392.785C303.426 392.785 289.383 395.107 295.077 389.621C300.773 384.135 312.149 388.263 316.825 393.564C316.825 393.564 324.45 379.794 317.739 359.64C311.53 340.985 308.174 337.085 307.036 329.36C307.036 329.36 300.083 332.403 294.959 330.679C289.839 328.958 287.364 327.977 284.085 327.251C280.806 326.53 283.402 321.531 289.586 322.683C295.766 323.835 304.209 324.364 304.731 320.656C304.731 320.656 294.525 309.941 305.478 298.846C318.891 285.259 351.675 280.426 351.692 293.438C351.71 306.449 346.508 318.736 342.571 342.244C338.635 365.751 338.788 399.85 339.122 408.14C339.452 416.431 339.3 419.539 331.693 417.917C324.087 416.296 322.867 417.423 318.13 412.577Z" fill="white"/>
<path fill-rule="evenodd" clip-rule="evenodd" d="M137.614 441.684C137.614 441.684 106.1 451.554 106.537 455.109C106.974 458.664 109.136 469.312 144.257 469.554C179.377 469.799 252.063 465.082 228.491 457.74C206.11 450.768 213.622 438.698 238.991 436.458C252.717 435.249 234.421 423.741 264.562 418.024C264.562 418.024 243.041 418.813 228.088 427.261C213.135 435.704 216.121 438.303 173.228 437.717C173.228 437.717 147.74 439.359 137.614 441.684Z" fill="white"/>
<path fill-rule="evenodd" clip-rule="evenodd" d="M401.815 427.165C401.815 427.165 432.878 432.106 423.671 438.797C414.468 445.488 466.599 442.968 466.696 452.602C466.795 462.241 430.779 465.792 457.592 478.207C484.408 490.622 538.474 496.549 560.088 476.576C560.088 476.576 576.051 470.354 543.894 460.232C501.548 446.9 483.733 449.108 452.478 437.738C452.478 437.738 426.505 427.126 401.815 427.165Z" fill="white"/>
<path fill-rule="evenodd" clip-rule="evenodd" d="M263.04 418.223C263.04 418.223 278.726 411.326 265.153 367.373C255.85 337.931 222.951 333.271 227.751 278.25C227.751 278.25 216.624 280.108 221.586 268.031C226.548 255.955 268.765 265.275 276.891 267.24C285.02 269.205 300.304 274.848 290.216 284.779C290.216 284.779 281.215 295.615 284.341 320.959C284.341 320.959 276.777 322.615 279.995 326.629C281.82 328.905 285.539 329.95 287.595 334.497C292.378 345.081 294.511 359.43 295.18 376.78C295.18 376.78 292.054 414.632 295.425 420.527C295.425 420.527 287.659 421.992 283.011 424.349C283.011 424.349 271.148 419.261 263.04 418.223Z" fill="white"/>
<path fill-rule="evenodd" clip-rule="evenodd" d="M384.963 427.115C384.963 427.115 378.79 400.141 390.631 363.938C402.473 327.735 429.965 319.035 423.635 280.108C423.635 280.108 402.306 281.634 411.445 270.318C411.445 270.318 453.829 255.46 477.345 261.964C477.345 261.964 498.006 265.768 488.896 279.675C488.896 279.675 485.539 285.284 483.398 297.816C481.257 310.346 462.037 321.968 441.998 346.983C421.96 372.001 408.657 399.764 414.201 428.249C414.201 428.249 385.592 426.934 384.963 427.115Z" fill="white"/>
<path fill-rule="evenodd" clip-rule="evenodd" d="M261.747 264.144C261.747 264.144 256.156 244.731 233.414 244.1L243.191 239.667C243.191 239.667 233.001 211.487 285.11 196.79C337.22 182.091 319.539 164.568 314.159 162.934L311.805 159.033C311.805 159.033 334.418 160.638 353.571 153.398C353.571 153.398 354.598 144.461 329.397 143.179L328.422 140.795C328.422 140.795 355.63 133.801 367.023 141.971C367.023 141.971 360.79 145.854 362.166 149.986C362.166 149.986 362.781 153.453 370.092 156.811C370.092 156.811 364.833 160.003 366.476 166C366.476 166 368.431 175.495 411.172 194.116C453.908 212.738 469.011 212.806 466.461 230.478C466.461 230.478 474.419 231.226 477.887 233.808C477.887 233.808 453.176 238.963 452.031 256.758C452.031 256.758 444.264 260.193 433.546 259.244C433.546 259.244 453.489 236.504 420.456 226.787C420.456 226.787 386.66 220.443 382.101 254.996C382.101 254.996 383.801 243.609 378.232 239.537C378.232 239.537 379.27 248.674 371.123 248.459L329.461 248.778C329.461 248.778 320.923 248.846 324.525 239.465C324.525 239.465 310.073 244.349 306.453 260.019L305.241 263.456C305.241 263.456 305.468 232.276 274.036 229.105C246.21 226.298 254.514 252.243 263.891 259.167L268.834 265.141L261.747 264.144ZM297.623 216.858L289.9 216.338C289.9 216.338 285.17 207.038 294.21 203.216C303.246 199.393 292.364 211.796 300.614 212.857C308.868 213.918 311.346 210.95 309.629 208.14C307.911 205.33 324.731 219.21 320.724 222.5C320.724 222.5 303.032 218.633 297.623 216.858ZM367.205 206.063C367.205 206.063 363.154 217.101 372.492 216.738C372.492 216.738 372.621 211.709 376.859 212.303L385.248 216.06C385.248 216.06 400.397 216.47 395.418 204.113C395.418 204.113 389.739 196.99 387.865 197.556C378.541 200.374 382.976 207.036 377.361 209.082C375.508 209.756 373.908 211.675 367.205 206.063Z" fill="white"/>
<ellipse cx="212.026" cy="180.783" rx="37.7913" ry="37.7829" fill="white"/>
<ellipse cx="156.078" cy="379.632" rx="8.23618" ry="8.679" fill="white"/>
<ellipse cx="227.078" cy="383.908" rx="5.31782" ry="5.6096" fill="white"/>
<ellipse cx="8.23618" cy="8.679" rx="8.23618" ry="8.679" transform="matrix(-1 0 0 1 501.268 392.806)" fill="white"/>
<ellipse cx="5.31782" cy="5.6096" rx="5.31782" ry="5.6096" transform="matrix(-1 0 0 1 446.2 391.903)" fill="white"/>
<ellipse cx="303.017" cy="216.192" rx="3.82258" ry="2.51356" transform="rotate(12.3059 303.017 216.192)" fill="#FFB61D"/>
<ellipse cx="377.403" cy="214.355" rx="3.82258" ry="2.51356" transform="rotate(-1.85304 377.403 214.355)" fill="#FFB61D"/>
<path fill-rule="evenodd" clip-rule="evenodd" d="M262.959 205.118C272.247 200.411 282.086 197.463 291.713 193.949C298.549 191.455 305.237 188.467 311.032 183.973C314.275 181.457 317.424 178.752 319.264 174.824C321.315 170.444 319.305 167.064 315.475 165.58C313.668 164.88 312.183 163.898 310.864 162.521C309.65 161.254 310.081 158.507 312.072 158.187C312.859 158.061 313.757 158.526 314.585 158.786C316.461 159.375 319.521 157.944 320.097 156.135C320.83 153.831 320.104 150.988 318.291 149.869C318.084 149.741 318.056 149.336 317.852 149.192C317.62 149.027 317.284 149.011 316.993 148.931C317.076 149.175 317.249 149.427 317.229 149.663C317.074 151.416 316.904 153.169 316.67 154.913C316.639 155.137 316.166 155.512 315.973 155.47C314.137 155.075 310.68 150.997 310.528 149.131C310.365 147.137 311.761 145.151 313.914 144.565C316.374 143.895 318.902 143.466 321.343 142.739C323.753 142.02 325.667 140.792 325.921 137.827C325.984 137.086 327.197 136.014 328.034 135.844C331.295 135.183 333.542 133.216 335.517 130.759C336.637 129.364 338.053 128.917 339.711 129.63C340.13 129.81 340.567 130.259 340.702 130.678C340.786 130.941 340.331 131.386 340.094 131.733C340.046 131.803 339.871 131.771 339.785 131.83C339.19 132.241 338.602 132.664 338.012 133.084C338.891 133.206 339.797 133.528 340.644 133.412C343.198 133.064 345.715 132.335 348.272 132.177C349.726 132.088 351.398 132.489 352.228 134.133C352.403 134.479 352.641 134.792 352.849 135.12C352.399 135.179 351.947 135.303 351.5 135.286C348.881 135.189 346.262 134.929 343.646 134.969C338.654 135.046 334.075 136.765 329.624 138.866C329.4 138.972 329.254 139.244 329.072 139.439C329.351 139.481 329.64 139.594 329.907 139.555C332.252 139.218 334.595 138.868 336.934 138.495C339.042 138.158 341.132 137.628 343.252 137.468C346.63 137.213 350.038 136.961 353.413 137.13C358.671 137.394 363.833 138.358 368.648 140.651C369.249 140.937 369.901 141.362 370.23 141.904C370.574 142.472 370.867 143.416 370.618 143.91C370.311 144.515 369.412 145.2 368.781 145.189C366.763 145.152 365.564 146.24 364.763 147.801C363.984 149.318 364.989 151.179 366.104 152.783C367.43 154.691 369.393 154.884 371.203 155.556C373.149 156.28 373.917 157.312 373.445 159.085C373.362 159.398 372.852 159.801 372.525 159.814C368.905 159.959 367.842 163.214 368.84 166.102C369.981 169.405 372.915 171.004 375.407 172.89C381.921 177.819 388.859 182.115 396.247 185.643C396.395 185.714 396.589 185.705 396.708 185.818C397.442 186.518 403.204 189.568 406.744 190.987C411.391 192.85 415.412 194.141 419.972 195.887C426.111 198.237 432.239 200.622 438.285 203.19C445.042 206.059 451.757 209.037 458.386 212.184C462.729 214.247 466.552 217.166 468.725 221.593C469.924 224.036 470.735 226.736 470.073 229.615C470.02 229.859 470.76 230.507 471.211 230.61C474.089 231.27 477.023 231.725 479.868 232.496C480.597 232.693 482.173 232.636 481.906 234.134C481.771 234.903 481.266 235.709 480.697 236.263C480.323 236.625 479.544 236.666 478.943 236.676C474.665 236.745 470.625 237.817 466.951 239.925C460.396 243.685 455.712 249.017 453.855 256.532C453.763 256.905 453.628 257.267 453.496 257.629C453.45 257.762 453.357 257.879 453.286 258.003C453.24 257.844 453.229 257.66 453.14 257.531C451.544 255.239 451.867 252.862 452.749 250.421C454.62 245.241 458.603 241.905 463.078 239.26C466.357 237.324 470.055 236.102 473.562 234.551C473.772 234.458 473.943 234.272 474.131 234.13C473.893 234.035 473.665 233.902 473.42 233.852C468.526 232.854 463.892 234.023 459.357 235.683C458.077 236.152 457.021 236.957 456.27 235.042C455.673 233.523 456.014 232.439 457.732 231.74C458.696 231.347 459.766 231.149 460.808 231.026C461.801 230.908 462.821 231 463.828 231C466.858 231 467.954 229.381 467.253 226.4C466.079 221.387 462.572 218.222 458.532 215.759C449.125 210.024 438.889 206.037 428.611 202.154C420.21 198.98 411.87 195.64 403.564 192.222C394.583 188.526 386.223 183.691 378.298 178.067C376.133 176.531 373.804 175.451 370.808 176.095C368.369 176.62 367.148 178.059 366.813 180.076C366.487 182.044 367.323 183.958 368.937 185.37C371.014 187.188 373.218 188.89 375.108 190.888C378.722 194.707 377.551 200.146 374.62 203.721C373.119 205.554 371.13 206.51 368.935 207.184C368.627 207.279 368.175 207.662 368.179 207.905C368.234 211.099 369.21 213.962 371.441 216.319C371.626 216.514 371.904 216.621 372.139 216.769C372.23 216.469 372.381 216.174 372.403 215.87C372.644 212.423 375.761 210.253 379.009 211.472C380.797 212.142 382.536 213.06 384.124 214.126C388.029 216.746 394.805 214.159 395.278 209.392C395.603 206.11 393.765 202.068 390.248 200.985C389.726 200.824 389.142 200.704 388.728 200.382C387.78 199.646 386.394 198.931 386.146 197.962C385.748 196.41 387.54 195.63 388.613 195.522C391.127 195.27 393.731 195.282 396.229 195.654C400.736 196.327 404.519 198.875 407.603 201.93C410.552 204.851 412.854 208.539 413.64 212.825C413.933 214.424 413.922 216.081 414.019 217.714C414.127 219.536 412.871 220.05 411.465 219.931C408.933 219.717 406.417 219.288 403.903 218.895C401.91 218.583 399.941 218.006 397.94 217.876C394.027 217.623 390.078 217.287 386.18 217.544C377.008 218.147 368.028 219.809 359.596 223.715C358.155 224.383 356.68 224.98 355.25 225.671C352.715 226.897 350.208 225.913 349.302 223.232C348.195 219.953 349.461 217.194 351.304 214.579C354.405 210.177 359.329 208.598 363.884 206.458C367.075 204.959 370.233 203.455 372.806 200.93C375.197 198.583 375.137 196.033 373.003 193.757C369.802 190.343 366.436 187.079 363.086 183.808C361.718 182.472 359.986 182.852 358.439 183.352C351.184 185.697 343.851 187.864 337.186 191.709C332.417 194.461 328.253 197.967 325.308 202.623C323.658 205.231 322.647 208.307 324.788 211.253C325.628 212.408 326.751 213.434 327.932 214.246C330.215 215.816 332.725 217.062 334.962 218.688C336.917 220.109 337.548 222.339 336.036 224.267C335.169 225.373 333.363 226.088 331.882 226.301C327.807 226.885 323.919 225.433 320.013 224.559C313.745 223.156 307.575 221.286 301.276 220.058C297.615 219.344 293.772 219.189 290.033 219.337C285.296 219.524 280.648 220.552 276.398 222.833C275.303 223.421 274.45 223.162 273.663 222.393C272.643 221.4 272.495 220.112 273.034 218.916C274.457 215.761 276.483 213.03 279.399 211.087C283.2 208.555 287.003 206.018 290.906 203.65C292.172 202.882 293.567 202.2 295.333 202.715C296.585 203.08 296.774 204.013 296.798 204.744C296.815 205.297 295.989 206.14 295.353 206.402C293.612 207.118 291.025 210.04 291.284 212.18C291.481 213.807 292.647 215.653 294.129 216.058C296.553 216.72 297.632 216.299 298.791 214.238C299.754 212.526 303.484 211.648 305.635 212.363C308.624 213.358 308.71 216.035 309.455 218.366C309.511 218.542 309.514 218.867 309.593 218.883C312.484 219.501 315.377 220.105 318.278 220.674C319.268 220.868 319.704 220.057 319.25 218.915C318.212 216.303 316.057 214.641 314.053 212.862C311.982 211.024 309.685 209.407 307.812 207.39C304.903 204.258 304.904 200.061 306.717 195.85C308.327 192.111 311.27 189.473 314.41 187.19C318.591 184.15 322.964 181.338 327.444 178.756C332.113 176.065 337.32 174.759 342.592 173.684C346.375 172.912 350.069 171.829 353.298 169.478C356.489 167.154 358.537 160.634 356.987 157.046C356.163 155.138 355.141 154.8 353.275 155.67C349.862 157.262 346.254 158.13 342.503 158.433C342.152 158.461 341.814 158.633 341.47 158.739C341.746 158.97 341.988 159.288 342.306 159.418C345.34 160.651 347.781 162.62 349.597 165.331C350.332 166.428 350.815 167.654 349.993 168.946C349.78 169.281 349.416 169.519 349.121 169.802C348.942 169.524 348.731 169.261 348.588 168.965C346.318 164.286 342.169 162.065 337.447 160.964C330.336 159.305 323.253 160.139 316.266 161.992C316.107 162.034 315.996 162.257 315.863 162.395C316.035 162.494 316.198 162.65 316.383 162.683C320.307 163.38 322.47 167.376 323.017 170.106C323.937 174.711 321.871 178.187 319.044 181.341C315.913 184.833 311.892 187.142 307.842 189.45C298.633 194.695 288.623 197.993 278.841 201.877C271.133 204.937 263.352 207.921 256.53 212.844C251.42 216.532 247.309 221.085 245.908 227.287C244.87 231.879 244.704 236.706 247.683 240.961C247.778 241.097 247.318 241.916 247.014 241.989C244.739 242.537 242.436 242.97 240.148 243.463C239.88 243.521 239.646 243.734 239.396 243.875C239.631 243.971 239.859 244.127 240.101 244.155C246.733 244.941 252.366 247.833 257.488 252.033C259.338 253.55 260.76 255.338 262.164 257.188C262.619 257.788 263.031 258.528 263.145 259.254C263.299 260.236 263.115 261.197 261.8 261.444C260.886 261.616 260.371 261.805 259.804 260.585C257.874 256.437 254.608 253.385 250.812 250.94C245.899 247.775 240.46 246.437 234.632 246.662C234.186 246.679 233.735 246.767 233.304 246.887C231.408 247.414 230.134 246.837 229.534 245.149C229.054 243.799 230.091 241.819 231.701 241.346C232.984 240.968 234.333 240.745 235.667 240.633C237.08 240.514 238.51 240.616 239.933 240.604C242.081 240.585 242.07 240.327 241.932 238.062C241.674 233.827 241.942 229.659 243.504 225.574C245.324 220.816 248.292 216.794 251.597 213.149C253.96 210.544 257.32 208.839 260.26 206.767C261.086 206.185 261.997 205.723 262.959 205.118M367.611 174.788C369.015 173.442 369.34 172.223 367.968 170.433C364.936 166.476 364.964 162.101 367.52 157.972C368.386 156.573 367.628 156.572 366.902 156.312C360.981 154.194 359.709 147.639 363.953 143.231C364.22 142.955 364.534 142.725 364.826 142.473C364.399 142.216 363.999 141.805 363.541 141.727C361.15 141.316 358.751 140.918 356.34 140.652C353.484 140.336 350.613 139.98 347.747 139.974C345.06 139.968 342.36 140.304 339.689 140.66C337.025 141.015 334.388 141.575 331.744 142.072C331.549 142.109 331.395 142.368 331.223 142.523C331.441 142.605 331.655 142.747 331.877 142.759C334.434 142.892 336.993 142.999 339.552 143.126C343.275 143.311 346.836 144.357 350.075 146.034C355.133 148.652 358.666 152.804 360.091 158.411C361.594 164.327 360.861 167.839 355.851 171.268C352.192 173.773 347.991 174.897 343.854 176.226C339.256 177.703 334.52 178.916 330.166 180.939C325.475 183.119 321.114 186.033 316.693 188.764C313.936 190.467 311.245 192.355 309.718 195.368C308.583 197.606 307.951 199.915 308.72 202.505C309.778 206.071 312.347 208.314 315.18 210.346C316.339 211.177 317.608 211.906 318.919 212.464C320.024 212.934 320.917 212.35 320.728 211.504C320.006 208.265 320.534 205.177 322.013 202.279C325.431 195.587 331.187 191.372 337.616 187.97C343.317 184.953 349.447 183.028 355.602 181.168C359.921 179.863 364.158 178.307 367.611 174.788M401.754 215.346C403.788 215.721 405.839 216.022 407.849 216.499C408.941 216.758 409.472 216.252 409.729 215.423C410.074 214.312 410.34 213.152 410.442 211.995C410.616 210.037 410.29 208.107 408.969 206.589C406.404 203.642 403.397 201.202 399.751 199.727C398.077 199.049 396.262 198.702 394.488 198.308C394.183 198.241 393.763 198.69 393.396 198.901C393.591 199.165 393.729 199.538 393.991 199.674C395.769 200.598 396.545 202.367 397.247 203.992C398.486 206.863 398.642 209.892 397.46 212.911C397.121 213.774 397.212 214.543 398.494 214.664C399.475 214.755 400.431 215.109 401.754 215.346M340.047 147.927C340.089 147.648 340.172 147.368 340.164 147.09C340.149 146.597 340.077 146.106 340.029 145.615C339.561 145.902 338.953 146.092 338.663 146.505C338.368 146.926 338.298 147.564 338.285 148.11C338.242 149.967 338.339 151.829 338.243 153.682C338.184 154.84 337.431 155.843 336.265 155.47C335.683 155.285 335.267 154.025 335.105 153.188C334.686 151.025 334.477 148.822 334.113 146.647C334.05 146.273 333.635 145.957 333.382 145.615C333.114 146.043 332.595 146.489 332.622 146.899C332.739 148.653 333.15 150.393 333.181 152.143C333.197 153.045 332.909 154.354 332.284 154.778C331.137 155.556 330.319 154.577 330.05 152.838C329.737 150.817 329.169 148.831 328.619 146.856C328.518 146.496 327.967 146.262 327.624 145.97C327.497 146.352 327.233 146.747 327.266 147.115C327.457 149.273 327.734 151.424 327.945 153.581C328.01 154.248 328.128 155.001 327.883 155.567C327.757 155.858 326.887 155.857 326.346 155.919C326.184 155.937 325.936 155.761 325.83 155.604C324.454 153.575 325.728 150.603 323.442 148.882C323.192 148.693 323.031 148.387 322.828 148.136C322.759 148.383 322.619 148.633 322.631 148.876C322.73 150.844 322.744 152.825 323.002 154.773C323.391 157.721 323.482 157.903 326.28 157.67C331.736 157.216 337.173 156.541 342.615 155.926C346.221 155.518 349.701 154.639 352.885 152.833C353.111 152.704 353.322 152.02 353.211 151.901C351.135 149.681 348.458 148.395 345.653 147.449C344.618 147.1 343.439 147.49 343.613 149.076C343.673 149.626 343.908 150.16 343.946 150.71C344.029 151.935 343.698 153.23 342.398 153.324C341.779 153.368 340.804 152.27 340.471 151.486C340.065 150.53 340.166 149.36 340.047 147.927M360.497 219.616C362.057 219.241 363.607 218.813 365.181 218.509C366.289 218.295 366.665 217.893 366.194 216.749C365.371 214.748 364.875 212.708 365.626 210.513C365.996 209.429 365.32 208.912 364.336 209.406C360.693 211.234 356.959 212.962 354.135 216.039C352.566 217.748 352.457 219.524 353.254 221.008C353.474 221.417 354.381 221.829 354.798 221.695C356.614 221.111 358.366 220.327 360.497 219.616M284.031 210.721C281.789 212.608 279.485 214.428 277.354 216.432C276.864 216.892 276.971 217.987 276.803 218.789C277.292 218.614 277.778 218.431 278.27 218.269C278.429 218.216 278.605 218.22 278.773 218.192C281.599 217.718 284.415 217.161 287.256 216.8C288.96 216.584 289.305 216.2 288.696 214.653C288.415 213.938 288.17 213.159 288.144 212.4C288.019 208.722 287.851 208.612 284.64 210.473C284.541 210.53 284.471 210.637 284.031 210.721M330.267 218.548C328.867 218.216 327.356 218.116 326.095 217.501C323.875 216.418 323.595 216.392 323.045 218.684C322.885 219.352 322.87 220.111 323.016 220.778C323.123 221.263 323.565 222.009 323.926 222.052C326.771 222.387 329.631 222.604 332.491 222.776C332.739 222.791 333.231 222.234 333.256 221.916C333.411 219.933 331.748 219.473 330.267 218.548M305.371 217.837C306.093 218.197 307.144 218.765 307.254 217.531C307.404 215.839 304.236 214.354 302.892 215.395C302.614 215.611 302.578 216.272 302.613 216.714C302.634 216.984 302.956 217.356 303.226 217.454C303.793 217.661 304.415 217.718 305.371 217.837M380.236 215.524C380.142 214.027 379.103 213.5 377.855 214.387C377.481 214.653 377.303 215.193 377.035 215.607C377.506 215.757 377.975 216.019 378.448 216.028C378.983 216.038 379.521 215.821 380.236 215.524Z" fill="#00160A"/>
<path fill-rule="evenodd" clip-rule="evenodd" d="M351.518 316.831C350.297 320.779 349.044 324.608 348.064 328.506C346.818 333.465 345.599 338.446 344.724 343.479C343.781 348.896 343.189 354.377 342.56 359.843C342.197 362.991 342.007 366.163 341.841 369.33C341.657 372.835 341.572 376.347 341.474 379.855C341.339 384.726 341.14 389.6 341.141 394.471C341.142 399.462 341.162 404.468 341.545 409.438C341.757 412.202 342.005 414.885 341.102 417.535C340.622 418.941 339.576 419.88 338.076 419.894C331.789 419.948 325.553 419.296 319.563 417.375C314.541 415.764 311.666 411.893 312.383 407.072C312.778 404.411 312.404 401.935 311.142 399.85C309.18 396.605 306.354 394.278 302.181 394.278C300.22 394.275 298.306 394.332 296.552 395.307C295.41 395.94 294.271 395.933 293.485 394.922C292.066 393.101 292.127 391.856 293.112 390.521C294.649 388.437 296.943 387.636 299.224 387.255C303.412 386.562 307.664 386.33 311.783 387.892C315.626 389.351 318.402 391.913 319.326 395.961C319.585 397.096 318.981 398.665 318.295 399.729C316.952 401.807 315.949 403.941 315.325 406.346C314.676 408.844 316.064 413.028 319.034 414.038C320.485 414.529 320.804 414.344 320.849 412.804C320.947 409.413 321.034 406.023 321.21 402.636C321.391 399.174 321.765 395.719 321.89 392.258C322.186 384.114 322.705 375.963 322.528 367.828C322.36 360.089 320.464 352.568 317.593 345.361C314.452 337.473 311.034 329.694 308.002 321.766C306.998 319.144 306.449 316.222 306.334 313.41C306.062 306.744 309.132 301.56 314.82 298.317C319.425 295.692 324.407 293.729 329.229 291.486C330.322 290.979 331.446 290.542 332.546 290.049C332.706 289.977 332.806 289.771 332.935 289.628C332.746 289.653 332.558 289.694 332.369 289.7C327.165 289.878 322.203 291.23 317.512 293.326C314.251 294.783 311.175 296.72 308.184 298.695C305.283 300.611 303.011 303.267 301.294 306.281C299.334 309.718 298.001 313.379 300.22 317.208C300.912 318.402 302.091 319.348 303.158 320.282C304.488 321.448 306.208 322.268 307.268 323.623C309.26 326.172 308.771 328.45 306.235 330.631C306.154 330.7 306.207 330.982 306.261 331.144C307.678 335.419 309.01 339.724 310.551 343.954C312.726 349.926 315.222 355.786 317.253 361.804C318.332 365.004 318.799 368.422 319.401 371.766C320.296 376.742 319.907 381.638 317.968 386.341C317.769 386.825 317.203 387.355 316.725 387.451C316.435 387.508 315.703 386.8 315.666 386.391C315.577 385.405 315.765 384.388 315.866 383.385C316.094 381.111 316.504 378.841 316.543 376.564C316.657 369.783 315.193 363.252 312.802 356.958C311.111 352.507 309.075 348.187 307.179 343.814C306.176 341.502 305.067 339.232 304.165 336.882C303.81 335.954 303.82 334.862 303.794 333.841C303.775 333.104 303.79 332.662 302.799 332.729C298.292 333.035 294.247 331.389 290.187 329.717C288.87 329.175 287.364 329.006 285.925 328.863C283.448 328.615 281.839 325.894 283.067 323.775C283.9 322.336 285.246 322.252 286.83 321.905C290.246 321.156 292.735 324.142 295.935 323.502C297.14 323.261 298.338 322.943 299.555 322.816C300.581 322.708 300.428 322.343 299.846 321.906C295.718 318.806 295.278 314.57 296.454 310.053C298.3 302.966 303.145 298.152 309.111 294.338C315.086 290.516 321.645 288.255 328.581 286.795C334.118 285.629 339.668 285.681 345.221 285.863C348.151 285.96 351.344 286.367 352.842 289.572C353.533 291.053 353.991 292.699 354.241 294.318C355.124 300.047 354.488 305.675 352.875 311.225C352.35 313.034 352.024 314.901 351.518 316.831M324.755 359.257C325.11 361.896 325.741 364.532 325.766 367.175C325.822 373.289 325.642 379.407 325.445 385.523C325.318 389.458 324.999 393.389 324.751 397.32C324.656 398.815 324.508 400.305 324.401 401.8C324.157 405.197 323.794 408.595 323.731 411.996C323.686 414.472 324.697 415.845 326.959 416.187C330.182 416.671 333.461 416.867 336.722 416.959C337.891 416.995 338.761 416.4 338.687 414.696C338.413 408.406 338.293 402.109 338.295 395.815C338.298 389.106 338.487 382.399 338.636 375.689C338.682 373.603 338.819 371.516 338.989 369.435C339.438 363.938 339.844 358.436 340.43 352.954C340.887 348.679 341.296 344.364 342.247 340.186C343.817 333.294 345.489 326.393 347.704 319.688C350.337 311.714 351.386 303.617 351.028 295.306C350.923 292.88 350.657 290.12 347.63 289.401C345.554 288.908 343.352 288.744 341.216 288.797C340.277 288.821 338.875 288.944 338.598 290.537C338.322 292.123 336.864 292.51 335.598 292.884C331.791 294.01 327.83 294.727 324.165 296.195C320.51 297.659 316.85 299.448 313.716 301.795C309.092 305.257 308.807 310.682 309.563 315.782C310.659 323.168 313.938 329.919 316.924 336.714C318.6 340.524 320.412 344.29 321.807 348.203C323.045 351.678 323.791 355.328 324.755 359.257M305.016 328.838C305.099 328.754 305.188 328.675 305.266 328.586C306.447 327.224 306.624 325.867 305.606 324.832C304.465 323.673 303.418 324.081 302.3 325.078C301.727 325.589 300.81 325.739 300.028 325.984C297.403 326.807 294.967 325.736 292.479 325.191C290.318 324.718 288.203 323.641 285.93 324.59C285.547 324.75 285.28 325.187 284.959 325.496C285.305 325.78 285.608 326.205 286.004 326.326C290.006 327.547 293.997 328.816 298.044 329.868C300.348 330.467 302.751 330.702 305.016 328.838M305.905 389.141C303.896 389.44 301.88 389.693 299.884 390.059C299.368 390.155 298.917 390.6 298.436 390.884C298.873 391.073 299.299 391.397 299.749 391.432C303.006 391.71 306.178 392.236 308.885 394.264C310.426 395.417 311.85 396.769 313.511 397.705C314.273 398.132 315.478 397.776 316.481 397.772C316.446 396.965 316.696 395.968 316.316 395.385C315.504 394.136 314.306 393.147 313.374 391.966C311.49 389.582 308.961 388.874 305.905 389.141Z" fill="#FFB61D"/>
<path fill-rule="evenodd" clip-rule="evenodd" d="M416.603 279.83C418.241 278.903 419.767 278.012 421.346 277.24C423.053 276.409 424.81 276.86 425.443 278.177C426.104 279.552 425.222 280.91 423.736 280.809C421.154 280.633 420.044 281.604 420.087 284.188C420.147 288.053 420.385 291.916 420.41 295.78C420.446 302.096 418.853 308.082 416.517 313.903C413.709 320.907 409.229 326.86 404.861 332.921C400.849 338.488 396.878 344.132 393.477 350.08C388.999 357.911 386.082 366.426 384.525 375.345C383.815 379.407 383.155 383.491 382.771 387.593C382.342 392.162 381.914 396.772 382.102 401.341C382.334 406.98 383.185 412.594 383.805 418.215C383.953 419.553 384.308 420.869 384.438 422.207C384.471 422.548 384.078 423.167 383.762 423.263C383.217 423.423 382.329 423.516 382.03 423.21C381.398 422.555 380.881 421.673 380.637 420.798C380.334 419.713 380.309 418.539 380.245 417.397C379.989 412.814 379.726 408.228 379.537 403.642C379.367 399.544 379.003 395.424 379.238 391.343C379.582 385.356 379.907 379.34 381.605 373.499C382.626 369.986 382.962 366.243 384.25 362.849C385.567 359.378 387.574 356.149 389.463 352.923C390.979 350.333 392.926 347.992 394.389 345.377C395.485 343.417 395.943 341.105 397.003 339.12C398 337.252 399.348 335.556 400.659 333.876C402.448 331.58 404.464 329.456 406.167 327.102C407.892 324.72 409.534 322.241 410.882 319.634C412.363 316.771 413.77 313.801 414.66 310.72C415.802 306.766 416.647 302.686 417.153 298.602C417.618 294.84 417.526 291.003 417.562 287.197C417.586 284.455 415.951 282.945 413.22 282.943C410.59 282.942 408.093 280.33 407.956 277.671C407.751 273.662 409.79 271.036 412.981 269.074C416.629 266.832 420.784 266.068 424.874 265.17C428.093 264.463 431.34 263.874 434.58 263.278C437.18 262.801 439.783 262.376 442.393 261.957C445.452 261.464 448.514 260.969 451.584 260.541C453.728 260.242 455.883 259.987 458.042 259.833C462.09 259.544 466.148 259.084 470.192 259.169C475.925 259.289 481.58 260.189 486.705 263.031C491.648 265.774 494.799 269.702 494.376 275.689C494.22 277.965 493.544 280.265 491.591 281.566C489.415 283.016 488.974 285.183 488.366 287.356C486.918 292.511 485.791 297.777 483.98 302.799C482.949 305.66 481.192 308.455 479.14 310.714C473.126 317.328 466.763 323.623 460.61 330.113C456.563 334.385 452.544 338.697 448.674 343.133C441.711 351.113 435.163 359.45 429.736 368.548C425.123 376.283 421.065 384.359 418.639 393.104C417.409 397.541 416.356 402.038 415.486 406.556C414.526 411.541 414.071 416.596 414.554 421.687C414.563 421.773 414.63 421.855 414.67 421.94C414.448 421.975 414.227 422.043 414.005 422.047C413.418 422.05 412.725 422.214 412.279 421.958C411.887 421.734 411.579 421.029 411.567 420.527C411.5 417.745 411.35 414.942 411.584 412.174C411.84 409.15 412.294 406.115 413 403.166C414.195 398.174 415.326 393.122 417.097 388.326C419.027 383.096 421.346 377.948 424.063 373.085C427.395 367.124 431.03 361.284 435.063 355.779C439.324 349.963 444.133 344.539 448.841 339.064C451.886 335.521 455.14 332.15 458.38 328.782C463.495 323.468 468.691 318.231 473.83 312.944C479.68 306.93 483.038 299.625 484.784 291.518C485.246 289.376 485.581 287.201 485.848 285.025C486.089 283.025 485.044 281.46 483.82 280.006C481.245 276.942 477.696 275.606 473.954 275.187C468.324 274.558 462.63 274.022 456.982 274.156C451.235 274.292 445.445 274.804 439.85 276.479C436.785 277.397 433.683 278.206 430.575 278.973C430.038 279.106 429.227 278.974 428.822 278.631C428.167 278.079 427.282 277.339 428.964 276.679C434.078 274.674 439.317 273.223 444.73 272.212C450.911 271.058 457.128 270.939 463.32 271.281C470.689 271.688 477.877 273.368 484.802 276.01C485.979 276.459 487.121 277.039 488.33 277.356C489.208 277.586 490.713 277.854 490.994 277.45C491.598 276.575 492.05 275.148 491.769 274.178C490.048 268.265 485.766 264.995 480.018 263.37C474.961 261.942 469.779 261.736 464.604 262.003C460.048 262.237 455.506 262.866 450.968 263.387C447.305 263.807 443.635 264.205 440.003 264.828C435.159 265.658 430.312 266.527 425.546 267.699C421.819 268.614 418.138 269.827 414.585 271.271C412.283 272.206 410.797 273.96 410.744 276.885C410.681 280.378 413.485 281.003 415.903 280.172C416.111 280.1 416.311 280.004 416.603 279.83Z" fill="#00160A"/>
<path fill-rule="evenodd" clip-rule="evenodd" d="M264.204 360.235C265.952 364.558 267.909 368.704 269.189 373.049C270.509 377.529 271.363 382.171 272.055 386.797C272.601 390.447 272.801 394.182 272.779 397.879C272.747 403.34 271.933 408.744 270.696 414.07C270.47 415.045 269.761 415.55 268.982 415.027C268.483 414.689 268.137 413.704 268.186 413.042C268.606 407.371 269.444 401.714 269.538 396.043C269.628 390.6 268.74 385.206 267.576 379.834C266.103 373.039 263.755 366.605 260.689 360.44C258.093 355.22 254.808 350.405 251.013 345.936C246.941 341.14 242.77 336.393 239.107 331.29C234.785 325.268 231.762 318.495 229.839 311.321C228.758 307.285 227.903 303.157 227.369 299.015C226.836 294.882 226.914 290.675 226.563 286.513C226.338 283.848 225.514 281.421 223.006 279.865C217.767 276.614 219.121 270.591 221.736 267.044C223.969 264.016 227.42 262.761 230.934 262.389C236.137 261.838 241.404 261.568 246.633 261.676C251.305 261.773 255.993 262.35 260.619 263.07C266.079 263.921 271.557 264.868 276.882 266.309C281.465 267.549 285.925 269.358 290.288 271.262C293.688 272.745 296.137 275.467 295.826 279.402C295.676 281.301 294.383 283.171 293.386 284.928C291.524 288.206 290.538 291.722 289.874 295.401C288.952 300.503 288.816 305.635 288.809 310.795C288.805 314.081 288.942 317.324 289.898 320.492C289.942 320.637 289.804 320.837 289.75 321.011C288.33 320.561 286.889 320.53 286.951 318.172C287.028 315.248 286.137 312.311 286.029 309.366C285.767 302.263 287.151 295.347 288.836 288.489C289.192 287.041 288.726 285.811 287.522 285.109C284.909 283.585 282.276 282.053 279.51 280.849C274.992 278.882 270.419 277.009 265.758 275.423C263.085 274.513 260.207 274.167 257.398 273.708C248.619 272.272 240.701 275.21 232.91 278.684C230.759 279.643 229.614 281.387 229.443 283.737C229.3 285.702 228.979 287.687 229.128 289.633C229.455 293.895 229.829 298.173 230.565 302.378C231.231 306.185 232.141 309.995 233.406 313.642C235.874 320.754 239.494 327.276 244.237 333.171C249.661 339.913 255.047 346.688 260.303 353.561C261.832 355.559 262.858 357.94 264.204 360.235M225.526 267.823C224.779 268.57 223.968 269.264 223.299 270.076C222.055 271.587 221.961 275.019 223.037 276.66C223.859 277.914 226.356 278.427 228.532 277.596C231.752 276.366 234.912 274.981 238.113 273.698C241.959 272.157 245.877 270.884 250.082 270.85C252.235 270.833 254.394 270.743 256.538 270.878C258.51 271.001 260.506 271.213 262.42 271.681C268.416 273.145 274.118 275.415 279.57 278.315C282.697 279.978 285.964 281.247 289.467 281.887C291.293 282.221 293.349 281.133 293.4 279.415C293.456 277.561 292.739 275.663 291.042 274.817C287.569 273.087 284.006 271.478 280.352 270.181C274.595 268.136 268.69 266.537 262.587 265.879C256.56 265.228 250.53 264.578 244.485 264.137C242.009 263.956 239.493 264.319 236.995 264.444C232.987 264.646 229.101 265.285 225.526 267.823Z" fill="#00160A"/>
<path fill-rule="evenodd" clip-rule="evenodd" d="M358.097 247.989C362.548 247.84 366.91 247.83 371.27 247.696C372.814 247.648 374.411 247.635 375.652 246.32C376.54 245.381 376.614 243.687 375.589 242.895C373.913 241.598 373.3 239.571 374.196 238.288C374.816 237.401 378.149 237.075 379.366 237.778C381.124 238.792 382.082 240.426 382.713 242.26C383.411 244.287 384.001 246.351 384.652 248.395C384.734 248.653 384.898 248.886 385.023 249.13C385.206 248.919 385.437 248.734 385.565 248.494C389.133 241.796 394.658 237.452 401.827 235.223C409.631 232.796 417.002 233.889 424.098 237.974C427.85 240.135 430.827 242.902 432.737 246.731C434.988 251.236 434.594 255.921 433.185 260.57C433.036 261.066 432.282 261.379 431.809 261.777C431.453 260.975 430.671 260.092 430.806 259.387C431.862 253.965 430.201 249.242 427.082 245.007C422.128 238.274 415.019 236.281 407.145 237.122C399.334 237.957 393.357 242.17 388.744 248.493C386.491 251.581 384.955 254.95 383.782 258.542C383.249 260.171 381.726 260.87 380.324 260.571C379.081 260.307 379.324 259.607 379.534 258.862C380.222 256.423 381.311 254.029 381.547 251.551C381.742 249.498 380.951 247.35 380.584 245.246C380.565 245.134 380.431 245.041 380.35 244.94C380.194 245.171 379.995 245.385 379.888 245.638C379.083 247.543 377.781 249.001 375.856 249.752C374.781 250.171 373.601 250.497 372.458 250.532C369.142 250.634 365.82 250.539 362.502 250.573C352.356 250.677 342.21 250.871 332.065 250.875C329.694 250.876 327.252 250.625 325.146 249.159C323.126 247.752 322.199 245.826 322.626 243.507C322.67 243.268 322.785 243.042 322.867 242.809C322.622 242.889 322.359 242.935 322.137 243.055C316.763 245.966 312.877 250.208 310.918 256.034C310.23 258.078 310.027 260.281 309.429 262.361C309.03 263.749 308.706 265.373 307.004 265.848C305.147 266.367 304.089 265.21 303.757 262.686C303.052 257.325 300.841 252.615 297.509 248.377C294.003 243.919 289.735 240.44 284.503 238.263C278.844 235.908 273.051 235.147 267.388 238.155C264.347 239.77 261.846 243.711 262.762 247.985C263.651 252.14 266.027 255.156 268.549 258.248C269.144 258.978 269.866 259.981 269.797 260.798C269.661 262.405 267.564 262.981 266.397 261.651C265.05 260.116 263.833 258.356 263.014 256.494C261.89 253.942 261.102 251.228 260.334 248.537C259.183 244.505 260.825 238.311 265.55 235.876C270.912 233.111 276.241 232.955 281.919 234.521C288.528 236.344 294.01 239.898 298.568 244.882C301.978 248.611 304.503 252.926 305.914 257.834C306.003 258.144 306.228 258.414 306.39 258.703C306.474 258.414 306.537 258.116 306.645 257.837C309.78 249.713 314.859 243.266 322.739 239.264C323.465 238.896 324.278 238.626 325.08 238.493C326.809 238.206 327.94 239.672 327.352 241.378C327.121 242.049 326.787 242.686 326.536 243.351C325.63 245.755 326.11 247.162 328.999 247.719C329.113 247.741 329.235 247.72 329.354 247.722C338.905 247.84 348.457 247.959 358.097 247.989Z" fill="#00160A"/>
<path fill-rule="evenodd" clip-rule="evenodd" d="M346.805 424.185C347.23 424.306 347.474 424.519 347.725 424.527C351.765 424.665 355.805 424.818 359.847 424.85C360.403 424.854 361.19 424.345 361.486 423.847C362.94 421.396 365.214 421.015 367.399 422.879C368.864 424.128 370.367 425.366 371.994 426.384C373.988 427.632 374.436 427.245 374.581 424.925C374.673 423.459 373.385 421.88 374.838 420.545C375.395 420.033 376.12 419.706 376.769 419.293C376.858 419.435 376.983 419.563 377.03 419.72C378.472 424.423 382.599 425.669 386.228 425.957C390.454 426.291 394.194 424.448 398.086 423.26C400.204 422.612 402.371 421.986 404.559 421.755C406.904 421.51 407.644 422.741 406.495 424.722C405.917 425.715 405.669 425.985 407.108 425.992C412.561 426.014 417.202 424.057 421.15 420.396C421.815 419.777 421.854 420.186 422.049 420.652C422.896 422.662 422.729 424.58 421.587 426.444C421.459 426.651 421.612 427.309 421.751 427.348C422.818 427.657 423.906 428.01 425.001 428.066C427.046 428.17 429.152 427.899 430.944 429.187C431.439 429.539 431.762 430.134 432.164 430.617C431.645 430.728 431.129 430.913 430.607 430.934C426.922 431.073 423.237 431.268 419.553 431.261C417.984 431.258 416.325 430.945 416.031 428.86C415.997 428.618 415.909 428.355 415.966 428.131C416.083 427.672 416.282 427.234 416.447 426.789C415.959 426.964 415.474 427.152 414.981 427.316C411.961 428.326 408.964 429.415 405.906 430.294C404.792 430.61 403.499 430.617 402.348 430.422C400.518 430.105 400.677 428.458 400.934 427.238C401.167 426.138 401.059 425.935 399.972 425.946C395.805 425.978 392.26 427.526 389.048 430.094C388.023 430.913 386.809 431.521 385.625 432.112C384.252 432.798 382.957 432.389 382.155 431.197C381.442 430.137 381.794 429.134 382.767 428.141C383.56 427.33 382.484 426.729 381.873 426.743C381.097 426.757 380.044 427.021 379.609 427.572C377.843 429.81 375.652 429.628 373.254 429.141C370.07 428.493 366.872 427.896 363.661 427.405C359.353 426.743 355.03 426.174 350.707 425.622C349.107 425.42 347.489 425.299 345.877 425.267C338.933 425.117 331.985 424.85 325.044 424.953C319.911 425.028 314.735 425.281 309.679 426.088C306.638 426.572 304.077 425.854 301.48 424.808C300.856 424.559 300.343 423.352 300.279 422.548C300.177 421.275 299.479 421.613 298.878 421.808C294.118 423.331 289.401 425 284.606 426.401C282.064 427.145 281.592 426.928 280.276 424.655C280.136 424.413 279.597 424.132 279.423 424.221C277.421 425.242 275.779 424.21 274.233 423.235C271.993 421.819 269.656 420.958 266.979 420.972C257.755 421.022 248.796 422.605 240.099 425.64C238.661 426.138 237.347 427.01 235.999 427.75C235.109 428.241 234.418 428.18 233.793 427.312C233.178 426.458 232.792 425.551 233.463 424.64C234.547 423.16 236.13 422.374 237.893 422.065C242.214 421.307 246.54 420.57 250.88 419.944C252.764 419.67 254.69 419.681 256.596 419.56C256.999 419.535 257.401 419.499 257.804 419.471C257.61 419.101 257.429 418.724 257.221 418.361C257.026 418.023 256.868 417.628 256.584 417.386C255.314 416.312 255.377 414.483 255.994 413.729C256.552 413.049 258.564 412.992 259.641 413.412C263.77 415.027 267.784 416.934 271.832 418.749C272.759 419.165 272.757 419.193 272.829 418.119C272.959 416.155 275.036 414.931 276.852 416.016C278.644 417.087 280.255 418.493 281.83 419.884C283.696 421.531 285.957 422.018 288.19 421.631C293.155 420.773 298.035 419.382 303.142 419.563C306.314 419.674 309.486 419.784 312.657 419.93C313.084 419.951 313.543 420.097 313.913 420.311C314.256 420.51 314.499 420.876 314.786 421.172C314.395 421.229 314.004 421.289 313.611 421.339C310.677 421.695 307.742 422.05 304.808 422.41C304.588 422.438 304.374 422.506 304.157 422.552C304.404 422.623 304.649 422.748 304.898 422.755C309.472 422.883 314.047 422.972 318.62 423.125C324.805 423.335 330.989 423.594 337.173 423.829C340.325 423.95 343.476 424.068 346.805 424.185Z" fill="#00160A"/>
<path fill-rule="evenodd" clip-rule="evenodd" d="M111.094 189.997C108.319 189.238 105.653 188.47 102.943 187.919C99.0045 187.119 95.1712 187.541 91.4536 189.167C86.7653 191.218 83.4125 194.588 81.131 199.123C80.8173 199.747 80.3009 200.452 79.702 200.711C78.4465 201.255 76.9307 199.729 77.3536 198.351C77.6559 197.367 78.1264 196.386 78.7264 195.55C81.2711 192.003 84.7423 189.505 88.6652 187.808C91.2729 186.679 94.1473 186.119 96.9435 185.484C101.587 184.429 105.93 185.836 110.389 187.004C113.065 187.705 116.143 187.663 118.887 187.142C124.143 186.143 129.208 185.832 134.269 187.936C141.247 190.838 148.322 193.513 155.239 196.548C157.456 197.52 159.619 199.036 161.266 200.806C166.707 206.655 173.628 209.347 181.206 210.691C186.761 211.676 192.417 212.139 197.934 213.288C202.392 214.216 206.781 215.621 211.067 217.182C215.227 218.698 219.187 220.752 223.289 222.44C226.756 223.868 227.996 226.579 227.995 230.052C227.995 231.781 227.904 233.53 227.634 235.236C227.089 238.678 223.949 240.399 220.31 239.495C213.533 237.812 206.749 236.145 199.944 234.578C195.823 233.63 192.712 235.106 190.376 239.8C186.22 248.154 179.35 253.705 171.89 258.742C169.353 260.455 166.874 262.323 164.141 263.654C161.696 264.844 158.987 265.829 156.309 266.127C151.293 266.687 146.302 266.169 141.725 263.681C141.074 263.328 140.343 263.035 139.837 262.527C138.957 261.643 138.656 260.334 139.652 259.558C140.76 258.695 142.208 258.863 143.456 259.72C144.883 260.7 146.223 261.902 147.787 262.572C153.59 265.057 159.935 264.462 164.906 260.146C167.969 257.486 171.227 255.134 174.919 253.407C178.662 251.657 181.93 249.319 183.805 245.492C184.768 243.527 185.609 241.495 186.39 239.45C187.86 235.602 191.897 231.826 196.506 231.978C200.927 232.124 205.144 233.144 209.421 233.948C214.076 234.822 218.686 235.961 223.362 236.683C223.937 236.772 225.227 235.096 225.453 234.076C226.542 229.177 223.985 225.729 220.538 223.719C214.813 220.379 208.454 218.728 202.102 217.161C197.503 216.027 192.834 215.155 188.17 214.31C185.871 213.894 183.511 213.597 181.18 213.608C175.467 213.635 170.534 211.746 166.188 208.116C160.97 203.756 155.72 199.433 149.414 196.671C142.257 193.537 134.928 190.849 127.314 189.106C125.302 188.646 123.008 189.047 120.911 189.423C117.676 190.004 114.498 190.885 111.094 189.997Z" fill="#00160A"/>
<path fill-rule="evenodd" clip-rule="evenodd" d="M160.442 359.079C158.071 359.079 155.878 359.074 153.686 359.08C151.805 359.085 150.013 359.039 148.195 358.158C146.82 357.493 145.233 358.102 143.892 359.063C141.41 360.842 140.82 363.609 140.231 366.259C139.701 368.645 139.397 371.161 139.514 373.595C139.863 380.876 141.908 387.65 146.594 393.396C148.218 395.385 150.083 397.182 151.863 399.039C152.111 399.298 152.508 399.412 152.837 399.594C152.802 399.231 152.822 398.854 152.723 398.509C151.647 394.723 153.973 391.244 157.454 391.454C159.461 391.575 161.237 393.087 162.03 394.94C162.506 396.054 162.049 396.723 161.279 397.057C160.988 397.185 160.221 396.356 159.743 395.89C159.386 395.541 159.227 394.912 158.828 394.709C158.39 394.492 157.683 394.439 157.268 394.652C156.889 394.848 156.117 395.171 156.957 396.082C157.877 397.078 157.057 399.313 155.708 400.28C155.403 400.497 155.088 400.7 154.777 400.91C155.181 401.077 155.598 401.223 155.987 401.419C157.702 402.291 159.507 403.034 161.074 404.119C161.722 404.567 162.222 405.795 162.155 406.613C161.88 410.004 161.163 413.366 160.982 416.76C160.746 421.196 158.334 425.259 158.997 429.838C159.576 433.833 160.032 437.854 160.418 441.874C160.662 444.421 160.7 446.99 160.769 449.552C160.777 449.865 160.401 450.192 160.204 450.512C159.965 450.256 159.593 450.032 159.512 449.733C159.181 448.498 158.805 447.25 158.689 445.987C158.377 442.596 158.243 439.184 157.939 435.794C157.516 431.066 156.993 426.344 156.535 421.62C156.379 420.012 156.292 418.4 156.174 416.788C155.936 413.569 155.734 410.342 155.445 407.125C155.336 405.927 154.993 405.226 153.4 404.813C151.626 404.35 149.769 402.934 148.666 401.415C146.066 397.829 143.72 394.029 141.594 390.137C139.405 386.131 138.285 381.752 137.616 377.194C136.848 371.967 137.568 366.985 139.528 362.238C140.976 358.727 144.097 355.241 148.83 355.121C152.961 355.017 156.935 355.775 160.944 356.532C163.496 357.014 166.093 357.255 168.659 357.665C171.373 358.098 174.081 358.577 176.781 359.09C178.319 359.382 178.939 360.526 178.914 361.953C178.874 364.276 178.736 366.6 178.573 368.919C178.098 375.644 177.08 382.282 173.914 388.323C171.883 392.197 169.231 395.677 165.4 398.035C165.015 398.274 164.515 398.324 164.069 398.462C164.273 397.975 164.37 397.392 164.702 397.014C165.562 396.04 166.492 395.115 167.453 394.236C171.632 390.415 173.743 385.477 175.01 380.115C176.151 375.288 176.56 370.374 176.45 365.415C176.434 364.679 176.446 363.941 176.486 363.206C176.593 361.223 174.878 361.135 173.739 360.919C170.353 360.274 166.914 359.906 163.495 359.436C162.538 359.305 161.578 359.197 160.442 359.079Z" fill="#00160A"/>
<path fill-rule="evenodd" clip-rule="evenodd" d="M508.275 379.357C509.971 379.692 511.483 380.08 513.016 380.35C514.566 380.624 515.117 381.634 515.014 383.022C514.705 387.202 514.292 391.379 513.969 395.559C513.577 400.675 512.059 405.446 509.694 409.972C507.613 413.953 504.675 417.151 500.923 419.606C500.717 419.741 500.44 419.766 500.194 419.841C500.251 419.596 500.237 419.29 500.379 419.119C501.226 418.105 502.029 417.034 503 416.152C506.639 412.839 509.128 408.791 510.352 404.08C511.223 400.725 511.742 397.253 512.141 393.802C512.478 390.853 512.379 387.857 512.557 384.886C512.653 383.267 511.774 382.442 510.401 382.232C506.034 381.563 501.663 380.898 497.274 380.464C494.023 380.144 490.737 380.208 487.469 380.058C486.629 380.019 485.747 379.955 484.968 379.671C482.006 378.6 479.68 379.414 478.243 382.186C476.699 385.167 476.162 388.373 475.853 391.706C475.38 396.865 476.209 401.782 478.069 406.524C480.21 411.971 483.414 416.707 488.177 420.261C488.39 420.417 488.66 420.496 488.906 420.613C488.845 420.325 488.802 420.037 488.724 419.756C488.105 417.447 488.486 415.504 490.335 413.772C491.769 412.434 493.547 412.452 494.881 412.939C496.225 413.43 497.288 414.946 498.195 416.212C498.423 416.529 497.569 417.614 497.214 418.347C496.869 418.066 496.303 417.834 496.218 417.489C495.894 416.127 495.083 415.401 493.764 415.718C493.305 415.828 492.644 416.924 492.786 417.294C493.085 418.069 494.237 418.678 493.39 419.62C492.654 420.442 491.644 421.022 490.741 421.687C490.581 421.805 490.35 421.826 490.15 421.89C490.353 421.976 490.559 422.05 490.759 422.143C492.747 423.057 494.827 423.822 496.68 424.957C497.473 425.444 498.227 426.715 498.227 427.625C498.227 429.888 497.875 432.165 497.498 434.406C496.894 437.989 495.756 441.529 495.574 445.122C495.364 449.288 495.937 453.497 496.186 457.685C496.278 459.296 496.446 460.904 496.531 462.52C496.67 465.135 496.73 467.757 496.915 470.372C496.979 471.261 496.634 471.692 495.855 471.606C495.574 471.574 495.176 470.962 495.144 470.585C494.856 467.308 494.699 464.021 494.386 460.748C493.974 456.375 493.444 452.014 492.985 447.645C492.828 446.158 492.732 444.663 492.626 443.169C492.384 439.832 492.185 436.488 491.9 433.151C491.733 431.169 491.463 429.194 491.178 427.227C491.128 426.9 490.801 426.398 490.542 426.355C486.875 425.761 485.029 422.815 482.959 420.314C479.612 416.28 477.251 411.612 475.686 406.635C474.541 402.992 473.886 399.224 473.676 395.335C473.484 391.778 473.762 388.387 474.85 385.046C477.055 378.272 482.447 375.032 489.727 376.479C493.65 377.258 497.644 377.689 501.603 378.294C503.772 378.628 505.931 379.002 508.275 379.357Z" fill="#00160A"/>
<path fill-rule="evenodd" clip-rule="evenodd" d="M263.937 467.945C261.093 467.945 258.426 467.913 255.76 467.952C248.401 468.052 241.043 468.18 233.685 468.301C226.801 468.418 219.917 468.543 213.033 468.657C205.556 468.781 198.079 468.884 190.603 469.016C184.904 469.119 179.205 469.272 173.506 469.365C165.023 469.5 156.538 469.589 148.054 469.731C143.717 469.806 139.37 470.222 135.049 470.023C127.757 469.685 120.438 469.098 113.865 465.43C110.874 463.758 107.957 461.957 106.209 458.745C104.633 455.849 104.808 453.173 108.531 451.939C117.285 449.036 126.041 446.14 134.802 443.258C136.583 442.675 138.408 442.404 140.121 443.425C140.594 443.706 140.87 444.318 141.236 444.777C140.791 445.03 140.375 445.385 139.897 445.517C133.935 447.154 127.965 448.765 121.994 450.37C116.927 451.729 111.867 453.124 106.775 454.387C105.761 454.636 105.935 454.735 106.429 455.386C111.35 461.879 118.112 465.366 125.831 467.212C130.776 468.397 135.797 469.073 140.912 469.041C144.239 469.016 147.569 469.358 150.897 469.343C155.767 469.322 160.636 469.137 165.505 469.012C169.96 468.899 174.414 468.771 178.869 468.66C183.797 468.536 188.726 468.425 193.654 468.301C198.05 468.187 202.445 468.059 206.84 467.949C211.709 467.824 216.579 467.717 221.448 467.586C225.37 467.483 229.29 467.337 233.211 467.237C238.614 467.102 244.017 467.002 249.419 466.878C254.052 466.768 258.684 466.639 263.316 466.522C268.067 466.401 272.818 466.284 277.569 466.166C282.438 466.045 287.307 465.931 292.176 465.81C297.046 465.693 301.915 465.49 306.784 465.483C310.942 465.476 315.103 465.64 319.258 465.828C322.542 465.978 325.818 466.284 329.097 466.529C329.312 466.543 329.521 466.643 329.733 466.7C329.52 466.76 329.308 466.824 329.094 466.878C329.038 466.892 328.976 466.878 328.917 466.878C323.277 466.999 317.638 467.155 311.998 467.226C300.137 467.372 288.275 467.451 276.413 467.6C272.313 467.653 268.214 467.828 263.937 467.945Z" fill="#00160A"/>
<path fill-rule="evenodd" clip-rule="evenodd" d="M385.572 313.184C385.535 306.556 386.745 300.395 389.841 294.677C391.003 292.532 392.318 290.519 394.45 289.173C396.996 287.566 400.564 287.768 402.085 290.598C402.848 292.016 402.434 294.234 402.138 296.022C401.5 299.868 400.56 303.664 399.808 307.493C399.052 311.339 398.319 315.192 397.697 319.062C397.523 320.148 397.367 321.905 397.929 322.288C398.806 322.887 400.344 322.808 401.529 322.599C403.587 322.237 405.588 321.55 407.619 321.023C407.815 320.972 408.056 321.092 408.277 321.132C408.177 321.312 408.073 321.49 407.979 321.673C407.778 322.064 407.56 322.448 407.389 322.852C407.062 323.627 406.905 324.077 405.659 323.995C404.247 323.902 402.799 325.06 401.305 325.31C399.756 325.569 398.09 325.631 396.554 325.348C394.303 324.934 393.085 325.357 393.04 327.048C392.986 329.088 394.214 329.881 396.054 328.812C398.37 327.468 400.584 327.381 402.821 328.853C403.069 329.017 403.379 329.441 403.322 329.655C402.895 331.269 401.507 331.674 399.729 331.52C397.977 331.37 396.17 331.833 394.394 332.084C394.346 332.091 394.327 333.049 394.399 333.064C396.228 333.449 396.19 334.69 395.89 336.107C395.2 339.365 394.81 342.731 392.39 345.333C392.257 345.477 392.216 345.707 392.132 345.896C392.079 345.681 391.972 345.463 391.982 345.251C392.087 342.869 392.154 340.482 392.348 338.107C392.49 336.359 392.809 334.627 393.038 332.886C393.137 332.136 392.74 331.944 392.106 331.496C390.34 330.247 389.939 325.487 391.621 324.15C394.642 321.748 394.634 318.246 395.491 315.074C396.547 311.16 397.348 307.176 398.196 303.208C398.677 300.962 399.256 298.702 399.384 296.426C399.538 293.691 397.56 291.876 395.269 292.637C394.018 293.052 392.716 294.152 392.039 295.299C390.106 298.576 389.212 302.255 388.778 306.029C388.51 308.358 388.085 310.696 388.112 313.026C388.15 316.368 388.533 319.707 388.774 323.047C388.886 324.6 389.029 326.15 389.123 327.703C389.26 329.965 389.368 332.228 389.483 334.492C389.604 336.873 389.868 339.259 389.802 341.636C389.721 344.566 389.651 347.551 389.027 350.391C388.617 352.251 387.232 353.897 386.28 355.636C386.234 355.719 386.144 355.777 386.075 355.847C386.026 355.69 385.923 355.528 385.935 355.375C386.039 354.119 386.206 352.867 386.276 351.609C386.531 346.965 387.048 342.311 386.919 337.677C386.765 332.173 385.976 326.689 385.602 321.187C385.425 318.59 385.572 315.971 385.572 313.184Z" fill="#FFB61D"/>
<path fill-rule="evenodd" clip-rule="evenodd" d="M380.593 477.195C377.638 476.605 374.857 476.028 372.084 475.413C366.495 474.175 360.911 472.915 355.324 471.663C351.364 470.78 347.403 469.898 343.444 469.009C343.272 468.97 343.118 468.852 342.955 468.774C343.117 468.735 343.288 468.642 343.439 468.667C345.714 469.034 347.998 469.354 350.255 469.813C354.564 470.688 358.852 471.666 363.157 472.566C367.253 473.42 371.347 474.292 375.462 475.043C379.172 475.722 382.918 476.202 386.633 476.854C390.378 477.508 394.097 478.316 397.845 478.956C401.072 479.511 404.327 479.903 407.564 480.404C411.234 480.973 414.89 481.628 418.564 482.162C421.488 482.589 424.436 482.845 427.363 483.257C430.376 483.677 433.367 484.243 436.379 484.652C438.702 484.969 441.045 485.104 443.371 485.389C446.974 485.83 450.563 486.36 454.166 486.79C456.666 487.089 459.18 487.313 461.691 487.505C466.699 487.886 471.707 488.231 476.718 488.576C480.353 488.829 483.987 489.178 487.626 489.267C495.813 489.466 504.004 489.629 512.191 489.608C516.597 489.597 521.047 489.487 525.396 488.861C531.588 487.971 537.823 486.982 543.816 485.26C549.716 483.563 555.261 480.756 559.931 476.562C560.806 475.779 561.503 474.769 562.449 474.103C564.703 472.513 563.861 468.262 561.666 466.839C558.832 465.003 555.602 464.515 552.472 463.697C543.634 461.395 534.779 459.175 525.919 456.966C519.521 455.372 513.105 453.849 506.696 452.291C505.298 451.949 503.901 451.611 502.521 451.202C502.147 451.092 501.599 450.758 501.578 450.484C501.546 450.121 501.855 449.598 502.176 449.356C503.748 448.164 505.505 448.182 507.308 448.733C516.252 451.462 525.194 454.212 534.146 456.909C542.528 459.435 550.947 461.84 559.308 464.433C561.115 464.996 563.06 465.825 564.376 467.109C566.759 469.432 566.411 472.965 563.793 475.519C560.396 478.839 556.321 481.187 552.071 483.25C546.828 485.801 541.316 487.548 535.6 488.537C530.966 489.341 526.278 490.014 521.584 490.302C514.289 490.754 506.97 490.985 499.658 491.02C494.365 491.045 489.066 490.661 483.774 490.337C479.588 490.085 475.409 489.718 471.237 489.274C466.436 488.761 461.656 488.075 456.858 487.523C453.276 487.114 449.677 486.869 446.103 486.431C440.818 485.78 435.551 484.99 430.269 484.325C426.929 483.901 423.565 483.663 420.225 483.225C416.254 482.706 412.302 482.03 408.335 481.471C404.685 480.959 401.012 480.593 397.372 480.02C393.498 479.415 389.652 478.632 385.789 477.953C384.123 477.661 382.444 477.448 380.593 477.195Z" fill="#00160A"/>
<path fill-rule="evenodd" clip-rule="evenodd" d="M262.159 183.327C266.01 183.327 269.686 183.238 273.357 183.347C279.012 183.515 284.597 184.231 289.944 186.2C290.81 186.519 291.576 187.158 292.325 187.733C292.997 188.25 293.089 188.961 292.607 189.685C292.075 190.485 291.47 190.592 290.571 190.106C286.493 187.901 282.121 186.693 277.48 186.533C273.441 186.394 269.402 186.298 265.363 186.171C261.916 186.062 258.447 186.139 255.03 185.758C251.825 185.401 248.685 184.494 245.497 183.936C243.156 183.526 240.886 182.548 238.38 183.269C237.461 183.533 237.618 183.596 238.15 184.032C240.407 185.885 242.942 187.311 245.777 187.912C250.924 189.001 256.136 189.778 261.294 190.82C265.471 191.664 269.587 192.828 273.029 195.477C273.822 196.087 274.485 197.368 274.499 198.35C274.513 199.366 273.566 200.263 272.228 200.113C272.07 200.095 271.842 200.088 271.773 199.988C268.837 195.796 264.379 194.278 259.704 193.329C256.329 192.644 252.856 192.457 249.465 191.836C245.141 191.044 240.918 189.981 237.439 186.945C235.524 185.274 234.257 183.382 233.567 180.937C233.151 179.464 233.599 178.474 234.612 177.66C235.527 176.924 236.372 177.281 237.406 177.875C241.252 180.086 245.332 181.787 249.803 182.247C253.857 182.663 257.922 182.971 262.159 183.327Z" fill="#FFB61D"/>
<path fill-rule="evenodd" clip-rule="evenodd" d="M222.77 397.413C219.251 393.702 217.217 389.412 216.238 384.516C215.582 381.232 215.415 378.005 216.299 374.791C217.262 371.287 219.453 367.952 224.156 368.382C228.416 368.772 232.637 369.6 236.872 370.26C237.692 370.388 238.497 370.617 239.303 370.822C241.859 371.469 242.188 371.824 242.236 374.33C242.393 382.62 239.896 389.878 233.863 395.755C233.452 396.153 233.105 396.62 232.728 397.057C232.962 396.289 232.963 395.282 233.468 394.794C236.586 391.792 238.581 388.159 239.837 384.075C240.948 380.46 241.186 376.774 240.432 373.078C240.111 371.507 238.442 371.729 237.386 371.593C232.624 370.977 227.835 370.569 223.053 370.113C220.247 369.845 218.378 371.187 217.711 374.026C215.73 382.449 217.697 389.799 223.831 395.958C224.206 396.335 224.776 396.516 225.255 396.79C225.346 396.314 225.514 395.837 225.514 395.357C225.516 391.849 224.48 388.657 222.505 385.765C221.325 384.036 221.684 381.57 223.51 380.549C225.171 379.621 226.965 378.795 228.803 378.343C231.735 377.621 235.093 381.791 233.951 384.883C233.276 386.708 231.867 388.262 230.773 389.927C230.661 390.098 230.445 390.201 230.278 390.337C230.235 390.116 230.087 389.846 230.168 389.689C230.546 388.953 230.872 388.141 231.425 387.551C233.264 385.587 233.157 382.228 231.111 380.496C229.554 379.179 226.097 379.517 224.815 381.111C223.222 383.089 223.508 386.227 225.435 387.608C225.688 387.789 226.06 387.803 226.377 387.896C226.331 387.629 226.176 387.316 226.259 387.095C226.469 386.533 226.66 385.822 227.098 385.534C227.466 385.288 228.474 385.356 228.659 385.637C228.973 386.117 229.065 386.939 228.884 387.501C228.6 388.373 228.007 389.148 227.549 389.967C227.072 390.817 227.129 391.237 228.261 391.578C230.908 392.379 231.285 393.051 230.901 395.221C230.874 395.378 230.99 395.556 231.039 395.723C230.879 395.68 230.66 395.691 230.572 395.588C230.436 395.428 230.442 395.139 230.298 395.001C229.673 394.392 229.015 393.82 228.369 393.233C228.226 393.909 228.086 394.588 227.937 395.264C227.926 395.314 227.843 395.342 227.817 395.392C227.418 396.164 227.023 396.94 226.627 397.715C227.398 398 228.197 398.228 228.934 398.58C230.659 399.412 231.365 402.017 230.832 404.503C230.256 407.193 229.658 409.915 229.495 412.647C229.269 416.447 229.404 420.271 229.455 424.082C229.476 425.693 229.684 427.305 229.784 428.917C229.795 429.105 229.662 429.304 229.595 429.5C229.511 429.297 229.418 429.102 229.346 428.895C229.018 427.963 228.521 427.049 228.408 426.092C228.17 424.082 228.124 422.047 228.018 420.022C227.774 415.379 227.67 410.722 227.252 406.097C227.034 403.685 227.189 400.996 224.716 399.323C224.009 398.847 223.473 398.117 222.77 397.413Z" fill="#FFB61D"/>
<path fill-rule="evenodd" clip-rule="evenodd" d="M443.812 392.61C446.757 394.204 447.444 397.199 445.804 400.344C445.395 401.127 444.541 401.689 443.862 402.319C443.745 402.429 443.467 402.365 443.265 402.383C443.297 402.18 443.261 401.92 443.375 401.785C443.759 401.337 444.189 400.931 444.613 400.515C445.907 399.238 445.982 395.783 444.581 394.492C442.948 392.991 440.277 392.503 438.325 394.41C436.927 395.78 436.386 398.348 438.325 400.003C438.559 400.202 438.645 400.572 438.865 400.803C439 400.946 439.256 400.974 439.459 401.056C439.491 400.853 439.498 400.643 439.555 400.448C439.736 399.832 439.825 399.131 440.195 398.654C440.32 398.491 441.429 398.736 441.639 399.078C441.917 399.53 441.931 400.312 441.746 400.846C441.497 401.561 440.86 402.134 440.554 402.838C440.181 403.696 440.288 404.386 441.447 404.653C442.119 404.806 442.884 405.176 443.286 405.695C443.681 406.2 443.666 407.022 443.834 407.709C443.339 407.406 442.71 407.207 442.372 406.78C441.575 405.777 441.437 406.346 441.202 407.122C441.013 407.748 440.7 408.335 440.466 408.947C440.156 409.762 438.865 410.786 441.23 410.74C443.179 410.704 444.392 413.793 443.855 416.262C443.279 418.891 442.82 421.559 442.511 424.235C442.237 426.597 442.052 429.002 442.173 431.371C442.297 433.905 442.852 436.416 443.154 438.942C443.208 439.405 442.941 439.903 442.82 440.383C442.589 440.059 442.23 439.764 442.144 439.401C441.849 438.152 441.543 436.886 441.433 435.609C441.234 433.353 441.202 431.083 441.049 428.824C440.711 423.932 440.405 419.033 439.921 414.156C439.843 413.401 438.943 412.668 438.31 412.035C436.155 409.886 433.854 407.826 432.687 404.934C431.581 402.191 430.397 399.43 429.75 396.562C429.092 393.652 429.252 390.635 430.369 387.739C432.221 382.929 435.163 381.997 439.929 382.698C443.033 383.157 446.11 383.79 449.2 384.338C450.584 384.584 451.971 384.79 453.347 385.075C453.55 385.117 453.753 385.469 453.849 385.718C455.147 389.191 454.45 392.631 453.689 396.079C452.533 401.294 449.567 405.443 446.035 409.274C445.964 409.349 445.936 409.466 445.889 409.566C445.818 409.438 445.761 409.303 445.676 409.189C445.036 408.342 445.288 407.631 446.081 407.115C450.317 404.372 451.793 400.127 452.423 395.445C452.736 393.122 452.988 390.788 453.123 388.447C453.237 386.416 452.515 385.932 450.484 385.729C446.761 385.366 443.055 384.808 439.338 384.342C438.204 384.199 437.066 384.014 435.931 384.004C433.879 383.982 432.229 385.59 431.492 387.867C430.105 392.172 430.529 396.474 431.987 400.736C433.168 404.19 435.461 406.787 438.019 409.232C438.147 409.353 438.271 409.47 438.396 409.587C438.453 409.434 438.534 409.281 438.559 409.121C438.805 407.68 439.096 406.243 439.235 404.792C439.267 404.446 438.83 403.995 438.509 403.696C436.923 402.216 436.013 400.319 435.764 398.26C435.202 393.645 439.712 391.155 443.812 392.61Z" fill="#FFB61D"/>
<path fill-rule="evenodd" clip-rule="evenodd" d="M295.502 336.043C296.776 341.266 298.044 346.384 299.113 351.543C299.663 354.198 299.878 356.924 300.209 359.622C300.701 363.628 301.164 367.638 301.633 371.646C301.661 371.88 301.627 372.12 301.638 372.356C301.754 374.972 301.939 377.586 301.964 380.204C301.975 381.442 301.678 382.68 301.524 383.919C301.391 384.989 300.519 385.448 299.725 385.334C298.958 385.228 298.35 384.673 298.386 383.499C298.514 379.357 298.619 375.199 298.387 371.066C298.122 366.336 297.641 361.604 296.968 356.914C296.35 352.608 295.56 348.303 294.463 344.097C293.442 340.181 291.914 336.398 290.615 332.554C290.522 332.279 290.48 331.987 290.415 331.703C290.694 331.732 290.98 331.731 291.25 331.796C293.48 332.333 295.317 333.274 295.502 336.043Z" fill="#00160A"/>
<path fill-rule="evenodd" clip-rule="evenodd" d="M498.584 408.798C497.744 409.207 496.997 409.527 496.25 409.847C496.539 409.036 496.727 408.171 497.136 407.428C497.99 405.877 499.017 404.418 499.867 402.863C500.966 400.853 500.412 398.797 499.715 396.829C499.049 394.947 496.03 393.659 493.843 394.36C491.079 395.243 488.462 396.239 486.271 398.469C484.905 399.857 485.691 400.81 486.075 401.7C486.861 403.514 488.028 405.165 489.084 406.855C489.304 407.211 489.706 407.456 490.026 407.752C490.179 407.282 490.368 406.819 490.475 406.339C490.517 406.144 490.4 405.905 490.322 405.699C489.923 404.631 489.884 403.553 490.972 402.956C491.606 402.607 492.754 402.312 493.17 402.636C493.9 403.205 494.525 404.219 494.696 405.137C494.963 406.574 494.44 407.848 493.042 408.716C492.544 409.022 492.395 409.854 492 410.381C491.46 411.103 490.837 412.32 490.258 412.313C489.4 412.306 488.138 411.615 487.768 410.861C486.057 407.371 484.421 403.82 483.166 400.152C482.846 399.213 483.692 397.399 484.567 396.616C487.558 393.948 491.282 392.546 495.176 391.863C497.915 391.382 501.521 394.78 502.236 398.025C503.175 402.312 501.329 405.638 498.584 408.798Z" fill="#E7EAEE"/>
<path fill-rule="evenodd" clip-rule="evenodd" d="M161.152 371.175C165.55 373.197 167.899 377.952 165.48 382.947C164.543 384.882 163 386.54 161.627 388.237C161.392 388.529 160.622 388.387 160.099 388.444C160.257 387.921 160.273 387.277 160.597 386.896C162.235 384.957 163.64 382.958 164.251 380.396C165.031 377.127 162.525 373.106 159.204 373.023C157.771 372.986 156.272 373.581 154.888 374.112C153.718 374.561 152.641 375.284 151.575 375.967C148.714 377.799 149.095 378.603 150.285 381.069C151.157 382.872 152.303 384.548 153.402 386.231C153.543 386.448 154.137 386.366 154.521 386.423C154.548 386.213 154.604 386 154.599 385.793C154.566 384.63 154.324 383.427 154.529 382.31C154.764 381.022 155.827 380.948 156.925 381.353C159.197 382.196 159.242 384.616 157.751 386.789C156.954 387.953 155.579 388.718 155.71 390.45C155.718 390.564 154.132 391.052 153.391 390.891C152.705 390.742 151.91 390.073 151.591 389.422C150.075 386.327 148.685 383.171 147.289 380.015C146.492 378.215 146.904 376.664 148.49 375.487C151.887 372.966 155.437 370.791 159.878 370.834C160.244 370.838 160.609 371.056 161.152 371.175Z" fill="#FFB61D"/>
<path fill-rule="evenodd" clip-rule="evenodd" d="M208.099 436.993C212.871 435.989 217.168 434.189 221.355 432.097C221.452 432.051 221.57 432.008 221.674 432.019C222.244 432.062 222.813 432.126 223.382 432.179C223.019 432.549 222.702 432.987 222.285 433.278C218.044 436.253 213.299 438.056 208.207 438.725C203.822 439.305 199.388 439.533 194.97 439.825C190.452 440.124 185.917 440.198 181.408 440.593C178.681 440.835 176 441.55 173.283 441.949C172.179 442.112 170.901 441.995 170.485 440.753C170.068 439.515 170.539 438.185 171.8 437.765C173.276 437.274 174.895 437.146 176.464 437.028C177.349 436.961 178.256 437.299 179.158 437.338C185.042 437.598 190.927 438.003 196.812 437.996C200.515 437.989 204.218 437.348 208.099 436.993Z" fill="#00160A"/>
<path fill-rule="evenodd" clip-rule="evenodd" d="M479.467 445.531C481.22 446.161 482.795 446.787 484.371 447.421C484.641 447.527 484.894 447.677 485.157 447.805C484.826 448.114 484.46 448.723 484.179 448.684C482.579 448.47 480.946 448.253 479.417 447.762C474.719 446.246 470.099 444.485 465.372 443.059C462.608 442.223 459.692 441.913 456.872 441.241C455.065 440.807 452.778 441.244 451.821 438.996C451.558 438.377 451.448 437.224 451.793 436.922C452.326 436.459 453.408 436.207 454.094 436.409C457.192 437.334 460.258 438.395 463.291 439.512C468.64 441.479 473.957 443.521 479.467 445.531Z" fill="#E7EAEE"/>
<path fill-rule="evenodd" clip-rule="evenodd" d="M297.014 403.55C297.014 401.892 296.993 400.409 297.019 398.929C297.051 397.018 299.033 395.638 300.631 396.58C301.204 396.918 301.767 398.192 301.567 398.779C299.574 404.592 300.387 410.587 300.2 416.518C300.188 416.884 300.078 417.425 299.829 417.575C299.325 417.873 298.699 418.009 298.108 418.08C298.027 418.09 297.765 417.347 297.739 416.938C297.59 414.622 297.492 412.298 297.368 409.979C297.256 407.894 297.132 405.813 297.014 403.55Z" fill="#00160A"/>
<path fill-rule="evenodd" clip-rule="evenodd" d="M330.89 467.075C331.621 467.035 332.264 467.17 332.907 467.298C332.205 467.278 331.502 467.264 330.89 467.075Z" fill="#00160A"/>
<path fill-rule="evenodd" clip-rule="evenodd" d="M334.357 312.117C332.845 314.148 331.159 315.235 328.522 314.656C324.469 313.766 323.207 308.467 325.493 305.519C328.28 301.923 332.947 302.252 335.954 304.578C338.354 306.434 340.364 308.571 341.421 311.369C342.424 314.026 341.823 316.705 340.589 319.222C339.765 320.901 338.856 322.344 339.899 324.522C340.486 325.747 339.68 327.719 339.252 329.287C339.16 329.626 337.896 329.959 337.362 329.766C336.925 329.608 336.464 328.62 336.543 328.078C336.921 325.491 336.252 324.842 333.69 325.261C329.106 326.012 325.247 324.828 322.538 320.787C322.29 320.418 321.736 320.254 321.325 319.995C321.164 320.461 320.807 320.966 320.889 321.385C321.009 322.007 321.441 322.568 321.74 323.155C322.879 325.389 323.178 327.636 321.497 328.728C320.455 329.405 317.936 328.917 317.307 327.703C315.337 323.903 314.488 319.977 316.587 315.926C317.348 314.457 320.951 313.207 322.665 314.151C323.835 314.795 324.92 315.605 325.999 316.399C327.549 317.541 328.974 318.879 330.611 319.872C332.503 321.019 335.077 320.152 336.145 318.294C336.426 317.807 336.749 317.275 337.192 316.962C339.571 315.286 340.073 313.932 338.745 311.393C337.377 308.779 335.732 306.371 332.585 305.516C330.286 304.891 327.842 305.732 326.89 307.668C326.112 309.249 326.644 311.239 328.059 312.042C329.647 312.944 331.142 312.382 332.245 310.591C332.594 310.024 333.525 309.134 333.636 309.209C334.593 309.859 335.284 310.729 334.357 312.117M324.577 320.3C324.903 320.626 325.22 320.962 325.557 321.277C326.993 322.62 328.463 323.876 330.667 323.197C330.805 323.155 330.992 323.271 331.156 323.313C331.06 323.138 331.007 322.901 330.86 322.8C329.954 322.178 328.97 321.657 328.119 320.97C326.424 319.603 324.858 318.071 323.127 316.756C321.591 315.589 319.517 315.81 318.572 317.081C318.351 317.378 318.31 317.807 318.186 318.176C318.561 318.172 318.936 318.159 319.311 318.167C320.381 318.188 321.53 317.988 322.497 318.318C323.248 318.575 323.773 319.496 324.577 320.3Z" fill="#FFB61D"/>
<path fill-rule="evenodd" clip-rule="evenodd" d="M330.534 342.624C332.745 341.456 333.873 341.964 333.961 344.526C334.197 351.348 334.308 358.176 334.305 365.002C334.304 366.574 333.583 368.134 333.31 369.72C333.093 370.978 333.051 372.266 332.937 373.542C332.921 373.718 332.929 373.897 332.935 374.075C333.053 377.7 333.188 381.325 333.272 384.95C333.284 385.491 333.212 386.174 332.894 386.548C332.497 387.01 331.805 387.22 331.239 387.54C331.093 387.06 330.839 386.583 330.821 386.096C330.765 384.619 330.833 383.132 330.794 381.652C330.695 377.849 330.704 374.036 330.415 370.246C329.815 362.351 328.616 354.557 325.822 347.089C325.42 346.011 324.898 344.951 324.693 343.835C324.576 343.198 324.823 342.336 325.221 341.817C325.48 341.479 326.504 341.302 326.833 341.541C327.361 341.923 327.757 342.667 327.927 343.33C328.589 345.911 329.156 348.518 329.729 351.121C330.34 353.894 330.919 356.674 331.512 359.451C331.558 359.669 331.603 359.888 331.649 360.106C331.722 359.926 331.849 359.749 331.859 359.566C332.126 354.804 331.929 350.092 330.578 345.465C330.333 344.624 330.595 343.634 330.534 342.624Z" fill="#FFB61D"/>
<path fill-rule="evenodd" clip-rule="evenodd" d="M319.42 335.954C319.438 333.309 320.665 332.043 323.052 332.041C327.318 332.038 331.585 331.976 335.849 332.079C337.121 332.109 338.531 332.345 339.605 332.961C340.609 333.537 340.836 336.829 339.99 337.527C338.838 338.479 337.478 338.872 335.795 338.716C332.448 338.405 329.062 338.481 325.693 338.48C325.262 338.48 324.774 338.914 324.409 339.251C322.929 340.62 320.578 340.081 319.795 338.11C319.552 337.497 319.538 336.794 319.42 335.954M335.247 335.954C335.823 335.287 335.766 334.988 334.836 334.908C331.456 334.616 328.068 334.395 324.681 334.197C324.277 334.174 323.715 334.343 323.479 334.63C323.218 334.947 323.195 335.503 323.189 335.957C323.187 336.071 323.655 336.307 323.894 336.289C324.852 336.219 325.805 335.97 326.759 335.976C328.493 335.987 330.226 336.164 331.961 336.213C332.995 336.243 334.033 336.162 335.247 335.954Z" fill="#FFB61D"/>
<path fill-rule="evenodd" clip-rule="evenodd" d="M325.466 401.415C325.584 400.814 325.777 400.394 325.808 399.964C325.93 398.32 327.074 397.281 328.484 397.961C329.06 398.235 329.414 399.676 329.312 400.519C329.098 402.287 329.577 403.091 331.378 403.205C332.053 403.244 332.748 403.301 333.383 403.507C333.735 403.621 334.114 404.02 334.227 404.372C334.308 404.621 334.051 405.158 333.795 405.304C332.101 406.261 327.629 405.443 326.376 403.87C325.889 403.258 325.759 402.362 325.466 401.415Z" fill="#FFB61D"/>
<path fill-rule="evenodd" clip-rule="evenodd" d="M463.974 175.448C461.78 176.331 459.297 177.011 456.619 177.526C447.554 179.267 436.276 179.322 427.63 179.183C424.845 179.139 422.345 179.08 420.289 179.071C418.272 179.063 416.729 179.062 415.84 179.285C411.643 180.298 408.83 181.52 406.948 182.737C403.651 184.867 403.491 186.736 403.491 186.736V186.736C403.523 187.421 402.993 188.005 402.307 188.038C401.624 188.07 401.041 187.541 401.009 186.856C401.009 186.856 400.621 183.767 405.28 180.324C407.283 178.842 410.32 177.278 414.908 175.877C415.971 175.563 417.831 175.375 420.268 175.334C422.352 175.3 424.891 175.36 427.712 175.444C436.162 175.692 447.201 176.217 456.079 174.619C462.544 173.455 467.858 171.305 469.704 167.091C470.028 166.357 470.867 166.003 471.617 166.284C472.368 166.566 472.77 167.385 472.528 168.151C472.528 168.151 470.657 174.687 464.291 179.899C462.569 181.308 460.524 182.629 458.088 183.663C456.047 184.53 453.728 185.176 451.124 185.566C442.005 186.771 435.205 187.141 430.866 189.149C428.394 190.295 426.819 192.015 426.211 194.928C426.083 195.631 425.407 196.097 424.703 195.967C423.998 195.837 423.533 195.16 423.664 194.457C424.297 190.522 426.303 188.119 429.547 186.447C433.989 184.155 441.07 183.412 450.552 181.784C452.817 181.435 454.82 180.831 456.609 180.105C458.721 179.248 460.531 178.212 462.061 177.06C462.754 176.537 463.391 175.996 463.974 175.448Z" fill="#FFB61D"/>
<path fill-rule="evenodd" clip-rule="evenodd" d="M185.592 206.38C185.592 206.38 178.762 199.746 176.723 188.918C176.273 186.53 176.069 183.941 176.179 181.154C176.317 177.636 176.947 173.8 178.481 169.691C180.935 162.998 185.137 157.414 190.443 153.325C194.089 150.514 198.251 148.412 202.678 147.1C213.183 143.988 225.204 145.363 235.715 152.515C235.687 152.495 240.899 156.25 244.833 163.82C246.78 167.559 248.339 172.242 248.902 177.792C249.009 178.618 249.767 179.204 250.6 179.1C251.433 178.996 252.024 178.242 251.917 177.416C251.024 171.536 249.037 166.676 246.851 162.75C242.422 154.791 236.979 150.752 236.979 150.752C236.968 150.746 236.958 150.739 236.947 150.732C225.855 143.151 213.161 141.727 202.041 144.958C197.337 146.325 192.921 148.535 189.003 151.453C183.249 155.74 178.579 161.573 175.776 168.676C174.058 173.106 173.225 177.248 173.134 181.059C173.061 184.098 173.447 186.92 174.092 189.489C174.836 192.452 175.941 195.075 177.159 197.338C180.584 203.7 184.885 207.171 184.885 207.171C185.104 207.364 185.441 207.345 185.637 207.127C185.832 206.909 185.812 206.574 185.592 206.38Z" fill="#00160A"/>
</svg>
