<svg width="675" height="356" viewBox="0 0 675 356" fill="none" xmlns="http://www.w3.org/2000/svg">
    <path fill-rule="evenodd" clip-rule="evenodd"
        d="M474.128 350.68C365.891 372.992 295.667 308.742 152.711 308.742C103.86 308.742 -14.2193 336.251 4.06338 166.259C14.4381 69.7949 126.258 26.0157 230.755 82.398C261.505 94.4232 285.782 90.6964 312.14 78.7481C338.498 66.7998 372.398 13.4598 436.29 2.48634C628.561 -30.5363 841.432 274.966 474.128 350.68Z"
        fill="#FF7FA0" />
    <path fill-rule="evenodd" clip-rule="evenodd"
        d="M470.187 132.653C477.722 137.615 485.288 142.864 493.96 145.356C502.631 147.848 512.822 147.086 519.499 141.018C546.446 116.535 589.841 112.441 620.89 131.453C651.94 150.466 668.022 190.979 658.464 226.11C648.907 261.242 614.518 288.024 578.116 288.687C559.255 289.03 541.814 298.046 523.791 303.619C505.769 309.191 484.093 310.621 469.999 298.083C454.808 284.569 456.542 256.723 473.292 245.199C446.97 247.171 420.648 249.143 394.326 251.116C400.116 253.463 406.28 256.116 409.599 261.409C412.918 266.702 411.396 275.36 405.35 276.933C382.834 282.79 359.779 272.117 338.167 263.502C316.555 254.887 290.512 248.56 271.24 261.594C227.808 290.969 170.428 286.092 118.699 277.527C106.289 275.472 91.3605 270.951 88.7801 258.64C65.028 263.111 40.806 265.082 16.6434 264.509C10.7454 264.37 3.78268 263.441 1.02622 258.225C-2.54537 251.466 3.86605 243.798 10.11 239.388C29.1776 225.92 52.4574 218.511 75.8014 218.479C82.4507 218.47 86.89 211.522 88.5828 205.091C90.2756 198.661 90.7499 191.506 95.0676 186.449C80.385 184.245 64.8305 188.727 53.5721 198.406C51.4825 200.203 47.9554 198.399 47.0783 195.787C46.2012 193.175 47.1048 190.333 48.0325 187.738C53.2273 173.209 59.7405 158.447 71.5469 148.513C83.3533 138.579 101.8 134.996 114.246 144.116C118.15 146.977 124.78 150.649 134.134 155.133C143.725 153.683 150.856 152.528 155.528 151.669C169.677 149.068 182.796 142.643 195.621 136.126C240.312 113.419 286.135 88.1383 336.244 86.712C384.18 85.3476 430.135 106.277 470.187 132.653ZM520.9 172.018L525.396 183.343C525.617 183.898 525.855 184.479 526.319 184.854C526.883 185.31 527.655 185.371 528.372 185.474C533.868 186.266 538.175 190.439 542.071 194.396C547.06 199.465 552.05 204.535 557.04 209.604C558.535 211.123 561.019 209.48 562.451 207.901C565.668 204.351 568.946 200.709 570.804 196.292C572.661 191.876 572.862 186.459 570.093 182.549C568.448 180.226 565.942 178.659 563.373 177.431C559.133 175.404 554.534 174.132 549.855 173.694C545.293 173.267 540.698 173.626 536.115 173.592C531.009 173.554 525.906 173.026 520.9 172.018Z"
        fill="white" />
    <path fill-rule="evenodd" clip-rule="evenodd"
        d="M88.7802 258.64C65.028 263.111 40.806 265.082 16.6434 264.509C9.69001 254.376 84.9349 235.706 87.6633 248.014C89.8208 257.747 89.9195 264.076 88.7802 258.64Z"
        fill="#E7EAEE" />
    <path fill-rule="evenodd" clip-rule="evenodd"
        d="M453.175 225.811C455.713 225.539 465.8 223.067 476.39 224.213C482.081 221.291 509.355 223.586 525.636 226.776C536.086 228.823 562.571 230.184 572.189 235.09C588.884 243.606 589.267 248.87 586.755 249.998C579.619 253.2 571.022 254.779 566.401 254.864C558.082 255.015 541.345 247.325 522.986 242.508C514.787 240.356 508.762 238.529 504.014 236.756L504.789 236.417C494.519 241.053 483.895 241.792 473.292 245.199C446.97 247.171 420.648 249.143 394.326 251.116C400.116 253.463 313.009 221.748 338.167 217.121C339.718 216.836 341.427 216.662 343.281 216.585C366.841 215.597 413.652 230.035 453.175 225.811Z"
        fill="#E7EAEE" />
    <path fill-rule="evenodd" clip-rule="evenodd"
        d="M218.104 186.659C218.425 187.233 218.182 187.996 217.7 188.443C217.218 188.89 216.555 189.083 215.909 189.204C211.15 190.097 205.951 187.501 203.806 183.161C203.567 182.677 203.358 182.146 203.431 181.611C203.504 181.076 203.953 180.559 204.492 180.591C205.877 182.119 207.283 183.665 209.008 184.796C210.732 185.927 212.841 186.616 214.87 186.243C216.021 186.032 217.532 185.638 218.104 186.659Z"
        fill="#00160A" />
    <path fill-rule="evenodd" clip-rule="evenodd"
        d="M221.223 245.866C221.29 244.526 222.969 243.966 224.31 243.917C230.316 243.694 235.91 246.639 241.458 248.952C247.006 251.265 253.466 252.972 258.884 250.369C260.015 249.825 261.2 249.083 262.427 249.345C260.392 253.293 255.527 255.085 251.093 254.842C246.658 254.598 242.502 252.723 238.414 250.989C234.325 249.255 230.023 247.605 225.589 247.853C224.679 247.904 223.748 248.032 222.871 247.785C221.995 247.537 221.177 246.776 221.223 245.866Z"
        fill="#00160A" />
    <path fill-rule="evenodd" clip-rule="evenodd"
        d="M231.738 257.108C227.595 255.899 222.75 256.504 219.347 253.849C218.931 253.525 218.521 253.099 218.504 252.572C218.482 251.833 219.278 251.292 220.017 251.273C220.756 251.254 221.45 251.591 222.144 251.846C224.678 252.777 227.467 252.652 230.112 253.191C234.08 254 237.574 256.262 241.312 257.821C245.049 259.38 249.532 260.178 253.012 258.107C254.416 257.272 256.261 256.025 257.425 257.171C253.636 261.487 247.222 263.286 241.742 261.569C238.252 260.476 235.249 258.132 231.738 257.108Z"
        fill="#00160A" />
    <path fill-rule="evenodd" clip-rule="evenodd"
        d="M112.328 213.414C111.662 212.562 111.668 211.326 112.093 210.332C112.518 209.337 113.298 208.541 114.105 207.821C117.934 204.401 123.233 202.086 128.203 203.371C131.928 204.335 134.876 207.127 137.484 209.956C138.6 211.167 139.753 212.902 138.917 214.321C138.024 215.838 135.782 215.517 134.084 215.056C128.814 213.627 123.227 212.785 117.901 213.991C115.969 214.428 113.548 214.975 112.328 213.414Z"
        fill="#00160A" />
    <path fill-rule="evenodd" clip-rule="evenodd"
        d="M198.653 264.765C199.387 265.209 199.286 266.395 198.674 266.996C198.062 267.598 197.16 267.771 196.314 267.916C191.572 268.729 186.831 269.542 182.089 270.355C181.099 270.525 179.992 270.671 179.167 270.099C178.341 269.527 178.317 267.936 179.3 267.729C185.245 266.474 191.237 265.442 197.26 264.636C197.731 264.573 198.245 264.519 198.653 264.765Z"
        fill="#00160A" />
    <path fill-rule="evenodd" clip-rule="evenodd"
        d="M186.553 215.221C185.51 215.608 184.357 214.601 184.217 213.497C184.076 212.393 184.647 211.325 185.308 210.43C188.383 206.266 193.864 204.133 199.002 204.774C204.14 205.414 208.806 208.669 211.505 213.088C211.922 213.769 212.308 214.553 212.15 215.336C211.979 216.183 211.186 216.798 210.347 217.008C209.508 217.218 208.625 217.097 207.772 216.95C204.225 216.337 200.766 215.274 197.215 214.677C193.665 214.08 189.928 213.969 186.553 215.221Z"
        fill="#00160A" />
    <path fill-rule="evenodd" clip-rule="evenodd"
        d="M119.505 186.721C119.909 185.539 121.618 185.831 122.843 186.074C126.662 186.832 130.397 184.703 133.71 182.658C134.152 182.385 134.741 182.904 134.731 183.423C134.721 183.943 134.347 184.376 133.982 184.745C130.679 188.083 125.74 190.367 121.274 188.914C120.276 188.589 119.166 187.714 119.505 186.721Z"
        fill="#00160A" />
    <path fill-rule="evenodd" clip-rule="evenodd"
        d="M252.149 206.951C250.861 206.706 250.193 205.142 250.434 203.853C250.675 202.564 251.55 201.5 252.376 200.481C255.496 196.633 258.34 192.541 260.581 188.122C262.508 184.322 263.985 180.293 266.151 176.624C272.352 166.128 284.378 159.342 296.568 159.461C291.683 155.964 285.908 153.896 280.058 152.527C261.965 148.294 242.415 150.591 225.795 158.903C223.168 160.217 220.606 161.678 217.866 162.737C216.603 163.226 215.205 163.629 213.911 163.229C212.616 162.829 211.6 161.304 212.202 160.091C212.549 159.391 213.297 159 213.997 158.654C221.078 155.16 228.188 151.654 235.693 149.201C252.483 143.714 271.034 143.77 287.791 149.357C293.413 151.231 299.289 154.144 301.723 159.548C302.097 160.377 302.131 161.702 301.232 161.838C291.576 163.293 281.751 166.634 275.086 173.771C266.454 183.014 264.364 197.207 255.003 205.711C254.206 206.435 253.207 207.153 252.149 206.951Z"
        fill="#00160A" />
    <path fill-rule="evenodd" clip-rule="evenodd"
        d="M394.326 251.116C400.116 253.463 406.28 256.116 409.599 261.409C412.918 266.702 411.396 275.36 405.35 276.933C382.834 282.79 359.779 272.117 338.167 263.502C316.555 254.887 290.512 248.56 271.24 261.594C227.808 290.969 170.428 286.092 118.699 277.527C106.289 275.472 91.3605 270.951 88.7801 258.64C65.028 263.111 40.806 265.082 16.6434 264.509C10.7454 264.37 3.78268 263.441 1.02622 258.225C-2.54537 251.466 3.86605 243.798 10.11 239.388C29.1776 225.92 52.4574 218.511 75.8014 218.479C82.4507 218.47 86.89 211.522 88.5828 205.091C90.2756 198.661 90.7499 191.506 95.0676 186.449C80.385 184.245 64.8305 188.727 53.5721 198.406C51.4825 200.203 47.9554 198.399 47.0783 195.787C46.2012 193.175 47.1048 190.333 48.0325 187.738C53.2273 173.209 59.7405 158.447 71.5469 148.513C83.3533 138.579 96.4209 134.809 114.165 142.889C118.812 145.005 125.449 148.765 134.075 154.168C143.609 153.379 150.76 152.546 155.528 151.669C169.677 149.068 182.796 142.643 195.621 136.126C240.312 113.419 286.135 88.1383 336.244 86.712C384.18 85.3476 430.135 106.277 470.187 132.653C477.722 137.615 485.288 142.864 493.96 145.356C502.631 147.848 512.822 147.086 519.499 141.018C546.446 116.535 589.841 112.441 620.89 131.453C651.94 150.466 668.022 190.979 658.464 226.11C648.907 261.242 614.518 288.024 578.116 288.687C559.255 289.03 541.814 298.046 523.791 303.619C505.769 309.191 484.093 310.621 469.999 298.083C454.808 284.569 456.542 256.723 473.292 245.199C446.97 247.171 420.648 249.143 394.326 251.116ZM546.69 202.555C533.407 189.194 513.589 182.661 494.964 185.503C503.982 182.701 513.645 181.995 522.974 183.456C496.529 145.266 453.85 121.412 410.35 105.116C389.21 97.1966 367.195 90.6867 344.626 90.1885C315.245 89.5398 286.61 99.0893 259.472 110.367C229.686 122.745 200.874 137.325 172.094 151.89C180.974 151.436 189.974 155.338 195.713 162.129C171.607 152.189 143.054 153.722 120.151 166.185C120.261 161.632 123.9 157.411 128.387 156.632C115.282 145.085 95.1479 142.282 79.3868 149.811C63.6257 157.34 53.1532 174.763 53.8996 192.214C67.2101 181.206 86.408 177.801 102.692 183.562C92.9995 199.735 87.9959 218.682 88.4389 237.531C93.5321 235.386 99.8081 236.395 103.972 240.029C99.3198 240.529 94.6675 241.03 90.0152 241.53C90.2118 243.653 90.4084 245.776 90.605 247.898C95.5278 247.173 100.451 246.447 105.373 245.721C102.205 249.366 97.7379 251.857 92.9723 252.636C92.374 258.7 96.5835 264.422 101.865 267.462C107.146 270.502 113.349 271.408 119.383 272.258C134.422 274.377 149.462 276.496 164.501 278.614C161.013 274.681 160.442 268.347 158.165 263.968C155.216 258.296 150.957 255.986 148.822 248.462C148.086 245.866 146.388 242.211 148.764 240.56C149.762 239.867 151.061 239.84 152.277 239.839C157.241 239.834 162.206 239.829 167.17 239.823C168.775 239.822 170.452 239.837 171.87 240.587C176.167 242.86 174.81 249.573 171.601 253.224C168.392 256.875 163.804 259.791 162.708 264.526C161.582 269.391 164.857 274.434 169.207 276.886C173.556 279.338 178.732 279.753 183.722 279.924C194.24 280.284 204.786 279.796 215.226 278.468C241.507 275.124 269.507 264.415 281.705 240.897C280.967 246.825 277.87 252.427 273.241 256.203C292.388 249.15 314.072 249.229 333.168 256.421C351.278 263.242 368.461 276.415 387.667 274.051C386.844 273.383 386.525 272.23 385.702 271.562C383.461 269.745 380.717 268.414 378.476 266.597C385.324 269.102 392.172 271.607 399.02 274.112C398.242 272.973 399.02 271.824 397.571 270.081C396.123 268.339 392.959 265.231 391.095 262.5C396.281 264.009 400.826 267.608 403.484 272.31C405.7 271.768 407.916 271.225 410.132 270.683C398.881 255.496 383.326 243.533 365.759 236.557C357.236 233.173 346.67 229.122 345.604 220.014C364.761 238.514 392.214 246.406 418.84 246.97C445.466 247.533 471.738 241.484 497.682 235.47C491.742 232.468 486.387 228.315 482 223.31C511.139 239.636 543.742 249.745 577.006 252.769C575.119 249.571 573.232 246.373 571.346 243.175C575.472 243.292 579.328 246.422 580.291 250.436C582.361 249.621 584.43 248.806 586.499 247.992C583.621 245.17 580.743 242.348 577.865 239.526C582.495 238.41 587.689 241.981 588.306 246.703C590.243 245.696 591.842 244.05 592.794 242.085C589.352 239.48 585.91 236.874 582.468 234.269C587.686 234.163 592.922 235.908 597.032 239.124C592.17 227.303 575.717 227.021 564.788 220.392C557.519 215.982 552.684 208.584 546.69 202.555ZM521.948 168.591C528.449 170.167 535.256 168.946 541.945 168.966C548.876 168.987 555.779 170.362 562.273 172.783C566.281 174.277 570.288 176.285 572.894 179.678C577.025 185.056 576.665 192.857 573.783 198.996C570.901 205.134 565.914 209.986 561.032 214.694C571.28 219.265 581.528 223.837 591.776 228.409C594.672 229.7 597.802 231.216 599.126 234.097C601.415 239.079 596.971 244.544 592.406 247.58C578.165 257.052 558.797 258.214 543.525 250.512C533.728 245.571 522.867 243.214 512.14 240.904C506.283 239.643 500.183 238.382 494.365 239.809C490.236 240.822 486.343 243.17 482.094 243.026C478.297 242.897 475.345 246.175 473.12 249.255C465.799 259.387 459.763 272.335 464.05 284.078C466.997 292.152 474.466 297.968 482.605 300.728C490.745 303.488 499.542 303.566 508.12 303.02C518.855 302.337 529.792 300.633 539.22 295.452C545.358 292.078 550.852 287.243 557.642 285.522C565.789 283.457 574.372 286.228 582.754 285.616C589.429 285.128 595.746 282.516 601.857 279.788C616.786 273.125 631.717 265.259 642.306 252.805C658.096 234.232 661.851 207.017 654.306 183.836C646.762 160.656 628.933 141.597 607.595 129.809C601.728 126.568 595.551 123.814 589.047 122.196C573.433 118.313 556.343 121.371 542.698 129.896C535.673 134.286 529.569 140.005 522.685 144.613C515.802 149.221 507.71 152.771 499.465 151.966C505.819 158.988 512.745 166.36 521.948 168.591ZM30.4965 232.082C20.9323 235.811 11.3624 240.758 5.30079 249.043C8.08976 247.506 11.5918 247.335 14.5169 248.594C12.3846 249.648 10.2523 250.701 8.11993 251.755C6.92539 252.345 5.69062 252.967 4.86098 254.01C4.03133 255.052 3.73132 256.644 4.53452 257.707C5.33772 258.77 7.36909 258.672 7.75764 257.398C9.18326 252.722 14.6884 249.733 19.3866 251.084C15.858 253.094 12.0049 255.516 11.0285 259.458C11.5561 261.234 14.1565 261.526 15.6849 260.479C17.2132 259.432 17.976 257.617 18.8549 255.986C19.7339 254.356 21.0104 252.686 22.8436 252.418C23.2305 252.361 23.6727 252.391 23.9413 252.675C24.4096 253.17 24.023 253.979 23.5824 254.499C22.5841 255.678 21.31 256.709 20.8192 258.173C20.3284 259.637 21.2055 261.684 22.7468 261.59C44.3894 260.268 65.9911 258.279 87.511 255.626C88.2887 253.941 85.926 252.573 84.0878 252.324C79.4217 251.691 74.6218 252.065 70.1098 253.412C70.9433 250.639 73.744 248.823 76.5926 248.303C79.4412 247.783 82.3646 248.317 85.2107 248.851C85.2329 246.853 84.8598 244.85 84.1192 242.993C79.5941 242.899 75.1087 241.387 71.4491 238.724C74.508 237.58 78.0616 237.84 80.9207 239.419C82.286 240.173 83.3034 237.966 83.3259 236.407C83.3991 231.339 83.4724 226.271 83.5456 221.203C65.4177 221.798 47.3954 225.494 30.4965 232.082ZM528.372 185.474C533.868 186.266 538.175 190.439 542.071 194.396C547.06 199.465 552.05 204.535 557.04 209.604C558.535 211.123 561.019 209.48 562.451 207.901C565.668 204.351 568.946 200.709 570.804 196.292C572.661 191.876 572.862 186.459 570.093 182.549C568.448 180.226 565.942 178.659 563.373 177.431C559.133 175.404 554.534 174.132 549.855 173.694C545.293 173.267 540.698 173.626 536.115 173.592C531.009 173.554 525.906 173.026 520.9 172.018C522.399 175.793 523.898 179.568 525.396 183.343C525.617 183.898 525.855 184.479 526.319 184.854C526.883 185.31 527.655 185.371 528.372 185.474Z"
        fill="#00160A" />
</svg>