<svg width="595" height="554" viewBox="0 0 595 554" fill="none" xmlns="http://www.w3.org/2000/svg">
<g clip-path="url(#clip0_0_5538)">
<path fill-rule="evenodd" clip-rule="evenodd" d="M138.077 304.068C138.8 307.558 137.991 311.204 136.668 314.514C137 314.83 137.331 315.145 137.663 315.461C144.282 310.308 151.004 305.048 155.817 298.177C157.844 295.283 155.449 291.057 152.202 289.662C148.955 288.268 145.263 288.698 141.732 288.548C137.484 288.369 133.275 287.3 129.456 285.43C123.91 282.717 118.822 278.24 112.649 278.148C111.968 278.138 111.238 278.2 110.702 278.622C109.397 279.65 110.194 281.743 111.175 283.085C116.042 289.743 123.337 294.586 131.363 296.484C134.833 297.304 137.354 300.577 138.077 304.068Z" fill="#64A8E7"/>
<path fill-rule="evenodd" clip-rule="evenodd" d="M244.562 405.771L156.811 425.356C138.876 429.358 121.092 418.064 117.089 400.129C115.16 391.484 116.757 382.427 121.527 374.964L169.942 299.203C184.847 275.88 189.838 247.577 183.809 220.562L164.225 132.811C160.222 114.876 171.516 97.0919 189.451 93.0891C198.096 91.1598 207.153 92.7568 214.616 97.5264L290.377 145.942C313.7 160.847 342.004 165.838 369.018 159.809L456.769 140.224C474.704 136.222 492.488 147.516 496.491 165.451C498.42 174.096 496.823 183.153 492.054 190.616L443.638 266.377C428.733 289.7 423.742 318.004 429.771 345.018L449.356 432.769C453.359 450.704 442.064 468.488 424.129 472.491C415.484 474.42 406.427 472.823 398.964 468.054L323.203 419.638C299.88 404.733 271.577 399.742 244.562 405.771Z" fill="#64A8E7"/>
<path d="M553.197 371.608C553.197 371.608 159.941 371.816 4.24133 371.608C-7.97944 344.967 7.39464 309.369 35.1676 300C26.4758 309.916 17.784 319.832 9.09221 329.747C24.3632 329.594 553.197 329.747 553.197 329.747V371.608Z" fill="white"/>
<path fill-rule="evenodd" clip-rule="evenodd" d="M426.363 371.667C231.103 371.742 90.3961 371.723 4.24141 371.608C-7.97936 344.967 291.669 356.186 405.295 356.186C518.92 356.186 466.353 371.651 426.363 371.667Z" fill="#E7EAEE"/>
<path fill-rule="evenodd" clip-rule="evenodd" d="M345.044 66.1912C346.432 64.609 349.171 64.492 350.689 65.9502C345.787 56.2413 331.445 53.3308 328.364 42.9001C324.419 29.5476 318.601 16.7502 311.133 5C308.025 16.5523 302.088 27.3326 293.986 36.1347C291.879 36.1442 289.771 36.1537 287.663 36.1632C282.875 36.1847 278.044 36.2108 273.368 37.2403C264.954 39.0924 257.413 44.1098 248.889 45.3582C249.521 44.567 250.152 43.7757 250.784 42.9845C250.608 42.1679 249.425 41.7943 248.812 42.362C247.732 38.0672 244.254 34.6947 240.309 32.6843C236.363 30.6739 230.545 26.932 218.899 27.9163C233.029 43.7329 228.653 109.579 232.129 122.058C233.314 122.374 234.222 121.078 234.993 120.124C235.764 119.17 237.564 118.583 237.981 119.738C240.875 127.76 241.286 140.106 250.158 144.886C251.87 145.808 252.888 144.085 252.755 143.245C252.586 142.173 253.874 141.347 254.947 141.51C256.021 141.672 256.879 142.45 257.716 143.141C271.828 154.793 294.935 148.787 309.063 160.419C311.855 162.717 314.315 165.712 317.799 166.68C319.878 167.257 322.093 167.03 324.217 166.649C336.864 164.382 348.124 156.878 356.908 147.501C365.692 138.124 372.25 126.912 378.356 115.607C372.73 112.421 366.816 108.949 363.759 103.251C361.351 98.7623 359.87 92.3277 354.806 91.7791C356.412 96.9965 358.019 102.214 359.625 107.431C360.213 109.342 360.808 111.334 360.497 113.309C360.186 115.283 358.677 117.223 356.681 117.323C353.971 117.459 352.063 114.393 349.373 114.044C348.863 124.135 344.988 134.028 338.509 141.781C336.26 144.471 331.937 146.914 329.655 144.252C333.118 138.657 336.582 133.061 340.045 127.466C342.204 123.979 344.418 120.331 344.814 116.249C345.21 112.168 343.186 107.538 339.261 106.348C339.086 105.268 340.225 104.342 341.318 104.309C342.41 104.277 343.417 104.856 344.356 105.416C347.849 107.499 351.343 109.583 354.836 111.667C353.722 103.383 351.442 95.2561 348.086 87.6006C351.338 87.2926 354.663 87.7894 357.682 89.0346C355.357 82.3092 351.095 76.2661 345.54 71.8192C343.896 70.5038 343.656 67.7735 345.044 66.1912Z" fill="white"/>
<path fill-rule="evenodd" clip-rule="evenodd" d="M275.275 48.339C278.153 50.2441 280.423 53.0531 281.683 56.2668C282.074 57.2662 283.187 57.7483 283.937 58.5157C284.688 59.2831 284.812 60.9232 283.76 61.1376C283.3 61.2313 282.849 60.9779 282.446 60.7373C275.993 56.8841 268.145 53.773 261.105 56.4047C262.263 56.9959 262.847 58.5131 262.386 59.7281C263.822 59.78 265.162 60.4263 266.453 61.0597C267.59 61.6176 268.727 62.1755 269.863 62.7333C269.744 63.069 269.625 63.4046 269.506 63.7403C264.366 61.1231 258.088 60.851 252.741 63.0136C254.518 63.2836 256.329 63.3329 258.118 63.1602C260.727 64.4751 263.336 65.7899 265.944 67.1048C266.525 67.3973 267.137 67.7189 267.464 68.2808C267.79 68.8428 267.666 69.7141 267.059 69.9458C262.345 65.7883 255.677 63.95 249.498 65.1045C248.777 65.2393 248.284 64.2336 248.59 63.567C248.896 62.9004 249.63 62.5583 250.312 62.2896C253.737 60.9412 257.349 60.0689 261.012 59.7058C259.179 58.0073 257.057 56.6225 254.765 55.6294C254.387 54.3382 256.25 53.1006 257.294 53.949C265.227 52.394 273.725 53.937 280.605 58.1814C280.663 56.8318 279.662 55.697 278.725 54.7234C275.798 51.6802 272.87 48.637 269.943 45.5938C275.069 46.2432 280.094 47.6865 284.783 49.8564C285.843 50.3471 286.891 50.877 287.852 51.5421C291.469 54.0467 293.623 58.527 293.318 62.9166C291.126 58.2846 287.657 54.2649 283.396 51.4192C280.96 49.7927 278.198 48.5262 275.275 48.339V48.339Z" fill="#E7EAEE"/>
<path fill-rule="evenodd" clip-rule="evenodd" d="M88.9385 267.27C81.5155 273.933 82.1635 285.722 84.8428 295.33C88.2896 307.691 94.1186 319.383 101.915 329.574L9.09221 330.507L35.1676 300.76C7.39464 310.129 -7.97944 345.727 4.24133 372.368C159.941 372.575 315.64 372.257 471.337 371.412C442.939 390.605 415.409 413.889 402.213 445.522C389.017 477.156 394.481 518.746 422.534 538.439C432.984 545.774 445.531 549.533 458.075 551.908C471.009 554.358 486.671 554.461 494.655 543.994C499.317 537.881 497.088 528.289 494.884 518.802C493.346 512.185 491.821 505.619 492.655 500.321C495.482 482.357 507.575 473.247 521.375 462.852C524.274 460.668 527.248 458.428 530.227 456.036C555.667 435.62 584.828 409.806 592.253 378.043C599.034 349.03 591.571 320.25 572.176 297.632C565.193 289.488 556.608 282.076 547.98 274.627C536.387 264.616 524.715 254.538 516.744 242.526C511.877 235.191 510.171 227.349 508.38 219.121C507.738 216.167 507.084 213.164 506.27 210.116C495.814 170.986 458.528 150.866 420.135 130.149L420.133 130.148L420.131 130.147L420.131 130.147L420.125 130.144C415.266 127.522 410.389 124.89 405.547 122.209C383.328 109.907 360.903 94.1613 353.769 69.5128C357.703 69.6662 359.162 63.7528 356.895 60.5334C355.209 58.1393 352.546 56.7921 349.889 55.4483L349.889 55.4482C348.973 54.985 348.058 54.5222 347.184 54.017C339.072 49.3271 334.421 39.7592 329.658 29.961C322.503 15.2404 315.094 0 295.315 0C294.569 4.99436 295.341 9.44377 296.064 13.6125C297.181 20.0551 298.182 25.8274 293.286 31.905C279.269 30.3505 264.778 33.4158 252.591 40.5132C245.545 27.1367 227.676 21.4227 213.191 25.7535C215.025 28.0623 216.113 29.2204 217.014 30.1804C218.919 32.2083 219.994 33.3523 225.52 42.5938C233.663 56.21 228.504 106.266 227.216 114.181C225.927 122.095 232.025 127.719 237.603 123.811C234.886 135.541 244.674 146.736 256.71 147.073C260.821 147.806 263.376 149.795 265.79 151.674C267.292 152.843 268.739 153.97 270.473 154.726C232.255 182.062 189.947 203.669 145.396 218.604L144.612 218.867C136.276 221.657 127.563 224.573 121.66 231.051C115.573 237.732 114.143 249.592 121.227 255.206C116.902 259.128 110.983 260.194 105.062 261.261C99.1646 262.323 93.2658 263.386 88.9385 267.27ZM483.742 320.173C476.845 326.691 463.341 327.032 453.852 326.993L330.794 326.489C327.239 321.765 329.438 314.505 334.03 310.783C338.623 307.06 344.806 306.058 350.699 305.591C369.721 304.085 389.066 306.818 406.926 313.534C411.941 314.426 415.749 308.098 414.537 303.151C413.325 298.204 409.112 294.665 405.194 291.41C392.552 280.908 380.156 269.081 374.222 253.754C368.068 237.859 369.853 219.108 378.896 204.66C363.714 217.272 360.524 240.455 367.342 258.977C374.16 277.499 389.133 291.906 405.356 303.147C396.496 304.964 387.297 302.94 378.192 300.937C367.159 298.51 356.262 296.112 346.27 300.614L344.21 244.41L338.869 293.675C338.472 297.338 337.319 301.87 333.698 302.551C323.871 304.4 318.044 317.27 323.14 325.875C318.748 328.838 312.049 327.513 309.117 323.1C306.185 318.688 307.559 311.998 311.992 309.098C322.746 302.063 323.597 286.91 323.304 274.063L321.285 185.367C321.236 183.226 321.721 180.411 323.842 180.116C354.891 175.802 382.497 152.473 391.927 122.578C419.444 134.904 446.965 149.117 469.169 168.69C519.981 213.483 506.044 250.728 502.398 260.471C501.759 262.178 501.436 263.041 501.832 262.952C504.366 262.386 505.568 259.533 506.27 257.034C507.909 251.195 508.976 245.195 509.451 239.149C517.837 254.728 531.189 266.565 544.567 278.425C556.796 289.266 569.046 300.126 577.547 313.882C590.658 335.095 593.402 362.397 584.776 385.795C574.586 413.435 551.166 432.77 528.066 451.84C522.516 456.423 516.983 460.99 511.658 465.654C500.511 475.415 489.296 487.509 488.936 502.321C488.84 506.29 489.549 510.202 490.259 514.12C490.76 516.89 491.263 519.662 491.482 522.46C492.01 529.215 490.344 536.9 484.623 540.532C482.211 542.063 479.342 542.694 476.514 543.103C447.194 547.337 411.279 527.497 402.915 499.078C394.708 471.191 409.114 436.787 428.042 414.724C439.801 401.018 455.016 391.224 470.282 381.396C479.589 375.405 488.915 369.401 497.487 362.492C505.521 356.017 513.455 349.038 518.539 340.059C523.622 331.08 525.448 319.665 520.882 310.412C517.139 302.829 509.763 297.564 502.531 292.4C493.436 285.908 484.568 279.577 483.437 269.004C483.576 273.754 485.581 279.076 487.569 284.351C489.302 288.95 491.022 293.514 491.479 297.632C492.461 306.474 490.208 314.063 483.742 320.173ZM498.705 302.042C511.058 302.177 518.313 317.815 514.838 329.669C511.363 341.524 501.157 349.962 491.479 357.639C486.624 361.491 481.263 365.531 475.065 365.577L7.7496 369.074L5.70209 332.822L95.8303 332.736C107.488 332.725 120.706 333.391 128.3 342.237C131.061 345.454 135.978 341.951 139.347 339.378C147.328 333.282 158.165 332.985 168.207 332.944L497.942 331.606C501.478 331.592 506.236 330.404 506.12 326.87L483.947 326.036C491.91 320.555 497.405 311.621 498.705 302.042ZM155.777 328.803C160.723 316.857 164.476 304.416 166.961 291.728C167.659 288.164 168.259 284.515 167.785 280.915C166.361 270.111 156.102 263 146.676 257.529C150.699 257.449 154.131 254.605 156.713 251.519C157.432 250.66 158.118 249.766 158.804 248.873C160.584 246.556 162.363 244.24 164.708 242.526C169.518 239.011 170.288 238.948 180.225 238.133L180.227 238.133L180.26 238.13C181.274 238.047 182.382 237.956 183.6 237.853C192.339 237.112 213.472 229.15 228.903 223.336L228.903 223.336L228.903 223.336C236.775 220.37 243.163 217.963 245.664 217.36C279.888 209.101 303.611 219.914 308.954 225.741C311.869 228.922 312.585 233.482 313.17 237.757C315.806 256.988 318.442 276.522 315.666 295.733C315.148 299.319 314.19 303.273 311.149 305.243C308.099 307.218 305.228 309.468 302.58 311.956C298.335 315.945 294.519 322.422 297.816 327.224L155.777 328.803ZM350.585 64.5238C349.067 63.0657 346.328 63.1826 344.94 64.7649C343.552 66.3471 343.792 69.0775 345.435 70.3929C350.991 74.8397 355.253 80.8829 357.578 87.6082C354.559 86.3631 351.234 85.8662 347.982 86.1742C351.338 93.8298 353.618 101.956 354.732 110.241L344.251 103.989C343.313 103.429 342.306 102.851 341.214 102.883C340.121 102.915 338.982 103.842 339.157 104.921C343.081 106.111 345.105 110.741 344.71 114.823C344.314 118.905 342.1 122.553 339.941 126.04L329.551 142.825C331.833 145.488 336.156 143.045 338.405 140.354C344.884 132.601 348.759 122.709 349.269 112.617C350.519 112.78 351.6 113.528 352.67 114.269C353.905 115.124 355.126 115.97 356.577 115.897C358.573 115.797 360.082 113.857 360.393 111.882C360.704 109.908 360.109 107.915 359.521 106.005L354.702 90.3528C358.63 90.7783 360.403 94.7457 362.124 98.5993C362.622 99.7134 363.115 100.818 363.655 101.825C366.712 107.522 372.626 110.995 378.252 114.181C372.146 125.486 365.588 136.698 356.804 146.075C348.02 155.452 336.76 162.956 324.113 165.222C321.989 165.603 319.774 165.831 317.695 165.253C315.09 164.53 313.057 162.673 311.031 160.821C310.347 160.197 309.663 159.572 308.959 158.992C301.899 153.18 292.597 151.772 283.296 150.364C273.984 148.954 264.672 147.544 257.612 141.715L257.522 141.64L257.411 141.548C256.637 140.904 255.831 140.233 254.843 140.083C253.77 139.92 252.482 140.747 252.651 141.819C252.784 142.659 251.766 144.382 250.054 143.459C243.452 139.902 241.535 132.156 239.794 125.12C239.195 122.7 238.617 120.364 237.877 118.311C237.46 117.157 235.66 117.743 234.889 118.698L234.842 118.756C234.796 118.814 234.749 118.873 234.701 118.932C233.971 119.849 233.116 120.923 232.025 120.631C230.723 115.844 231.177 110.433 231.616 105.198C231.794 103.067 231.971 100.965 232.025 98.9456C232.03 98.7629 232.086 98.2113 232.175 97.3463C233.183 87.4922 238.353 36.9714 218.9 27.9163C223.525 27.0046 230.989 27.8482 237.603 31.905C244.294 36.0093 249.102 43.534 248.785 43.9319C253.406 43.255 257.739 41.4703 262.078 39.6828C265.742 38.1734 269.411 36.6619 273.264 35.8139C277.94 34.7845 282.771 34.7584 287.559 34.7368L293.882 34.7083C300.695 27.3074 300.431 19.2001 300.125 9.79823L300.125 9.79626C300.067 8.01701 300.008 6.19139 299.995 4.31542C311.801 5.86608 324.315 28.1213 328.26 41.4737C329.907 47.0508 334.774 50.4779 339.695 53.9439C343.979 56.9603 348.304 60.006 350.585 64.5238ZM149.352 221.964C150.704 221.62 152.048 221.279 153.374 220.928C173.656 215.562 192.585 206.118 211.351 196.737C233.708 185.561 256.451 174.115 274.387 156.706C275.774 155.361 277.972 155.454 279.888 155.701C286.973 156.614 293.943 158.423 300.578 161.07C304.055 162.457 307.965 164.84 307.989 168.583C307.998 169.901 307.492 171.161 306.994 172.381L303.654 180.569C302.229 184.062 300.779 187.685 300.902 191.456C301.025 195.226 303.166 199.206 306.794 200.242C310.421 201.278 314.902 197.903 313.965 194.249C312.36 187.991 311.261 181.604 310.684 175.17C317.752 189.167 315.314 205.868 312.708 221.33C303.354 216.402 293.561 212.304 283.484 209.101C280.023 208.001 276.143 207.032 272.874 208.613C264.869 212.483 249.801 213.514 248.318 212.474C246.834 211.434 244.804 211.936 243.095 212.537C240.342 213.504 235.095 215.55 228.827 217.993L228.826 217.994L228.826 217.994L228.825 217.994L228.824 217.994L228.824 217.995C213.443 223.991 191.913 232.384 185.985 233.135C184.425 233.333 182.856 233.479 181.287 233.626L181.286 233.626C177.893 233.942 174.501 234.259 171.204 235.093C166.381 236.313 161.627 238.841 159.074 243.111C157.167 242.062 155.977 240.207 154.78 238.342L154.78 238.342C154.202 237.442 153.623 236.54 152.961 235.724C150.927 233.219 146.657 231.673 144.707 234.244C142.996 228.393 134.335 226.135 129.985 230.405C129.313 231.065 128.752 231.825 128.191 232.586C127.608 233.376 127.025 234.166 126.318 234.844C124.929 236.172 122.706 236.99 121.095 235.943C127.68 227.466 138.766 224.651 149.352 221.964ZM127.887 328.215C122.918 330.003 117.436 328.261 112.507 326.367C107.847 324.577 102.984 322.442 100.153 318.33C96.7465 313.383 97.1137 306.854 97.6157 300.868L99.7184 275.792C96.6002 278.415 94.31 282.007 93.2489 285.941C90.7292 280.382 94.4772 272.958 100.446 271.684C97.9243 269.595 93.7735 270.966 91.9937 273.714C90.2139 276.462 90.2543 280.001 90.7746 283.234C90.9149 284.105 91.0858 284.976 91.2566 285.846L91.2567 285.846L91.2568 285.847L91.2568 285.847L91.2569 285.847C91.7196 288.204 92.1824 290.562 92.0398 292.948C88.2933 287.094 87.5792 279.407 90.1831 272.963C91.3624 270.044 93.4526 267.188 96.5093 266.437C99.566 265.685 103.349 268.183 102.843 271.289C101.682 278.409 105.002 285.718 110.094 290.829C115.185 295.94 121.857 299.159 128.591 301.745C131.07 302.697 134.152 304.877 132.943 307.241C131.681 309.71 130.81 312.504 131.244 315.243C131.677 317.982 133.684 320.599 136.416 321.071C139.784 321.653 142.781 319.044 145.202 316.632L159.507 302.381C157.601 307.677 155.364 312.854 152.816 317.873C151.07 321.311 149.073 324.792 145.917 327.007C142.76 329.221 138.14 329.797 135.154 327.358C133.491 325.998 131.221 326.902 129.109 327.744L129.108 327.744L129.107 327.745C128.692 327.91 128.283 328.073 127.887 328.215ZM126.471 278.345C125.136 277.46 123.801 276.574 122.417 275.794C118.13 273.375 112.437 272.075 108.502 275.031C107.24 270.971 109.734 266.61 112.987 263.871C118.741 259.027 127.177 257.606 134.201 260.299C140.86 262.851 147.619 265.63 152.908 270.413C158.198 275.197 161.814 282.43 160.455 289.431C158.968 289.793 157.726 288.599 156.566 287.482C156.345 287.269 156.126 287.059 155.91 286.863C152.62 283.887 148.108 283.807 143.509 283.724H143.509C140.713 283.674 137.885 283.624 135.281 282.922C132.063 282.054 129.27 280.201 126.471 278.345ZM136.669 314.514C137.992 311.204 138.801 307.559 138.078 304.068C137.355 300.577 134.833 297.305 131.364 296.484C123.338 294.586 116.042 289.744 111.176 283.085C110.195 281.743 109.397 279.65 110.703 278.622C111.239 278.201 111.968 278.138 112.65 278.148C117.045 278.214 120.89 280.502 124.742 282.794C126.3 283.721 127.859 284.649 129.456 285.431C133.276 287.3 137.484 288.369 141.733 288.549C142.584 288.585 143.445 288.587 144.307 288.59C147.018 288.597 149.739 288.604 152.203 289.663C155.45 291.057 157.845 295.283 155.818 298.178C151.005 305.048 144.283 310.308 137.663 315.461L136.669 314.514ZM380.29 118.13C381.029 116.796 382.125 115.263 383.64 115.435C385.603 115.659 385.998 118.337 385.728 120.293C383.817 134.173 375.225 146.514 364.294 155.279C353.364 164.045 340.213 169.594 326.91 173.993C325.996 174.295 325.1 174.865 324.219 175.425C322.537 176.495 320.914 177.528 319.336 176.582C317.517 175.491 317.981 172.499 319.636 171.172C321.138 169.969 323.138 169.711 325.065 169.462C325.262 169.437 325.458 169.412 325.653 169.385C338.515 167.654 350.002 160.023 358.789 150.472C367.576 140.921 374.005 129.485 380.29 118.13ZM141.802 235.045C142.96 236.425 144.237 237.946 145.996 237.908C147.475 237.876 148.396 239.078 149.351 240.322C150.028 241.205 150.722 242.109 151.643 242.611C153.846 243.812 154.035 247.155 152.589 249.206C151.143 251.256 148.634 252.254 146.207 252.888C141.257 254.181 136.031 254.404 130.99 253.539C127.702 252.974 124.293 251.818 122.221 249.204C120.148 246.589 120.089 242.198 122.833 240.301C123.751 239.666 124.856 239.37 125.955 239.076C127.265 238.725 128.566 238.377 129.53 237.46C130.246 236.779 130.674 235.871 131.102 234.964C131.551 234.014 131.998 233.066 132.774 232.381C134.03 231.273 135.934 231.121 137.515 231.675C139.096 232.229 140.395 233.388 141.481 234.664L141.581 234.783L141.639 234.852L141.802 235.045ZM132.534 337.111C132.025 337.312 131.452 337.344 130.924 337.202C130.414 337.065 129.948 336.765 129.612 336.357C128.243 334.698 130.151 331.699 132.234 332.237C134.316 332.774 134.535 336.322 132.534 337.111ZM301.868 326.703C301.361 327.31 300.126 327.246 299.995 326.467C299.455 323.261 299.198 319.317 301.85 317.436L302.299 324.432C302.35 325.221 302.375 326.096 301.868 326.703ZM275.275 43.339C278.153 45.2441 280.424 48.0531 281.683 51.2668C281.939 51.9218 282.506 52.3546 283.077 52.7911C283.377 53.0207 283.678 53.2513 283.937 53.5157C284.688 54.2831 284.812 55.9233 283.76 56.1376C283.3 56.2313 282.849 55.978 282.446 55.7373C275.993 51.8841 268.145 48.773 261.105 51.4048C262.263 51.996 262.847 53.5131 262.386 54.7281C263.823 54.7801 265.162 55.4263 266.453 56.0597L269.864 57.7334L269.506 58.7403C264.366 56.1231 258.088 55.851 252.741 58.0136C254.518 58.2836 256.329 58.333 258.118 58.1602L265.945 62.1048C266.525 62.3973 267.137 62.7189 267.464 63.2809C267.79 63.8428 267.666 64.7142 267.059 64.9458C262.345 60.7883 255.677 58.95 249.498 60.1046C248.777 60.2393 248.284 59.2336 248.59 58.567C248.896 57.9004 249.63 57.5584 250.312 57.2896C253.737 55.9412 257.349 55.0689 261.012 54.7058C259.18 53.0074 257.057 51.6225 254.765 50.6294C254.387 49.3382 256.25 48.1006 257.294 48.949C265.227 47.394 273.726 48.937 280.605 53.1814C280.663 51.8318 279.662 50.697 278.725 49.7235L269.943 40.5938C275.069 41.2433 280.094 42.6865 284.783 44.8564C285.844 45.3471 286.891 45.877 287.852 46.5422C291.47 49.0467 293.623 53.527 293.318 57.9167C291.126 53.2846 287.657 49.2649 283.396 46.4193C280.96 44.7927 278.198 43.5263 275.275 43.339ZM293.335 85.9671C292.837 82.0935 292.814 77.9616 294.657 74.518C295.208 73.4882 295.973 72.4987 297.058 72.067C298.718 71.4065 300.63 72.2495 301.939 73.4655C305.189 76.4823 305.88 81.3689 305.601 85.7937C305.48 87.7164 305.198 89.683 304.255 91.3631C303.313 93.0433 301.589 94.395 299.662 94.4234C297.729 94.4519 295.963 93.1442 294.957 91.4922C293.951 89.8403 293.581 87.8855 293.335 85.9671ZM247.084 100.377C243.43 94.7854 243.677 86.9195 247.673 81.5672C248.151 80.9276 248.694 80.3079 249.403 79.9422C250.785 79.2299 252.551 79.6594 253.749 80.6514C254.946 81.6434 255.666 83.0962 256.187 84.5612C257.731 88.9007 257.795 93.7518 256.366 98.1304C255.499 100.786 253.351 103.659 250.599 103.179C249.079 102.914 247.928 101.668 247.084 100.377ZM282.181 129.099C282.62 128.977 283.057 128.856 283.38 128.547C284.065 127.892 283.824 126.626 283.047 126.083C282.269 125.541 281.178 125.635 280.349 126.094C279.51 126.56 278.843 127.48 278.985 128.429C279.127 129.378 280.341 130.087 281.121 129.529C281.431 129.308 281.807 129.203 282.181 129.099ZM292.047 113.681C298.113 112.337 301.504 112.507 306.708 113.834L307.805 114.12C312.998 115.476 316.242 115.482 322.833 113.345C323.621 113.09 324.467 113.521 324.722 114.309C324.978 115.098 312.951 118.515 307.453 117.126L306.439 116.863C301.377 115.533 298.432 115.339 292.696 116.61C291.887 116.789 291.086 116.279 290.907 115.47C290.728 114.661 291.238 113.861 292.047 113.681ZM339.694 99.194C339.328 98.4507 338.429 98.1448 337.685 98.5107C327.01 103.765 321.096 104.45 311.361 103.207L308.905 102.903C308.625 102.871 308.379 102.845 308.12 102.82L307.243 102.742C301.447 102.286 296.852 103.27 290.956 106.791C290.245 107.216 290.013 108.137 290.437 108.848C290.862 109.559 291.783 109.792 292.494 109.367C297.98 106.09 302.03 105.278 307.444 105.77C307.803 105.802 308.102 105.832 308.449 105.87L312.049 106.313C321.72 107.436 340.06 99.9373 339.694 99.194ZM265.635 113.276C266.462 113.217 267.179 113.839 267.238 114.666C267.297 115.492 266.675 116.209 265.849 116.268C262.429 116.512 260.074 117.675 256.538 120.524L255.259 121.58L254.84 121.931C254.615 122.12 254.423 122.28 254.351 122.34C251.235 124.938 249.159 126.354 246.405 127.484C245.639 127.798 240.345 128.875 244.448 126.665C248.551 124.455 253.897 118.809 253.897 118.809L254.68 118.168C258.647 114.975 261.486 113.571 265.635 113.276ZM267.886 120.452C267.561 119.69 266.68 119.336 265.918 119.661C262.153 121.268 260.033 123.323 256.47 127.985L255.37 129.416C254.65 130.338 254.045 131.269 253.459 132.172C252.166 134.163 250.96 136.021 248.783 137.36C245.618 139.306 250.14 138.286 250.846 137.852C253.656 136.124 255.478 134.217 258.322 130.503L259.147 129.425C262.234 125.423 264.036 123.726 267.096 122.42C267.858 122.095 268.212 121.214 267.886 120.452Z" fill="#00160A"/>
<path fill-rule="evenodd" clip-rule="evenodd" d="M273.141 115.688C271.914 114.582 270.132 114.243 268.933 113.106C267.797 112.028 267.362 110.271 267.865 108.787C268.367 107.304 269.781 106.173 271.338 106.008C275.805 105.534 280.273 105.061 284.74 104.587C285.8 104.475 286.972 104.39 287.831 105.022C289.143 105.987 288.936 108.095 287.988 109.419C287.04 110.742 285.579 111.595 284.437 112.755C282.965 114.25 282.044 116.277 281.887 118.369C281.77 119.923 281.939 121.775 280.708 122.73C279.162 123.928 276.876 122.512 275.93 120.8C274.984 119.088 274.594 116.997 273.141 115.688H273.141Z" fill="#FFB61D"/>
<path fill-rule="evenodd" clip-rule="evenodd" d="M454.286 327.415C463.775 327.454 477.279 327.113 484.176 320.596C490.642 314.486 492.895 306.896 491.913 298.054C490.931 289.213 484.13 278.318 483.871 269.426C485.902 288.408 512.867 293.716 521.315 310.834C525.882 320.087 524.056 331.502 518.972 340.481C513.889 349.46 505.955 356.439 497.921 362.914C475.288 381.156 447.404 393.084 428.476 415.147C409.548 437.209 395.142 471.614 403.349 499.5C411.713 527.919 447.628 547.759 476.948 543.525C479.776 543.117 482.645 542.486 485.057 540.954C490.777 537.322 492.444 529.637 491.915 522.882C491.387 516.127 489.205 509.517 489.37 502.743C489.73 487.931 500.944 475.837 512.091 466.076C539.58 442.005 572.571 420.5 585.209 386.217C593.836 362.819 591.091 335.517 577.981 314.304C560.178 285.498 525.935 269.389 509.885 239.571C509.41 245.617 508.342 251.617 506.703 257.456C506.002 259.955 504.8 262.808 502.266 263.375C499.606 263.969 529.317 221.753 469.602 169.112C447.398 149.539 419.878 135.326 392.36 123C382.93 152.895 355.325 176.224 324.276 180.538C322.154 180.833 321.67 183.648 321.718 185.789C322.392 215.354 323.065 244.92 323.738 274.485C324.03 287.332 323.179 302.486 312.426 309.52C307.992 312.42 306.619 319.11 309.55 323.522C312.482 327.935 319.182 329.261 323.573 326.297C318.478 317.693 324.304 304.823 334.132 302.973C337.752 302.292 338.905 297.76 339.302 294.098C341.083 277.676 342.863 261.254 344.644 244.832C345.33 263.567 346.017 282.302 346.704 301.036C364.942 292.819 386.193 307.587 405.79 303.569C389.566 292.329 374.594 277.921 367.776 259.399C360.958 240.877 364.148 217.694 379.329 205.082C370.286 219.53 368.501 238.281 374.655 254.176C380.589 269.503 392.986 281.33 405.628 291.832C409.546 295.087 413.759 298.626 414.971 303.573C416.183 308.521 412.375 314.848 407.359 313.957C389.5 307.241 370.154 304.508 351.133 306.014C345.239 306.48 339.057 307.482 334.464 311.205C329.871 314.928 327.673 322.188 331.228 326.912C372.247 327.079 413.266 327.247 454.286 327.415Z" fill="white"/>
<path fill-rule="evenodd" clip-rule="evenodd" d="M476.514 543.103C479.342 542.694 482.211 542.063 484.623 540.532C490.344 536.9 492.01 529.215 491.482 522.46C490.953 515.704 488.772 509.095 488.936 502.321C489.296 487.509 500.511 475.415 511.658 465.654C539.146 441.583 572.137 420.077 584.776 385.795C589.836 372.069 526.296 414.043 491.482 463.461C466.951 498.282 464.394 544.853 476.514 543.103Z" fill="#E7EAEE"/>
<path fill-rule="evenodd" clip-rule="evenodd" d="M499.889 201.748C495.581 191.376 483.575 181.389 469.168 168.69C446.965 149.116 419.444 134.904 391.927 122.578C418.909 142.233 451.803 158.641 475.21 183.31C486.618 195.334 494.336 219.565 500.786 227.352C505.723 233.313 512.172 231.328 499.889 201.748Z" fill="#E7EAEE"/>
<path fill-rule="evenodd" clip-rule="evenodd" d="M309.755 197.68C310.734 195.543 311.422 185.683 306.267 185.683C303.052 189.333 303.382 196.338 309.755 197.68Z" fill="#FFB61D"/>
<path fill-rule="evenodd" clip-rule="evenodd" d="M153.374 220.928C141.671 224.025 128.521 226.383 121.095 235.943C122.706 236.99 124.929 236.172 126.318 234.843C127.706 233.515 128.614 231.751 129.985 230.405C134.335 226.134 142.996 228.393 144.707 234.244C146.657 231.673 150.927 233.219 152.961 235.724C154.995 238.229 156.247 241.556 159.074 243.111C161.627 238.841 166.381 236.313 171.204 235.093C176.027 233.873 181.05 233.76 185.985 233.135C194.329 232.078 202.482 229.529 209.942 225.645C209.488 226.576 240.397 213.173 268.681 211.23C289.335 209.811 308.76 219.25 312.708 221.33C315.314 205.868 317.752 189.167 310.684 175.17C311.261 181.604 312.36 187.991 313.965 194.249C314.902 197.903 310.421 201.278 306.794 200.242C303.166 199.206 301.025 195.226 300.902 191.456C300.779 187.685 302.229 184.062 303.654 180.569C304.767 177.84 305.881 175.11 306.994 172.381C307.492 171.161 307.998 169.901 307.989 168.583C307.965 164.84 304.055 162.457 300.578 161.07C293.943 158.423 286.973 156.614 279.888 155.701C277.972 155.454 275.774 155.361 274.387 156.706C256.451 174.115 233.708 185.561 211.351 196.737C192.585 206.118 173.656 215.562 153.374 220.928Z" fill="white"/>
<path fill-rule="evenodd" clip-rule="evenodd" d="M159.074 243.111C161.627 238.841 166.381 236.313 171.204 235.093C176.027 233.873 181.05 233.76 185.985 233.135C187.911 232.891 195.818 231.643 206.082 228.042C220.923 222.835 241.295 214.522 260.705 212.407C286.041 209.646 308.634 219.184 312.708 221.33C315.314 205.868 306.501 207.725 301.769 207.236C197.162 196.431 156.247 241.556 159.074 243.111Z" fill="#E7EAEE"/>
</g>
<defs>
<clipPath id="clip0_0_5538">
<rect width="595" height="554" fill="white"/>
</clipPath>
</defs>
</svg>
