<svg width="750" height="750" viewBox="0 0 750 750" fill="none" xmlns="http://www.w3.org/2000/svg">
<path fill-rule="evenodd" clip-rule="evenodd" d="M547.67 462.866C536.763 467.131 524.145 473.532 522.975 485.185C537.792 473.786 556.094 466.983 574.759 465.938C561.864 482.184 545.582 495.729 527.261 505.451C510.807 514.182 489.976 523.494 488.565 542.067C506.235 521.025 533.404 508.286 560.881 508.159C543.302 533.906 515.114 552.169 484.431 557.69C485.484 565.602 519.504 582.548 529.413 585.809C536.47 616.126 539.527 655.442 546.584 685.759C548.32 693.22 549.849 701.792 545.281 707.941C540.749 714.04 532.19 715.09 524.61 715.628C494.737 717.752 453.863 719.876 423.989 721.999C420.413 705.795 416.836 689.591 413.259 673.386C362.869 678.065 146.842 727.569 107.197 701.599C-45.8417 601.345 149.31 567.194 153.504 445.135C154.465 417.148 70.3191 368.226 71.655 339.628C72.5274 320.954 75.4182 302.713 84.6573 286.678C93.8965 270.644 108.537 258.292 124.449 248.844C102.542 243.213 85.9479 221.375 86.3919 198.76C86.8358 176.145 104.274 154.975 126.385 150.209C115.96 137.785 99.5446 132.091 87.5541 121.171C73.5861 108.45 66.5671 87.93 71.655 69.7355C76.743 51.541 94.6573 37.2259 113.533 38.0325C129.037 38.6951 142.681 48.5013 153.504 59.6233C170.288 76.8722 182.771 98.2757 189.52 121.378C194.018 136.776 210.504 144.609 224.427 152.578C238.35 160.547 252.808 174.428 248.885 189.982C243.699 168.697 320.777 194.05 390.682 200.257C399.963 201.081 409.952 202.28 416.812 208.585C426.672 217.645 441.475 220.95 454.251 216.943C458.316 227.02 461.307 238.339 457.851 248.641C454.396 258.943 442.156 266.806 432.372 262.08C434.926 275.219 437.48 288.359 440.034 301.498C465.05 301.799 490.063 302.31 515.071 303.031C528.325 303.413 542.178 304.016 553.698 310.582C565.217 317.149 580.635 307.846 592.018 283.945C584.651 322.945 593.38 338.528 608.431 342.765C608.462 342.47 609.632 342.61 609.666 342.316C614.147 303.776 640.299 269.557 676.695 256.02C673.476 263.436 650.448 278.085 634.458 296.792C618.837 315.065 611.361 339.528 610.587 343.921C635.389 337.418 643.657 355.895 685.735 339.628C666.508 362.745 629.455 368.437 604.175 352.157C592.249 365.458 592.916 380.186 584.467 395.927C598.819 378.09 617.876 393.904 602.758 405.465C610.782 406.235 619.458 407.293 625.278 412.87C631.099 418.447 631.244 430.185 623.736 433.121C598.381 443.036 573.025 452.951 547.67 462.866Z" fill="#64FCD9"/>
<path fill-rule="evenodd" clip-rule="evenodd" d="M256.126 205.334C254.992 206.931 255.941 209.315 257.579 210.39C259.217 211.465 261.281 211.586 263.238 211.674C284.502 212.631 305.765 213.588 327.029 214.545C329.101 214.638 331.395 214.658 332.965 213.303C334.535 211.948 334.328 208.715 332.279 208.389C308.635 204.63 284.641 203.069 260.708 203.732C259.028 203.779 257.099 203.963 256.126 205.334" fill="#F5F5F6"/>
<path fill-rule="evenodd" clip-rule="evenodd" d="M350.731 357.74L345.205 331.809C345.205 331.809 344.947 337.156 342.022 339.331C339.096 341.506 333.312 340.651 333.312 340.651C333.312 340.651 332.396 322.544 336.467 317.03C340.539 311.516 344.55 316.723 352.284 314.959C360.011 313.197 358.41 307.393 367.389 309.977C376.368 312.562 383.002 331.778 383.002 331.778C383.002 331.778 375.962 334.137 372.966 333.532C369.971 332.927 370.701 329.294 370.701 329.294C370.701 329.294 368.578 328.39 369.119 334.761C369.382 337.856 371.725 342.511 372.966 348.599C373.429 350.867 372.966 355.962 372.966 355.962C372.966 355.962 364.977 356.777 358.073 358.254C351.169 359.732 350.731 357.74 350.731 357.74Z" fill="#F5F5F6"/>
<path fill-rule="evenodd" clip-rule="evenodd" d="M154.555 293.239C151.896 291.807 149.733 289.623 147.614 287.471C142.146 281.921 136.61 276.281 132.816 269.476C132.455 268.828 132.099 268.084 132.308 267.372C132.516 266.66 133.603 266.256 134.01 266.877C140.604 276.944 148.932 285.873 158.516 293.152C157.654 294.31 155.827 293.923 154.555 293.239V293.239Z" fill="#00160A"/>
<path fill-rule="evenodd" clip-rule="evenodd" d="M162.521 165.821C164.092 164.202 164.93 162.025 165.653 159.888C167.909 153.226 169.447 146.321 170.23 139.331C170.371 138.072 170.602 136.622 171.695 135.98C172.923 141.974 171.401 148.151 169.888 154.079C168.558 159.29 167.085 164.762 163.313 168.596C162.931 168.984 162.444 169.379 161.907 169.29C161.183 169.169 160.893 168.207 161.152 167.52C161.41 166.834 162.01 166.347 162.521 165.821L162.521 165.821Z" fill="#00160A"/>
<path fill-rule="evenodd" clip-rule="evenodd" d="M541.722 218.097C542.47 217.897 543.231 218.487 543.557 219.189C543.883 219.891 543.907 220.689 544.052 221.449C544.62 224.42 547.298 226.857 550.308 227.143C550.683 228.016 549.853 228.889 549.197 229.576C547.703 231.139 546.76 233.218 546.568 235.372C546.444 236.769 546.15 238.714 544.747 238.695C543.62 238.681 543.125 237.317 542.719 236.265C541.727 233.696 539.489 231.641 536.845 230.871C536.29 230.71 536.057 230 536.209 229.443C536.362 228.885 536.785 228.449 537.189 228.035C538.926 226.253 540.689 224.142 540.67 221.654C540.66 220.308 540.422 218.445 541.722 218.097Z" fill="#FFB61D"/>
<path fill-rule="evenodd" clip-rule="evenodd" d="M594.38 451.901C592.047 454.298 591.221 458.05 592.331 461.205C591.102 461.754 590.183 460.06 589.574 458.859C588.662 457.055 586.936 455.684 584.974 455.201C587.816 453.408 589.585 450.034 589.443 446.676C590.586 445.931 591.865 447.483 592.193 448.807C592.522 450.132 593.016 451.854 594.38 451.901Z" fill="#F5F5F6"/>
<path fill-rule="evenodd" clip-rule="evenodd" d="M574.472 456.396C575.824 458.542 577.748 460.326 579.991 461.512C580.797 461.938 580.066 463.125 579.401 463.747C577.724 465.314 576.663 467.523 576.486 469.811C575.019 468.341 573.553 466.872 572.087 465.402C571.501 464.816 570.884 463.906 571.388 463.248C572.926 461.243 573.991 458.877 574.472 456.396Z" fill="#F5F5F6"/>
<path fill-rule="evenodd" clip-rule="evenodd" d="M476.524 197.942C477.859 189.444 481.084 181.092 486.751 174.62C492.418 168.148 500.691 163.73 509.293 163.737C517.895 163.744 526.582 168.616 530.157 176.44C532.007 180.489 532.461 185.046 532.335 189.495C532.096 197.957 529.823 206.354 525.762 213.782C522.099 220.479 516.834 226.503 509.999 229.901C503.163 233.298 494.644 233.755 487.999 229.999C482.737 227.025 479.056 221.687 477.302 215.903C475.548 210.119 475.587 203.912 476.524 197.942M529.101 191.511C529.256 186.242 528.387 180.801 525.616 176.317C523.932 173.59 521.572 171.284 518.808 169.663C509.893 164.435 497.759 167.244 490.354 174.453C482.949 181.663 479.74 192.319 479.409 202.649C479.233 208.159 479.825 213.809 482.168 218.799C484.51 223.789 488.797 228.057 494.136 229.429C501.123 231.223 508.496 227.845 513.974 223.152C523.114 215.322 528.747 203.541 529.101 191.511V191.511Z" fill="#FFB61D"/>
<path fill-rule="evenodd" clip-rule="evenodd" d="M564.551 192.041C563.129 193.901 561.641 196.343 562.733 198.415C563.123 199.156 562.113 200.018 561.309 199.784C560.504 199.55 560.047 198.701 559.833 197.891C559.619 197.081 559.549 196.212 559.12 195.493C558.69 194.774 557.714 194.275 557.003 194.718C555.992 194.598 555.888 193.074 556.476 192.242C557.064 191.41 558.03 190.838 558.391 189.885C558.677 189.131 558.524 188.285 558.659 187.49C558.795 186.695 559.472 185.846 560.252 186.049C560.226 187.446 560.388 188.896 561.097 190.101C561.806 191.306 563.163 192.207 564.551 192.041Z" fill="#FFB61D"/>
<path fill-rule="evenodd" clip-rule="evenodd" d="M437.305 189.288C438.417 187.994 439.814 186.888 441.453 186.417C443.093 185.946 444.994 186.194 446.274 187.321C447.667 188.548 448.104 190.597 447.808 192.429C447.511 194.26 446.587 195.925 445.615 197.506C444.354 199.557 442.984 201.541 441.513 203.448C441.054 204.044 440.55 204.658 439.846 204.923C438.917 205.274 437.881 204.933 436.964 204.55C433.744 203.203 430.751 201.315 428.149 198.988C425.767 196.857 423.57 193.733 424.535 190.686C425.15 188.745 427.028 187.34 429.042 187.041C431.057 186.741 433.144 187.451 434.746 188.708C435.512 189.31 436.67 190.026 437.305 189.288M427.131 190.415C425.61 192.508 427.261 195.439 429.178 197.176C431.569 199.344 434.408 200.946 437.221 202.529C437.582 202.732 437.986 202.943 438.392 202.855C438.753 202.777 439.021 202.481 439.259 202.199C441.165 199.941 442.871 197.516 444.353 194.96C445.493 192.994 446.33 190.106 444.494 188.767C443.04 187.709 440.922 188.562 439.69 189.871C438.458 191.181 437.683 192.89 436.336 194.082C435.285 192.425 434.167 190.703 432.462 189.731C430.757 188.758 428.285 188.828 427.131 190.415H427.131Z" fill="#FFB61D"/>
<path fill-rule="evenodd" clip-rule="evenodd" d="M415.521 132.103C419.008 129.384 422.885 127.167 426.996 125.539C429.516 124.541 432.392 123.773 434.883 124.841C438.874 126.554 439.652 132.285 437.552 136.087C435.452 139.888 431.469 142.193 427.677 144.311C420.241 148.464 412.805 152.618 405.37 156.771C406.834 153.848 405.182 150.418 403.829 147.442C400.782 140.74 399.187 133.382 399.186 126.019C399.185 123.694 399.359 121.298 400.379 119.208C401.4 117.118 403.436 115.385 405.761 115.33C409.481 115.243 411.955 119.117 413.21 122.621C414.309 125.689 415.085 128.873 415.521 132.103M431.28 126.775C425.266 127.996 419.663 131.16 415.511 135.679C415.102 136.124 414.307 135.928 413.933 135.452C413.56 134.977 413.488 134.34 413.417 133.74C412.949 129.765 411.909 125.858 410.341 122.176C409.466 120.123 408.002 117.856 405.771 117.82C404.118 117.793 402.679 119.117 402.069 120.654C401.46 122.192 401.511 123.903 401.628 125.552C402.28 134.752 404.701 143.823 408.718 152.125C415.296 148.439 421.874 144.752 428.452 141.066C430.505 139.916 432.594 138.737 434.189 137.009C435.785 135.28 436.835 132.878 436.371 130.571C435.908 128.265 433.586 126.306 431.28 126.775Z" fill="#FFB61D"/>
<path fill-rule="evenodd" clip-rule="evenodd" d="M369.493 587.766C388.693 585.578 408.016 584.477 427.339 584.469C430.884 584.467 433.968 581.713 435.408 578.474C436.848 575.236 436.963 571.582 436.965 568.037C436.972 554.867 435.733 541.732 434.496 528.62C433.994 523.303 433.493 517.985 432.991 512.668C432.686 509.441 432.363 506.143 431.005 503.2C428.647 498.094 423.426 494.774 417.987 493.344C412.548 491.914 406.831 492.11 401.211 492.316C382.551 492.999 363.891 493.682 345.231 494.365C355.987 490.421 367.702 490.236 379.159 490.096C387.942 489.988 396.725 489.881 405.508 489.774C414.485 489.664 424.743 490.115 430.47 497.029C434.17 501.496 434.986 507.613 435.605 513.38C437.552 531.538 438.978 549.752 439.881 567.992C440.181 574.037 439.939 581.14 435.017 584.662C432.264 586.632 428.693 586.927 425.316 587.156C404.752 588.549 384.188 589.942 363.625 591.335C358.796 591.662 353.708 591.941 349.364 589.807C347.855 589.066 346.305 587.389 347.115 585.917C353.8 589.557 361.93 588.628 369.493 587.766V587.766Z" fill="#00160A"/>
<path fill-rule="evenodd" clip-rule="evenodd" d="M288.165 296.484C288.55 297.06 288.638 297.778 288.715 298.466C288.895 300.068 289.075 301.671 289.255 303.274C289.469 305.175 289.513 307.475 287.936 308.56C287.096 309.138 286.012 309.185 284.993 309.213C263.541 309.793 242.09 310.372 220.639 310.952C219.259 310.989 217.662 310.929 216.816 309.838C216.285 309.154 216.203 308.233 216.154 307.368C215.997 304.65 215.954 301.927 216.023 299.206C216.034 298.791 216.058 298.346 216.315 298.021C216.623 297.631 217.166 297.536 217.658 297.469C239.823 294.466 262.286 293.674 284.607 295.106C285.925 295.191 287.431 295.387 288.165 296.484M287.284 306.91C285.105 305.733 287.3 302.283 286.508 299.937C285.827 297.922 283.241 297.445 281.117 297.324C260.891 296.172 240.559 296.891 220.464 299.467C219.724 299.562 218.903 299.704 218.454 300.3C218.01 300.889 218.09 301.706 218.191 302.436C218.348 303.566 218.504 304.696 218.66 305.827C218.784 306.717 218.972 307.716 219.72 308.215C220.263 308.577 220.962 308.573 221.613 308.557C243.503 308.008 265.394 307.459 287.284 306.91Z" fill="#00160A"/>
<path fill-rule="evenodd" clip-rule="evenodd" d="M328.518 334.461C328.62 332.081 328.722 329.7 328.824 327.319C329.024 322.676 329.267 317.86 331.425 313.745C333.583 309.629 338.24 306.431 342.763 307.5C345.591 308.169 348.2 310.393 351.045 309.796C353.522 309.276 355.041 306.827 357.134 305.403C362.123 302.009 369.076 305.162 373.202 309.565C377.648 314.311 380.539 320.491 381.33 326.946C381.397 327.494 381.431 328.109 381.078 328.534C380.786 328.885 380.308 329.007 379.862 329.109C378.145 329.503 376.428 329.896 374.71 330.289C373.248 330.624 371.731 330.96 370.262 330.656C368.792 330.352 367.382 329.219 367.263 327.724C366.825 336.082 373.084 344.066 371.34 352.252C370.691 351.898 370.043 351.543 369.394 351.189C370.924 342.98 363.609 335.033 365.136 326.824C365.338 325.737 365.774 324.581 366.745 324.053C367.717 323.526 369.253 324.125 369.215 325.23C369.154 326.999 371.063 328.321 372.834 328.306C374.604 328.291 376.214 327.342 377.727 326.421C378.265 326.094 378.118 325.283 377.893 324.694C376.22 320.303 374.019 316.113 371.354 312.242C369.553 309.626 367.382 307.04 364.389 305.978C361.396 304.915 357.442 305.999 356.34 308.978C355.051 312.465 350.177 312.7 346.598 311.695C343.019 310.689 339.002 309.12 335.809 311.023C333.138 312.615 332.244 316.007 331.744 319.075C330.886 324.339 330.49 329.678 330.562 335.011C330.707 335.825 331.744 336.087 332.571 336.066C336.924 335.953 340.967 332.519 341.782 328.241C342.955 329.59 343.374 331.418 343.754 333.165C345.068 339.216 346.382 345.267 347.696 351.318C348.101 353.181 347.628 356.044 345.753 355.705C344.903 349.105 343.644 342.559 341.985 336.115C338.849 336.828 335.714 337.54 332.578 338.253C331.616 338.472 330.54 338.674 329.698 338.16C328.536 337.45 328.46 335.822 328.518 334.461Z" fill="#00160A"/>
<path fill-rule="evenodd" clip-rule="evenodd" d="M420.248 498.802C421.848 500.536 419.362 503.737 420.827 505.585C421.588 506.545 421.046 508.067 420.038 508.762C419.031 509.457 417.74 509.55 416.518 509.621C395.511 510.842 374.504 512.063 353.497 513.283C352.069 513.366 350.363 513.318 349.583 512.119C349.242 511.596 349.159 510.951 349.086 510.33C348.894 508.716 348.702 507.102 348.51 505.487C348.45 504.981 348.396 504.438 348.635 503.987C349.027 503.243 350.003 503.081 350.841 503.007C372.919 501.059 395.022 499.411 417.145 498.066C418.244 497.999 419.501 497.993 420.248 498.802M417.837 501.529C417.769 501.131 417.679 500.695 417.36 500.446C417.043 500.198 416.599 500.215 416.197 500.245C396.609 501.673 377.021 503.1 357.433 504.528C355.85 504.644 354.208 504.776 352.825 505.556C351.442 506.336 350.4 507.961 350.815 509.493C350.943 509.968 351.217 510.419 351.638 510.674C352.153 510.986 352.797 510.963 353.399 510.931C374.08 509.809 394.76 508.687 415.441 507.565C417.899 507.432 418.253 503.956 417.837 501.529Z" fill="#00160A"/>
<path fill-rule="evenodd" clip-rule="evenodd" d="M436.822 479.992C440.54 489.776 441.726 500.309 442.881 510.712C445.565 534.881 448.248 559.049 450.932 583.218C448.935 583.382 448.015 580.819 447.766 578.831C443.701 546.312 442.392 513.374 435.517 481.331C435.952 480.885 436.387 480.438 436.822 479.992Z" fill="#00160A"/>
<path fill-rule="evenodd" clip-rule="evenodd" d="M316.883 311.638C316.304 311.391 316.316 310.488 316.759 310.042C317.203 309.596 317.875 309.489 318.499 309.409C323.17 308.816 327.88 308.527 332.588 308.544C332.338 310.553 329.744 311.141 327.722 311.234C324.324 311.391 320.926 311.548 317.528 311.705C317.31 311.715 317.083 311.724 316.883 311.638L316.883 311.638Z" fill="#00160A"/>
<path fill-rule="evenodd" clip-rule="evenodd" d="M343.236 557.42C342.848 550.227 342.46 543.033 342.072 535.84C341.028 516.478 339.951 496.918 334.561 478.293C333.873 475.915 333.087 473.501 331.562 471.55C327.746 466.667 320.682 466.106 314.485 466.106C290.591 466.107 266.698 468.38 243.232 472.882C240.847 473.34 238.368 473.865 236.466 475.373C233.443 477.77 232.645 481.983 232.365 485.831C231.852 492.856 232.36 499.954 233.866 506.835C233.004 506.691 232.142 506.547 231.279 506.403C228.118 499.817 226.677 492.415 227.139 485.124C227.339 481.958 227.922 478.734 229.553 476.014C233.61 469.247 242.542 467.623 250.387 466.783C270.292 464.651 290.271 463.215 310.276 462.479C318.328 462.183 327.427 462.408 332.953 468.272C335.733 471.222 337.141 475.186 338.246 479.086C342.085 492.632 343.144 506.788 344.184 520.83C345.2 534.549 346.216 548.269 347.232 561.989C347.471 565.213 347.707 568.488 347.054 571.655C344.928 581.974 333.939 588.252 323.477 589.5C313.015 590.748 302.482 588.357 291.948 588.181C277.781 587.945 263.53 591.712 249.558 589.359C245.534 588.681 241.255 587.255 239.043 583.826C237.508 581.447 237.231 578.498 236.996 575.677C235.339 555.778 233.682 535.879 232.025 515.979C231.914 514.647 232.905 512.661 233.929 513.521C235.756 532.688 237.583 551.856 239.41 571.024C239.657 573.619 239.926 576.288 241.132 578.599C242.883 581.953 246.415 584.086 250.078 585.036C253.741 585.985 257.58 585.908 261.363 585.859C277.371 585.65 293.386 586.048 309.363 587.053C314.706 587.389 320.107 587.791 325.385 586.894C330.663 585.998 335.9 583.646 339.176 579.412C343.842 573.381 343.647 565.034 343.236 557.42V557.42Z" fill="#00160A"/>
<path fill-rule="evenodd" clip-rule="evenodd" d="M316.072 303.859C317.561 302.696 316.309 300.315 316.602 298.449C317.018 295.808 320.304 294.901 322.959 294.594C340.015 292.623 357.19 291.691 374.359 291.805C375.787 291.814 377.476 291.973 378.195 293.208C379.059 294.69 378.255 297.276 379.89 297.795C380.657 298.039 381.642 297.588 382.223 298.145C383.185 299.066 381.393 300.31 380.067 300.429C359.975 302.232 339.84 303.552 319.685 304.386C318.452 304.437 317.144 304.47 316.072 303.859M376.087 295.538C375.618 294.358 374.048 294.185 372.778 294.205C356.591 294.451 340.413 295.251 324.28 296.603C322.389 296.762 320.157 297.156 319.368 298.882C318.989 299.864 319.712 300.993 320.665 301.439C321.618 301.884 322.72 301.827 323.77 301.76C339.885 300.738 356 299.716 372.116 298.694C373.107 298.631 374.141 298.555 374.996 298.049C375.851 297.542 376.455 296.462 376.087 295.538Z" fill="#00160A"/>
<path fill-rule="evenodd" clip-rule="evenodd" d="M397.809 532.013C400.294 533.988 399.231 538.314 401.393 540.638C402.398 541.719 403.904 542.141 405.32 542.555C406.231 542.822 407.358 543.491 407.068 544.394C406.772 545.319 405.424 545.17 404.519 544.816C401.566 543.658 398.235 541.735 398.072 538.567C397.953 536.255 397.266 533.974 396.088 531.981C396.42 531.419 397.298 531.607 397.809 532.013V532.013Z" fill="#00160A"/>
<path fill-rule="evenodd" clip-rule="evenodd" d="M409.562 564.771C408.753 554.347 407.943 543.922 407.134 533.497C407.015 531.965 406.879 530.376 406.121 529.04C405.362 527.703 403.79 526.696 402.305 527.095C395.59 528.896 388.616 529.731 381.665 529.567C375.588 529.423 369.369 528.535 363.522 530.199C363.63 533.095 363.739 535.99 363.848 538.885C363.88 539.731 363.928 540.628 364.409 541.324C365.757 543.275 369.105 541.788 369.865 539.541C370.626 537.295 369.939 534.838 370.069 532.469C370.092 532.05 370.176 531.573 370.533 531.351C371.292 530.879 372.021 532.005 372.215 532.877C372.773 535.375 373.329 537.99 372.671 540.464C372.013 542.938 369.719 545.179 367.18 544.852C364.549 544.513 363.473 548.108 363.409 550.76C363.282 556.052 363.155 561.343 363.028 566.635C362.988 568.301 363.587 570.602 365.243 570.414C369.516 569.93 373.79 569.445 378.064 568.961C379.097 568.844 380.207 568.741 381.116 569.246C382.024 569.751 382.505 571.127 381.76 571.852C376.741 572.292 371.721 572.732 366.701 573.172C365.235 573.3 363.714 573.422 362.331 572.919C360.948 572.417 359.743 571.101 359.869 569.635C361.104 555.239 361.38 540.762 360.696 526.329C360.55 523.259 364.29 521.7 367.311 521.134C376.9 519.336 386.68 518.556 396.433 518.812C399.703 518.898 403.267 519.222 405.638 521.475C408.052 523.769 408.526 527.383 408.859 530.696C410.106 543.115 411.354 555.533 412.602 567.951C412.669 568.621 412.685 569.417 412.149 569.825C411.83 570.068 411.4 570.094 410.999 570.111C406.837 570.284 402.675 570.457 398.512 570.63C396.307 570.722 393.934 570.769 392.098 569.544C390.838 568.704 390.006 567.369 389.274 566.044C387.52 562.864 386.117 559.491 385.102 556.004C383.51 559.99 382.502 564.208 382.12 568.483C380.109 568.701 379.735 565.683 380.202 563.714C381.167 559.652 382.132 555.591 383.097 551.529C383.244 550.911 383.479 550.193 384.085 550.003C384.977 549.722 385.662 550.79 385.988 551.667C387.347 555.32 388.707 558.973 390.066 562.626C391.236 565.77 394.611 567.66 397.943 568.047C401.275 568.435 404.615 567.596 407.865 566.764C408.508 566.599 409.237 566.362 409.487 565.747C409.611 565.442 409.588 565.1 409.562 564.771M364.281 526.602C367.295 526.641 370.309 526.68 373.323 526.719C375.587 526.749 377.852 526.778 380.117 526.735C388.291 526.581 396.448 525.485 404.373 523.475C402.605 521.66 399.769 521.558 397.236 521.603C388.171 521.765 379.112 522.293 370.089 523.183C367.675 523.422 364.674 524.208 364.281 526.602L364.281 526.602Z" fill="#00160A"/>
<path fill-rule="evenodd" clip-rule="evenodd" d="M350.788 518.796C350.616 517.853 351.838 517.338 352.785 517.192C363.721 515.497 374.802 514.748 385.867 514.955C386.025 514.958 386.189 514.962 386.336 515.023C386.855 515.24 386.83 516.058 386.418 516.441C386.006 516.824 385.399 516.888 384.838 516.93C374.302 517.72 363.612 517.314 353.29 519.568C352.332 519.777 350.965 519.761 350.788 518.796L350.788 518.796Z" fill="#00160A"/>
<path fill-rule="evenodd" clip-rule="evenodd" d="M595.344 496.154C595.948 494.73 596.614 493.226 597.896 492.36C598.977 491.629 600.332 491.468 601.63 491.327C605.48 490.909 609.33 490.491 613.18 490.073C615.084 489.866 617.542 489.064 617.469 487.15C617.236 480.969 617.714 473.85 622.624 470.089C627.116 466.648 633.842 467.592 638.45 470.874C643.059 474.157 645.979 479.27 648.497 484.337C649.612 486.581 652.666 486.99 655.135 486.557C657.603 486.125 660.105 485.154 662.54 485.745C666.289 486.655 668.184 490.75 669.472 494.387C675.938 512.636 680.327 531.662 688.369 549.274C691.377 555.861 690.425 564.081 685.991 569.806C685.444 565.26 686.206 560.564 688.162 556.423C689.084 554.473 686.016 553.19 683.858 553.196C661.873 553.252 639.793 553.315 618.051 556.576C617.387 556.676 616.681 556.798 616.186 557.252C615.705 557.692 615.517 558.36 615.351 558.991C614.677 561.552 614.003 564.112 613.329 566.673C612.906 568.277 613.171 570.768 614.822 570.601C636.34 568.422 657.974 567.383 679.602 567.489C681.877 567.5 684.982 568.403 684.687 570.658C661.647 570.93 638.522 571.208 615.731 574.6C612.102 575.14 609.596 570.646 610.007 567C610.419 563.354 612.51 560.084 613.099 556.462C613.607 553.341 612.972 550.158 612.288 547.07C611.201 542.162 609.986 537.282 608.646 532.437C607.338 527.708 605.91 523.014 604.482 518.32C602.323 511.221 600.163 504.121 598.004 497.021C595.034 501.37 593.711 506.815 594.354 512.041C594.802 515.68 596.151 519.136 597.162 522.661C598.607 527.699 599.365 532.904 600.12 538.091C601.606 548.307 603.093 558.523 604.579 568.74C604.798 570.243 604.366 572.458 602.863 572.236C596.181 551.565 598.016 528.711 590.13 508.469C591.868 504.364 593.606 500.259 595.344 496.154M645.111 499.904C647.288 498.693 648.416 495.866 647.669 493.489C646.923 491.111 644.382 489.436 641.902 489.687C635.823 490.303 629.744 490.919 623.665 491.535C623.103 491.592 622.475 491.685 622.138 492.137C621.872 492.494 621.867 492.976 621.892 493.42C622.054 496.198 623.018 498.925 624.638 501.187C625.897 502.945 627.638 505.049 626.655 506.975C625.427 509.381 621.39 508.032 620.389 505.523C619.388 503.014 620.1 500.182 619.914 497.487C619.728 494.791 617.791 491.689 615.126 492.137C610.757 492.873 606.388 493.608 602.018 494.344C601.391 494.45 600.572 494.837 600.756 495.446C606.077 513.057 611.397 530.668 616.718 548.28C617.381 550.475 618.876 553.191 621.108 552.67C641.602 547.884 663.21 552.41 684.019 549.265C677.785 529.719 671.336 510.243 664.671 490.839C664.475 490.267 664.252 489.658 663.763 489.301C663.222 488.905 662.494 488.917 661.825 488.945C658.703 489.078 655.582 489.21 652.461 489.342C651.226 489.394 649.542 489.983 649.813 491.189C650.661 494.97 651.509 498.752 652.358 502.533C652.504 503.183 652.647 503.88 652.404 504.501C651.744 506.191 649.255 505.765 647.595 505.033C646.506 504.554 645.36 504.028 644.687 503.046C644.014 502.065 644.07 500.483 645.111 499.904M637.066 472.47C634.672 470.714 631.524 469.447 628.762 470.535C627.799 470.914 626.963 471.551 626.141 472.18C624.678 473.301 623.17 474.473 622.306 476.101C621.503 477.616 621.337 479.377 621.187 481.086C621.056 482.579 620.925 484.072 620.793 485.565C620.712 486.491 620.679 487.555 621.35 488.198C621.994 488.815 623.005 488.77 623.893 488.686C630.251 488.081 636.609 487.476 642.968 486.871C643.874 486.785 644.981 486.539 645.22 485.66C645.314 485.314 645.238 484.945 645.153 484.596C643.981 479.778 641.064 475.403 637.066 472.47M634.685 488.266C634.045 488.447 634.756 489.647 635.222 489.172C635.817 488.928 635.157 487.81 634.656 488.213L634.685 488.266Z" fill="#FFB61D"/>
<path fill-rule="evenodd" clip-rule="evenodd" d="M433.097 345.331C432.986 344.959 433.207 344.57 433.468 344.282C434.749 342.872 436.894 342.767 438.799 342.762C450.352 342.736 461.905 342.709 473.459 342.682C474.272 342.68 475.143 342.696 475.807 343.166C476.47 343.635 476.73 344.743 476.092 345.248C475.753 345.516 475.285 345.533 474.852 345.538C461.431 345.687 448.009 345.836 434.587 345.985C434.003 345.991 433.264 345.892 433.097 345.331Z" fill="#00160A"/>
<path fill-rule="evenodd" clip-rule="evenodd" d="M437.379 357.258C436.682 356.858 436.779 355.736 437.364 355.186C437.95 354.636 438.803 354.507 439.6 354.411C444.382 353.834 449.192 353.517 453.998 353.201C456.646 353.026 459.295 352.852 461.943 352.678C465.386 352.451 468.829 352.224 472.272 351.997C473.365 351.925 474.586 351.894 475.41 352.617C476.234 353.34 476.033 355.079 474.938 355.147C462.787 355.9 450.636 356.653 438.485 357.405C438.108 357.429 437.706 357.447 437.379 357.258L437.379 357.258Z" fill="#00160A"/>
<path fill-rule="evenodd" clip-rule="evenodd" d="M502.513 372.969C503.431 371.224 504.428 369.394 506.117 368.378C507.806 367.361 510.397 367.571 511.307 369.32C512.275 371.182 510.835 373.426 509.144 374.668C507.453 375.911 505.374 376.787 504.276 378.575C510.213 382.487 516.15 386.399 522.087 390.311C526.737 393.376 531.998 397.752 531.047 403.239C530.488 406.456 527.762 408.957 524.725 410.157C521.689 411.357 518.35 411.482 515.086 411.576C493.151 412.208 471.194 412.097 449.266 411.243C447.745 411.184 446.048 411.042 445.034 409.906C444.249 409.025 444.087 407.77 443.96 406.597C442.698 394.926 441.436 383.255 440.174 371.583C440.127 371.152 440.083 370.702 440.237 370.297C440.887 368.593 443.436 369.643 444.861 370.78C454.955 378.837 471.093 377.891 480.176 368.709C482.371 366.49 486.107 366.777 488.926 368.115C491.746 369.452 494.105 371.628 496.933 372.947C496.632 371.311 498.074 369.586 499.737 369.593C501.4 369.599 502.828 371.336 502.513 372.969M503.755 380.489C503.034 377.84 499.119 377.284 496.96 378.979C494.801 380.674 494.101 383.627 493.914 386.366C493.844 387.387 492.164 387.489 491.589 386.642C491.013 385.795 491.246 384.654 491.566 383.682C492.409 381.114 493.708 378.697 495.382 376.577C496.212 375.527 494.996 374.107 493.902 373.338C490.039 370.622 484.57 367.943 481.028 371.064C471.32 379.614 455.835 380.754 444.98 373.716C445.109 382.477 445.755 391.23 446.912 399.915C447.029 400.79 447.178 401.725 447.783 402.368C448.583 403.219 449.892 403.279 451.06 403.28C469.917 403.304 488.774 403.328 507.631 403.352C509.466 403.355 511.96 402.699 511.817 400.87C511.484 396.613 513.369 392.242 516.694 389.563C514.079 387.663 511.464 385.763 508.848 383.863C508.051 383.284 507.215 382.688 506.244 382.522C503.309 382.019 501.349 385.382 500.312 388.173C498.721 385.33 500.574 381.194 503.755 380.489M454.471 409.559C474.108 409.713 493.746 409.68 513.382 409.46C518.956 409.398 525.465 408.832 528.488 404.147C501.373 405.339 474.218 405.634 447.083 405.031C446.746 408.288 451.197 409.533 454.471 409.559M521.674 392.055C521.089 391.685 520.485 391.307 519.803 391.19C517.747 390.837 516.125 392.89 515.232 394.776C514.716 395.866 514.267 396.988 513.889 398.134C513.601 399.007 513.352 399.935 513.533 400.836C513.714 401.737 514.453 402.589 515.372 402.6C518.711 402.638 522.051 402.602 525.388 402.493C526.175 402.468 527.031 402.412 527.621 401.889C528.315 401.274 528.399 400.214 528.226 399.303C527.597 396.007 524.508 393.851 521.674 392.055M509.878 370.738C509.841 369.721 508.484 369.205 507.545 369.597C506.606 369.99 506.029 370.923 505.513 371.8C504.89 372.861 504.268 373.921 503.645 374.981C503.318 375.537 503.14 376.484 503.77 376.623C505.428 375.245 507.086 373.867 508.743 372.489C509.298 372.027 509.904 371.46 509.878 370.738M499.134 372.396C498.853 373.767 499.556 375.282 500.785 375.952C501.211 374.54 500.961 372.939 500.125 371.724C500.074 371.38 499.607 371.182 499.324 371.382C499.105 371.659 499.027 372.042 499.12 372.382L499.134 372.396Z" fill="#00160A"/>
<path fill-rule="evenodd" clip-rule="evenodd" d="M431.62 331.96C431.121 329.548 430.623 327.135 430.125 324.722C429.931 323.784 429.753 322.744 430.245 321.922C430.915 320.802 432.45 320.653 433.755 320.63C465.807 320.072 497.871 320.194 529.918 320.996C532.104 321.051 533.899 322.939 534.564 325.022C535.229 327.106 535.011 329.355 534.785 331.53C534.663 332.706 534.469 334.016 533.532 334.736C532.764 335.325 531.715 335.34 530.748 335.33C498.559 334.978 466.371 334.627 434.183 334.275C433.653 334.27 433.092 334.255 432.644 333.973C431.988 333.56 431.776 332.719 431.62 331.96M436.047 322.746C433.678 322.729 431.998 325.544 432.59 327.838C433.182 330.132 435.398 331.711 437.701 332.269C440.004 332.827 442.414 332.557 444.773 332.337C473.842 329.62 503.236 334.813 532.284 331.882C532.436 330.115 532.581 328.288 532.012 326.608C531.442 324.928 529.959 323.423 528.186 323.41C497.473 323.189 466.76 322.968 436.047 322.746Z" fill="#00160A"/>
<path fill-rule="evenodd" clip-rule="evenodd" d="M238.348 401.842C237.275 403.875 235.796 405.94 233.578 406.545C229.353 407.698 225.86 403.008 224.707 398.783C222.907 392.188 223.363 385 225.98 378.685C227.38 375.306 226.213 371.312 224.017 368.387C219.877 362.871 212.152 360.456 205.515 362.332C198.878 364.209 193.64 370.113 192.252 376.869C192.034 377.927 192.188 379.413 193.257 379.562C198.592 380.309 201.041 386.57 201.853 391.895C202.473 395.96 202.742 400.22 201.363 404.095C199.984 407.969 196.609 411.373 192.508 411.684C188.828 409.206 186.057 405.408 184.821 401.147C182.522 393.222 185.508 384.821 188.591 377.166C190.473 372.495 192.492 367.712 196.066 364.164C203.706 356.58 217.972 357.481 224.597 365.965C227.146 369.228 228.609 373.282 231.433 376.31C233.562 378.593 236.377 380.191 238.319 382.634C242.538 387.941 241.512 395.846 238.348 401.842M187.158 387.19C185.224 392.522 185.763 398.695 188.592 403.61C189.056 404.418 189.609 405.221 190.421 405.677C191.233 406.134 192.365 406.141 193.007 405.466C194.931 403.443 195.171 400.385 195.165 397.594C195.157 394.292 194.954 390.992 194.556 387.715C194.393 386.373 194.115 384.891 193.03 384.085C191.945 383.279 189.909 383.953 190.079 385.294C190.575 389.194 191.071 393.095 191.566 396.995C191.679 397.882 191.778 398.842 191.334 399.618C190.889 400.394 189.661 400.756 189.098 400.061C187.639 397.084 187.199 393.619 187.868 390.373C188.109 389.205 188.274 387.608 187.158 387.19M231.812 402.658C232.305 402.274 232.535 401.649 232.719 401.051C234.165 396.355 234.181 391.229 232.763 386.524C232.224 384.736 230.763 382.643 228.994 383.243C227.971 383.589 227.453 384.708 227.128 385.737C225.648 390.414 225.845 395.602 227.674 400.154C228.025 401.026 228.458 401.907 229.201 402.484C229.943 403.06 231.071 403.236 231.812 402.658M197.093 385.781C198.382 392.313 198.108 399.148 196.3 405.555C196.134 406.145 196.803 406.605 197.363 406.854C200.075 400.276 200.418 392.751 198.317 385.954C197.968 385.705 197.497 385.638 197.093 385.781M234.717 384.017C234.316 384.656 233.916 385.295 233.515 385.935C234.836 385.711 235.44 387.513 235.51 388.851C235.674 391.942 235.837 395.034 236.001 398.125C237.231 397.664 237.453 396.049 237.476 394.736C237.528 391.778 237.579 388.82 237.631 385.862C237.188 385.81 236.745 385.758 236.302 385.706C236.257 384.869 235.55 384.116 234.717 384.017Z" fill="#00160A"/>
<path fill-rule="evenodd" clip-rule="evenodd" d="M379.719 389.627C370.907 389.207 362.056 389.589 353.313 390.768C352.54 390.872 351.674 390.96 351.052 390.488C350.43 390.016 350.498 388.763 351.274 388.678C360.018 387.717 368.799 387.099 377.591 386.826C378.547 386.796 379.618 386.813 380.299 387.484C380.981 388.156 380.675 389.673 379.719 389.627V389.627Z" fill="#00160A"/>
<path fill-rule="evenodd" clip-rule="evenodd" d="M175.02 354.44C177.521 354.205 180.023 353.97 182.524 353.735C183.785 353.617 185.045 353.499 186.305 353.38C194.321 352.627 202.337 351.874 210.36 351.204C210.675 351.178 211.004 351.154 211.296 351.275C212.165 351.636 212.031 353.039 211.275 353.597C210.518 354.155 209.494 354.123 208.555 354.091C196.739 353.698 184.963 357.249 173.202 356.048C172.438 355.97 171.438 355.576 171.573 354.82C172.717 354.657 173.869 354.549 175.02 354.44Z" fill="#00160A"/>
<path fill-rule="evenodd" clip-rule="evenodd" d="M444.467 614.1C444.074 610.659 443.792 606.915 441.478 604.337C439.703 602.36 440.621 598.684 443.118 597.774C445.615 596.864 448.684 599.086 448.597 601.743C448.567 602.655 448.235 603.525 447.977 604.4C446.213 610.377 447.851 616.807 450.008 622.653C452.193 628.573 455.538 634.875 461.541 636.821C468.486 639.072 476.17 634.09 479.249 627.47C482.327 620.851 481.858 613.165 480.783 605.944C480.675 605.22 480.481 604.384 479.817 604.077C477.115 602.829 476.705 598.447 479.128 596.721C481.551 594.994 485.559 596.813 485.856 599.773C485.957 600.777 485.701 601.778 485.509 602.769C484.182 609.645 485.937 616.854 484.483 623.705C483.572 627.994 481.389 632.005 478.282 635.099C474.986 638.379 470.536 640.641 465.887 640.72C459.627 640.826 453.773 636.944 450.234 631.779C446.696 626.613 445.178 620.321 444.467 614.1Z" fill="#00160A"/>
<path fill-rule="evenodd" clip-rule="evenodd" d="M261.914 331.585C262.088 333.942 262.254 336.37 261.52 338.616C260.785 340.863 258.919 342.909 256.564 343.112C244.425 344.155 232.284 345.199 220.122 345.919C203.537 346.9 186.924 347.279 170.315 347.657C169.722 347.67 169.088 347.672 168.593 347.346C167.851 346.856 167.712 345.843 167.644 344.957C167.464 342.635 167.285 340.313 167.105 337.991C167.05 337.285 167.009 336.522 167.39 335.925C167.947 335.05 169.14 334.9 170.176 334.838C200.724 333.027 231.315 331.943 261.914 331.585M256.803 339.729C258.755 339.599 259.15 336.527 257.719 335.194C256.288 333.86 254.115 333.831 252.159 333.88C227.019 334.504 201.869 335.129 176.779 336.836C174.972 336.959 173.092 337.109 171.53 338.026C169.968 338.942 168.84 340.87 169.437 342.58C170.285 345.009 173.562 345.276 176.129 345.105C203.02 343.313 229.912 341.521 256.803 339.729Z" fill="#00160A"/>
<path fill-rule="evenodd" clip-rule="evenodd" d="M230.7 390.255C230.724 390.894 230.749 391.533 230.773 392.171C230.823 393.5 230.872 394.838 230.68 396.154C229.014 395.978 228.497 393.833 228.4 392.16C228.353 391.364 228.338 390.475 228.871 389.882C229.404 389.289 230.67 389.459 230.7 390.255L230.7 390.255Z" fill="#00160A"/>
<path fill-rule="evenodd" clip-rule="evenodd" d="M350.733 395.698C352.369 394.188 354.856 394.235 357.08 394.298C364.119 394.498 371.179 393.954 378.104 392.678C378.921 392.528 379.36 393.797 378.851 394.453C378.343 395.109 377.423 395.247 376.598 395.331C368.793 396.124 360.955 396.595 353.111 396.74C352.176 396.758 350.991 396.596 350.733 395.698Z" fill="#00160A"/>
<path fill-rule="evenodd" clip-rule="evenodd" d="M613.509 422.087C612.737 424.698 610.173 426.312 607.727 427.508C595.487 433.495 581.098 434.96 567.902 431.565C563.47 430.424 558.421 427.786 558.232 423.213C558.092 419.852 560.775 417.035 563.616 415.233C567.975 412.47 573.056 411.074 578.123 410.09C587.896 408.191 598.492 407.799 607.339 412.366C611.045 414.279 614.691 418.087 613.509 422.087M561.253 422.705C561.261 426.398 565.381 428.56 568.953 429.497C581.358 432.751 594.927 431.347 606.403 425.622C608.245 424.703 610.188 423.492 610.773 421.519C611.559 418.869 609.505 416.199 607.227 414.634C600.37 409.922 591.299 410.566 583.026 411.452C576.369 412.165 569.275 413.096 564.2 417.463C562.631 418.813 561.249 420.636 561.253 422.705L561.253 422.705Z" fill="#00160A"/>
<path fill-rule="evenodd" clip-rule="evenodd" d="M253.372 205.774C252.955 203.4 254.592 201.041 256.702 199.875C258.812 198.709 261.299 198.484 263.705 198.343C285.159 197.08 306.579 200.526 328.041 201.658C330.803 201.804 333.715 201.957 336.039 203.457C338.363 204.958 339.727 208.326 338.119 210.577C337.342 211.666 336.056 212.271 334.781 212.673C331.101 213.836 327.153 213.682 323.298 213.516C303.235 212.653 283.171 211.791 263.108 210.928C259.124 210.757 254.063 209.701 253.372 205.774M256.126 202.334C254.992 203.932 255.941 206.315 257.579 207.39C259.217 208.465 261.281 208.586 263.238 208.674C284.502 209.631 305.765 210.588 327.029 211.545C329.101 211.638 331.395 211.659 332.965 210.303C334.535 208.948 334.328 205.715 332.279 205.389C308.635 201.63 284.641 200.069 260.708 200.732C259.028 200.779 257.099 200.963 256.126 202.334" fill="#00160A"/>
<path fill-rule="evenodd" clip-rule="evenodd" d="M488.635 185.171C491.899 178.371 497.191 171.361 504.712 170.781C509.722 170.395 515.037 171.271 519.002 174.358C526.193 179.956 526.694 190.811 524.125 199.555C521.096 209.861 514.336 219.406 504.639 224.028C502.327 225.131 499.811 225.955 497.251 225.855C490.448 225.588 485.494 218.904 484.03 212.255C482.022 203.143 484.598 193.583 488.635 185.171M497.096 223.365C502.124 224.05 506.862 220.847 510.41 217.218C517.059 210.416 521.523 201.51 522.994 192.112C523.417 189.404 523.593 186.594 522.856 183.954C521.407 178.76 516.484 175.007 511.202 173.927C506.122 172.889 500.539 174.128 496.623 177.527C494.741 179.16 493.28 181.223 492.004 183.363C487.841 190.345 485.475 198.469 485.765 206.592C485.896 210.262 486.591 213.992 488.449 217.16C490.307 220.327 493.457 222.87 497.096 223.365V223.365Z" fill="#FFB61D"/>
<path fill-rule="evenodd" clip-rule="evenodd" d="M323.726 473.788C324.394 473.753 325.112 473.729 325.678 474.087C326.377 474.529 326.633 475.409 326.834 476.211C327.276 477.969 327.719 479.797 327.364 481.574C327.009 483.35 325.607 485.057 323.797 485.136C319.18 485.338 314.563 485.539 309.945 485.741C308.135 485.82 306.013 486.079 305.113 487.652C304.504 488.718 304.685 490.042 304.885 491.254C305.451 494.689 307.051 499.031 310.53 498.905C312.844 498.821 314.907 500.578 315.903 502.668C316.899 504.759 317.048 507.138 317.18 509.45C317.305 511.626 316.75 514.6 314.571 514.654C312.813 514.698 312.328 517.073 312.384 518.83C312.772 531.051 313.161 543.271 313.549 555.491C313.611 557.46 311.088 558.288 309.128 558.486C292.703 560.144 276.106 560.1 259.69 558.356C259.101 558.293 258.349 558.063 258.336 557.471C258.032 543.663 257.728 529.855 257.425 516.047C257.407 515.242 257.012 514.129 256.236 514.341C253.789 515.01 251.329 512.74 250.823 510.255C250.316 507.769 251.185 505.233 252.041 502.845C252.437 501.742 252.881 500.572 253.828 499.88C255.85 498.404 259.588 499.455 260.493 497.121C260.643 496.735 260.672 496.312 260.657 495.898C260.531 492.292 257.173 489.447 253.636 488.734C250.099 488.021 246.453 488.959 243.009 490.033C242.219 487.054 242.017 483.921 242.417 480.866C242.511 480.145 242.658 479.387 243.142 478.845C243.833 478.071 244.984 477.964 246.019 477.909C271.921 476.535 297.824 475.162 323.726 473.788M254.665 501.764C254.167 502.342 254.057 503.149 253.967 503.907C253.734 505.882 253.5 507.858 253.266 509.833C253.217 510.249 253.171 510.688 253.338 511.071C253.697 511.892 254.781 512.034 255.677 512.056C260.432 512.174 265.187 512.292 269.942 512.411C270.744 512.43 271.585 512.442 272.297 512.073C273.443 511.479 273.913 509.866 273.267 508.75C273.849 508.69 274.431 508.631 275.013 508.571C274.756 510.294 276.512 511.736 278.235 511.99C279.958 512.243 281.69 511.717 283.427 511.579C287.067 511.292 290.703 512.72 294.33 512.291C294.711 512.246 295.119 512.167 295.386 511.89C295.735 511.529 295.728 510.964 295.7 510.462C295.562 508.054 295.425 505.647 295.287 503.239C295.244 502.481 295.179 501.665 294.692 501.083C293.996 500.251 292.75 500.225 291.666 500.267C286.431 500.47 281.196 500.672 275.961 500.875C275.596 500.889 275.191 500.92 274.938 501.184C274.654 501.479 274.674 501.944 274.712 502.352C274.888 504.225 275.064 506.099 275.24 507.972C274.545 508.04 273.864 508.243 273.246 508.567C273.092 507.091 272.937 505.615 272.782 504.138C272.642 502.792 272.114 501.068 270.761 501.05C266.441 500.992 262.12 500.935 257.799 500.877C256.676 500.862 255.398 500.913 254.665 501.764M279.558 516.288C279.486 515.294 279.056 513.978 278.064 514.085C271.904 514.747 265.668 514.709 259.515 513.972C259.667 527.378 259.917 540.783 260.265 554.186C260.309 555.911 262.487 556.601 264.203 556.777C269.302 557.3 274.436 557.478 279.56 557.311C279.98 557.297 280.434 557.268 280.754 556.996C281.175 556.638 281.202 556.01 281.196 555.457C281.05 542.388 280.503 529.324 279.558 516.288M310.368 515.549C310.2 515.26 309.816 515.2 309.483 515.172C304.183 514.723 298.856 514.597 293.54 514.795C293.059 514.813 292.543 514.845 292.162 515.14C291.582 515.588 291.546 516.434 291.563 517.167C291.856 530.547 292.149 543.927 292.442 557.308C298.293 557.873 304.251 557.32 309.899 555.688C310.25 555.587 310.623 555.466 310.85 555.18C311.095 554.87 311.111 554.444 311.117 554.05C311.227 545.441 311.005 536.832 310.783 528.226C310.678 524.171 310.573 520.116 310.469 516.062C310.464 515.886 310.457 515.701 310.368 515.549M244.651 481.63C243.635 483.227 244.727 485.483 246.397 486.375C248.067 487.268 250.069 487.181 251.959 487.072C263.396 486.409 274.834 485.746 286.271 485.084C297.178 484.452 308.086 483.819 318.976 482.933C320.571 482.803 322.246 482.64 323.564 481.732C324.882 480.824 325.648 478.906 324.764 477.572C323.877 476.234 321.97 476.172 320.367 476.255C296.602 477.481 272.837 478.707 249.072 479.932C247.43 480.017 245.533 480.243 244.651 481.63M290.365 556.996C289.562 543.934 289.403 530.833 289.889 517.756C289.917 517.005 289.941 516.223 289.641 515.534C288.766 513.521 285.95 513.527 283.781 513.862C282.789 514.016 281.523 514.49 281.597 515.491C282.527 528 283.458 540.529 283.249 553.071C283.221 554.731 284.172 556.372 285.626 557.174C287.081 557.976 288.976 557.905 290.365 556.996M314.91 508.776C314.627 507.05 314.332 505.286 313.49 503.753C312.649 502.22 311.142 500.936 309.395 500.849C306.076 500.683 302.758 500.518 299.439 500.353C298.575 500.31 297.381 500.57 297.423 501.434C297.549 504.06 297.676 506.687 297.802 509.313C297.858 510.459 298.071 511.843 299.134 512.278C299.476 512.418 299.856 512.429 300.226 512.437C304.552 512.536 308.879 512.635 313.206 512.734C314.032 512.753 314.724 512.027 314.95 511.232C315.175 510.438 315.043 509.591 314.91 508.776M293.96 495.834C293.527 494.011 293.076 492.144 292.039 490.583C291.003 489.021 289.243 487.801 287.374 487.939C284.493 488.15 281.612 488.362 278.731 488.574C276.936 488.706 274.904 488.964 273.852 490.424C272.579 492.19 273.452 494.654 273.108 496.804C272.987 497.559 273.577 498.282 274.283 498.575C274.99 498.869 275.783 498.834 276.547 498.795C281.704 498.53 286.861 498.264 292.019 497.999C292.776 497.96 293.684 497.822 293.986 497.126C294.161 496.724 294.062 496.261 293.96 495.834M302.998 492.531C302.017 491.187 302.041 489.196 303.055 487.876C301.247 486.753 298.715 486.961 297.115 488.363C295.514 489.765 294.975 492.248 295.85 494.187C296.158 494.871 295.982 495.681 296.199 496.399C296.507 497.419 297.574 498.06 298.632 498.191C299.69 498.322 300.75 498.044 301.78 497.769C303.13 497.408 304.774 496.686 304.761 495.288C304.75 494.173 303.656 493.432 302.998 492.531M270.769 497.317C271.368 495.358 270.562 493.124 269.025 491.77C267.487 490.417 265.333 489.889 263.293 490.073C262.473 490.146 261.618 490.349 261.025 490.92C260.431 491.491 260.219 492.518 260.754 493.143C261.149 493.606 261.825 493.741 262.238 494.187C262.869 494.867 262.656 495.955 262.945 496.837C263.598 498.829 266.303 499.017 268.39 498.826C269.105 498.761 269.894 498.66 270.364 498.118C270.562 497.89 270.681 497.605 270.769 497.317M271.107 490.726C271.591 490.258 271.679 489.435 271.305 488.875C270.471 488.627 269.539 489.123 269.101 489.874C269.427 490.62 270.343 491.051 271.126 490.827M294.891 488.646C295.013 488.319 294.942 487.928 294.712 487.665C293.921 487.415 293 487.639 292.412 488.224C293.017 488.91 294.117 489.095 294.913 488.645L294.891 488.646Z" fill="#00160A"/>
<path fill-rule="evenodd" clip-rule="evenodd" d="M613.736 433.121C588.381 443.036 563.025 452.951 537.67 462.866C526.763 467.131 514.145 473.532 512.975 485.185C527.792 473.786 546.094 466.983 564.759 465.938C551.864 482.184 535.583 495.729 517.261 505.451C500.807 514.182 479.976 523.494 478.565 542.067C496.235 521.025 523.404 508.286 550.881 508.159C533.302 533.906 505.114 552.169 474.431 557.69C475.484 565.602 476.537 573.514 477.59 581.426C488.015 581.056 498.504 582.548 508.413 585.809C515.47 616.126 522.527 646.442 529.584 676.759C531.32 684.22 532.849 692.792 528.281 698.941C523.749 705.04 515.19 706.09 507.61 706.628C477.737 708.752 447.863 710.876 417.989 712.999C414.413 696.795 410.836 680.591 407.259 664.386C356.869 669.065 306.478 673.744 256.088 678.423C245.476 679.409 234.253 680.292 224.651 675.669C189.822 658.901 147.59 691.357 110.803 679.483C143.124 678.874 175.345 673.236 205.953 662.835C217.053 659.063 230.344 648.73 224.544 638.542C196.16 658.347 159.74 666.254 125.698 660.001C127.696 626.942 126.411 593.685 121.866 560.878C146.088 557.413 169.96 551.499 192.998 543.256C199.406 540.963 205.999 538.324 210.562 533.274C215.126 528.224 216.971 520.066 212.961 514.566C177.92 533.238 137.462 541.595 97.8913 538.334C99.9561 583.108 102.021 627.883 104.086 672.657C98.2367 627.915 95.1348 582.814 94.8033 537.692C115.173 535.886 135.542 534.08 155.911 532.273C152.636 517.734 149.34 502.862 151.023 488.053C152.705 473.244 160.327 458.248 173.724 451.717C163.589 430.1 148.271 410.934 129.42 396.283C107.321 379.107 78.9094 366.157 68.8178 340.051C62.1453 322.79 65.4182 302.713 74.6573 286.678C83.8965 270.644 98.5367 258.292 114.449 248.844C92.5416 243.213 75.9479 221.375 76.3919 198.76C76.8358 176.145 94.2738 154.975 116.385 150.209C105.96 137.785 89.5446 132.091 77.5542 121.171C63.5861 108.45 56.5671 87.93 61.6551 69.7355C66.7431 51.541 84.6573 37.2259 103.533 38.0325C119.037 38.6951 132.681 48.5013 143.504 59.6233C160.288 76.8722 172.771 98.2757 179.52 121.378C184.018 136.776 200.504 144.609 214.427 152.578C228.35 160.547 242.808 174.428 238.885 189.982C233.699 168.697 216.285 150.856 195.132 145.155C184.11 142.185 180.093 129.069 176.547 118.218C169.648 97.1024 157.87 77.5976 142.396 61.6603C130.766 49.6831 115.562 39.2317 98.8919 40.1315C81.7313 41.0578 66.6037 55.017 62.6804 71.7488C58.7571 88.4805 65.3351 106.814 77.8566 118.585C90.6105 130.575 108.856 136.448 119.139 150.614C96.8378 155.146 79.2068 176.608 79.0897 199.364C78.9725 222.121 96.3817 243.763 118.635 248.524C102.953 257.704 88.2784 269.365 78.603 284.746C68.9276 300.128 64.7801 319.65 70.5693 336.874C83.9595 376.714 139.771 386.223 159.467 423.352C164.801 405.831 156.982 387.41 152.963 369.541C148.944 351.673 151.215 328.727 167.875 321.118C163.006 297.651 158.137 274.185 153.268 250.718C149.64 233.232 147.82 211.078 162.863 201.452C152.264 198.165 142.857 191.163 136.666 181.954C143.352 192.187 156.228 197.993 168.324 196.229C153.039 163.095 136.091 130.727 117.565 99.2901C137.527 129.389 155.193 161.01 170.361 193.787C240.515 191.889 310.777 194.05 380.682 200.257C389.963 201.081 399.952 202.28 406.812 208.585C416.672 217.645 431.475 220.95 444.251 216.943C448.316 227.02 451.307 238.339 447.851 248.641C444.396 258.943 432.156 266.806 422.372 262.08C424.926 275.219 427.48 288.359 430.034 301.498C455.05 301.799 480.063 302.31 505.071 303.031C518.325 303.413 532.178 304.016 543.698 310.582C555.217 317.149 563.346 331.694 558.215 343.921C561.488 333.817 564.76 323.712 568.033 313.608C579.568 331.918 585.234 353.865 584.002 375.47C587.998 369.39 591.994 363.31 595.99 357.23C581.793 334.886 579.986 305.188 591.368 281.287C602.532 299.775 608.82 321.177 609.431 342.765C613.594 303.858 641.16 268.389 677.834 254.748C671.471 269.409 665.109 284.071 658.746 298.732C653.298 311.285 646.378 325.208 633.288 329.196C624.653 331.826 612.15 331.667 610.584 340.557C635.385 334.053 661.783 333.731 686.735 339.628C667.508 362.745 630.455 368.437 605.175 352.157C593.249 365.458 582.916 380.186 574.467 395.927C588.819 378.09 611.154 366.936 634.035 366.178C621.742 380.707 607.876 393.904 592.758 405.465C600.782 406.235 609.458 407.293 615.278 412.87C621.099 418.447 621.244 430.185 613.736 433.121M279.045 286.702C285.695 286.625 293.143 286.862 297.785 291.624C301.327 295.257 302.276 300.616 303.048 305.63C306.579 328.562 309.884 351.528 312.964 374.524C313.737 380.292 308.901 385.615 303.376 387.444C297.851 389.273 291.845 388.47 286.083 387.649C290.887 383.502 298.997 386.474 304.167 382.795C308.804 379.496 308.777 372.721 308.222 367.057C306.14 345.822 303.306 324.66 299.725 303.626C299.092 299.908 298.317 295.952 295.683 293.253C292.176 289.657 286.571 289.418 281.549 289.412C260.932 289.386 240.315 289.361 219.698 289.335C216.145 289.331 212.406 289.373 209.321 291.136C200.444 296.21 203.717 309.611 208.129 318.835C220.631 316.301 233.405 315.112 246.159 315.298C257.458 315.462 271.548 319.131 273.454 330.269C277.64 354.74 281.825 379.21 286.011 403.68C288.206 416.511 289.416 432.099 279.162 440.118C274.039 444.125 267.239 445.08 260.786 445.896C244.92 447.902 229.053 449.908 213.187 451.914C219.795 509.775 226.403 567.637 233.012 625.498C233.749 631.952 235.098 639.371 240.773 642.532C244.13 644.402 248.202 644.249 252.039 644.04C302.594 641.283 353.1 637.632 403.526 633.089C401.509 628.493 401.469 623.069 403.418 618.443C408.526 648.344 413.633 678.245 418.741 708.146C427.683 701.982 426.308 688.602 423.934 678.004C417.923 651.171 411.913 624.338 405.902 597.505C403.469 601.969 401.035 606.433 398.602 610.897C397.407 605.324 400.751 599.557 405.39 596.244C410.028 592.93 415.745 591.571 421.319 590.376C438.455 586.702 455.776 583.896 473.196 581.972C468.134 546.262 463.072 510.553 458.009 474.843C426.887 483.391 393.929 480.701 361.772 477.944C352.248 477.128 340.144 473.922 339.235 464.406C336.952 440.484 334.669 416.562 332.386 392.64C332.088 389.521 330.281 385.321 327.306 386.303C319.996 388.717 315.648 378.302 315.05 370.626C313.173 346.553 311.296 322.479 309.419 298.405C309.173 295.248 309.109 291.604 311.463 289.486C313.112 288.003 315.486 287.731 317.694 287.53C333.446 286.089 349.198 284.649 364.951 283.209C373.946 282.386 384.163 281.961 390.709 288.186C395.329 292.579 396.879 299.241 397.854 305.541C399.651 317.153 400.246 328.95 399.627 340.683C398.378 329.214 397.13 317.745 395.882 306.276C395.32 301.115 394.634 295.643 391.374 291.604C385.81 284.709 375.458 284.825 366.628 285.551C350.854 286.849 335.081 288.147 319.307 289.445C317.183 289.62 314.881 289.871 313.337 291.34C311.328 293.252 311.385 296.416 311.586 299.181C313.276 322.447 314.966 345.712 316.656 368.978C316.975 373.369 317.409 378.063 320.185 381.48C322.961 384.898 328.984 385.971 331.578 382.413C328.025 374.601 332.94 365.035 340.216 360.482C347.492 355.929 356.421 355.128 364.977 354.445C379.732 353.268 394.487 352.091 409.243 350.914C408.232 320.373 404.938 289.909 399.399 259.858C394.295 258.431 389.648 255.414 386.267 251.334C383.736 257.852 376.199 261.995 369.34 260.637C362.481 259.279 357.091 252.577 357.235 245.586C356.421 253.631 349.413 260.609 341.364 261.387C333.316 262.166 325.1 256.66 322.76 248.92C318.906 253.218 313.905 256.922 308.155 257.446C302.406 257.969 296.046 254.338 295.111 248.641C287.56 258.437 270.011 257.443 263.614 246.857C257.035 257.715 238.304 257.448 232.037 246.407C229.223 256.615 213.513 257.431 205.973 249.998C198.432 242.565 196.964 231.115 195.915 220.579C183.468 232.572 181.222 251.838 183.585 268.96C185.947 286.083 192.103 302.577 193.597 319.797C197.007 320.654 200.747 320.113 203.774 318.324C200.504 308.443 198.354 295.168 207.23 289.733C210.79 287.553 215.196 287.442 219.37 287.393C239.262 287.163 259.153 286.933 279.045 286.702M476.097 452.988C502.19 451.692 529.107 455.093 553.904 446.87C557.741 445.597 561.672 443.92 564.144 440.721C557.81 437.81 551.083 432.791 551.238 425.821C551.34 421.244 554.512 417.288 558.085 414.426C561.836 411.421 566.203 409.19 570.836 407.911C571.211 406.764 569.195 406.516 568.196 407.193C567.198 407.871 565.682 408.709 565.018 407.702C564.839 407.431 564.803 407.094 564.771 406.772C562.282 381.444 558.594 356.235 553.723 331.255C552.259 323.745 550.083 315.379 543.463 311.541C539.889 309.468 535.605 309.12 531.483 308.835C500.455 306.688 469.369 305.374 438.27 304.892C430.921 304.779 422.699 305.052 417.546 310.294C413.638 314.271 412.518 320.177 412.104 325.738C410.823 342.956 414.51 360.096 416.909 377.194C419.782 397.677 420.816 418.366 422.712 438.962C422.964 441.703 423.27 444.559 424.752 446.878C427.294 450.853 432.454 452.1 437.127 452.755C444.03 453.723 451.011 454.132 457.98 453.978C464.027 453.844 470.056 453.288 476.097 452.988M261.954 320.128C253.121 316.245 243.004 317.285 233.419 318.398C218.921 320.081 204.423 321.764 189.925 323.447C182.957 324.256 175.982 325.066 169.088 326.366C167.426 326.68 165.759 327.025 164.191 327.658C158.046 330.142 154.383 336.767 153.531 343.34C152.678 349.912 154.139 356.538 155.54 363.016C159.892 383.148 163.752 403.468 164.799 424.039C165.006 428.111 165.11 432.237 166.23 436.158C167.349 440.079 169.634 443.851 173.208 445.815C175.956 447.326 179.186 447.639 182.316 447.845C211.004 449.73 239.677 445.104 268.055 440.493C272.093 439.837 276.341 439.088 279.488 436.476C284.349 432.441 285.076 425.342 285.041 419.024C284.976 407.357 283.564 395.698 280.84 384.352C277.655 371.083 272.653 358.03 272.521 344.385C272.462 338.366 273.252 331.881 270.112 326.746C268.257 323.712 265.21 321.559 261.954 320.128M125.44 572.802C129.296 600.512 130.592 628.577 129.305 656.524C129.237 657.998 131.027 658.748 132.476 659.025C151.027 662.571 170.133 658.027 188.135 652.311C198.368 649.062 208.609 645.359 217.46 639.28C221.508 636.499 225.605 632.309 224.848 627.456C219.984 596.278 217.309 564.76 216.849 533.208C200.469 546.007 179.683 551.438 159.538 556.563C149.989 558.992 140.312 561.437 130.46 561.355C128.078 561.335 126.101 563.427 125.435 565.714C124.77 568.001 125.112 570.443 125.44 572.802M501.946 586.809C471.263 583.821 439.964 587.33 410.705 597.037C412.461 610.402 414.862 623.681 417.895 636.815C419.109 642.074 420.425 647.309 421.741 652.544C424.303 662.739 426.865 672.933 429.427 683.128C429.784 684.547 430.231 686.098 431.454 686.9C432.545 687.617 433.958 687.535 435.26 687.427C465.556 684.9 495.836 682.163 526.095 679.215C519.48 649.728 512.865 620.241 506.25 590.755C505.996 589.622 505.69 588.401 504.789 587.669C504.008 587.036 502.946 586.907 501.946 586.809M456.717 457.369C450.04 457.709 443.264 458.041 436.745 456.56C430.226 455.079 423.882 451.526 420.534 445.739C418.613 447.951 414.793 448.117 412.687 446.08C410.581 444.043 410.619 440.22 412.765 438.225C404.284 438.302 395.803 438.378 387.321 438.455C391.197 440.738 390.879 447.47 386.872 449.515C382.865 451.56 377.319 448.106 377.226 443.608C377.185 441.59 378.423 439.323 380.434 439.142C379.6 437.713 377.435 438.559 375.788 438.403C373.306 438.168 371.95 435.464 371.079 433.128C367.548 423.654 364.335 414.065 361.123 404.479C363.373 408.16 368.438 409.816 372.428 408.175C373.837 407.595 373.88 405.568 373.28 404.167C372.232 401.721 369.844 399.835 367.191 399.627C364.538 399.419 361.777 401.04 360.88 403.545C359.55 402.551 360.117 400.252 361.512 399.351C362.907 398.451 364.694 398.53 366.351 398.63C381.994 399.575 397.695 399.56 413.336 398.585C414.048 398.541 414.833 398.461 415.318 397.939C415.867 397.348 415.814 396.436 415.727 395.634C415.129 390.132 414.531 384.63 413.933 379.128C413.867 378.518 413.773 377.851 413.317 377.44C412.815 376.987 412.058 377.008 411.384 377.056C391.777 378.453 372.221 380.564 352.768 383.382C350.697 383.682 348.771 381.944 348.118 379.956C347.464 377.969 347.766 375.809 348.075 373.739C348.183 373.013 348.321 372.227 348.859 371.727C349.354 371.267 350.072 371.159 350.743 371.073C370.982 368.49 391.353 366.94 411.75 366.431C411.255 368.446 408.627 368.88 406.552 368.917C387.622 369.253 368.713 370.771 349.971 373.458C348.475 376.017 350.526 379.464 353.288 380.54C356.051 381.616 359.145 381.041 362.059 380.493C378.116 377.471 394.407 375.69 410.739 375.171C413.07 375.097 413.349 371.742 412.859 369.461C411.721 364.164 410.583 358.867 409.445 353.571C398.135 355.712 386.582 356.567 375.081 356.113C368.275 355.844 361.506 357.033 354.798 358.218C349.098 359.225 343.023 360.418 338.904 364.485C334.089 369.238 333.226 376.671 333.518 383.431C333.998 394.521 336.812 405.369 338.201 416.382C339.899 429.839 339.462 443.479 340.765 456.979C341.116 460.616 341.617 464.321 343.248 467.591C344.878 470.861 347.843 473.668 351.457 474.207C381.154 478.635 411.434 479.138 441.263 475.699C444.018 475.381 446.798 475.023 449.399 474.061C453.504 472.542 457.024 469.497 459.119 465.654C459.959 464.111 460.587 462.347 460.28 460.617C459.974 458.887 458.471 457.28 456.717 457.369M219.297 533.235C222.404 567.428 225.512 601.621 228.62 635.814C229.179 641.96 229.717 648.309 227.796 654.173C225.875 660.038 220.822 665.339 214.654 665.541C218.275 670.837 224.524 673.866 230.844 674.975C237.163 676.084 243.643 675.497 250.031 674.907C302.673 670.043 355.314 665.179 407.955 660.316C406.825 653.737 405.695 647.159 404.565 640.581C404.312 639.105 403.587 637.232 402.093 637.344C365.899 640.041 329.705 642.738 293.511 645.435C278.649 646.543 263.713 647.651 248.859 646.436C241.342 645.821 232.059 642.834 231.318 635.329C225.384 575.282 218.515 515.327 210.713 455.494C210.593 454.574 210.444 453.59 209.814 452.907C208.974 451.996 207.584 451.927 206.345 451.921C198.944 451.883 191.543 451.845 184.142 451.807C186.303 464.069 189.109 476.217 192.544 488.185C193.179 490.397 194.235 492.979 196.501 493.377C204.639 494.806 211.062 501.5 214.41 509.054C217.758 516.608 218.549 525.007 219.297 533.235M190.861 320.398C184.508 288.178 179.134 255.766 174.746 223.22C174.498 221.379 174.258 219.471 174.8 217.694C175.916 214.032 179.921 212.114 183.646 211.23C190.928 209.503 198.533 210.079 205.997 210.629C274.237 215.661 342.7 217.674 411.118 216.662C408.397 211.142 402.924 207.378 397.104 205.382C391.283 203.386 385.063 202.942 378.924 202.518C318.698 198.356 258.381 194.456 198.015 195.183C190.63 195.272 183.158 195.442 176.027 197.365C168.896 199.288 162.034 203.161 157.92 209.295C151.437 218.961 153.005 231.73 155.012 243.194C159.711 270.042 165.428 296.712 172.146 323.126C178.385 322.217 184.623 321.308 190.861 320.398M337.795 257.425C341.056 257.459 344.445 257.276 347.331 255.757C352.413 253.082 354.669 246.918 355.005 241.185C355.341 235.451 354.209 229.705 354.573 223.973C354.657 222.667 355.386 220.935 356.654 221.263C357.572 227.862 358.489 234.46 359.407 241.058C359.914 244.701 360.441 248.412 362.037 251.726C363.633 255.039 366.502 257.952 370.114 258.646C372.189 259.044 374.355 258.687 376.332 257.944C381.066 256.164 385.033 251.634 384.853 246.58C384.605 239.602 384.356 232.623 384.108 225.645C384.01 222.885 382.983 219.206 380.225 219.351C361.832 220.314 343.385 220.229 325.003 219.096C323.663 219.013 323.309 220.912 323.451 222.248C324.187 229.169 324.922 236.091 325.658 243.012C326.214 248.238 327.4 254.38 332.195 256.531C333.932 257.31 335.89 257.405 337.795 257.425M432.126 691.745C431.245 692.362 430.663 693.312 430.127 694.245C427.337 699.101 425.096 704.271 423.458 709.626C455.653 707.377 487.822 704.763 519.958 701.786C521.166 701.674 522.476 701.516 523.343 700.667C523.905 700.116 524.194 699.351 524.466 698.612C525.669 695.344 526.871 692.077 528.074 688.809C528.66 687.219 529.18 685.241 528.035 683.991C527.084 682.953 525.467 682.986 524.064 683.098C494.682 685.452 465.315 687.987 435.965 690.702C434.629 690.826 433.225 690.974 432.126 691.745M488.879 493.39C488.009 483.232 486.235 471.832 477.946 465.898C474.711 474.805 471.446 483.847 470.706 493.295C469.966 502.743 472.054 512.812 478.391 519.858C479.282 520.848 480.272 521.809 480.744 523.054C481.216 524.299 480.977 525.943 479.821 526.604C471.206 519.108 467.641 507.087 467.842 495.67C468.044 484.254 471.543 473.184 475.01 462.305C475.772 459.915 473.593 457.4 471.147 456.843C468.701 456.286 466.175 457.103 463.8 457.911C463.338 458.068 463.134 458.596 462.988 459.062C461.345 464.295 459.688 469.844 460.96 475.179C466.441 498.168 465.733 522.295 471.312 545.26C471.518 546.108 471.741 546.974 472.235 547.693C475.935 540.458 479.635 533.224 483.335 525.989C485.074 522.59 486.822 519.166 487.908 515.505C490.018 508.387 489.513 500.787 488.879 493.39M619.768 326.524C620.483 327.114 621.442 327.3 622.363 327.403C632.826 328.573 642.7 321.451 648.494 312.66C654.288 303.87 657.025 293.484 660.824 283.665C664.389 274.449 668.948 265.619 674.398 257.376C663.487 267.614 650.055 274.783 638.666 284.487C627.277 294.191 617.585 307.801 618.388 322.741C618.463 324.122 618.701 325.644 619.768 326.524M200.716 227.517C202.203 234.037 201.588 241.282 205.2 246.91C208.702 252.365 216.089 254.965 222.236 252.906C228.383 250.847 232.713 244.321 232.221 237.857C232.109 236.388 231.778 234.946 231.447 233.51C230.152 227.885 228.857 222.26 227.562 216.635C227.433 216.075 227.289 215.486 226.892 215.071C226.323 214.476 225.412 214.407 224.589 214.375C216.677 214.073 208.765 213.77 200.852 213.467C200.091 213.438 199.256 213.432 198.664 213.911C197.915 214.519 197.872 215.634 197.97 216.593C198.349 220.333 199.88 223.851 200.716 227.517M414.897 233.598C415.086 242.604 420.953 250.435 427.141 256.981C427.745 257.62 428.365 258.262 429.12 258.714C430.341 259.444 431.827 259.616 433.244 259.495C438.024 259.084 442.113 255.469 444.131 251.116C446.148 246.763 446.376 241.784 445.941 237.006C445.507 232.228 444.449 227.522 444.023 222.744C443.937 221.785 443.585 220.534 442.623 220.538C434.164 220.57 425.705 220.602 417.246 220.635C416.164 220.639 415.017 220.661 414.103 221.24C413.189 221.819 412.679 223.172 413.357 224.015C415.428 226.592 414.827 230.293 414.897 233.598M543.533 512.173C520.357 511.765 499.111 525.504 482.901 542.072C480.169 544.865 477.501 547.795 475.682 551.253C475.36 551.865 475.106 552.717 475.634 553.164C475.914 553.402 476.316 553.416 476.684 553.415C490.167 553.367 503.134 547.672 514.089 539.811C525.044 531.95 534.274 521.974 543.533 512.173M256.761 251.271C260.072 249.365 262.203 245.57 262.106 241.751C262.057 239.814 261.485 237.935 261.025 236.053C259.84 231.21 259.38 226.191 259.663 221.214C259.724 220.154 259.814 219.065 259.496 218.052C259.177 217.039 258.332 216.108 257.271 216.05C248.514 215.572 239.756 215.093 230.998 214.615C230.683 214.598 230.339 214.589 230.085 214.775C229.69 215.065 229.713 215.651 229.786 216.134C230.863 223.261 234.312 229.974 234.533 237.179C234.615 239.829 234.26 242.546 235.003 245.092C235.953 248.353 238.669 250.927 241.82 252.195C244.97 253.464 248.505 253.536 251.848 252.933C253.558 252.625 255.255 252.137 256.761 251.271M607.196 348.84C613.539 350.629 619.147 354.37 625.3 356.73C638.941 361.962 655.178 359.778 666.951 351.127C672.007 347.412 677.062 343.697 682.117 339.982C675.955 341.441 669.58 341.999 663.259 341.635C652.695 341.026 642.263 337.862 631.712 338.655C622.736 339.329 614.007 342.955 607.196 348.84M426.073 300.03C424.826 293.124 423.58 286.218 422.333 279.312C420.662 270.056 418.991 260.801 417.32 251.545C417.202 250.888 417.058 250.184 416.572 249.727C416.085 249.27 415.136 249.269 414.871 249.881C413.202 253.733 409.785 256.786 405.771 258.013C403.335 258.757 403.127 262.08 403.41 264.611C405.407 282.469 407.772 300.285 410.501 318.046C411.295 310.782 417.52 304.474 424.773 303.583C426.184 303.41 426.326 301.429 426.073 300.03M292.818 243.859C292.043 236.414 291.066 228.99 289.887 221.598C289.644 220.074 288.995 218.174 287.453 218.106C279.482 217.756 271.51 217.407 263.539 217.057C263.255 217.045 262.955 217.035 262.703 217.169C262.06 217.51 262.165 218.448 262.355 219.151C264.193 225.977 265.169 233.034 265.251 240.102C265.271 241.841 265.251 243.647 265.979 245.227C267.051 247.552 269.49 248.886 271.808 249.972C275.847 251.864 280.264 253.528 284.672 252.841C289.08 252.154 293.28 248.296 292.818 243.859M296.265 243.901C297.069 247.796 298.543 252.327 302.359 253.447C305.58 254.392 309.062 254.653 312.293 253.742C315.523 252.831 318.469 250.662 319.915 247.633C320.944 245.477 321.176 243.036 321.31 240.651C321.677 234.117 321.425 227.547 320.557 221.06C320.51 220.713 320.459 220.356 320.283 220.052C319.818 219.247 318.722 219.134 317.792 219.114C309.675 218.937 301.558 218.76 293.441 218.583C292.778 218.569 291.852 219.258 292.413 219.612C293.321 227.762 294.607 235.87 296.265 243.901M569.01 324.515C562.669 338.851 560.802 355.127 563.731 370.526C564.901 376.678 567.202 383.206 572.527 386.501C574.094 387.471 576.706 387.757 577.286 386.008C584.022 365.685 580.879 342.333 569.01 324.515M158.017 504.504C160.707 506.35 163.739 507.695 166.912 508.451C170.923 509.407 175.087 509.418 179.208 509.517C188.839 509.749 198.457 510.487 208.01 511.727C209.342 511.899 210.444 510.457 210.409 509.114C210.374 507.77 209.556 506.584 208.709 505.54C203.614 499.264 196.174 494.938 188.199 493.615C182.549 492.678 176.773 493.203 171.048 493.039C165.324 492.874 159.349 491.905 154.784 488.447C154.542 491.735 154.523 495.04 154.726 498.331C154.808 499.663 154.943 501.044 155.622 502.193C156.191 503.156 157.095 503.871 158.017 504.504M389.709 249.084C390.607 250.714 392.05 251.971 393.528 253.103C395.129 254.33 396.859 255.479 398.826 255.929C403.668 257.038 408.62 253.45 410.661 248.921C412.702 244.391 412.495 239.199 412.023 234.254C411.665 230.515 411.179 226.788 410.564 223.082C410.462 222.465 410.343 221.819 409.955 221.327C409.273 220.465 408.026 220.365 406.927 220.336C401.024 220.179 395.12 220.022 389.216 219.865C387.909 219.831 386.053 220.456 386.441 221.704C388.178 227.294 388.936 233.187 388.669 239.034C388.513 242.447 388.06 246.092 389.709 249.084M598.638 352.869C604.906 342.754 606.782 330.018 603.697 318.526C600.97 308.365 594.631 299.363 592.621 289.036C587.937 303.25 583.22 318.551 587.457 332.904C589.629 340.26 594.016 346.748 598.638 352.869M494.8 512.005C513.441 507.203 530.649 496.967 543.765 482.876C547.689 478.66 551.706 474.531 555.813 470.492C545.753 471.871 535.932 474.982 526.914 479.647C513.155 486.764 501.082 497.846 494.799 512.005M608.376 388.268C615.232 381.825 622.088 375.381 628.945 368.937C605.758 371.893 584.104 385.291 571.111 404.721C574.46 407.301 579.265 405.782 583.171 404.166C588.605 401.919 594.085 399.647 598.922 396.305C602.328 393.951 605.359 391.104 608.376 388.268M157.425 529.096C157.482 529.691 157.553 530.321 157.913 530.798C158.703 531.843 160.312 531.586 161.568 531.219C175.956 527.015 190.143 522.119 204.061 516.555C205.065 516.154 206.235 515.519 206.255 514.439C195.578 513.698 184.9 512.958 174.222 512.217C171.61 512.036 168.988 511.853 166.428 511.307C162.576 510.485 158.904 508.834 155.733 506.499C155.965 514.05 156.695 521.576 157.425 529.096M494.733 456.849C493.871 457.471 493.523 458.569 493.227 459.589C492.21 463.092 491.189 466.808 492.133 470.331C492.614 472.126 493.579 473.747 494.533 475.342C497.172 479.754 499.812 484.165 502.451 488.577C502.697 488.987 502.963 489.418 503.387 489.641C504.647 490.302 505.891 488.748 506.476 487.45C510.275 479.025 514.159 470.116 513.298 460.915C513.165 459.5 512.781 457.894 511.517 457.246C510.936 456.948 510.262 456.91 509.61 456.877C505.697 456.683 501.784 456.489 497.872 456.294C496.789 456.241 495.611 456.213 494.733 456.849M554.537 425.658C554.437 431.588 559.61 436.546 565.284 438.272C570.958 439.998 577.047 439.255 582.944 438.622C593.312 437.509 604.278 436.591 612.802 430.583C614.693 429.25 616.481 427.605 617.325 425.451C618.643 422.09 617.318 418.122 614.841 415.496C612.363 412.87 608.929 411.369 605.491 410.268C593.205 406.335 579.565 406.789 567.568 411.528C561.239 414.028 554.652 418.854 554.537 425.658M156.448 486.231C157.565 487.273 159.829 487.539 160.264 486.075C161.756 481.059 165.111 476.758 169.062 473.326C173.014 469.894 177.569 467.244 182.095 464.615C183.316 463.906 183.239 462.147 183.003 460.755C182.546 458.059 182.089 455.363 181.632 452.667C181.516 451.984 181.288 451.17 180.619 450.987C180.072 450.838 179.532 451.207 179.085 451.556C175.838 454.092 172.592 456.627 169.345 459.162C162.84 464.242 155.869 470.07 154.458 478.202C153.967 481.035 154.346 484.27 156.448 486.231M181.773 468.083C174.482 472.636 166.764 477.677 163.451 485.609C163.244 486.103 163.054 486.622 163.07 487.157C163.102 488.212 163.953 489.102 164.928 489.507C165.902 489.913 166.988 489.931 168.044 489.943C174.286 490.017 180.528 490.09 186.769 490.164C187.073 490.167 187.402 490.163 187.642 489.976C188.02 489.681 187.982 489.107 187.907 488.633C186.911 482.341 185.915 476.049 184.92 469.756C184.778 468.861 184.489 467.791 183.616 467.547C182.98 467.369 182.333 467.733 181.773 468.083M491.879 457.235C487.283 456.05 482.326 456.308 477.879 457.965C478.74 460.791 480.266 463.413 482.299 465.556C489.151 472.78 491.177 483.268 491.955 493.194C492.37 498.495 492.516 503.818 492.393 509.135C495.403 504.492 498.412 499.849 501.422 495.206C501.721 494.745 502.03 494.256 502.062 493.707C502.095 493.157 501.846 492.634 501.593 492.145C498.623 486.41 494.259 481.465 491.503 475.624C488.748 469.783 487.903 462.325 491.879 457.235M183.982 214.203C181.447 214.606 178.556 215.25 177.352 217.516C176.52 219.083 176.766 220.979 177.033 222.733C178.135 229.957 179.236 237.182 180.338 244.406C185.976 234.268 191.255 223.936 196.532 213.607C195.555 212.502 193.824 212.642 192.368 212.873C189.573 213.317 186.777 213.76 183.982 214.203M530.981 459.496C531.762 460.531 533.799 459.385 533.32 458.18C540.849 460.342 549.057 458.803 556.169 455.519C563.281 452.234 569.49 447.313 575.601 442.412C573.035 442.053 570.468 441.695 567.902 441.336C567.378 441.263 566.699 441.273 566.499 441.762C565.117 445.145 562.142 447.679 558.857 449.279C555.571 450.879 551.956 451.654 548.382 452.416C545.902 452.944 543.421 453.473 540.941 454.001C537.099 454.819 532.767 455.998 530.981 459.496M394.766 407.11C395.248 406.988 395.766 406.843 396.074 406.452C396.553 405.847 396.313 404.976 396.188 404.214C396.063 403.452 396.255 402.438 397.016 402.306C397.709 402.444 398.029 403.266 398.046 403.973C398.063 404.68 397.907 405.417 398.163 406.076C398.732 407.544 400.758 407.602 402.319 407.403C403.243 407.285 404.167 407.167 405.091 407.05C405.38 407.013 405.689 406.967 405.905 406.77C406.588 406.144 405.637 405.122 405.425 404.22C405.262 403.522 405.588 402.768 405.374 402.085C405.01 400.921 403.462 400.742 402.242 400.783C392.917 401.092 383.592 401.402 374.266 401.711C374.426 403.476 374.909 405.211 375.684 406.804C375.85 407.148 376.047 407.502 376.378 407.692C376.715 407.885 377.126 407.872 377.513 407.854C379.831 407.747 382.149 407.639 384.467 407.531C384.665 407.522 384.872 407.51 385.037 407.401C385.46 407.121 385.313 406.476 385.119 406.008C384.784 405.201 384.449 404.395 384.115 403.589C383.823 402.887 385.093 402.472 385.628 403.011C386.162 403.551 386.182 404.397 386.434 405.113C386.957 406.6 388.538 407.507 390.102 407.698C391.667 407.889 393.238 407.498 394.766 407.11M530.199 456.476C530.707 455.935 529.586 455.37 528.85 455.46C524.65 455.975 520.451 456.49 516.252 457.005C515.691 457.074 514.949 457.382 515.083 457.931C516.462 463.581 515.945 469.678 513.632 475.014C513.192 476.031 512.903 477.583 513.957 477.924C518.336 470.064 523.82 462.821 530.199 456.476M387.121 411.372C386.989 410.915 386.841 410.436 386.494 410.113C386.099 409.745 385.529 409.652 384.993 409.593C382.242 409.292 379.438 409.481 376.751 410.148C377.592 412.874 378.432 415.599 379.272 418.325C379.432 418.841 379.646 419.421 380.147 419.623C380.404 419.727 380.691 419.709 380.967 419.69C383.683 419.499 386.4 419.309 389.116 419.118C388.526 416.517 387.861 413.934 387.121 411.372M369.435 420.902C369.737 421.067 370.106 421.017 370.445 420.961C372.905 420.56 375.364 420.16 377.823 419.759C376.936 416.915 376.048 414.071 375.161 411.227C375.031 410.81 374.869 410.352 374.484 410.144C374.18 409.98 373.811 410.015 373.467 410.055C371.275 410.31 369.082 410.565 366.889 410.82C366.477 410.868 365.989 410.971 365.836 411.357C365.732 411.619 365.83 411.913 365.928 412.177C366.894 414.784 367.86 417.391 368.826 419.998C368.955 420.346 369.108 420.724 369.435 420.902M397.066 409.541C396.546 409.089 395.776 409.12 395.09 409.177C392.924 409.355 390.758 409.533 388.592 409.711C389.24 412.486 390.055 415.223 391.032 417.9C391.16 418.251 391.305 418.621 391.603 418.846C391.975 419.127 392.485 419.111 392.951 419.083C394.429 418.994 395.908 418.905 397.386 418.816C398.067 418.775 398.895 418.629 399.124 417.987C399.233 417.678 399.162 417.337 399.091 417.017C398.641 415.014 398.191 413.011 397.742 411.009C397.621 410.474 397.48 409.901 397.066 409.541M384.145 429.48C383.931 429.514 383.703 429.554 383.547 429.705C383.243 429.998 383.382 430.502 383.542 430.893C384.111 432.285 384.68 433.678 385.249 435.07C385.46 435.587 385.698 436.136 386.169 436.435C386.605 436.711 387.153 436.717 387.668 436.714C389.634 436.702 391.599 436.69 393.564 436.679C393.852 436.677 394.164 436.667 394.386 436.483C394.788 436.151 394.638 435.513 394.453 435.026C393.697 433.033 392.941 431.04 392.185 429.047C391.942 428.407 391.052 428.398 390.376 428.504C388.299 428.829 386.222 429.155 384.145 429.48M400.68 409.147C400.267 409.148 399.803 409.171 399.524 409.477C399.188 409.845 399.295 410.421 399.422 410.903C399.981 413.015 400.54 415.128 401.098 417.24C401.197 417.611 401.311 418.008 401.609 418.251C402.005 418.574 402.577 418.513 403.082 418.436C404.945 418.152 406.808 417.867 408.671 417.583C408.471 415.42 408.128 413.272 407.644 411.155C407.493 410.493 407.284 409.771 406.711 409.407C406.282 409.135 405.742 409.128 405.234 409.13C403.716 409.136 402.198 409.141 400.68 409.147M404.472 436.43C403.869 434.238 403.265 432.045 402.661 429.852C402.431 429.015 402.104 428.066 401.294 427.75C400.895 427.595 400.451 427.629 400.025 427.666C398.037 427.839 396.048 428.012 394.06 428.185C394.584 430.149 395.205 432.087 395.919 433.99C396.279 434.948 396.824 436.034 397.834 436.197C400.026 436.552 402.262 436.63 404.472 436.43M407.933 436.278C409.735 436.425 411.713 436.525 413.17 435.454C412.538 432.998 411.907 430.542 411.275 428.086C411.133 427.533 410.943 426.917 410.436 426.654C410.064 426.46 409.617 426.513 409.202 426.571C407.416 426.82 405.631 427.068 403.845 427.317C404.27 429.917 404.99 432.468 405.988 434.906C406.141 435.281 406.314 435.669 406.634 435.915C406.996 436.194 407.479 436.241 407.933 436.278M568.521 401.314C569.897 398.489 571.274 395.664 572.65 392.839C572.795 392.542 572.943 392.221 572.891 391.895C572.839 391.578 572.608 391.324 572.387 391.09C570.428 389.019 568.469 386.947 566.509 384.875C565.695 385.987 565.789 387.498 565.919 388.871C566.345 393.374 566.772 397.878 567.198 402.382C567.798 402.515 568.252 401.866 568.521 401.314M409.913 408.82C409.656 408.802 409.363 408.797 409.183 408.982C408.982 409.19 409.026 409.525 409.085 409.808C409.473 411.678 409.86 413.548 410.248 415.418C410.392 416.111 410.562 416.852 411.085 417.329C412.777 418.873 416.037 416.218 417.61 417.883C417.887 415.227 417.688 412.523 417.026 409.937C416.979 409.755 416.924 409.563 416.785 409.438C416.624 409.293 416.39 409.271 416.174 409.256C414.087 409.111 412 408.966 409.913 408.82M370.981 422.689C370.755 422.72 370.52 422.754 370.334 422.886C369.923 423.178 369.939 423.784 369.998 424.285C370.155 425.623 370.329 427.007 371.028 428.157C371.728 429.308 373.11 430.16 374.411 429.812C376.274 429.312 378.138 428.812 380.002 428.312C379.921 426.531 379.56 424.763 378.937 423.092C378.782 422.675 378.586 422.236 378.203 422.01C377.805 421.776 377.308 421.831 376.85 421.893C374.894 422.158 372.937 422.424 370.981 422.689M414.449 407.06C415.01 406.975 415.608 406.873 416.025 406.488C417.266 405.341 415.847 403.01 416.853 401.653C417.246 401.123 416.284 400.648 415.625 400.676C412.681 400.8 409.737 400.925 406.793 401.049C406.907 402.267 407.119 403.476 407.425 404.66C407.767 405.98 409.054 406.883 410.386 407.176C411.717 407.468 413.101 407.265 414.449 407.06M390.655 422.917C390.276 421.096 387.838 420.67 386.009 421.011C384.181 421.352 382.138 422.012 380.584 420.99C380.683 422.912 381.132 424.817 381.903 426.581C382.065 426.951 382.261 427.338 382.613 427.537C383.01 427.761 383.501 427.69 383.951 427.612C385.753 427.301 387.556 426.99 389.359 426.678C390.252 426.524 391.43 425.817 390.96 425.041C390.585 424.423 390.802 423.624 390.655 422.917M379.519 430.393C378.046 430.642 376.573 430.892 375.1 431.141C374.303 431.276 373.32 431.596 373.235 432.4C373.02 434.434 375.046 436.073 377.05 436.478C379.054 436.883 381.134 436.487 383.169 436.688C383.085 434.96 382.723 433.245 382.102 431.63C381.954 431.246 381.778 430.849 381.452 430.598C380.923 430.19 380.177 430.281 379.519 430.393M418.334 426.448C416.38 426.241 414.393 426.345 412.47 426.754C413.533 429.284 414.287 431.943 414.712 434.654C414.907 435.897 416.681 435.921 417.9 435.611C418.355 435.495 418.851 435.351 419.111 434.96C419.334 434.623 419.324 434.188 419.305 433.784C419.2 431.552 419.096 429.319 418.991 427.087C418.985 426.946 418.975 426.797 418.894 426.681C418.775 426.51 418.542 426.47 418.334 426.448M386.419 446.449C388.262 444.609 387.317 440.896 384.819 440.161C382.321 439.425 379.516 442.035 380.069 444.58C380.64 447.21 384.513 448.35 386.419 446.449M400.905 424.885C402.077 423.355 400.322 421.096 398.423 420.763C396.524 420.43 394.6 421.158 392.672 421.13C391.962 421.119 391.932 422.188 392.163 422.859C392.462 423.728 392.76 424.597 393.059 425.466C393.181 425.822 393.402 426.248 393.777 426.225C395.152 426.139 396.526 426.053 397.901 425.967C398.998 425.898 400.236 425.758 400.905 424.885M419.904 439.659C419.762 439.275 419.552 438.9 419.221 438.658C418.924 438.442 418.553 438.35 418.188 438.306C415.303 437.958 412.503 440.836 412.929 443.71C414.157 445.17 416.469 445.573 418.118 444.615C419.767 443.657 420.563 441.449 419.904 439.659M402.096 422.282C402.033 423.546 403.145 424.625 404.363 424.966C405.582 425.307 406.879 425.087 408.125 424.865C408.763 424.751 409.478 424.587 409.812 424.031C410.524 422.847 409.11 420.676 410.415 420.222C409.539 420.101 408.664 419.981 407.788 419.861C406.631 419.702 405.435 419.545 404.313 419.866C403.191 420.186 402.155 421.116 402.096 422.282M412.565 423.9C413.892 425.053 416.113 424.894 417.346 423.641C418.579 422.387 418.739 420.263 417.81 418.77C415.487 419.201 413.165 419.632 410.842 420.062C411.135 421.46 411.487 422.962 412.565 423.9M592.018 401.702C590.209 402.372 588.401 403.042 586.592 403.712C585.694 404.045 584.783 404.384 584.005 404.943C586.963 406.097 590.694 404.589 592.018 401.702M423.927 258.173C423.88 257.374 423.035 256.721 422.25 256.877C422.3 257.69 423.111 258.373 423.921 258.286L423.927 258.173Z" fill="#00160A"/>
</svg>
