<svg width="603" height="441" viewBox="0 0 603 441" fill="none" xmlns="http://www.w3.org/2000/svg">
<g clip-path="url(#clip0_27_1095)">
<path fill-rule="evenodd" clip-rule="evenodd" d="M417.912 4.95246C482.445 -9.49331 542.232 7.64587 574.366 56.6006C606.5 105.555 598.094 183.237 591.133 217.526C584.172 251.815 566.514 283.221 544.598 310.487C503.892 361.129 448.883 399.883 387.387 420.803C325.891 441.722 259.123 446.012 195.037 435.429C159.087 429.492 46.6329 400.408 22.3581 312.64C-1.9166 224.872 -17.2795 149.858 35.2878 119.387C87.8552 88.9155 124.267 111.834 150.29 123.104C271.869 175.757 353.38 19.3982 417.912 4.95246Z" fill="#F93059"/>
<path fill-rule="evenodd" clip-rule="evenodd" d="M508.784 87.1603C519.136 86.3609 530.294 86.878 538.73 92.9309C547.166 98.9837 550.998 112.275 544.071 120.01C551.903 116.948 561.107 122.141 565.03 129.578C568.953 137.016 568.748 145.927 567.567 154.252C564.644 174.87 556.239 194.686 543.446 211.118C542.858 212.85 542.27 214.582 541.683 216.314C556.804 220.213 615.85 243.144 599.896 299.674C583.942 356.204 514.267 377.72 507.135 384.486C494.705 396.278 475.732 397.084 458.606 396.541C416.498 395.205 374.518 389.853 333.421 380.583C329.927 379.795 325.501 379.315 323.487 382.276C308.909 403.71 278.423 405.627 252.569 403.761C219.358 401.364 186.339 396.327 153.924 388.714C135.538 384.395 116.013 378.381 104.559 363.364C91.2061 345.857 92.7482 321.585 94.9149 299.674C86.1383 304.553 71.5817 307.196 51.2452 307.602C39.2716 305.16 31.8027 300.82 28.8387 294.581C15.2843 266.053 10.6362 229.29 27.5152 201.171C29.5428 197.793 31.8822 194.464 35.1838 192.314C38.6841 190.035 42.9515 189.286 47.112 188.918C63.5222 187.464 80.3594 191.295 94.5257 199.704C94.3992 153.661 94.2727 107.618 94.1462 61.5753C94.139 58.9386 94.1757 56.1407 95.5814 53.9099C97.6146 50.6835 101.78 49.6834 105.529 48.9836C139.631 42.6174 174.12 38.324 208.742 36.1347C220.055 35.4194 235.537 38.5678 235.588 49.9028C235.785 93.3118 235.983 136.721 236.18 180.13C236.227 190.462 236.891 189.598 241.731 186.604C238.689 186.919 239.368 181.758 241.673 179.748C250.282 172.243 262.827 171.967 274.246 172.084C299.79 172.345 325.333 172.607 350.877 172.868C375.627 173.122 405.307 176.26 416.512 198.33C416.187 191.771 422.131 185.581 428.698 185.641C435.859 185.707 441.849 179.495 443.939 172.645C446.03 165.795 445.107 158.435 444.167 151.335C432.619 140.153 429.597 121.146 437.105 106.934C444.614 92.7222 462.019 84.5078 477.763 87.7454C487.933 89.8367 498.432 87.9598 508.784 87.1603ZM212.387 300.093C212.047 309.232 211.687 318.494 208.998 327.235L212.387 300.093ZM201.804 187.929C204.182 188.625 207.123 190.733 205.875 192.873C216.203 193.905 213.119 193.427 213.583 181.256C214.055 168.907 214.094 155.252 206.009 145.905C198.855 137.634 187.188 135.047 176.292 134.117C163.574 133.031 150.719 133.553 138.131 135.665C131.989 136.696 125.336 138.473 121.772 143.58C119.777 146.438 119.043 149.968 118.457 153.404C116.152 166.92 115.432 180.705 116.317 194.387C142.795 182.068 173.776 179.727 201.804 187.929ZM431.596 278.664C432.243 278.011 433.224 277.852 434.135 277.726C437.774 277.226 441.413 276.725 445.052 276.225C436.701 272.453 431.639 263.494 430.127 254.456C428.615 245.419 430.092 236.179 431.583 227.138C426.241 233.083 426.627 242.052 427.326 250.013C428.858 267.438 430.949 279.318 431.596 278.664ZM362.894 364.492C363.609 362.165 366.045 360.915 367.829 359.257C371.04 356.273 372.233 351.761 373.28 347.505C376.9 332.796 380.541 317.908 380.496 302.76C380.486 299.551 380.323 296.254 381.386 293.225C382.448 290.197 385.111 287.459 388.32 287.443C391.704 287.427 392.512 282.733 392.21 279.362C391.166 267.741 390.123 256.12 389.08 244.499C388.747 240.787 388.407 237.04 387.281 233.488C383.116 220.354 367.068 212.413 354.1 217.069C352.513 217.639 352.088 219.645 351.908 221.322C349.912 239.911 347.916 258.499 345.92 277.088C345.566 280.391 349.83 282.498 353.05 281.68C356.269 280.863 358.727 278.347 361.511 276.535C364.294 274.723 368.219 273.679 370.774 275.8C373.663 278.198 377.94 275.535 380.449 272.743C382.959 269.95 386.227 266.584 389.796 267.749C385.61 271.754 381.423 275.758 377.236 279.763C375.848 281.091 374.624 283.744 376.378 284.528C381.189 282.822 385.537 279.832 388.852 275.951C390.385 275.902 390.458 278.31 389.602 279.583C386.379 284.379 378.793 285.448 376.84 290.886C372.281 303.581 358.063 312.014 344.736 309.926C342.003 309.498 340.64 313.093 340.311 315.84C338.999 326.794 337.687 337.748 336.376 348.702C336.074 351.222 335.792 353.888 336.83 356.204C338.561 360.068 343.191 361.531 347.296 362.571C352.722 363.945 358.211 365.327 363.757 365.927C366.093 366.18 366.083 365.325 362.894 364.492ZM146.719 344.409C154.472 347.005 162.678 347.885 170.809 348.749C174.257 349.115 177.929 349.444 181.022 347.877C184.663 346.032 186.603 342.035 188.169 338.266C196.902 317.247 201.888 294.677 202.823 271.935C202.955 268.703 198.818 267.277 195.591 267.06C169.829 265.331 145.191 276.655 121.859 287.715C120.741 288.245 119.544 288.849 118.992 289.957C118.58 290.782 118.602 291.749 118.632 292.671C119.05 305.235 119.577 318.249 125.196 329.494C126.714 332.531 128.644 335.454 131.377 337.468C133.032 338.688 134.927 339.535 136.806 340.372C140.067 341.824 143.334 343.275 146.719 344.409ZM313.376 297.91C316.81 279.442 319.23 260.787 320.622 242.054C321.098 235.646 321.447 229.131 320.061 222.856C318.676 216.581 315.334 210.481 309.87 207.099C306.503 205.016 302.562 204.08 298.664 203.385C291.55 202.116 284.313 201.54 277.089 201.669C270.713 201.782 264.022 202.559 258.817 206.243C257.096 207.461 255.533 209.055 254.904 211.068C254.276 213.081 254.805 215.554 256.551 216.736C260.964 219.724 262.762 225.315 263.589 230.58C264.416 235.845 264.615 241.358 267.014 246.117C268.251 248.571 270.025 250.712 271.886 252.735C281.973 263.702 295.131 271.816 309.46 275.905C311.979 276.624 315.184 278.18 314.652 280.745C322.577 285.744 313.244 298.618 313.376 297.91ZM291.536 352.378C294.454 350.605 296.432 347.655 298.174 344.718C305.564 332.259 310.409 318.298 312.327 303.939C285.747 303.819 259.325 293.79 239.36 276.243C238.676 278.985 238.807 281.856 238.9 284.68C239.483 302.316 238.437 320.004 235.779 337.448C235.145 341.606 237.629 345.764 241.044 348.219C244.459 350.675 248.666 351.73 252.796 352.525C262.107 354.319 271.622 355.054 281.098 354.713C284.702 354.583 288.454 354.251 291.536 352.378ZM459.265 200.263C457.716 196.529 456.553 192.32 453.339 189.868C450.124 187.417 444.072 188.616 443.883 192.654C447.064 192.068 449.496 195.995 448.954 199.184C448.412 202.373 446.094 204.909 444.252 207.568C441.707 211.242 439.966 215.401 438.244 219.525C434.147 229.339 432.553 240.184 433.652 250.761C434.299 256.989 436.005 263.385 440.216 268.018C444.426 272.652 451.644 274.968 457.192 272.068C461.958 269.578 464.335 264.086 465.428 258.822C466.521 253.557 466.716 248.045 468.78 243.08C472.589 233.921 481.982 228.387 491.274 224.913C477.306 223.016 464.668 213.283 459.265 200.263ZM420.639 210.171C421.26 212.572 422.12 214.912 423.202 217.143C423.852 213.999 424.895 210.936 426.299 208.048C424.879 207.885 423.448 207.808 422.019 207.817C421.672 207.819 421.305 207.832 421.012 208.018C420.351 208.436 420.443 209.414 420.639 210.171ZM252.272 207.7C251.393 208.408 250.877 209.931 251.806 210.573C253.227 209.15 254.649 207.726 256.071 206.302C255.777 205.938 255.35 205.684 254.89 205.599C254.326 206.577 253.152 206.992 252.272 207.7Z" fill="white"/>
<path d="M498.5 197.5C501.538 197.5 504 195.038 504 192C504 188.962 501.538 186.5 498.5 186.5C495.462 186.5 493 188.962 493 192C493 195.038 495.462 197.5 498.5 197.5Z" fill="#FFB61D"/>
<path d="M467 192C468.657 192 470 190.657 470 189C470 187.343 468.657 186 467 186C465.343 186 464 187.343 464 189C464 190.657 465.343 192 467 192Z" fill="#FFB61D"/>
<path fill-rule="evenodd" clip-rule="evenodd" d="M182.926 113.077C191.926 113.134 200.925 113.191 209.925 113.248C210.347 113.251 210.799 113.263 211.139 113.512C211.833 114.022 211.556 115.216 210.841 115.696C210.127 116.176 209.2 116.156 208.339 116.126C200.419 115.851 192.475 116.263 184.626 117.354C183.432 117.52 182.173 117.694 181.056 117.241C179.94 116.787 179.086 115.45 179.6 114.36C180.137 113.221 181.667 113.069 182.926 113.077ZM152.83 112.193C153.4 112.761 153.127 113.805 152.493 114.302C151.86 114.799 151.011 114.898 150.21 114.979C142.231 115.787 134.252 116.595 126.274 117.403C125.33 117.499 124.354 117.591 123.452 117.3C122.549 117.01 121.732 116.229 121.711 115.281C121.689 114.303 122.519 113.472 123.447 113.16C124.374 112.848 125.381 112.935 126.357 113.012C134.532 113.655 142.787 113.284 150.871 111.911C151.549 111.796 152.343 111.708 152.83 112.193ZM151.712 96.8771C152.308 97.3582 152.096 98.3894 151.498 98.868C150.9 99.3466 150.086 99.4259 149.322 99.4862L123.698 101.508C122.739 101.584 121.745 101.655 120.841 101.328C119.936 101 119.142 100.157 119.194 99.1965C119.247 98.2231 120.146 97.4681 121.093 97.2382C122.04 97.0084 123.032 97.18 123.996 97.3225C132.693 98.6079 141.536 97.436 150.291 96.64C150.782 96.5953 151.328 96.5675 151.712 96.8771ZM187.498 91.8005C192.844 92.4834 198.264 92.5873 203.633 92.1097C205.768 91.9198 208.348 91.8307 209.56 93.5973C208.121 94.761 206.143 94.9261 204.296 95.0425C198.173 95.4284 192.051 95.8143 185.929 96.2002C184.532 96.2882 182.791 96.1825 182.216 94.9068C181.7 93.762 182.608 92.3854 183.775 91.9217C184.942 91.4581 186.252 91.6413 187.498 91.8005ZM141.309 85.2547C141.315 86.1794 140.156 86.5784 139.241 86.7125L125.786 88.6848C124.825 88.8256 123.833 88.9648 122.895 88.7144C121.957 88.464 121.08 87.7178 120.993 86.7511C120.885 85.5676 121.996 84.5688 123.156 84.311C124.316 84.0531 125.518 84.3228 126.697 84.4747C130.761 84.9983 134.861 84.1051 138.957 83.9644C139.959 83.93 141.301 84.252 141.309 85.2547ZM206.234 82.0339C207.276 82.1502 208.344 82.7714 208.622 83.7813C206.773 85.1796 204.329 85.4342 202.02 85.6389C198.068 85.9892 194.115 86.3395 190.163 86.6898C188.77 86.8132 187.378 86.9367 185.986 87.0601C184.968 87.1503 183.909 87.2354 182.952 86.874C181.996 86.5127 181.179 85.564 181.322 84.5519C181.546 82.9569 183.64 82.5429 185.25 82.5775C191.225 82.7059 197.274 83.6076 203.128 82.4048C204.154 82.1939 205.193 81.9175 206.234 82.0339ZM211.483 66.9464C182.196 70.8954 152.169 68.8505 123.285 75.0979C121.572 75.4684 119.181 75.4867 118.738 73.7909C118.778 71.7928 121.362 71.0717 123.355 70.9295C151.454 68.9256 179.552 66.9217 207.65 64.9178C209.299 64.8002 211.612 65.2988 211.483 66.9464Z" fill="#E7EAEE"/>
<path fill-rule="evenodd" clip-rule="evenodd" d="M108.462 370.528C108.768 374.071 103.884 375.272 100.327 375.286C81.8443 375.359 63.3796 378.787 46.102 385.354C43.4652 386.356 40.6432 387.618 39.3598 390.13C37.6605 393.456 39.5152 397.713 42.5215 399.93C45.5279 402.146 49.3651 402.822 53.0518 403.422C148.879 419.026 246.132 425.866 343.2 423.829L344.76 423.795C355.955 423.536 367.381 422.934 377.637 418.502C369.146 412.551 360.656 406.6 352.165 400.649C366.863 397.714 382.028 399.805 396.943 401.277C431.08 404.647 465.543 404.716 499.693 401.483C497.289 405.324 492.003 405.857 487.473 405.955C444.515 406.88 401.505 405.353 358.721 401.386C364.303 405.06 369.885 408.733 375.467 412.407C377.49 413.738 379.728 415.428 379.845 417.846C380.02 421.481 375.554 423.295 371.964 423.888C360.05 425.857 347.93 426.17 335.856 426.347C241.557 427.725 147.141 420.978 53.9971 406.204C49.4521 405.483 44.7429 404.678 40.9533 402.067C37.1636 399.457 34.58 394.493 36.1725 390.175C37.7564 385.881 42.5757 383.864 46.9268 382.443C66.8384 375.94 87.562 371.927 108.462 370.528ZM235.588 49.9028C235.785 93.3118 235.983 136.721 236.18 180.13C236.227 190.462 238.262 203.536 248.254 206.167C262.06 199.793 277.622 197.275 292.734 198.97C301.385 199.94 310.368 202.556 316.225 208.996C324.258 217.831 324.271 231.136 323.408 243.046C321.66 267.188 318.216 291.206 313.111 314.866C317.167 314.61 321.304 316.238 324.098 319.189C319.794 321.157 314.667 321.239 310.302 319.41C313.3 335.66 300.061 351.693 284.206 356.348C268.351 361.003 251.146 356.614 236.237 349.488C234.839 354.933 242.123 358.133 247.684 358.955C261.802 361.042 275.92 363.128 290.037 365.215C272.603 365.739 255.11 364.311 237.991 360.969C234.838 365.433 241.977 369.94 247.372 370.813C261.682 373.129 275.991 375.445 290.301 377.761C274.138 377.653 257.982 376.575 241.949 374.536C252.146 383.734 266.065 388.68 279.78 387.977C272.043 390.522 263.448 390.369 255.807 387.55C265.366 400.351 284.923 402.723 299.205 395.563C313.487 388.403 322.812 373.755 327.373 358.443C331.935 343.132 332.378 326.95 333.187 310.995C334.679 281.542 337.53 252.129 342.69 223.094C346.164 203.541 354.698 180.227 374.364 177.465C339.328 175.85 304.259 174.979 269.186 174.853C258.529 174.815 245.29 176.558 241.731 186.604C238.689 186.919 239.368 181.758 241.673 179.748C250.282 172.243 262.827 171.967 274.246 172.084L350.877 172.868C375.627 173.122 405.307 176.26 416.512 198.33C416.186 191.771 422.131 185.581 428.698 185.641C435.859 185.707 441.849 179.495 443.939 172.645C446.029 165.795 445.107 158.435 444.167 151.335C432.619 140.153 429.597 121.146 437.105 106.934C439.229 102.914 442.367 93.3297 459.892 87.1603C471.576 83.0474 483.125 83.4996 494.539 88.517C515.975 84.3719 530.705 85.8432 538.73 92.9309C550.767 103.562 550.998 112.275 544.071 120.01C551.903 116.948 561.107 122.141 565.03 129.578C568.953 137.016 568.748 145.927 567.567 154.252C564.644 174.87 556.239 194.686 543.446 211.118L541.683 216.314C572.629 224.293 597.664 251.646 602.877 283.176C592.589 259.986 578.66 235.426 554.663 227.192C549.248 232.872 543.68 238.799 541.137 246.223C538.594 253.647 539.968 263.028 546.416 267.5C542.366 268.439 538.316 269.377 534.266 270.316C535.614 272.707 536.962 275.099 538.311 277.49C523.007 289.124 521.246 311.128 521.339 330.352C521.432 349.575 521.082 371.255 507.135 384.486C494.705 396.278 475.731 397.084 458.606 396.541C416.497 395.205 374.518 389.853 333.421 380.583C329.927 379.795 325.501 379.315 323.487 382.276C308.909 403.71 278.423 405.627 252.569 403.761C219.358 401.364 186.339 396.327 153.924 388.714C135.538 384.395 116.013 378.381 104.559 363.364C91.2061 345.857 92.7481 321.585 94.9149 299.674C81.75 306.993 66.1429 309.827 51.2452 307.602C66.949 297.335 74.5642 277.694 74.7073 258.933C74.8504 240.171 68.5879 221.986 61.6206 204.565C46.2695 213.469 38.1926 232.237 39.3937 249.943C40.5948 267.649 49.989 284.083 62.5932 296.576C47.0556 286.77 36.7744 269.105 35.9234 250.751C35.0724 232.398 43.6749 213.857 58.2385 202.656C55.9113 194.697 43.905 193.725 37.6124 199.124C31.3197 204.524 29.3449 213.288 27.7263 221.42C24.7354 236.446 21.7321 251.823 23.9053 266.989C26.0784 282.156 34.456 297.337 48.4944 303.473C41.9338 308.202 33.1957 301.395 28.8386 294.581C11.1698 266.951 10.6362 229.29 27.5152 201.171C29.5427 197.793 31.8822 194.464 35.1838 192.314C38.6841 190.035 42.9515 189.286 47.112 188.918C63.5222 187.464 80.3594 191.295 94.5257 199.704C94.3992 153.661 94.2727 107.618 94.1462 61.5753C94.1389 58.9386 94.1757 56.1407 95.5814 53.9099C97.6146 50.6835 101.78 49.6834 105.529 48.9836C139.631 42.6174 174.12 38.324 208.742 36.1347C220.055 35.4194 235.537 38.5678 235.588 49.9028ZM212.465 38.9088C175.757 40.6367 139.182 45.1744 103.165 52.4692C101.632 52.7796 100.009 53.1422 98.8951 54.2397C97.3773 55.7347 97.26 58.1036 97.24 60.234C96.8099 106.08 96.9917 151.932 97.7855 197.774C102.193 196.675 106.601 195.576 111.008 194.477C109.286 185.07 107.555 175.536 108.292 166.002C109.029 156.467 112.528 146.77 119.724 140.473C127.513 133.657 138.383 131.731 148.708 131.006C158.636 130.309 168.625 130.47 178.526 131.488C188.633 132.527 199.28 134.771 206.572 141.847C217.104 152.067 217.275 168.625 216.729 183.292C215.282 222.226 213.834 261.159 212.387 300.093C212.047 309.232 211.687 318.494 208.998 327.235C206.308 335.976 200.969 344.284 192.892 348.573C184.966 352.783 175.482 352.663 166.565 351.65C158.052 350.683 149.621 348.995 141.391 346.611C136.392 345.162 131.39 343.419 127.141 340.412C113.083 330.463 111.421 310.612 111.08 293.393C105.681 292.418 100.404 296.526 98.1755 301.539C95.9467 306.551 96.0454 312.246 96.1839 317.729C96.5292 331.408 97.0622 345.769 104.045 357.536C114.819 375.692 137.448 382.399 158.11 386.734C194.783 394.429 232.018 399.447 269.419 401.736C252.727 393.234 237.928 378.684 234.408 360.286C233.451 355.288 233.349 350.171 233.249 345.083C231.3 245.605 229.351 146.126 227.403 46.6477C227.279 40.3567 218.75 38.6129 212.465 38.9088ZM354.762 202.234C353.834 204.498 353.159 207.011 353.777 209.379C354.396 211.747 356.696 213.814 359.111 213.412C369.923 211.611 381.579 216.937 387.295 226.291C392.011 234.008 392.666 243.45 393.197 252.479L398.033 334.725C398.55 343.514 398.805 353.185 393.343 360.09C386.255 369.048 372.948 369.347 361.579 368.235C352.198 367.317 342.33 365.757 335.047 359.774C335.305 363.256 334.29 366.819 332.236 369.643C329.7 373.128 333.794 377.714 337.776 379.361C342.641 381.374 347.931 382.075 353.151 382.753C377.063 385.857 400.988 388.849 424.928 391.731C443.354 393.949 462.075 396.098 480.394 393.12C468.805 389.868 457.715 384.842 447.631 378.271C442.599 374.993 437.734 371.247 434.302 366.319C428.701 358.274 427.521 348.052 426.589 338.293C423.817 309.275 421.754 280.189 420.402 251.071C419.405 229.593 412.518 208.418 400.691 190.463C398.576 187.253 395.989 183.921 392.249 183.027C377.382 179.474 360.563 188.091 354.762 202.234ZM286.592 388.093C287.853 388.307 289.147 388.59 290.187 389.335C291.226 390.081 291.951 391.405 291.631 392.644C291.311 393.882 289.677 394.697 288.644 393.942C287.504 393.109 285.989 393.08 284.63 392.696C283.272 392.312 281.848 391.184 282.092 389.794C282.402 388.031 284.828 387.793 286.592 388.093ZM234.234 388.616C235.798 388.941 237.63 390.057 237.31 391.622C237.027 393.003 235.319 393.463 233.922 393.65C232.356 393.859 230.685 394.053 229.264 393.364C227.842 392.676 226.92 390.734 227.853 389.459C228.482 388.599 229.659 388.371 230.723 388.327C231.899 388.28 233.081 388.377 234.234 388.616ZM327.842 371.215C326.357 372.286 325.337 373.865 324.289 375.366C319.512 382.21 313.458 388.16 306.531 392.816C306.704 393.55 307.805 393.365 308.458 392.986C316.478 388.339 322.202 380.662 327.695 373.196C328.145 372.586 328.515 371.563 327.842 371.215ZM399.559 186.321C403.838 191.373 408.151 196.474 411.281 202.309C414.675 208.634 416.581 215.643 418.116 222.656C426.703 261.883 424.411 302.666 429.976 342.435C430.98 349.611 432.308 356.94 436.042 363.15C440.416 370.425 447.675 375.468 455.071 379.635C461.052 383.005 467.295 385.964 473.864 387.961C484.31 391.135 496.859 391.357 504.866 383.936C509.363 379.768 511.728 373.823 513.575 367.977C521.494 342.921 522.364 315.678 516.062 290.168C516.221 305.425 518.202 320.647 517.749 335.898C517.295 351.149 514.164 366.855 505.199 379.201C503.423 381.647 501.365 383.994 498.681 385.384C495.146 387.215 490.947 387.18 486.995 386.697C480.094 385.854 473.346 383.769 467.172 380.571C462.482 378.142 458.143 375.09 453.939 371.893C449.052 368.177 444.254 364.174 440.83 359.078C437.437 354.028 435.545 348.128 434.045 342.231C423.09 299.174 430.923 252.728 417.924 210.244C414.86 200.231 409.539 189.488 399.559 186.321ZM138.212 375.742C163.501 379.645 188.791 383.549 214.081 387.452C213.44 389.125 211.128 389.184 209.352 388.947C187.724 386.057 166.096 383.168 144.468 380.279C142.023 379.952 139.578 379.626 137.133 379.299C135.972 379.144 134.531 378.724 134.384 377.562C134.178 375.925 136.581 375.49 138.212 375.742ZM431.583 227.138C426.241 233.083 426.627 242.052 427.326 250.013C428.858 267.438 430.389 284.863 431.92 302.288C431.992 303.103 432.079 303.962 432.557 304.626C433.339 305.713 434.852 305.902 436.187 305.996C454.369 307.277 472.552 308.558 490.734 309.839C489.374 311.988 486.31 312.02 483.774 311.825C466.657 310.503 449.47 310.075 432.308 310.542C432.013 319.343 433.31 328.196 436.118 336.542C437.335 340.159 442.022 340.93 445.836 341.084C460.379 341.673 474.923 342.262 489.466 342.851C490.135 344.357 487.785 345.298 486.137 345.279C471.188 345.107 456.239 344.936 441.29 344.764C439.243 344.74 438.502 347.641 439.273 349.538C441.29 354.495 447.71 355.562 453.051 355.897L486.473 357.989C487.236 358.037 487.395 359.237 486.838 359.76C486.281 360.283 485.432 360.298 484.668 360.281L445.536 359.451C455.654 371.493 469.845 380.05 485.218 383.378C488.53 384.095 492.042 384.566 495.26 383.503C499.11 382.232 501.95 378.962 504.173 375.571C515.963 357.583 515.179 334.438 513.974 312.965L512.608 288.625C513.086 287.969 514.066 287.742 514.783 288.121C515.059 286.928 513.507 286.22 512.302 285.999C485.704 281.113 458.411 276.22 431.791 280.991C430.941 280.642 430.949 279.318 431.596 278.664C432.243 278.011 433.224 277.852 434.135 277.726C437.774 277.226 441.413 276.725 445.051 276.225C436.701 272.453 431.639 263.494 430.127 254.456C428.615 245.419 430.092 236.179 431.583 227.138ZM300.856 375.103C303.225 375.544 305.961 376.268 306.886 378.493C304.248 380.291 300.784 380.106 297.602 379.852C296.727 379.782 295.77 379.676 295.155 379.049C294.067 377.94 294.879 375.896 296.279 375.222C297.679 374.548 299.329 374.818 300.856 375.103ZM120.425 358.844C147.671 367.405 175.906 372.818 204.387 374.94C206.596 375.104 209.566 376.157 209.142 378.332C179.02 374.925 149.083 369.89 119.504 363.257C117.616 362.834 115.194 361.489 115.897 359.687C116.515 358.103 118.803 358.334 120.425 358.844ZM220.222 372.058C221.613 372.055 222.956 372.531 224.257 373.026C224.918 373.278 225.646 373.602 225.902 374.262C226.449 375.668 224.51 376.672 223.026 376.942C222.027 377.123 221.028 377.304 220.03 377.485C219.187 377.638 218.28 377.784 217.504 377.42C216.245 376.83 215.917 375.012 216.64 373.823C217.363 372.634 218.831 372.061 220.222 372.058ZM348.525 369.054C360.577 371.346 372.922 371.476 385.19 371.599C386.14 371.609 386.395 373.102 385.717 373.767C385.039 374.431 383.981 374.461 383.031 374.442C371.579 374.217 360.113 373.01 348.694 373.91C347.451 374.008 346.16 374.125 344.993 373.687C343.826 373.25 342.83 372.07 343.052 370.843C343.243 369.786 344.274 369.045 345.329 368.84C346.384 368.636 347.469 368.853 348.525 369.054ZM375.753 180.117C362.107 182.154 350.642 194.3 349.395 208.041C348.23 220.874 344.687 233.354 342.166 245.991C334.068 286.573 336.524 328.631 329.365 369.389C331.98 364.627 332.686 359.085 333.344 353.693L350.704 211.524C351.166 207.741 351.638 203.914 352.997 200.354C356.711 190.623 366.31 184.511 375.753 180.117ZM313.707 364.249C314.45 364.485 315.212 364.795 315.708 365.397C316.203 366 316.328 366.973 315.786 367.534C315.377 367.957 314.737 368.034 314.151 368.085C312.233 368.255 310.315 368.424 308.397 368.594C307.362 368.685 306.292 368.773 305.305 368.446C304.318 368.119 303.429 367.264 303.4 366.225C303.352 364.465 305.523 363.581 307.28 363.466C309.446 363.324 311.638 363.591 313.707 364.249ZM354.1 217.069C352.513 217.639 352.088 219.645 351.908 221.322L345.92 277.088C345.566 280.391 349.83 282.498 353.05 281.68C356.269 280.863 358.727 278.347 361.511 276.535C364.294 274.723 368.218 273.679 370.774 275.8C373.663 278.198 377.94 275.535 380.449 272.743C382.959 269.95 386.227 266.584 389.796 267.749C385.609 271.754 381.423 275.758 377.236 279.763C375.848 281.091 374.624 283.744 376.378 284.528C381.189 282.822 385.537 279.832 388.852 275.951C390.385 275.902 390.458 278.31 389.602 279.583C386.379 284.379 378.793 285.448 376.84 290.886C372.281 303.581 358.063 312.014 344.736 309.926C342.003 309.498 340.64 313.093 340.311 315.84C338.999 326.794 337.687 337.748 336.376 348.702C336.074 351.222 335.792 353.888 336.83 356.204C338.561 360.068 343.191 361.531 347.296 362.571C355.007 364.524 362.845 366.492 370.794 366.211C378.743 365.93 386.963 363.088 391.997 356.929C390.603 355.119 387.498 357.44 385.468 356.392C383.481 355.368 384.536 351.956 386.669 351.285C388.801 350.615 391.052 351.681 393.032 352.717C394.276 350.29 395.555 347.692 395.299 344.977C395.044 342.262 392.551 339.576 389.893 340.187C388.146 340.588 387.434 337.561 388.843 336.452C390.251 335.343 392.274 335.703 394.018 336.117C394.115 329.564 394.212 323.011 394.309 316.458C394.328 315.12 394.333 313.716 393.699 312.538C393.065 311.361 391.561 310.536 390.356 311.117C388.714 311.908 387.29 309.111 388.389 307.657C389.488 306.202 391.563 306.014 393.385 305.951C393.526 300.131 393.15 294.298 392.262 288.544C385.403 291.981 384.203 301.051 383.511 308.692C382.185 323.346 379.515 337.878 375.548 352.047C374.659 355.221 373.659 358.467 371.582 361.026C369.505 363.586 366.083 365.325 362.894 364.492C363.609 362.165 366.045 360.915 367.829 359.257C371.04 356.273 372.233 351.761 373.28 347.505C376.899 332.796 380.541 317.908 380.496 302.76L380.489 301.744C380.465 298.86 380.435 295.935 381.386 293.225C382.448 290.197 385.111 287.459 388.32 287.443C391.704 287.427 392.512 282.733 392.21 279.362C391.166 267.741 390.123 256.12 389.08 244.499C388.747 240.787 388.407 237.04 387.281 233.488C383.116 220.354 367.068 212.413 354.1 217.069ZM405.162 358.804C406.753 359.231 408.296 360.867 407.635 362.375C407.004 363.816 405.022 363.895 403.456 363.747C402.69 363.674 401.874 363.582 401.276 363.098C400.227 362.25 400.375 360.452 401.358 359.528C402.34 358.603 403.86 358.454 405.162 358.804ZM214.031 357.193C215.078 357.42 216.168 357.725 216.92 358.487C217.672 359.248 217.921 360.606 217.173 361.372C216.563 361.999 215.577 362.01 214.703 361.979C213.446 361.935 212.189 361.891 210.932 361.847C210.204 361.821 209.426 361.779 208.842 361.344C207.593 360.416 208.141 358.24 209.482 357.45C210.823 356.661 212.51 356.864 214.031 357.193ZM117.182 345.79C124.219 349.062 131.949 350.489 139.594 351.821C155.07 354.517 170.593 356.946 186.153 359.105C188.331 359.407 190.742 359.835 192.069 361.587C186.043 361.999 180.021 360.995 174.065 359.995C154.43 356.698 134.795 353.401 115.161 350.104C113.102 349.758 110.445 348.615 110.846 346.567C111.321 344.139 114.939 344.747 117.182 345.79ZM239.36 276.243C238.676 278.985 238.807 281.856 238.9 284.68C239.483 302.316 238.437 320.004 235.779 337.448C235.145 341.606 237.629 345.764 241.044 348.219C244.459 350.675 248.666 351.73 252.796 352.525C262.107 354.319 271.622 355.054 281.098 354.713C284.702 354.583 288.454 354.251 291.536 352.378C294.454 350.605 296.432 347.655 298.174 344.718C305.564 332.259 310.409 318.298 312.327 303.939C285.747 303.819 259.325 293.79 239.36 276.243ZM308.879 346.162C310.694 346.761 312.509 347.36 314.323 347.959C314.929 348.159 315.578 348.39 315.937 348.917C316.543 349.807 315.954 351.109 315.015 351.637C314.077 352.165 312.937 352.136 311.861 352.094C309.902 352.016 307.738 351.851 306.37 350.446C305.003 349.041 305.472 346.01 307.428 345.882C307.923 345.85 308.408 346.007 308.879 346.162ZM404.008 346.425C405.088 346.598 406.226 346.797 407.058 347.506C407.89 348.215 408.231 349.619 407.465 350.398C407.156 350.712 406.728 350.874 406.311 351.019C404.705 351.578 402.921 352.024 401.332 351.415C399.744 350.806 398.661 348.706 399.659 347.329C400.577 346.064 402.464 346.179 404.008 346.425ZM121.859 287.715C120.741 288.245 119.544 288.849 118.992 289.957C118.58 290.782 118.602 291.749 118.632 292.671C119.05 305.235 119.577 318.249 125.196 329.494C126.714 332.531 128.644 335.454 131.377 337.468C133.032 338.688 134.927 339.535 136.806 340.372C140.067 341.824 143.334 343.275 146.719 344.409C154.472 347.005 162.678 347.885 170.809 348.749C174.257 349.115 177.929 349.444 181.022 347.877C184.663 346.032 186.603 342.035 188.169 338.266C196.902 317.247 201.888 294.677 202.823 271.935C202.955 268.703 198.818 267.277 195.591 267.06C169.829 265.331 145.191 276.655 121.859 287.715ZM206.823 271.023C206.162 271.892 206.08 273.056 206.015 274.146C204.473 299.865 198.072 325.285 187.249 348.666C197.56 343.448 205.243 333.314 207.484 321.976C208.254 318.078 208.412 314.088 208.567 310.118C209.057 297.598 209.547 285.079 210.038 272.559C210.063 271.899 210.068 271.174 209.648 270.664C208.954 269.821 207.484 270.154 206.823 271.023ZM211.094 333.666C212.402 333.737 213.632 334.281 214.904 334.597C216.043 334.881 216.387 336.503 215.751 337.489C215.115 338.476 213.889 338.905 212.727 339.068C211.514 339.238 210.209 339.174 209.165 338.532C208.122 337.889 207.445 336.549 207.862 335.397C208.307 334.164 209.785 333.595 211.094 333.666ZM404.758 330.267C405.982 330.52 407.031 331.278 408.038 332.016C408.585 332.417 409.167 332.867 409.345 333.521C409.574 334.356 409.023 335.255 408.264 335.672C407.505 336.088 406.596 336.117 405.733 336.048C404.507 335.95 403.241 335.647 402.315 334.836C401.39 334.026 400.92 332.603 401.497 331.517C402.082 330.413 403.535 330.014 404.758 330.267ZM113.706 291.373C113.371 291.969 113.439 292.701 113.516 293.38L115.334 309.386C116.32 318.071 117.612 327.432 123.683 333.721C124.695 333.241 124.124 331.719 123.486 330.798C118.568 323.702 117.621 314.678 116.824 306.081C116.356 301.042 115.888 296.003 115.421 290.964C114.951 290.467 114.04 290.776 113.706 291.373ZM437.432 324.158C454.111 324.57 470.79 324.982 487.469 325.394C490.022 325.457 492.582 325.52 495.108 325.899C494.581 327.723 492.183 328.066 490.284 328.048C473.558 327.891 456.777 326.855 440.141 328.594C438.719 328.743 437.183 328.889 435.949 328.167C434.715 327.445 434.162 325.463 435.297 324.593C435.885 324.142 436.691 324.14 437.432 324.158ZM391.607 320.881C391.974 321.001 392.349 321.129 392.649 321.373C393.646 322.184 393.275 323.918 392.255 324.701C391.236 325.484 389.861 325.574 388.576 325.606C387.238 325.639 385.678 325.533 384.916 324.433C383.959 323.053 385.096 321.01 386.68 320.45C388.264 319.89 390.01 320.359 391.607 320.881ZM403.801 317.511C405.357 317.679 406.87 318.224 408.175 319.087C409.173 319.746 408.974 321.401 408.066 322.179C407.159 322.958 405.863 323.067 404.668 323.023C403.46 322.98 402.199 322.796 401.222 322.085C400.244 321.373 399.662 319.998 400.186 318.909C400.784 317.665 402.429 317.363 403.801 317.511ZM235.779 279.447C234.87 292.538 234.463 305.663 234.558 318.785C234.562 319.34 234.94 320.128 235.414 319.839C236.418 308.81 236.911 297.733 236.89 286.658C236.886 284.205 236.836 281.661 235.779 279.447ZM217.948 313.029C219.379 313.137 220.642 313.97 221.808 314.806C222.167 315.063 222.537 315.338 222.738 315.731C223.153 316.547 222.655 317.596 221.874 318.073C221.092 318.55 220.125 318.588 219.211 318.545C217.131 318.448 214.516 317.316 214.749 315.247C214.909 313.821 216.517 312.922 217.948 313.029ZM407.266 304.212C408.659 304.783 410.092 306.276 409.373 307.599C408.885 308.494 407.698 308.687 406.679 308.698C405.496 308.709 404.312 308.613 403.146 308.409C401.506 308.123 401.255 305.544 402.528 304.472C403.801 303.4 405.726 303.579 407.266 304.212ZM569.567 278.597C570.141 279.558 570.151 280.741 570.144 281.86C570.095 289.782 570.047 297.703 569.998 305.625C569.992 306.587 569.863 307.752 568.99 308.156C568.235 308.505 567.305 308.015 566.885 307.298C566.465 306.58 566.427 305.709 566.413 304.878C566.291 297.806 567.079 290.565 565.076 283.781C564.481 281.766 563.769 279.248 565.326 277.836C566.542 276.733 568.724 277.188 569.567 278.597ZM365.911 277.68C359.907 281.406 353.591 285.237 346.542 285.744C345.26 285.836 344.683 287.368 344.43 288.629C343.291 294.299 342.663 300.072 342.555 305.855C342.549 306.208 342.552 306.588 342.756 306.877C343.081 307.336 343.744 307.355 344.306 307.325C349.804 307.037 355.378 306.463 360.484 304.405C365.591 302.346 370.237 298.617 372.318 293.519C374.399 288.422 373.398 281.92 369.148 278.419C368.234 277.666 366.918 277.056 365.911 277.68ZM319.942 299.977C321.871 300.484 323.8 300.99 325.73 301.497C326.451 301.686 327.252 301.938 327.597 302.599C328.003 303.377 327.53 304.381 326.796 304.862C326.061 305.342 325.147 305.433 324.273 305.511C322.886 305.634 321.458 305.754 320.127 305.344C318.797 304.934 317.571 303.861 317.419 302.477C317.267 301.094 318.596 299.624 319.942 299.977ZM52.3272 194.416C59.5474 197.341 64.9821 203.666 68.3529 210.689C71.7236 217.712 73.2585 225.455 74.5961 233.13C76.81 245.831 78.5731 258.796 76.9588 271.588C75.3445 284.379 69.9973 297.135 60.0844 305.379C67.3053 305.765 75.927 305.479 79.8471 299.402C81.6064 296.675 85.3927 295.468 88.4055 296.674C86.5114 295.037 87.9411 291.988 89.3468 289.916C95.1065 281.427 99.0585 271.67 100.471 261.509C103.209 241.806 96.3245 221.838 86.1093 204.77C79.4815 193.695 64.0219 188.957 52.3272 194.416ZM223.524 296.478C225.014 297.065 224.667 299.527 223.275 300.318C221.882 301.108 220.147 300.753 218.595 300.358C217.871 300.174 217.103 299.959 216.612 299.396C215.465 298.084 216.781 295.865 218.48 295.473C220.178 295.081 221.902 295.84 223.524 296.478ZM277.089 201.669C270.713 201.782 264.022 202.559 258.817 206.243C257.096 207.461 255.533 209.055 254.904 211.068C254.276 213.081 254.805 215.554 256.551 216.736C260.964 219.724 262.762 225.315 263.589 230.58C264.416 235.845 264.615 241.358 267.014 246.117C268.251 248.571 270.025 250.712 271.886 252.735C281.973 263.702 295.131 271.816 309.46 275.905C311.979 276.624 315.184 278.18 314.652 280.745C294.037 276.422 275.238 263.981 263.2 246.696C259.542 257.93 252.327 267.976 242.85 275.031C261.336 290.762 285.259 299.979 309.522 300.718C310.621 300.751 311.865 300.71 312.606 299.898C313.092 299.366 313.244 298.618 313.376 297.91C316.81 279.442 319.23 260.787 320.622 242.054C321.098 235.646 321.447 229.131 320.061 222.856C318.676 216.581 315.334 210.481 309.87 207.099C306.503 205.016 302.562 204.08 298.664 203.385C291.55 202.116 284.313 201.54 277.089 201.669ZM403.758 291.544C405.43 291.545 407.539 292.034 407.832 293.679C408.124 295.319 406.256 296.54 404.603 296.751C403.394 296.906 402.081 296.759 401.122 296.007C400.163 295.255 399.717 293.782 400.383 292.762C401.066 291.715 402.509 291.543 403.758 291.544ZM527.263 258.612C524.195 270.497 522.404 282.668 520.619 294.812C520.53 295.416 520.479 296.131 520.935 296.537C525.717 290.596 530.104 284.336 534.058 277.814C534.448 277.17 534.831 276.328 534.394 275.716C533.403 274.331 532.413 272.946 531.422 271.561C530.687 270.533 529.929 269.179 530.576 268.093C531.102 267.21 532.278 267.024 533.301 266.93L541.703 266.156C541.612 265.636 541.296 265.187 540.987 264.758C538.738 261.627 536.284 258.335 532.682 256.962C530.686 256.201 527.797 256.544 527.263 258.612ZM138.131 135.665C131.989 136.696 125.336 138.473 121.772 143.58C119.777 146.438 119.043 149.968 118.457 153.404C116.152 166.92 115.432 180.705 116.317 194.387C142.795 182.068 173.776 179.727 201.804 187.929C204.181 188.625 207.123 190.733 205.875 192.873C184.85 185.096 161.431 183.936 139.741 189.598C132.722 191.43 125.901 193.949 118.923 195.928C108.552 198.868 97.8402 200.607 87.0714 201.097C106.684 227.726 109.222 265.857 93.3116 294.85C103.211 292.977 112.512 288.818 121.64 284.552C135.267 278.184 148.836 271.468 163.313 267.38C177.789 263.291 193.44 261.954 207.799 266.437C209.479 266.961 210.405 264.537 210.472 262.778L213.583 181.256C214.055 168.907 214.094 155.252 206.009 145.905C198.855 137.634 187.188 135.047 176.292 134.117C163.574 133.031 150.719 133.553 138.131 135.665ZM327.831 286.974C328.233 287.236 328.648 287.567 328.742 288.038C328.933 288.993 327.77 289.602 326.833 289.868C325.472 290.254 324.069 290.64 322.662 290.492C321.255 290.344 319.823 289.536 319.36 288.199C318.898 286.861 319.828 285.106 321.242 285.08C323.561 285.037 325.889 285.706 327.831 286.974ZM527.551 235.676C522.43 238.548 516.31 239.598 510.524 238.596C511.264 240.66 514.509 241.38 514.525 243.572C514.535 244.907 513.277 245.847 512.562 246.975C512.012 247.842 511.774 248.866 511.555 249.87C509.493 259.309 508.31 268.94 508.024 278.598C507.975 280.263 508.389 282.461 510.044 282.642C513.472 283.017 516.7 284.94 518.664 287.774C520.274 277.648 521.883 267.522 523.492 257.395C523.865 255.046 524.179 252.421 522.802 250.481C520.908 247.812 522.557 244.155 524.218 241.334L527.551 235.676ZM222.584 279.445C224.332 279.794 226.321 281.304 225.658 282.959C225.25 283.978 224.018 284.39 222.922 284.449C221.825 284.507 220.684 284.345 219.656 284.734C218.448 285.192 217.025 284.122 216.877 282.838C216.73 281.553 217.622 280.307 218.785 279.742C219.949 279.178 221.316 279.192 222.584 279.445ZM403.737 277.881C404.839 278.033 406.001 278.276 406.803 279.047C407.606 279.818 407.826 281.286 406.972 281.999C406.69 282.235 406.334 282.359 405.986 282.478C404.472 282.995 402.852 283.501 401.299 283.118C399.746 282.734 398.396 281.086 398.933 279.579C399.552 277.841 401.909 277.628 403.737 277.881ZM504.06 257.064C502.893 257.345 502.042 258.319 501.273 259.24L496.638 264.79C495.733 265.875 497.326 267.387 498.734 267.505C500.143 267.622 501.787 267.291 502.789 268.288C503.839 269.331 503.406 271.151 502.547 272.357C501.687 273.562 500.468 274.546 499.948 275.932C499.171 278.005 500.457 280.602 502.576 281.24C503.727 281.587 505.342 281.053 505.352 279.851C505.412 272.826 505.822 265.803 506.582 258.818C506.712 257.625 505.227 256.782 504.06 257.064ZM268.895 260.553C269.783 261.143 270.357 262.087 270.949 262.973C276.034 270.587 284.538 275.819 293.626 276.926C295.728 277.182 298.208 277.437 299.262 279.274C297.282 281.235 294.055 280.996 291.341 280.364C281.719 278.126 272.903 272.567 266.735 264.85C265.751 263.619 264.853 261.747 265.95 260.616C266.692 259.851 268.007 259.963 268.895 260.553ZM499.063 226.91C492.268 228.58 485.482 230.936 479.975 235.252C474.468 239.569 470.372 246.127 470.415 253.123C470.47 261.997 466.11 270.79 459.014 276.118L470.961 277.524C472.36 277.689 473.929 277.808 475.023 276.922C476.626 275.627 476.216 273.14 475.811 271.119C475.406 269.099 475.496 266.429 477.417 265.686C479.804 264.764 481.779 268.075 481.418 270.608C481.056 273.141 479.586 275.579 480.046 278.096C485.704 278.898 491.38 279.575 497.068 280.124C495.937 279.195 495.813 277.435 496.386 276.087C496.958 274.74 498.07 273.709 499.15 272.721C500.301 271.668 498.642 269.814 497.092 269.647C495.541 269.48 493.717 269.853 492.624 268.741C491.264 267.357 492.284 265.039 493.443 263.484C495.694 260.467 498.484 256.83 497.035 253.357C493.503 244.886 494.28 234.744 499.063 226.91ZM238.48 203.764C237.533 226.954 237.663 250.187 238.869 273.364C247.727 268.558 254.199 260.1 258.213 250.856C260.662 245.216 262.301 239 261.322 232.929C260.592 228.403 258.449 224.221 255.957 220.372C251.537 213.544 245.766 207.381 238.48 203.764ZM443.883 192.654C447.064 192.068 449.496 195.995 448.954 199.184C448.412 202.373 446.094 204.909 444.252 207.568C441.707 211.242 439.966 215.401 438.244 219.525C434.147 229.339 432.553 240.184 433.652 250.761C434.299 256.989 436.005 263.385 440.216 268.018C444.426 272.652 451.644 274.968 457.192 272.068C461.958 269.578 464.335 264.086 465.428 258.822C466.521 253.557 466.716 248.045 468.78 243.08C472.589 233.921 481.982 228.387 491.274 224.913C477.306 223.016 464.668 213.283 459.265 200.263C457.716 196.529 456.553 192.32 453.339 189.868C450.124 187.417 444.072 188.616 443.883 192.654ZM325.814 267.355C326.796 267.544 327.76 267.829 328.687 268.206C330.216 268.828 331.858 270.548 330.875 271.874C330.337 272.598 329.305 272.685 328.404 272.708C326.76 272.75 324.987 272.755 323.645 271.806C322.302 270.857 321.837 268.56 323.191 267.627C323.935 267.114 324.927 267.185 325.814 267.355ZM399.866 263.441C401.197 263.554 402.521 263.738 403.831 263.993C404.479 264.12 405.178 264.296 405.585 264.816C406.203 265.603 405.815 266.839 405.033 267.465C404.252 268.09 403.213 268.266 402.224 268.421C400.713 268.658 399.102 268.882 397.708 268.253C396.314 267.624 395.363 265.781 396.215 264.512C396.958 263.404 398.537 263.328 399.866 263.441ZM19.6981 256.288C18.5718 256.275 18.1821 257.779 18.2163 258.905C18.3145 262.141 18.9694 265.359 20.1437 268.375C20.4706 268.709 20.8502 268.013 20.8045 267.548L19.6981 256.288ZM236.139 264.618C235.436 264.999 235.168 266.01 235.59 266.689L235.607 266.714L235.592 266.73C235.573 266.753 235.553 266.78 235.531 266.812C235.249 267.24 235.645 267.919 236.157 267.883C236.503 266.831 236.496 265.666 236.139 264.618ZM221.499 260.039C223.023 260.376 224.678 261.641 224.298 263.155C224.047 264.158 222.991 264.747 221.982 264.971C220.972 265.196 219.905 265.181 218.941 265.555C217.714 266.032 216.237 265.043 215.985 263.752C215.732 262.461 216.523 261.113 217.664 260.458C218.806 259.804 220.214 259.755 221.499 260.039ZM230.319 46.4391C230.408 116.247 232.012 186.052 235.129 255.79L235.457 263.001L235.506 260.681C235.596 255.261 235.517 249.838 235.438 244.417C234.507 180.875 233.576 117.332 232.646 53.7899C232.607 51.1294 232.397 48.1012 230.319 46.4391ZM330.166 249.831C331.021 250.087 331.879 250.475 332.434 251.174C332.988 251.874 333.147 252.948 332.598 253.652C332.067 254.334 331.105 254.463 330.244 254.539L326.572 254.865C325.971 254.919 325.326 254.963 324.804 254.661C324.382 254.417 324.103 253.973 323.975 253.503C323.59 252.089 324.546 250.554 325.869 249.924C327.192 249.293 328.762 249.411 330.166 249.831ZM34.3303 195.187C30.5118 198.939 28.5257 204.125 26.6907 209.154C21.5773 223.167 16.7181 238.041 19.2411 252.743C20.0212 252.886 20.3931 251.824 20.451 251.033C21.4882 236.85 24.3224 222.799 28.8646 209.322C30.5977 204.18 32.6822 198.958 36.532 195.134C36.4794 194.203 34.9956 194.533 34.3303 195.187ZM503.76 225.841C503.094 226.005 502.663 226.633 502.315 227.224C499.029 232.799 497.482 239.384 497.941 245.839C498.131 248.504 498.988 251.575 501.477 252.547C503.501 250.604 505.525 248.66 507.549 246.717C507.87 246.409 508.2 246.089 508.377 245.68C508.821 244.658 508.186 243.517 507.603 242.568C504.719 237.874 502.553 231.926 504.955 226.969C505.254 226.352 504.426 225.677 503.76 225.841ZM545.814 219.825C545.491 219.994 545.242 220.272 545 220.545C539.026 227.302 533.256 234.24 527.701 241.345C526.54 242.829 525.33 244.503 525.444 246.383C525.545 248.054 526.721 249.51 528.146 250.39C529.571 251.269 531.231 251.67 532.86 252.058C533.296 252.161 533.769 252.262 534.179 252.081C534.556 251.914 534.795 251.544 535.013 251.193C538.414 245.71 541.863 240.117 543.469 233.868C543.812 232.535 544.967 231.604 545.891 230.584C547.705 228.58 548.769 225.911 548.829 223.208C548.85 222.293 548.743 221.328 548.213 220.581C547.684 219.834 546.625 219.402 545.814 219.825ZM400.308 246.572C401.131 246.776 402.039 247.088 402.408 247.852C403.059 249.197 401.532 250.601 400.104 251.042C398.997 251.385 397.763 251.503 396.702 251.039C395.64 250.575 394.834 249.404 395.075 248.271C395.503 246.259 398.312 246.077 400.308 246.572ZM222.861 243.634C223.25 243.983 223.61 244.392 223.758 244.893C224.054 245.9 223.351 247.01 222.386 247.424C221.422 247.838 220.295 247.678 219.323 247.282C218.299 246.865 217.302 246.066 217.172 244.969C217.023 243.713 218.161 242.558 219.412 242.376C220.663 242.195 221.92 242.791 222.861 243.634ZM333.588 232.597C334.586 233.003 334.69 234.514 334.001 235.343C333.313 236.173 332.164 236.449 331.09 236.539C330.016 236.63 328.905 236.59 327.901 236.983C326.359 237.587 324.681 235.724 325.048 234.109C325.415 232.494 327.15 231.49 328.804 231.413C330.459 231.336 332.054 231.972 333.588 232.597ZM398.597 230.167C400.012 230.237 401.412 230.609 402.675 231.25C403.223 231.529 403.79 231.914 403.946 232.509C404.267 233.733 402.731 234.574 401.487 234.813C400.385 235.025 399.267 235.151 398.145 235.189C396.761 235.237 395.09 234.971 394.539 233.7C394.11 232.713 394.632 231.502 395.509 230.878C396.386 230.254 397.522 230.115 398.597 230.167ZM489.855 139.759C481.597 141.091 473.301 142.196 464.982 143.07C458.956 143.704 453.28 147.123 449.902 152.154C449.208 153.187 448.73 154.837 449.802 155.47C452.834 151.972 456.95 149.427 461.435 148.277C463.038 147.865 464.792 147.641 466.304 148.315C467.815 148.988 468.896 150.842 468.212 152.349C467.162 154.663 463.811 154.015 461.275 153.861C454.222 153.431 448.123 161.503 450.462 168.17C452.104 161.805 461.191 159.042 466.285 163.197C471.378 167.353 470.755 176.479 465.308 180.157C463.508 181.373 461.196 182.22 460.375 184.231C459.67 185.955 460.348 187.902 461.024 189.638C462.084 192.361 463.145 195.085 464.205 197.809C466.429 203.519 468.791 209.438 473.291 213.598C476.751 216.796 481.239 218.699 485.817 219.815C502.323 223.838 520.906 217.435 531.43 204.098C532.274 203.03 534.199 204.044 534.349 205.397C534.499 206.75 533.574 207.967 532.659 208.974C527.947 214.162 522.007 218.226 515.465 220.74C512.372 221.928 508.698 223.213 507.747 226.386C506.96 229.014 508.616 231.918 510.994 233.286C513.372 234.654 516.271 234.769 518.998 234.471C524.436 233.876 529.699 231.747 534.021 228.394C535.331 227.377 536.6 226.189 537.182 224.636C537.734 223.166 537.608 221.539 537.474 219.975L537.358 218.63C536.848 212.795 536.187 206.892 533.809 201.557C532.665 198.99 531.134 196.586 530.291 193.905C529.253 190.599 529.315 187.052 528.617 183.658C527.919 180.264 526.151 176.738 522.919 175.487C523.773 173.318 525.903 171.953 527.282 170.074C528.661 168.195 528.863 164.913 526.692 164.064C525.654 163.659 524.472 164.008 523.483 164.522C519.314 166.687 517.064 171.986 518.403 176.489C519.276 179.428 514.633 181.4 512.133 179.625C509.633 177.85 509.017 174.469 508.524 171.443C506.614 159.713 502.778 147.066 492.76 140.672C491.884 140.113 490.881 139.593 489.855 139.759ZM221.986 222.969C223.303 223.396 224.616 224.579 224.342 225.936C224.083 227.22 222.607 227.82 221.316 228.041C219.486 228.354 217.099 227.995 216.585 226.211C216.095 224.513 217.872 222.887 219.629 222.701C220.421 222.617 221.228 222.723 221.986 222.969ZM433.223 198.535C431.995 199.699 431.397 201.361 430.839 202.958C429.58 206.561 428.305 210.27 428.45 214.084C428.543 216.539 427.118 218.751 426.102 220.988C425.085 223.225 424.533 226.09 426.127 227.959C429.934 224.758 430.848 219.37 431.685 214.467C432.686 208.605 434.047 202.528 437.838 197.947C436.511 196.897 434.451 197.371 433.223 198.535ZM332.904 214.872C333.884 215.187 334.994 215.817 335.005 216.846C335.02 218.098 333.479 218.674 332.248 218.899C331.63 219.012 331.013 219.125 330.395 219.238C328.822 219.526 327.136 219.802 325.673 219.154C324.211 218.507 323.237 216.533 324.192 215.249C324.809 214.419 325.945 214.193 326.977 214.129C328.976 214.006 330.998 214.259 332.904 214.872ZM189.836 196.791C191.557 197.614 193.483 199.236 192.846 201.035C175.11 197.168 156.163 199.081 139.558 206.413C132.087 209.713 125.073 214.075 117.34 216.706C114.695 217.605 111.807 218.296 109.134 217.48C106.462 216.664 104.233 213.828 105.014 211.146C105.748 208.627 108.552 207.43 111.037 206.589C123.282 202.444 135.741 198.928 148.347 196.061C162.101 192.932 177.111 190.704 189.836 196.791ZM444.491 196.578C443.225 196.573 442.16 197.502 441.327 198.456C439.307 200.771 437.871 203.546 436.803 206.426C435.477 210.005 434.692 213.783 434.485 217.594C438.152 211.285 442.073 205.124 446.234 199.131C446.957 198.09 445.757 196.583 444.491 196.578ZM422.019 207.817C421.672 207.819 421.305 207.832 421.012 208.018C420.351 208.436 420.443 209.414 420.639 210.171C421.26 212.572 422.12 214.912 423.202 217.143C423.852 213.999 424.895 210.936 426.299 208.048C424.879 207.885 423.448 207.808 422.019 207.817ZM144.111 199.71C133.613 202.937 123.116 206.163 112.618 209.389C111.364 209.775 109.909 210.37 109.642 211.654C110.495 212.9 112.121 213.428 113.629 213.355C115.137 213.282 116.568 212.703 117.966 212.132C128.616 207.781 139.266 203.429 149.916 199.078C148.014 198.546 145.999 199.13 144.111 199.71ZM254.89 205.599C254.326 206.577 253.152 206.992 252.272 207.7C251.393 208.408 250.877 209.931 251.805 210.573C253.227 209.15 254.649 207.726 256.071 206.302C255.777 205.938 255.35 205.684 254.89 205.599ZM365.651 204.842C373.282 205.636 380.982 206.042 388.625 205.384C390.602 205.213 392.968 205.134 394.141 206.734C392.66 208.243 390.331 208.425 388.218 208.516C380.284 208.856 372.351 209.195 364.417 209.535C362.869 209.602 360.909 209.405 360.407 207.939C360.011 206.785 360.91 205.513 362.038 205.05C363.166 204.587 364.438 204.715 365.651 204.842ZM483.622 196.504C485.468 198.75 486.143 201.91 485.374 204.713C485.184 205.405 484.907 206.084 484.464 206.649C483.304 208.131 481.161 208.569 479.33 208.13C477.5 207.692 475.932 206.526 474.535 205.265C473.095 203.964 471.745 202.483 471.054 200.67C470.362 198.857 470.443 196.652 471.669 195.148C472.679 193.909 474.312 193.315 475.907 193.198C478.806 192.986 481.776 194.258 483.622 196.504ZM226.388 201.725C227.117 202.314 226.995 203.538 226.373 204.239C225.75 204.94 224.801 205.239 223.891 205.465C222.817 205.733 221.688 205.943 220.611 205.687C219.534 205.431 218.525 204.595 218.392 203.497C218.2 201.902 219.869 200.655 221.455 200.405C223.186 200.132 225.025 200.624 226.388 201.725ZM475.173 197.033C474.365 198.08 474.896 199.968 476.207 200.147C477.72 200.354 478.898 201.944 478.654 203.452C478.462 204.636 479.906 205.626 481.052 205.27C482.197 204.915 482.86 203.631 482.835 202.432C482.809 201.233 482.237 200.115 481.588 199.106C480.873 197.994 479.998 196.914 478.791 196.373C477.585 195.831 475.982 195.987 475.173 197.033ZM471.143 89.5374C460.142 91.5523 449.245 96.3574 442.149 105.002C435.054 113.647 432.6 126.585 438.147 136.296C440.107 139.727 443.1 142.72 446.863 143.928C450.626 145.136 455.177 144.247 457.687 141.195C460.535 137.733 466.285 141.053 470.571 139.739C476.499 137.921 482.661 136.867 488.857 136.609C490.326 136.548 491.841 136.539 493.212 137.07C494.7 137.647 495.876 138.804 497.007 139.931C500.928 143.838 504.931 147.858 507.252 152.884C510.934 160.853 510.023 170.571 514.674 178.016C515.217 173.347 515.761 168.678 516.305 164.009C516.506 162.277 516.731 160.478 517.667 159.006C518.604 157.535 520.476 156.502 522.115 157.098C525.007 158.148 528.018 159.276 530.093 161.548C532.169 163.819 532.937 167.605 530.942 169.947C529.014 172.21 531.201 175.481 532.225 178.272C533.999 183.108 531.913 188.634 533.308 193.593C534.463 197.701 537.8 200.768 540.988 203.604C541.92 204.433 543.008 205.317 544.25 205.204C545.291 205.109 546.127 204.334 546.837 203.568C551.074 199.001 553.976 193.21 555.099 187.082C555.551 184.609 554.691 181.007 552.201 181.345C552.882 175.413 558.335 171.371 561.537 166.332C564.991 160.896 565.807 154.213 565.965 147.775C566.124 141.304 565.492 134.272 561.18 129.445C555.999 123.646 545.933 123.213 540.273 128.545C538.862 129.875 537.003 131.631 535.32 130.669C536.639 128.303 537.958 125.937 539.277 123.57C541.427 119.714 543.622 115.717 544.059 111.324C544.922 102.656 538.323 94.4481 530.162 91.3998C522.002 88.3514 512.789 89.6154 504.603 92.5968C502.552 93.344 500.128 94.9491 500.684 97.0605C501.007 98.2831 502.245 99.0213 502.881 100.115C503.277 100.796 503.237 101.014 502.789 101.566C502.519 101.899 502.031 102.864 501.594 102.675C496.953 97.3007 491.934 91.6738 485.13 89.6412C480.62 88.2939 475.773 88.6894 471.143 89.5374ZM418.437 200.385C417.856 200.041 416.746 199.815 416.854 200.481C417.168 202.109 418.634 203.32 420.215 203.817C421.797 204.315 423.494 204.231 425.15 204.142C425.797 204.107 426.488 204.057 427.004 203.664C427.436 203.334 427.672 202.815 427.892 202.318C428.269 201.466 428.646 200.615 429.023 199.763C425.946 197.761 421.595 202.256 418.437 200.385ZM329.585 194.824C330.879 194.921 332.164 195.147 333.413 195.497C334.496 195.8 335.74 196.434 335.794 197.557C335.864 199.036 333.941 199.64 332.466 199.767C330.965 199.897 329.464 200.027 327.963 200.156C326.87 200.251 325.633 200.299 324.829 199.552C323.749 198.548 324.185 196.602 325.354 195.704C326.523 194.807 328.115 194.714 329.585 194.824ZM364.685 194.502C371.864 195.463 379.139 195.695 386.364 195.193C387.212 195.134 388.135 195.084 388.833 195.569C389.531 196.053 389.705 197.302 388.943 197.679C388.712 197.793 388.446 197.804 388.188 197.814C379.454 198.144 370.719 198.473 361.984 198.803C361.188 198.833 360.311 198.837 359.698 198.327C358.602 197.415 359.231 195.462 360.489 194.788C361.746 194.114 363.271 194.313 364.685 194.502ZM434.382 187.388C431.594 187.538 428.756 187.797 426.181 188.878C423.606 189.96 421.297 191.994 420.528 194.679C420.372 195.224 420.314 195.895 420.732 196.278C421.057 196.576 421.547 196.58 421.988 196.563C426.62 196.38 431.233 195.691 435.716 194.509C437.945 193.922 440.631 192.505 440.33 190.22C440.171 189.017 439.133 188.077 437.987 187.679C436.841 187.28 435.594 187.323 434.382 187.388ZM112.668 187.052C112.223 189.405 112.114 191.822 112.346 194.205C112.922 194.827 113.68 193.613 113.631 192.766C113.52 190.834 113.196 188.914 112.668 187.052ZM261.83 184.173C277.887 184.899 293.944 185.625 310.002 186.351C311.5 186.418 313.491 186.992 313.403 188.49C311.487 189.721 309.014 189.466 306.752 189.202C292.438 187.535 277.958 187.304 263.599 188.516C262.359 188.62 261.043 188.721 259.936 188.153C258.83 187.584 258.116 186.068 258.835 185.052C259.463 184.164 260.743 184.124 261.83 184.173ZM222.894 182.489C223.6 182.596 224.336 182.781 224.849 183.278C226.022 184.415 225.298 186.576 223.887 187.399C222.476 188.223 220.728 188.107 219.101 187.967C217.314 187.812 216.735 185.133 217.908 183.777C219.081 182.421 221.121 182.222 222.894 182.489ZM279.368 176.55C305.538 177.908 331.707 179.265 357.877 180.623C359.278 180.696 361.133 181.235 361.059 182.636C356.744 183.414 352.275 183.327 347.993 182.383L351.796 185.655C349.983 186.798 348.052 187.978 345.909 188.026C343.767 188.073 341.435 186.494 341.495 184.352C342.579 183.852 343.663 183.351 344.748 182.851C323.607 181.04 302.369 180.379 281.157 180.872C279.933 180.901 278.627 180.912 277.593 180.255C276.559 179.599 276.036 178.004 276.892 177.128C277.504 176.502 278.494 176.505 279.368 176.55ZM448.819 180.05C447.876 180.101 447.076 180.727 446.345 181.325C445.479 182.034 444.612 182.743 443.746 183.452C442.838 184.195 441.855 185.081 441.802 186.253C441.773 186.889 442.257 187.643 442.877 187.5C443.05 187.46 443.2 187.356 443.346 187.253C445.409 185.797 447.473 184.342 449.537 182.886C449.958 182.589 450.408 182.253 450.544 181.756C450.794 180.845 449.762 179.998 448.819 180.05ZM480.921 172.425C481.003 174.547 479.949 176.537 479.574 178.628C479.199 180.719 479.913 183.381 481.981 183.871C482.59 184.015 482.767 184.888 482.423 185.411C482.079 185.935 481.428 186.161 480.811 186.273C478.896 186.621 476.628 186.006 475.748 184.27C475.307 183.4 475.273 182.389 475.248 181.415C475.181 178.807 475.114 176.199 475.047 173.59C475.001 171.807 475.201 169.611 476.833 168.892C478.777 168.034 480.839 170.302 480.921 172.425ZM452.455 184.257C452.077 184.433 451.82 184.84 451.824 185.257L451.73 185.281C451.94 185.746 452.693 185.819 452.987 185.402C453.282 184.986 452.963 184.3 452.455 184.257ZM448.844 170.625C447.978 170.647 447.01 170.804 446.498 171.502C445.951 172.249 446.172 173.345 446.735 174.081C447.297 174.817 448.125 175.291 448.898 175.801C452.154 177.948 454.754 181.077 456.269 184.671C457.3 183.315 458.33 181.959 459.36 180.602C460.13 179.589 460.941 178.431 460.779 177.169C460.662 176.258 460.05 175.491 459.4 174.842C456.646 172.087 452.738 170.525 448.844 170.625ZM116.943 149.641C115.733 149.74 115.106 151.099 114.725 152.252C114.145 154.009 113.566 155.767 112.986 157.524C112.352 159.443 111.715 161.384 111.541 163.398C111.426 164.733 111.517 166.076 111.608 167.412C111.893 171.586 112.178 175.76 112.462 179.934C112.517 180.741 113.131 181.855 113.799 181.398C113.522 170.737 114.581 160.041 116.943 149.641ZM459.262 164.989C458.163 165.407 456.996 166.143 456.837 167.307C456.678 168.472 458.393 169.553 459.058 168.584C459.907 167.347 462.029 167.993 462.731 169.319C463.432 170.645 463.226 172.24 463.216 173.74C463.205 175.241 463.55 176.962 464.858 177.697C465.077 175.69 465.297 173.683 465.516 171.676C465.787 169.198 465.771 166.125 463.593 164.913C462.29 164.187 460.656 164.458 459.262 164.989ZM494.539 163.855C496.322 163.934 498.226 164.556 499.201 166.051C500.177 167.546 499.659 169.994 497.941 170.476C495.488 171.163 493.195 167.707 490.797 168.565C489.298 169.102 488.372 171.21 486.809 170.908C485.839 170.72 485.302 169.559 485.495 168.59C485.688 167.621 486.411 166.846 487.185 166.233C489.248 164.598 491.91 163.738 494.539 163.855ZM221.48 162.09C223.199 162.367 224.882 164.249 223.976 165.736C223.722 166.154 223.308 166.45 222.875 166.678C221.804 167.242 220.481 167.434 219.374 166.942C218.268 166.45 217.489 165.173 217.788 163.999C218.165 162.524 219.978 161.847 221.48 162.09ZM497.335 152.303C498.518 153.428 499.439 155.546 498.115 156.501C496.714 157.51 495.036 155.806 493.696 154.717C492.198 153.501 490.169 152.964 488.266 153.281C487.048 153.483 485.902 154.012 484.68 154.189C483.459 154.367 482.038 154.086 481.372 153.048C480.673 151.958 481.117 150.416 482.079 149.55C483.04 148.683 484.376 148.366 485.665 148.248C489.893 147.861 494.258 149.378 497.335 152.303ZM221.421 148.856C222.477 149.475 223.045 150.934 222.458 152.007C221.682 153.426 219.647 153.406 218.078 153.016C217.513 152.876 216.918 152.691 216.544 152.245C215.651 151.18 216.652 149.509 217.899 148.894C218.996 148.353 220.365 148.237 221.421 148.856Z" fill="#00160A"/>
<path fill-rule="evenodd" clip-rule="evenodd" d="M79.7519 291.484C79.8961 291.885 80.0294 292.333 79.8645 292.725C79.5686 293.429 78.6051 293.457 77.8415 293.45C72.4703 293.407 67.4766 298.021 67.0952 303.379C67.0549 303.945 66.277 304.204 65.7737 303.942C65.2704 303.68 65.0114 303.114 64.8373 302.573C63.856 299.529 64.4883 296.116 66.0526 293.326C67.617 290.535 70.0377 288.31 72.6674 286.488C73.6875 285.782 74.9578 285.103 76.1119 285.559C76.8745 285.861 77.3727 286.588 77.7879 287.295C78.5701 288.627 79.2285 290.031 79.7519 291.484ZM76.632 290.875C76.1593 289.428 74.2406 288.909 72.8074 289.42C71.3742 289.931 70.3292 291.149 69.3539 292.317C68.4293 293.425 67.462 294.633 67.353 296.071C69.8245 293.454 73.1087 291.614 76.632 290.875Z" fill="#FFB61D"/>
</g>
<defs>
<clipPath id="clip0_27_1095">
<rect width="603" height="441" fill="white"/>
</clipPath>
</defs>
</svg>
