<svg width="633" height="424" viewBox="0 0 633 424" fill="none" xmlns="http://www.w3.org/2000/svg">
<g clip-path="url(#clip0_0_5204)">
<path fill-rule="evenodd" clip-rule="evenodd" d="M268.454 115.197C266.846 112.949 262.799 110.815 259.256 110.99C255.713 111.166 252.376 112.63 249.196 114.188C251.625 115.958 254.356 117.32 257.238 118.198C258.15 118.476 260.214 119.294 264.667 117.455" fill="#E7EAEE"/>
<path fill-rule="evenodd" clip-rule="evenodd" d="M20.3558 359.571C-71 235.62 173.724 202.284 319.092 107.128C398.306 55.2757 434.536 -1.4466 503 0.0936755C642.966 3.24255 648.693 267.633 618.971 315.128C506.896 494.22 58.1684 410.874 20.3558 359.571Z" fill="#FFB61D"/>
<path fill-rule="evenodd" clip-rule="evenodd" d="M310 191.69C340.529 191.69 371.591 194.576 398.991 208.268C402.22 209.882 405.947 212.881 404.782 216.336C404.345 217.633 403.276 218.594 402.214 219.443C389.799 229.361 373.297 231.881 357.588 233.662C351.484 234.355 345.373 234.988 339.251 235.501C290.68 239.568 241.495 235.998 193.991 224.955C191.195 224.305 187.937 223.198 187.16 220.398C186.216 216.993 189.631 214.084 192.655 212.321C216.055 198.68 242.796 190.985 269.775 190.128C264.974 190.876 333.64 191.867 310 191.69Z" fill="white"/>
<path fill-rule="evenodd" clip-rule="evenodd" d="M485.156 94.777C478.855 107.462 473.588 120.904 472.136 135.013C472.074 135.621 472.025 136.27 472.307 136.811C472.878 137.905 474.385 137.96 475.61 137.879C503.982 136.01 533.306 141.593 557.377 156.838C565.604 162.049 573.162 168.329 581.694 173.014C582.071 173.221 582.499 173.431 582.911 173.31C583.326 173.189 583.576 172.775 583.785 172.395C588.97 162.968 593.563 153.211 597.528 143.201C598.933 139.653 600.272 136.019 600.621 132.214C601.497 122.637 595.196 112.864 586.154 109.777C562.979 101.865 539.805 93.9539 516.63 86.0423C512.394 84.5962 508.101 83.1381 503.64 82.8152C499.179 82.4923 494.456 83.4261 491.016 86.3057C488.368 88.5219 486.696 91.6758 485.156 94.777Z" fill="white"/>
<path d="M399.96 395.95C399.914 398.34 405.645 400.114 407.396 398.482C409.147 396.85 409.355 394.198 409.447 391.809C410.696 359.621 410.945 328.411 410.282 296.205L494.862 318.091L491.083 403.6C490.967 406.023 494.722 406.925 496.552 405.328C498.382 403.73 498.682 401.048 498.851 398.629C500.593 373.72 500.901 348.698 502.273 323.807C503 310.619 519.968 310.619 536.458 294.357C544.669 286.26 551.675 275.088 551.675 275.088C552.979 305.33 555.495 335.649 553.226 365.835C553.054 368.129 556.61 369.06 558.366 367.568C560.051 366.135 560.4 363.732 560.576 361.512L560.597 361.235C562.933 329.637 565.633 262.017 569 217.724C570.275 200.953 573.886 184.886 576 175.353C576.933 171.146 574.012 171.218 568.167 168.593C565.774 167.518 560.425 175.399 558 197.765L557.878 198.943C557.003 207.841 556.238 224.635 555.585 249.326C554.527 254.984 548.152 256.292 536.458 253.249L536 253.129C524.015 249.932 505.631 244.096 480.848 235.621L480.677 233.284C477.976 195.748 478.896 169.515 483.436 154.587L483.578 154.129C490.714 131.404 478.8 140.799 477.446 142.614C468.382 154.768 466.43 170.3 466.488 184.303L466.661 226.4C466.66 230.796 466.45 235.384 464.042 239.028C461.975 242.156 458.592 244.108 455.282 245.904L414.372 268.028C410.601 270.081 406.848 272.257 403.88 275.339C400.615 278.729 398.393 283.453 399.148 288.093C399.651 291.186 400.915 293.595 402.94 295.318L402.2 316.97C401.072 350.693 400.326 377.02 399.96 395.95Z" fill="white"/>
<path d="M200.04 397.95C200.086 400.34 196.355 401.114 194.604 399.482C192.853 397.85 192.645 395.198 192.553 392.809C191.304 360.621 190.055 328.41 190.718 296.205C162.471 304.659 134.225 313.112 105.978 321.565C107.291 348.91 108.604 376.255 109.917 403.6C110.033 406.023 106.278 406.925 104.448 405.327C102.618 403.73 102.318 401.048 102.149 398.629C100.407 373.72 99.2656 348.77 98.7268 323.807C98.6597 320.697 96.1984 318.231 93.907 316.122C79.0462 302.444 64.1854 288.766 49.3245 275.088C48.0212 305.33 48.5053 335.649 50.7735 365.834C50.9459 368.129 47.39 369.06 45.6343 367.568C43.8786 366.076 43.5728 363.53 43.4031 361.235C39.7479 311.8 42.2266 262.065 38.5382 212.632C37.6516 200.75 36.3679 188.719 32 177.629C39.8208 175.812 131.182 157.012 123.442 145.128C133.873 154.5 134.57 170.3 134.512 184.303C134.455 198.043 134.398 211.784 134.341 225.524C134.322 230.18 134.389 235.141 136.958 239.028C139.108 242.281 142.681 244.262 146.115 246.119C159.242 253.218 172.37 260.316 185.498 267.415C189.64 269.655 193.855 271.949 197.12 275.339C200.385 278.729 202.607 283.453 201.852 288.093C201.098 292.733 196.688 296.846 192.017 296.221C196.966 297.274 196.488 296.158 198.06 295.317C198.72 329.528 199.38 363.739 200.04 397.95Z" fill="white"/>
<path d="M38.0797 186.371C36.7198 182.259 35.3599 178.146 34 174.034C35.8943 174.506 103.367 150.672 115.777 147.069C116.99 146.716 117.677 146.557 117.725 146.633C125.871 159.516 126.06 175.696 125.992 190.935C125.929 205.087 125.866 219.239 125.803 233.391C125.79 236.509 125.161 240.464 122.136 241.225C104.235 245.729 86.5887 251.241 69.3077 257.726C64.2115 259.639 58.8834 261.671 53.4819 260.996C50.6425 260.64 47.955 259.549 45.3057 258.468C43.5867 257.767 41.5756 256.655 41.5805 254.8C41.6207 239.634 41.661 224.468 41.7012 209.302C41.7118 205.282 41.7208 201.239 41.0664 197.273C40.4525 193.551 39.2639 189.953 38.0797 186.371Z" fill="white"/>
<path fill-rule="evenodd" clip-rule="evenodd" d="M5.0057 144.083L14.1413 167.735C15.0203 170.011 15.9986 172.418 17.9911 173.836C21.3194 176.204 25.9194 174.874 29.7235 173.376C37.4632 170.329 45.0545 166.925 52.6455 163.522C60.8932 159.825 69.1405 156.127 77.5774 152.887C93.7794 146.664 110.968 142.111 128.315 142.895C131.085 143.02 133.362 140.408 133.853 137.692C134.344 134.975 133.513 132.213 132.69 129.577L126.487 109.701C124.374 102.929 122.154 95.96 117.569 90.5339C112.984 85.1077 105.378 81.565 98.6249 83.8165L16.8943 111.064C7.27264 114.272 0.74009 124.847 2.20525 134.843C2.67285 138.034 3.8434 141.074 5.0057 144.083ZM112.878 88.4662C119.547 94.2531 122.709 102.978 125.465 111.348C127.826 118.518 130.085 125.731 131.802 133.081C132.182 134.703 132.534 136.402 132.132 138.019C131.73 139.635 130.34 141.134 128.668 141.099C112.217 140.753 95.9166 144.574 80.4047 150.037C69.0446 154.038 58.0296 158.916 47.015 163.795L47.0142 163.795L47.0134 163.796L47.0126 163.796L47.0118 163.796L47.011 163.797L47.0102 163.797L47.0094 163.797L47.0086 163.798L47.0078 163.798L47.007 163.798L47.0062 163.799L47.0054 163.799L47.0046 163.799L47.0038 163.8L47.003 163.8L47.0022 163.8L47.0014 163.801L47.0006 163.801L46.9998 163.801L46.999 163.802C42.9788 165.582 38.9587 167.363 34.9218 169.101C31.6664 170.502 28.358 171.888 24.8543 172.436C22.0264 172.878 18.3741 172.226 17.6182 169.477C16.301 164.687 14.3406 160.116 12.3789 155.542L12.3788 155.542C11.088 152.532 9.79653 149.521 8.68737 146.445C5.89258 138.694 4.28697 130.071 6.94746 122.274C7.77177 119.858 9.03909 117.52 11.0136 115.893C12.7638 114.452 14.9485 113.659 17.087 112.896C43.4804 103.481 70.0573 94.5764 96.7975 86.1879C99.7203 85.271 102.773 84.3493 105.801 84.8223C108.46 85.2377 110.849 86.7055 112.878 88.4662ZM34 174.034L38.0797 186.372C39.2639 189.953 40.4525 193.552 41.0664 197.273C41.7208 201.24 41.7118 205.282 41.7012 209.303L41.5805 254.8C41.5756 256.656 43.5867 257.767 45.3057 258.468C47.955 259.549 50.6425 260.64 53.4819 260.996C58.8188 261.664 64.0839 259.687 69.1245 257.795L69.1246 257.795L69.3077 257.727C86.5887 251.241 104.235 245.729 122.136 241.225C125.161 240.464 125.79 236.509 125.803 233.392L125.992 190.935C126.06 175.696 125.871 159.516 117.725 146.634C117.185 145.78 116.271 144.831 115.337 145.217C119.86 153.1 122.688 161.948 123.577 170.992C123.986 175.152 123.989 179.34 123.992 183.521L124.025 233.464C124.027 235.981 123.539 239.175 121.101 239.809C105.623 243.836 90.1018 247.877 75.2085 253.705C74.6217 253.934 74.0327 254.167 73.4416 254.401C66.0334 257.328 58.3025 260.383 50.5348 258.952C46.8783 258.278 42.8797 255.797 42.9525 252.082L43.5107 223.581C43.8083 208.386 44.0113 192.669 38.1075 178.663C37.2756 176.689 36.0795 174.553 34 174.034ZM129 247.232C109.657 250.473 90.6681 255.703 72.4507 262.806C69.4655 263.97 66.5012 265.184 63.5371 266.398L59.3129 268.128C58.3541 267.186 59.7912 265.762 61.0306 265.209C81.542 256.068 103.339 249.66 125.623 246.219C126.891 246.023 128.568 246.056 129 247.232ZM101.059 113C100.842 114.039 101.243 115.139 101.912 115.951C102.641 116.835 103.883 117.446 104.904 116.952C106.329 116.263 106.226 114.066 105.383 112.7C104.898 111.912 104.16 111.189 103.254 111.132C102.22 111.067 101.277 111.961 101.059 113ZM104.1 115.46C103.363 115.79 102.405 115.066 102.494 114.246C102.584 113.427 103.675 112.938 104.322 113.427C104.969 113.917 104.836 115.13 104.1 115.46ZM58.9129 129.095C57.8281 127.855 57.5989 125.589 58.8362 124.532C59.0754 124.328 59.3593 124.178 59.661 124.139C60.3459 124.05 60.9788 124.528 61.4906 125.033C62.6267 126.152 63.5602 128.097 62.6033 129.401C61.7293 130.592 59.8784 130.199 58.9129 129.095ZM60.8911 126.36C60.6308 126.09 60.3166 125.8 59.9613 125.855C59.2799 125.961 59.2953 127.069 59.6263 127.728C59.9994 128.47 60.911 129.158 61.478 128.58C62.0601 127.988 61.4686 126.958 60.8911 126.36ZM38.6439 133.485C38.0272 133.997 37.9508 134.877 38.0218 135.652C38.1048 136.559 38.3449 137.487 38.95 138.192C39.5551 138.898 40.5917 139.324 41.5012 139.039C42.377 138.763 42.9401 137.885 42.9947 137.01C43.0494 136.135 42.672 135.279 42.1467 134.559C41.3558 133.475 39.6896 132.617 38.6439 133.485ZM39.8347 134.876C40.3715 134.514 41.329 135.119 40.9873 135.653L41.2643 136.205C41.9557 136.286 41.8246 137.45 41.1465 137.601C40.4684 137.752 39.8216 137.197 39.549 136.588C39.2915 136.012 39.2979 135.238 39.8347 134.876ZM77.5671 102.192C78.2677 102.318 78.9803 102.557 79.4762 103.066C79.972 103.576 80.1836 104.411 79.8096 105.015C79.4864 105.536 78.8442 105.753 78.2465 105.898C77.3716 106.11 76.4396 106.249 75.5805 105.98C74.7215 105.711 73.9672 104.929 74.0011 104.032C74.0584 102.516 76.0693 101.921 77.5671 102.192ZM76.9906 103.722C76.3732 103.377 75.4749 103.767 75.3079 104.453C76.345 105.076 77.7468 105.034 78.7447 104.35C78.5352 103.709 77.6708 103.384 77.0886 103.728L76.9906 103.722ZM197.04 395.95L195.06 293.317C193.488 294.158 193.325 296.303 193.363 298.082L195.501 397.644C192.615 397.842 191.496 394.002 191.375 391.119C190.014 358.837 189.228 326.531 189.017 294.221C193.688 294.846 198.098 290.733 198.852 286.093C199.607 281.453 197.385 276.729 194.12 273.339C190.855 269.949 186.64 267.655 182.498 265.415L143.115 244.119C139.681 242.262 136.108 240.281 133.958 237.028C131.389 233.141 131.322 228.18 131.341 223.524L131.512 182.303C131.57 168.3 130.873 152.5 120.442 143.128C128.182 155.012 130.186 169.725 130.241 183.896C130.262 189.238 130.035 194.582 129.807 199.925L129.807 199.927L129.807 199.928C129.432 208.759 129.056 217.586 129.801 226.383C130.154 230.549 130.82 234.862 133.184 238.314C135.087 241.093 137.93 243.075 140.782 244.871C147.548 249.133 154.747 252.723 161.935 256.309C173.208 261.931 184.455 267.541 193.966 275.704C196.368 277.766 198.156 282.452 195.097 283.28C164.597 291.537 134.474 301.178 104.851 312.162C102.559 313.012 100.196 311.246 98.3887 309.602L50.8295 266.346C49.1135 264.785 46.131 265.812 44.8878 267.768C43.6446 269.725 43.6436 272.191 43.6827 274.507L45.2221 365.707C42.0035 362.608 41.5549 357.701 41.3388 353.244C40.322 332.274 40.0844 311.268 39.8468 290.266C39.5034 259.904 39.16 229.549 36.4629 199.318C35.7144 190.929 34.5445 181.981 29 175.629C33.3679 186.719 34.6516 198.75 35.5382 210.632C37.3874 235.415 37.6864 260.274 37.9855 285.134V285.134C38.283 309.859 38.5804 334.585 40.4031 359.235C40.5728 361.53 40.8786 364.076 42.6343 365.568C44.39 367.06 47.9459 366.129 47.7735 363.834C45.5053 333.649 45.0212 303.33 46.3245 273.088L90.907 314.122C93.1984 316.231 95.6597 318.697 95.7268 321.807C96.2656 346.77 97.4068 371.72 99.1492 396.629C99.3184 399.048 99.6183 401.73 101.448 403.327C103.278 404.925 107.033 404.023 106.917 401.6L102.978 319.565L187.718 294.205C187.055 326.41 188.304 358.621 189.553 390.809C189.645 393.198 189.853 395.85 191.604 397.482C193.355 399.114 197.086 398.34 197.04 395.95ZM95.6136 316.821L47.334 270.984C46.5098 270.202 45.6183 269.039 46.1885 268.057C46.9502 266.744 48.9606 267.666 50.0856 268.685L101.348 315.143C132.637 303.964 164.313 293.863 196.3 284.864C197.174 286.062 196.686 287.848 195.622 288.882C194.559 289.916 193.081 290.382 191.66 290.815L104.448 317.409C103.35 317.744 102.155 318.152 101.563 319.133C101.098 319.905 101.116 320.863 101.149 321.763C101.514 331.483 102.133 341.196 102.752 350.908C103.879 368.594 105.006 386.275 104.596 403.982C99.3334 394.752 99.0075 383.627 98.8148 373.01L97.9413 324.875C97.8891 322.002 97.7001 318.802 95.6136 316.821ZM35.2311 121.829C34.8839 122.049 34.4651 122.126 34.0563 122.128C32.8213 122.136 31.5531 121.399 31.1302 120.219C30.7073 119.039 31.3499 117.514 32.5442 117.195C33.4622 116.949 34.4438 117.415 35.113 118.1C36.1046 119.115 36.4256 121.074 35.2311 121.829ZM33.5321 118.665C32.7516 118.474 32.2468 119.733 32.7815 120.343C33.3161 120.952 34.3008 120.891 35.0071 120.502L33.5554 118.694L33.5321 118.665ZM116.529 102.179L114.641 100.73C114.265 100.442 113.86 100.142 113.401 100.129C112.629 100.106 112.011 100.964 112 101.805C111.989 102.647 112.442 103.421 112.995 104.007C113.772 104.831 114.923 105.402 115.94 104.992C116.956 104.582 117.415 102.859 116.529 102.179ZM113.19 102.211C113.384 101.741 114.102 101.702 114.338 102.147L114.439 102.239C115.204 102.324 115.813 103.198 115.684 104.024C114.677 103.811 113.758 103.142 113.19 102.211ZM83.3867 136.278C83.0868 135.706 82.8894 135.027 83.0677 134.402C83.4339 133.118 85.1519 132.835 86.3035 133.417C87.7801 134.163 88.6334 136.464 87.4268 137.627C86.2271 138.783 84.1719 137.775 83.3867 136.278ZM85.153 136.319L86.2831 136.842C86.817 136.373 86.7531 135.354 86.1651 134.962C85.5772 134.57 84.6703 134.94 84.4905 135.646L85.1524 136.318L85.153 136.319ZM86.8369 121.921C87.3017 120.86 86.7202 119.624 85.7636 118.85C85.2045 118.397 84.458 118.049 83.7016 118.144C82.6002 118.284 81.9004 119.359 82.0116 120.32C82.1227 121.281 82.8429 122.11 83.6576 122.768C84.615 123.542 86.3721 122.982 86.8369 121.921ZM84.6375 119.629C85.0548 119.838 85.2834 120.241 85.4599 120.63L85.4056 120.799C86.0432 120.986 85.512 121.956 84.846 121.872C84.18 121.788 83.7973 121.183 83.5429 120.642C83.4342 120.411 83.3287 120.154 83.4198 119.917C83.5723 119.521 84.2202 119.42 84.6375 119.629ZM105.508 134.544C104.981 133.702 104.757 132.504 105.365 131.725C106.306 130.518 108.207 131.332 109.201 132.49C109.586 132.939 109.941 133.463 109.994 134.065C110.088 135.145 109.084 136.099 108.055 136.128C107.026 136.156 106.075 135.449 105.508 134.544ZM107.972 133.34L106.986 132.629C106.583 133.016 106.505 133.724 106.813 134.198C107.122 134.672 107.777 134.851 108.265 134.594C108.604 134.24 108.414 133.519 107.951 133.399L107.972 133.34ZM96.2704 95.6734C96.0017 96.0384 95.9767 96.5064 96.0133 96.944C96.1009 97.9904 96.541 99.071 97.4738 99.6925C98.4065 100.314 99.8899 100.298 100.602 99.4703C101.517 98.4062 100.715 96.8112 99.5994 95.9176C98.6512 95.1582 96.9728 94.7194 96.2704 95.6734ZM97.8417 96.7923C98.3075 96.4671 99.1716 96.891 98.9833 97.3959L99.2898 97.4773C99.5468 97.961 99.5385 98.5537 99.2681 99.0314C98.7102 98.8634 98.133 98.6509 97.7735 98.2292C97.414 97.8075 97.3759 97.1174 97.8417 96.7923ZM15.2416 122.907C15.9205 121.853 17.6069 121.974 18.6858 122.648C19.7259 123.297 20.4885 124.788 19.6263 125.647C19.1884 126.083 18.494 126.165 17.8672 126.116C17.0221 126.05 16.159 125.773 15.5818 125.172C15.0046 124.571 14.7933 123.603 15.2416 122.907ZM17.5182 123.487L16.446 124.002C16.8635 124.688 17.789 125.04 18.5772 124.812C18.6877 124.239 18.1824 123.63 17.58 123.611L17.5182 123.487ZM52.9136 111.689C53.8371 112.333 55.1156 112.22 56.0942 111.669C56.464 111.461 56.823 111.169 56.9503 110.756C57.1897 109.978 56.5216 109.225 55.8519 108.79C54.8016 108.107 53.2708 107.766 52.4229 108.701C51.6617 109.54 51.9902 111.045 52.9136 111.689ZM53.3044 110.065C53.253 109.601 53.8946 109.195 54.1971 109.543L54.2554 109.432C54.7945 109.423 55.3249 109.761 55.5562 110.262C55.1725 110.511 54.7669 110.768 54.3139 110.795C53.861 110.821 53.3557 110.529 53.3044 110.065ZM44.8409 150.463C45.7704 149.809 47.2382 150.153 47.7807 151.152C48.3232 152.151 47.8129 153.571 46.7586 153.995C45.8485 154.361 44.6958 153.946 44.2274 153.084C43.7591 152.221 44.0385 151.028 44.8409 150.463ZM46.6263 152.832C46.8458 152.083 46.1346 151.225 45.3576 151.302C45.15 152.068 45.7953 152.942 46.5882 152.968L46.6263 152.832ZM28.5169 157.384C28.0699 157.762 27.9703 158.472 28.0069 159.099C28.1081 160.83 29.5959 162.694 30.9974 161.967C31.8028 161.549 32.1658 160.385 31.9283 159.424C31.6907 158.463 30.9637 157.726 30.144 157.345C29.6189 157.1 28.971 157 28.5169 157.384ZM30.2261 158.96C30.704 159.097 30.9247 159.861 30.6096 160.288L30.9407 160.72C30.2958 160.831 29.4501 160.639 29.3242 159.919C29.2291 159.375 29.7483 158.823 30.2261 158.96ZM25.5223 145.456C25.3208 145.68 25.0683 145.859 24.7892 145.975C24.2922 146.181 23.7119 146.18 23.2157 145.972C22.1665 145.532 21.676 144.116 22.231 143.129C22.786 142.142 24.2577 141.813 25.1852 142.469C26.1126 143.125 26.2806 144.613 25.5223 145.456ZM24.4784 145.215C25.1304 144.733 24.6903 143.469 23.8778 143.489C23.5155 143.707 23.2419 144.066 23.1289 144.472C23.5016 144.817 23.9664 145.063 24.4627 145.178L24.4784 145.215ZM124.959 129.33C124.701 128.434 124.274 127.387 123.237 127.164C122.123 126.925 121.065 127.92 121.003 128.908C120.941 129.905 121.737 130.951 122.879 131.111C124.02 131.271 125.239 130.298 124.959 129.33ZM123.334 129.027C123.667 129.41 123.208 130.064 122.66 129.988L122.724 129.799C122.367 129.72 122.183 129.3 122.391 129.037C122.598 128.774 123.119 128.769 123.334 129.027ZM117.036 114.591C116.77 113.311 118.028 111.965 119.32 112.145C120.796 112.35 121.551 114.483 120.533 115.573C119.516 116.662 117.339 116.051 117.036 114.591ZM118.823 115.175C119.388 115.307 120.017 114.785 119.957 114.207C119.898 113.629 119.127 113.253 118.654 113.589C118.18 113.925 118.317 114.815 118.878 114.964L118.823 115.175ZM68.9192 140.547C68.7887 140.094 68.5057 139.692 68.1313 139.425C66.8777 138.533 64.8512 139.791 65.0087 141.363C65.1661 142.936 67.3981 143.731 68.448 142.589C68.9352 142.059 69.122 141.249 68.9192 140.547ZM66.405 141.58C66.2782 141.1 66.7766 140.574 67.2399 140.7C67.7031 140.826 67.8908 141.538 67.5543 141.893C67.2178 142.248 66.5317 142.061 66.405 141.58Z" fill="#00160A"/>
<path fill-rule="evenodd" clip-rule="evenodd" d="M508.322 92.3872C508.535 92.5461 508.675 92.765 508.78 92.9896C509.255 94.0052 508.964 95.3351 507.878 95.9091C506.793 96.4831 505.044 95.8695 505.001 94.7758C504.987 94.4265 505.131 94.0873 505.294 93.767C505.561 93.2413 505.906 92.7176 506.459 92.3951C507.011 92.0727 507.818 92.0107 508.322 92.3872ZM507.599 94.0261C507.932 93.9339 507.827 93.4027 507.477 93.41C506.579 93.6446 506.16 94.7208 506.713 95.372C507.157 95.0126 507.469 94.5357 507.596 94.0238L507.599 94.0261ZM549.066 110.028C549.891 110.33 550.816 109.903 551.498 109.376C552.246 108.798 552.898 108.026 552.991 107.124C553.084 106.222 552.432 105.221 551.466 105.135C550.788 105.074 550.158 105.448 549.632 105.852C548.928 106.392 548.272 107.058 548.059 107.886C547.846 108.713 548.216 109.718 549.066 110.028ZM552.122 106.905L550.253 108.643L550.216 108.705L549.491 108.224C549.722 107.686 549.974 107.121 550.471 106.774C550.968 106.427 551.789 106.417 552.122 106.905ZM569.437 119.748C568.704 119.018 569.007 117.72 569.516 116.803C569.885 116.14 570.371 115.498 571.055 115.232C571.738 114.965 572.643 115.22 572.913 115.933C573.081 116.378 572.976 116.88 572.853 117.341C572.629 118.181 572.325 119.045 571.699 119.617C571.073 120.188 570.038 120.348 569.437 119.748ZM571.927 117.204C572 117.055 572.064 116.89 572.037 116.725C572.01 116.554 571.875 116.408 571.714 116.374C570.685 116.679 569.982 117.893 570.195 118.997C570.935 118.617 571.553 117.977 571.927 117.204ZM562.613 136.84C563.705 137.684 565.256 136.525 565.923 135.33C566.372 134.524 566.71 133.659 566.923 132.765C567.054 132.213 567.068 131.5 566.56 131.228C566.314 131.097 566.014 131.117 565.738 131.166C563.891 131.493 562.339 133.041 562.042 134.852C561.925 135.565 562.033 136.392 562.613 136.84ZM565.656 132.89C565.746 133.165 565.55 133.444 565.365 133.67L563.495 135.954C563.173 134.607 563.993 133.091 565.312 132.591C565.47 132.621 565.607 132.74 565.656 132.89ZM403.391 275.451C402.383 277.854 403.36 281.254 405.908 281.832C431.779 287.698 457.323 295.002 482.381 303.699C490.683 306.58 499.927 309.601 507.993 306.115C511.127 304.761 513.778 302.521 516.379 300.313L543.503 277.291C534.41 289.473 523.161 300.05 510.432 308.386C507.387 310.381 504.162 312.285 500.572 312.906C496.104 313.679 491.564 312.392 487.213 311.118L411.05 288.817C408.006 287.926 404.196 285.006 406.138 282.506C403.624 283.432 403.808 287.001 404.465 289.592L486.86 313.598C490.764 314.735 494.813 315.885 498.841 315.324C502.842 314.768 506.404 312.581 509.79 310.383C524.2 301.03 538.314 290.05 546.295 274.865C546.528 274.422 546.76 273.971 546.994 273.516C549.083 269.459 551.306 265.14 555.512 263.587C556.237 297.658 555.695 331.756 553.888 365.787C553.767 368.069 557.347 368.882 559.029 367.328C560.71 365.775 560.898 363.233 560.974 360.949L565.363 229.156C565.98 210.631 566.755 191.453 575 174.84C565.304 189.957 564.444 208.88 563.877 226.815L559.699 358.902C559.596 362.176 559.039 366.146 556.007 367.407L557.61 262.079C552.488 261.617 548.828 266.623 545.79 270.777L545.733 270.855C536.915 282.911 524.532 291.812 512.366 300.501C507.239 304.163 500.969 308.008 495.041 305.862C465.483 295.164 435.342 286.065 404.797 278.619C408.71 272.856 414.553 268.708 420.43 264.953C430.969 258.219 442.047 252.323 453.523 247.339C453.791 247.223 454.059 247.107 454.327 246.991C459.646 244.689 465.184 242.292 468.699 237.728C473.427 231.588 473.317 223.15 473.119 215.411C472.846 204.78 472.809 194.143 473.008 183.51C473.278 169.008 474.126 153.973 480.883 141.128C473.067 147.997 472.3 159.669 472.1 170.056L471.118 220.978C470.995 227.336 470.535 234.467 465.784 238.709C463.997 240.305 461.772 241.306 459.584 242.291L459.432 242.359C441.891 250.257 424.969 259.519 408.869 270.034C406.684 271.461 404.398 273.047 403.391 275.451ZM495.919 403.044C494.715 404.088 492.186 403.524 492.271 401.972C493.816 373.779 495.528 345.594 497.408 317.42C496.574 316.884 495.823 318.214 495.763 319.173L491.233 391.876C490.996 395.676 490.762 399.522 491.495 403.264C491.917 405.422 495.409 405.7 497.016 404.132C498.623 402.563 498.826 400.159 498.936 397.965L502.996 317.368C503.048 316.343 502.562 314.875 501.533 315.166L497.359 398.722C497.281 400.274 497.123 402 495.919 403.044ZM413 293.175L409.804 389.959C409.735 392.055 406.509 392.782 404.827 391.472C403.145 390.163 402.717 387.876 402.492 385.79C401.442 376.07 402.276 366.283 403.106 356.527L403.106 356.526C403.235 355.018 403.363 353.51 403.484 352.004C405.044 332.632 405.439 313.17 404.667 293.753C404.644 293.188 405.542 292.986 405.975 293.362C406.408 293.739 406.473 294.364 406.507 294.929C407.622 313.731 406.313 332.543 405.005 351.356C404.498 358.636 403.992 365.916 403.626 373.196C403.376 378.157 403.201 383.208 404.496 388.012C404.752 388.959 405.126 389.972 405.986 390.478C406.846 390.984 408.272 390.555 408.305 389.577L411.436 295.252C411.47 294.248 412.021 292.857 413 293.175ZM580.85 140.171C581.058 140.123 581.283 140.098 581.477 140.193C581.793 140.347 581.928 140.763 581.974 141.142C582.183 142.855 581.094 144.644 579.583 145.072C578.939 145.254 578.04 145.001 578.005 144.266C577.914 142.392 579.192 140.552 580.85 140.171ZM580.658 142.601C580.957 142.31 581.088 141.821 580.98 141.396C579.976 141.643 579.179 142.693 579.13 143.832C579.77 143.718 580.35 143.254 580.65 142.617L580.658 142.601ZM520.69 132.39C520.505 132.059 520.246 131.771 519.936 131.554C518.87 130.804 517.226 131.076 516.456 132.13C515.685 133.184 515.919 134.841 516.952 135.638C517.984 136.435 519.638 136.237 520.455 135.218C521.082 134.436 521.179 133.266 520.69 132.39ZM518.891 134.702C518.142 134.817 517.44 133.936 517.716 133.226C517.992 132.517 519.103 132.347 519.576 132.942C520.05 133.537 519.641 134.587 518.891 134.702ZM575.487 154.263C575.737 154.387 575.958 154.621 575.994 154.912C576.02 155.119 575.952 155.324 575.885 155.52L575.524 156.573C575.281 157.285 575.022 158.022 574.514 158.551C574.006 159.08 573.171 159.335 572.572 158.927C571.537 158.224 572.076 156.495 572.853 155.482C573.508 154.629 574.55 153.796 575.487 154.263ZM574.181 156.967C574.558 156.613 574.704 156.004 574.53 155.5C573.498 155.808 572.881 157.181 573.303 158.231L574.213 157.009L574.181 156.967ZM539.684 136.838C539.601 136.649 539.498 136.463 539.341 136.331C538.836 135.907 538.067 136.22 537.544 136.621C536.87 137.137 536.274 137.818 536.068 138.647C535.861 139.477 536.131 140.465 536.855 140.907C538.113 141.675 539.764 140.315 539.966 138.842C540.059 138.165 539.96 137.462 539.684 136.838ZM537.583 139.893C537.094 139.694 537.024 138.883 537.471 138.601L537.462 138.603L538.594 137.493C539.026 138.378 538.513 139.595 537.583 139.893ZM498.422 130.541C498.167 130.799 497.844 130.986 497.497 131.077C496.068 131.449 494.58 129.743 495.109 128.34C495.638 126.937 497.863 126.686 498.679 127.938C499.192 128.725 499.078 129.874 498.422 130.541ZM497.266 128.392C496.797 128.305 496.303 128.722 496.298 129.208C496.293 129.694 496.779 130.12 497.249 130.043C497.753 129.594 497.827 128.729 497.407 128.197L497.266 128.392ZM588.26 125.988C589.313 125.44 589.779 124.015 589.984 122.702C590.167 121.532 588.728 120.769 587.807 121.301C586.886 121.832 586.441 123.037 586.069 124.145C585.652 125.389 587.207 126.536 588.26 125.988ZM588.489 122.407C588.899 122.527 588.998 123.291 588.637 123.544L588.638 123.533C588.605 124.186 588.004 124.719 587.449 124.586C587.473 123.725 587.872 122.89 588.489 122.407ZM543.582 127.128C542.519 127.124 541.791 125.701 542.054 124.55C542.316 123.399 543.27 122.589 544.272 122.193C544.99 121.909 545.794 122.606 545.957 123.437C546.12 124.268 545.8 125.129 545.364 125.827C544.942 126.504 544.32 127.131 543.582 127.128ZM544.754 124.63L544.874 123.73C543.898 123.545 542.921 124.678 543.123 125.761C543.324 125.918 543.585 125.977 543.825 125.917C544.015 125.419 544.317 124.975 544.695 124.636L544.754 124.63ZM520.697 120.128C521.809 120.15 522.583 119.198 522.87 118.307C523.09 117.619 523.089 116.762 522.4 116.339C521.631 115.867 520.5 116.254 519.856 116.842C519.284 117.363 518.904 118.07 519.021 118.769C519.138 119.467 519.847 120.111 520.697 120.128ZM521.16 117.33C521.598 117.196 522.028 117.77 521.688 118.035L521.658 117.989C521.491 118.393 521.162 118.751 520.736 118.993C520.302 118.471 520.509 117.662 521.16 117.33ZM561.961 148.148C561.997 147.965 562.027 147.769 561.959 147.594C561.855 147.327 561.552 147.191 561.268 147.149C560.037 146.967 558.967 148.027 558.391 149.126C557.883 150.098 557.745 151.584 558.751 152.027C559.715 152.452 560.704 151.46 561.165 150.515C561.531 149.765 561.8 148.967 561.961 148.148ZM559.648 149.763C559.461 149.44 559.647 148.967 560.003 148.855L559.966 148.885C560.23 148.86 560.422 149.201 560.317 149.444C560.212 149.688 559.911 149.8 559.648 149.763ZM529.814 102.864C529.218 103.417 528.555 103.927 527.791 104.12C527.552 104.181 527.372 103.893 527.285 103.645C526.806 102.279 526.879 100.538 527.906 99.5886C528.932 98.6391 530.942 99.2328 530.999 100.693C531.032 101.563 530.425 102.297 529.814 102.864ZM529.562 100.421C528.645 100.353 528 101.588 528.272 102.539C529.089 102.285 529.687 101.374 529.64 100.456L529.562 100.421ZM502.996 109.602C502.954 108.894 502.465 108.172 501.8 108.13C501.26 108.096 500.776 108.503 500.465 108.975C499.979 109.712 499.806 110.761 500.279 111.507C500.751 112.254 501.974 112.378 502.403 111.602C502.741 110.99 503.038 110.311 502.996 109.602ZM501.146 111.273L501.064 110.319L501.078 110.308C501.207 109.895 501.474 109.532 501.82 109.301C502.154 110 501.824 110.967 501.146 111.273ZM481.769 123.754C482.229 124.519 481.929 125.556 481.5 126.343C481.353 126.612 481.182 126.882 480.928 127.025C480.39 127.328 479.722 126.921 479.379 126.374C478.874 125.568 478.85 124.377 479.452 123.657C480.054 122.936 481.278 122.938 481.769 123.754ZM480.098 124.957C480.097 125.235 480.402 125.455 480.634 125.343C480.866 125.23 480.924 124.834 480.736 124.647C480.542 124.501 480.227 124.705 480.25 124.963L480.098 124.957ZM486.435 110.127C487.414 110.168 488.247 109.048 487.932 108.115C487.857 107.891 487.728 107.684 487.559 107.518C486.86 106.828 485.495 107.096 485.106 107.999C484.717 108.903 485.456 110.087 486.435 110.127ZM486.662 108.08C487.101 108.089 486.812 108.909 486.382 108.823L486.387 108.84C486.218 108.578 486.365 108.172 486.662 108.08Z" fill="#00160A"/>
<path fill-rule="evenodd" clip-rule="evenodd" d="M581.587 106.421C586.922 108.244 592.477 110.203 596.378 114.298C601.266 119.428 602.672 127.153 601.72 134.2C600.768 141.246 597.755 147.817 594.778 154.265C591.413 161.553 588.049 168.841 584.684 176.128C573.593 170.755 564.053 162.642 553.445 156.355C530.3 142.638 502.653 138.066 475.829 139.33C473.573 139.436 470.64 139.115 470.084 136.91C469.919 136.253 470.028 135.562 470.143 134.895C472.733 119.828 477.773 105.192 485.003 91.7464C486.074 89.7533 487.21 87.7635 488.77 86.1293C492.37 82.3557 497.869 80.9223 503.059 81.152C508.25 81.3817 513.252 83.0785 518.173 84.7593C539.311 91.9799 560.449 99.2005 581.587 106.421ZM485.156 94.7773C478.855 107.462 473.588 120.904 472.136 135.013C472.073 135.621 472.025 136.27 472.307 136.811C472.878 137.906 474.385 137.96 475.61 137.88C503.982 136.01 533.306 141.594 557.377 156.838C565.604 162.049 573.162 168.329 581.694 173.015C582.071 173.221 582.499 173.431 582.911 173.311C583.326 173.189 583.576 172.776 583.785 172.395C588.97 162.968 593.563 153.211 597.527 143.201C598.933 139.653 600.272 136.019 600.621 132.215C601.497 122.637 595.196 112.864 586.154 109.777C562.979 101.866 539.805 93.9542 516.63 86.0426C512.394 84.5965 508.101 83.1384 503.64 82.8155C499.179 82.4926 494.456 83.4264 491.016 86.306C488.368 88.5222 486.696 91.6761 485.156 94.7773Z" fill="#00160A"/>
<path fill-rule="evenodd" clip-rule="evenodd" d="M296.845 154.237C295.482 155.002 293.71 153.818 293.193 152.354C292.79 151.212 292.882 149.987 292.974 148.768C293 148.422 293.026 148.077 293.041 147.734C293.18 144.494 292.279 141.346 291.38 138.204C291.1 137.225 290.82 136.247 290.572 135.267C286.447 118.976 291.639 100.69 303.731 88.9185C305.28 91.8635 309.412 92.6398 312.557 91.4916C315.702 90.3434 318.078 87.7908 320.311 85.3139C322.544 82.837 324.882 80.2624 328 79.0432C325.667 78.6451 323.238 78.8049 320.979 79.5051C320.631 76.338 317.284 73.8239 314.113 74.3472C311.947 74.7045 310.229 72.6776 308.881 70.9604C307.533 69.2431 305.377 67.4526 303.393 68.3835C305.944 69.911 305.74 73.6669 304.665 76.4218C304.469 76.9244 304.254 77.4303 304.038 77.9388C303.068 80.218 302.075 82.552 302.679 84.8915C303.253 87.118 301.435 89.1719 299.877 90.8739C291.131 100.425 286.429 113.501 287.109 126.379C284.536 122.918 281.268 119.968 277.552 117.751C276.859 117.338 276.145 116.944 275.429 116.549C272.892 115.151 270.338 113.744 268.685 111.425C266.736 108.69 263.128 107.507 259.75 107.608C256.372 107.71 253.136 108.902 249.972 110.079C249.094 110.405 248.07 110.915 248.003 111.842C247.954 112.533 248.484 113.12 249.005 113.582C253.996 117.998 261.781 118.994 267.741 115.979C269.91 114.881 272.536 115.937 274.612 117.198C286.67 124.524 293.426 139.543 290.864 153.325C288.853 154.077 286.69 153.977 284.517 153.876C283.321 153.821 282.122 153.766 280.943 153.852C277.62 154.095 273.816 156.504 274.399 159.754C275.749 167.289 277.099 175.033 275.605 182.541C275.172 184.719 274.505 186.84 273.838 188.961C273.357 190.489 272.877 192.018 272.483 193.569C271.496 197.457 271.061 201.483 271.194 205.491C271.23 206.565 271.319 207.682 271.858 208.615C272.654 209.991 274.25 210.683 275.768 211.188C280.666 212.815 285.903 213.433 291.05 212.989C294.941 212.653 299.326 211.276 300.803 207.694C301.736 205.432 301.244 202.871 300.773 200.473C298.532 189.076 297.107 177.007 301.036 166.068C301.171 165.691 301.313 165.312 301.456 164.932C302.295 162.695 303.153 160.41 302.788 158.081C302.361 155.358 299.265 152.878 296.845 154.237ZM286.035 188.747L282.891 195.426C282.522 196.21 282.298 197.4 283.11 197.716C285.3 194.662 286.857 191.164 287.656 187.502C287.95 186.154 289.17 185.153 290.494 184.729C291.818 184.305 293.245 184.36 294.633 184.449C295.412 184.499 296.272 184.596 296.795 185.17C297.211 185.626 297.31 186.274 297.392 186.883L299.572 203.136C299.763 204.564 299.946 206.069 299.399 207.404C298.474 209.66 295.829 210.658 293.417 211.127C287.49 212.28 281.231 211.708 275.617 209.501C274.825 209.189 274.014 208.823 273.478 208.166C272.763 207.29 272.676 206.08 272.662 204.954C272.567 197.664 274.24 190.357 277.501 183.822L285.109 186.581C285.573 186.749 286.087 186.965 286.265 187.421C286.432 187.852 286.232 188.328 286.035 188.747ZM286.652 184.876C286.15 185.448 285.194 185.705 284.612 185.212C282.631 183.534 279.882 182.785 277.313 183.223C278.234 177.784 277.551 172.287 276.867 166.781C276.541 164.155 276.215 161.527 276.062 158.903C276.044 158.596 276.035 158.264 276.213 158.013C276.504 157.601 277.115 157.62 277.618 157.683L289.606 159.173C290.017 159.224 290.441 159.28 290.793 159.495C291.785 160.103 291.683 161.541 291.458 162.675L287.467 182.779C287.319 183.523 287.154 184.304 286.652 184.876ZM289.478 180.133C291.285 173.206 292.515 166.133 293.152 159.006C296.089 159.489 299.196 158.87 301.716 157.301C301.213 159.656 300.584 161.998 299.955 164.339C298.461 169.905 296.967 175.465 297.171 181.184L297.173 181.237C297.19 181.721 297.209 182.223 297.009 182.664C296.802 183.12 296.274 183.479 295.796 183.318C293.563 182.567 290.97 182.966 289.072 184.352C288.735 182.979 289.109 181.545 289.466 180.176L289.478 180.133ZM305.133 87.7695C303.865 85.9111 303.603 83.4689 304.235 81.3148C304.53 80.3079 305.009 79.3209 305.484 78.3403C306.437 76.3749 307.377 74.435 306.807 72.4107C306.643 71.8273 306.449 71.0189 307.005 70.7682C309.213 72.6705 310.664 75.4117 310.99 78.2923C311.085 79.1341 311.071 80.0432 310.604 80.7524C310.146 81.4469 309.366 81.8014 308.588 82.1549C308.315 82.279 308.042 82.403 307.783 82.5415C306.788 83.0747 305.872 84.2604 306.427 85.2369C311.215 81.746 317.35 80.1178 323.259 80.7698C321.676 81.7675 320.22 82.9632 318.938 84.3196C318.492 84.7904 318.054 85.2886 317.613 85.7901C315.707 87.9549 313.749 90.1804 310.959 90.524C308.712 90.8007 306.401 89.6279 305.133 87.7695ZM259.256 108.99C262.799 108.815 266.846 110.949 268.454 113.197L264.667 115.455C260.436 117.202 258.362 116.55 257.383 116.243C257.332 116.227 257.284 116.212 257.239 116.198C254.356 115.32 251.625 113.958 249.196 112.188C252.376 110.631 255.713 109.166 259.256 108.99ZM318.965 78.9066C318.786 79.1485 318.466 79.2325 318.172 79.3005L313.316 80.4218C313.082 80.4758 312.833 80.5292 312.606 80.4509C312.007 80.2442 312.052 79.3859 312.286 78.8022C312.521 78.2184 312.809 77.4897 312.382 77.0251C311.864 76.4618 312.828 75.7106 313.595 75.6529C315.409 75.5165 317.269 76.2 318.555 77.4751C318.941 77.8586 319.287 78.4691 318.965 78.9066ZM291.38 156.338C291.791 156.808 291.553 157.768 290.926 157.734C287.081 157.529 283.256 156.946 279.526 155.997C282.825 155.226 286.27 155.481 289.649 155.74C290.275 155.788 290.969 155.868 291.38 156.338ZM300.019 155.924C300.189 156.308 299.953 156.814 299.547 156.935C297.548 157.53 295.476 157.888 293.391 157.998C292.855 157.648 293.013 156.758 293.525 156.376C294.037 155.993 294.727 155.971 295.369 155.966L300.019 155.924ZM309.898 192.995C338.95 193.211 369.51 193.826 394.621 208.641C397.031 210.063 397.062 213.848 395.38 216.103C393.698 218.358 390.926 219.437 388.28 220.329C379.932 223.145 371.331 225.19 362.619 226.431C354.382 227.604 346.062 228.058 337.752 228.433C289.263 230.621 240.06 230.08 193.083 217.705C192.89 215.983 194.422 214.614 195.826 213.625C217.24 198.549 244.007 194.143 269.775 190.128C242.796 190.985 216.055 198.68 192.655 212.321C189.631 214.084 186.216 216.993 187.16 220.398C187.937 223.198 191.195 224.305 193.991 224.955C241.495 235.998 290.68 239.568 339.251 235.501C345.373 234.988 351.484 234.355 357.588 233.662C373.297 231.881 389.799 229.361 402.214 219.443C403.276 218.594 404.345 217.633 404.782 216.336C405.947 212.881 402.22 209.882 398.991 208.268C371.591 194.576 340.214 189.196 309.898 192.995ZM402.088 212.203C403.64 214.171 403.642 217.593 401.462 218.8C394.35 222.739 387.127 226.667 379.288 228.752C375.139 229.856 370.873 230.427 366.618 230.972C358.354 232.03 350.078 233 341.781 233.747C291.513 238.276 240.534 234.577 191.414 222.837C189.123 222.289 188.135 219.206 189.089 217.024C189.839 215.31 191.401 214.139 193.141 213.421C191.933 214.431 191.609 216.762 192.628 218.19C193.98 220.087 196.464 220.674 198.73 221.115C225.569 226.34 252.731 230.248 280.053 230.87C288.812 231.07 297.573 230.931 306.333 230.793C332.168 230.384 358.267 229.943 383.35 223.655C388.422 222.384 393.739 220.685 397.122 216.648C397.765 215.88 398.34 215.001 398.486 214.004C398.793 211.903 397.171 210.069 395.674 208.583C398.036 209.362 400.537 210.236 402.088 212.203ZM194.594 212.932C194.025 212.901 193.536 213.09 193.141 213.421C193.616 213.225 194.105 213.062 194.594 212.932ZM196.168 212.108C195.774 212.199 195.306 211.727 195.55 211.4L195.751 211.612C195.931 211.129 196.627 210.946 197.016 211.28C196.81 211.633 196.562 212.018 196.168 212.108ZM360.611 393.34C362.716 399.995 367.868 406.239 374.704 407.109C377.176 407.424 379.034 403.791 377.357 401.922C375.68 400.053 371.94 401.588 372.017 404.115C367.72 402.407 364.709 398.284 363.19 393.863C361.67 389.442 361.433 384.69 361.21 380.014L360.307 361.032C360.003 354.659 359.439 347.657 354.997 343.139C354.031 342.158 352.918 341.338 351.806 340.52C350.382 339.472 348.962 338.427 347.861 337.047C345.283 333.817 344.908 329.369 344.778 325.216C344.066 302.353 347.558 279.363 355.024 257.778C355.513 256.365 356.019 254.954 356.526 253.543L356.526 253.542L356.526 253.542L356.526 253.542L356.526 253.542C358.571 247.847 360.62 242.143 361.534 236.168C360.384 235.872 359.583 237.283 359.218 238.429L351.857 261.549C349.936 267.582 348.013 273.622 346.584 279.793C343.225 294.296 342.641 309.29 342.07 324.176C341.932 327.772 341.833 331.553 343.459 334.75C344.635 337.063 346.57 338.793 348.514 340.531L348.514 340.532C349.924 341.793 351.339 343.058 352.474 344.555C354.981 347.859 355.966 352.073 356.684 356.179C357.63 361.591 358.225 367.068 358.461 372.56C358.519 373.894 358.556 375.235 358.593 376.577C358.751 382.255 358.909 387.957 360.611 393.34ZM373.648 403.358C373.856 402.559 375.065 402.274 375.58 402.914L375.719 402.797C376.228 403.442 375.882 404.578 375.095 404.792C374.308 405.007 373.44 404.158 373.648 403.358ZM216.031 412.872C215.695 410.727 218.188 409.323 220.281 408.9L220.535 408.849C222.575 408.439 224.947 407.963 225.702 406.025C228.74 398.229 228.901 389.618 229.061 381.059C229.25 370.91 229.438 360.834 234.421 352.28C236.811 348.177 240.168 344.739 243.774 341.693C244.049 341.46 244.328 341.227 244.608 340.993C247.53 338.55 250.588 335.993 251.615 332.335C252.188 330.293 252.049 328.123 251.905 326.004L249.123 285.017C248.768 279.785 248.413 274.548 247.707 269.352C246.262 258.707 243.361 248.319 240.011 238.128C242.649 239.643 243.84 242.814 244.717 245.765C249.777 262.791 250.956 280.722 252.104 298.472L253.902 326.271C254.231 331.355 253.953 337.608 249.507 339.948C242.451 343.662 236.838 350.133 234.092 357.722C231.457 365.001 231.455 372.871 231.452 380.685C231.452 382.455 231.451 384.223 231.42 385.979C231.251 395.493 229.823 405.716 223.413 412.64C222.357 413.781 221.094 414.852 219.573 415.091C218.051 415.329 216.272 414.42 216.031 412.872ZM217.434 412.817C217.361 413.269 217.812 413.669 218.26 413.701C218.709 413.733 219.134 413.507 219.52 413.272C220.756 412.522 221.896 411.608 222.903 410.562C222.119 409.962 221.002 409.981 220.101 410.375C219.2 410.769 218.474 411.481 217.803 412.209C217.64 412.386 217.473 412.578 217.434 412.817ZM306.011 346.128C305.847 359.337 307.559 372.487 309.268 385.582C309.744 389.228 310.236 392.936 311.73 396.288C312.406 397.804 313.732 399.443 315.331 399.076C315.831 398.961 316.269 398.655 316.641 398.297C318.096 396.898 318.545 394.314 317.18 392.826C315.814 391.337 312.731 392.118 312.64 394.15C309.966 379.773 308.256 365.211 307.526 350.599C307.445 348.973 307.273 347.134 306.011 346.128ZM316.115 393.841C316.185 394.119 316.035 394.4 315.89 394.647L314.71 396.655L313.927 396.504C313.839 395.699 314.013 394.868 314.415 394.169C314.789 393.518 315.932 393.111 316.115 393.841ZM306.249 322.282C305.844 317.887 306.01 313.46 306.208 309.05C307.233 286.178 309.115 263.346 311.847 240.62C311.913 240.074 312.041 239.438 312.531 239.21C313.546 238.736 314.109 240.439 313.982 241.572C310.939 268.79 308.936 296.135 308.207 323.521C308.191 324.121 307.298 324.316 306.849 323.927C306.4 323.538 306.304 322.88 306.249 322.282Z" fill="#00160A"/>
<path d="M318.171 345.717C312.093 345.305 306.015 344.894 299.936 344.482C291.555 343.914 283.147 343.343 274.904 341.74C269.148 340.62 263.492 339 258.024 336.903C257.429 336.674 256.809 336.421 256.409 335.929C255.647 334.988 256.027 333.506 256.911 332.676C257.796 331.846 259.029 331.51 260.214 331.224C285.265 325.186 311.566 329.073 336.938 333.615C338.859 333.959 340.837 334.329 342.47 335.386C344.103 336.443 345.319 338.375 344.925 340.265C344.463 342.484 342.106 343.749 339.927 344.449C332.972 346.681 325.466 346.211 318.171 345.717" fill="white"/>
<path fill-rule="evenodd" clip-rule="evenodd" d="M318.171 345.717C312.093 345.305 306.015 344.894 299.936 344.482C291.555 343.914 283.147 343.343 274.904 341.74C269.148 340.62 263.492 339 258.024 336.903C257.429 336.674 256.809 336.421 256.409 335.929C255.647 334.988 256.027 333.506 256.911 332.676C257.796 331.846 259.029 331.51 260.214 331.224C285.265 325.186 311.566 329.073 336.938 333.615C338.859 333.959 340.837 334.329 342.47 335.386C344.103 336.443 345.319 338.375 344.925 340.265C344.463 342.484 342.106 343.749 339.927 344.449C332.972 346.681 325.466 346.211 318.171 345.717M257.458 335.185C277.172 341.922 298.369 342.776 319.212 343.568C324.328 343.762 329.448 343.956 334.567 343.828C336.588 343.777 338.784 343.608 340.286 342.271C341.789 340.933 341.876 338.011 340.003 337.258C329.12 332.888 317.162 332.079 305.439 331.344C291.486 330.469 277.376 329.632 263.604 332.017C261.248 332.425 258.627 333.122 257.458 335.185Z" fill="#00160A"/>
<path fill-rule="evenodd" clip-rule="evenodd" d="M557.647 252.138C558.849 245.497 559.489 238.752 559.558 232.002C559.664 221.639 558.429 211.273 559.013 200.926C559.598 190.578 562.231 179.914 569 172.113C568.38 176.407 567.042 180.595 565.061 184.448C561.162 192.028 561.029 200.935 560.982 209.474C560.91 222.611 560.838 235.748 560.765 248.885C560.743 252.892 557.999 256.558 554.465 258.392C550.932 260.227 546.75 260.442 542.826 259.801C539.708 259.292 536.697 258.277 533.702 257.266C515.952 251.273 498.203 245.281 480.454 239.288C479.027 238.807 477.344 238.01 477.241 236.496C475.679 213.553 475.591 190.507 476.979 167.552C477.576 157.674 478.897 146.836 486.116 140.128C483.926 144.779 481.724 149.46 480.378 154.426C478.608 160.957 478.364 167.795 478.131 174.56C477.425 195.035 476.723 215.606 479.122 235.95C479.236 236.915 479.575 238.115 480.53 238.242C488.434 239.29 496.006 242.03 503.506 244.752C513.901 248.525 524.296 252.298 534.691 256.071C537.219 256.989 539.783 257.914 542.46 258.144C546.292 258.472 550.085 257.358 553.772 256.256C554.868 255.928 556.036 255.553 556.746 254.649C557.3 253.944 557.487 253.023 557.647 252.138Z" fill="#00160A"/>
<path fill-rule="evenodd" clip-rule="evenodd" d="M541 263.128C525.248 262.116 510.66 255.113 495.583 250.544C490.281 248.937 484.891 247.627 479.504 246.317C476.003 245.465 472.501 244.614 469 243.762C475.847 242.009 483.03 244.221 489.744 246.41C506.829 251.983 523.915 257.556 541 263.128Z" fill="#00160A"/>
<path fill-rule="evenodd" clip-rule="evenodd" d="M262.834 111.611C263.353 111.628 263.817 111.699 264.558 111.878L268.847 113C269.077 113.059 269.291 113.114 269.478 113.161C269.746 113.228 269.908 113.5 269.841 113.768C269.773 114.036 269.502 114.198 269.234 114.131L267.69 113.733L264.774 112.963L264.556 112.907C263.736 112.701 263.291 112.626 262.802 112.611L262.678 112.612C261.77 112.645 257.493 113.067 254.734 113.247C254.458 113.265 254.22 113.056 254.202 112.781C254.184 112.505 254.393 112.267 254.668 112.249L255.712 112.175C258.458 111.968 262.06 111.618 262.773 111.611L262.834 111.611Z" fill="#00160A"/>
<path fill-rule="evenodd" clip-rule="evenodd" d="M262.251 109.835C262.456 109.651 262.772 109.668 262.957 109.874L264.573 111.675C264.757 111.88 264.74 112.196 264.534 112.381C264.329 112.565 264.013 112.548 263.828 112.342L262.213 110.541C262.028 110.336 262.045 110.02 262.251 109.835Z" fill="#00160A"/>
<path fill-rule="evenodd" clip-rule="evenodd" d="M264.449 111.661C264.672 111.823 264.722 112.135 264.56 112.359L263.056 114.434C262.894 114.658 262.581 114.708 262.358 114.545C262.134 114.383 262.084 114.071 262.246 113.847L263.75 111.772C263.912 111.548 264.225 111.499 264.449 111.661Z" fill="#00160A"/>
<path fill-rule="evenodd" clip-rule="evenodd" d="M256.532 110.542C256.661 110.298 256.964 110.204 257.208 110.333L259.788 111.696C260.032 111.825 260.125 112.128 259.996 112.372C259.867 112.616 259.564 112.71 259.32 112.581L256.741 111.218C256.496 111.089 256.403 110.786 256.532 110.542Z" fill="#00160A"/>
<path fill-rule="evenodd" clip-rule="evenodd" d="M259.776 111.877C259.953 112.089 259.926 112.404 259.714 112.581L257.055 114.811C256.844 114.988 256.528 114.961 256.351 114.749C256.174 114.537 256.201 114.222 256.413 114.045L259.071 111.815C259.283 111.638 259.598 111.665 259.776 111.877Z" fill="#00160A"/>
<path fill-rule="evenodd" clip-rule="evenodd" d="M283.11 197.716C282.298 197.4 282.522 196.21 282.891 195.426C283.939 193.199 284.987 190.973 286.035 188.746C286.232 188.328 286.432 187.851 286.265 187.421C286.087 186.965 285.573 186.749 285.109 186.581C282.573 185.661 280.037 184.741 277.501 183.822C274.24 190.357 272.567 197.664 272.662 204.954C272.676 206.08 272.763 207.29 273.478 208.166C274.014 208.823 274.825 209.189 275.617 209.501C281.231 211.708 287.49 212.28 293.417 211.127C295.829 210.658 298.474 209.66 299.399 207.404C299.946 206.069 299.763 204.564 299.572 203.136C298.845 197.718 298.119 192.301 297.392 186.883C297.31 186.274 297.211 185.625 296.795 185.17C296.272 184.596 295.412 184.499 294.633 184.449C293.245 184.36 291.818 184.305 290.494 184.729C289.17 185.153 287.95 186.154 287.656 187.502C286.857 191.164 285.3 194.662 283.11 197.716Z" fill="#E7EAEE"/>
<path fill-rule="evenodd" clip-rule="evenodd" d="M277.313 183.222C279.882 182.784 282.631 183.534 284.612 185.212C285.194 185.704 286.15 185.448 286.652 184.876C287.154 184.303 287.319 183.522 287.467 182.779C288.797 176.077 290.128 169.376 291.458 162.675C291.683 161.541 291.785 160.103 290.793 159.495C290.441 159.279 290.017 159.224 289.606 159.173C285.61 158.676 281.614 158.179 277.618 157.683C277.115 157.62 276.505 157.601 276.213 158.013C276.035 158.264 276.044 158.596 276.062 158.902C276.536 167.032 278.673 175.191 277.313 183.222Z" fill="white"/>
<path fill-rule="evenodd" clip-rule="evenodd" d="M301.716 157.301C299.196 158.87 296.088 159.489 293.152 159.006C292.515 166.132 291.285 173.206 289.477 180.133C289.117 181.515 288.731 182.964 289.072 184.352C290.97 182.966 293.563 182.567 295.795 183.318C296.274 183.479 296.801 183.12 297.009 182.663C297.216 182.207 297.189 181.684 297.171 181.184C296.881 173.06 300.017 165.254 301.716 157.301Z" fill="white"/>
<path fill-rule="evenodd" clip-rule="evenodd" d="M279.526 155.997C283.256 156.946 287.081 157.529 290.926 157.734C291.553 157.768 291.791 156.808 291.38 156.338C290.969 155.868 290.275 155.788 289.649 155.74C286.27 155.481 282.825 155.226 279.526 155.997Z" fill="white"/>
<path fill-rule="evenodd" clip-rule="evenodd" d="M293.391 157.997C295.476 157.888 297.548 157.53 299.547 156.935C299.953 156.814 300.189 156.308 300.019 155.924C298.469 155.938 296.919 155.951 295.369 155.965C294.727 155.971 294.037 155.992 293.525 156.375C293.013 156.758 292.855 157.648 293.391 157.997" fill="white"/>
<path fill-rule="evenodd" clip-rule="evenodd" d="M304.235 81.3147C303.603 83.4688 303.865 85.911 305.133 87.7694C306.401 89.6278 308.712 90.8005 310.959 90.5239C314.395 90.1007 316.57 86.8228 318.938 84.3195C320.22 82.9631 321.676 81.7674 323.259 80.7697C317.35 80.1177 311.215 81.7458 306.427 85.2367C305.872 84.2602 306.788 83.0746 307.783 82.5414C308.778 82.0082 309.985 81.6907 310.604 80.7523C311.071 80.0431 311.085 79.134 310.99 78.2921C310.664 75.4116 309.212 72.6704 307.005 70.7681C306.449 71.0188 306.643 71.8272 306.807 72.4106C307.662 75.4449 305.122 78.2897 304.235 81.3147Z" fill="#FFB61D"/>
<path fill-rule="evenodd" clip-rule="evenodd" d="M318.172 79.3005C318.467 79.2325 318.786 79.1485 318.965 78.9066C319.287 78.4691 318.941 77.8586 318.555 77.4752C317.269 76.2 315.409 75.5165 313.595 75.6529C312.829 75.7106 311.864 76.4618 312.382 77.0251C312.809 77.4897 312.521 78.2184 312.287 78.8022C312.052 79.386 312.007 80.2442 312.606 80.4509C312.833 80.5292 313.082 80.4758 313.316 80.4218C314.935 80.048 316.553 79.6742 318.172 79.3005Z" fill="#FFB61D"/>
</g>
<defs>
<clipPath id="clip0_0_5204">
<rect width="633" height="424" fill="white"/>
</clipPath>
</defs>
</svg>
