<svg width="473" height="684" viewBox="0 0 473 684" fill="none" xmlns="http://www.w3.org/2000/svg">
<g id="Illustration/Order Placed">
<path id="Blob" fill-rule="evenodd" clip-rule="evenodd" d="M305.409 107.581C306.584 63.9649 251.383 -10.4925 160.952 2.48041C61.9417 16.6837 -9.8992 130.449 4.41232 257.602L4.95744 262.486C13.7432 341.905 16.6788 404.466 1.49856 492.559C-9.85114 558.422 70.8571 704.241 249.387 681.173C427.917 658.106 525.979 444.031 441.73 343.021C329.203 208.103 302.838 203.04 305.409 107.581Z" fill="#2BD9F5"/>
<path id="Path" fill-rule="evenodd" clip-rule="evenodd" d="M199.385 234.741C196.322 226.859 190.52 220.422 185.498 213.618C172.069 195.428 163.741 173.513 161.701 150.995C160.612 138.974 164.747 80.301 186.614 66.5368C175.818 63.213 164.747 59.7472 155.892 52.734C147.037 45.7208 140.77 34.2551 143.153 23.2135C146.76 6.50152 168.465 -0.673288 184.655 4.8196C200.846 10.3125 212.492 24.2088 223.268 37.4819C233.572 36.614 236.13 21.4317 245.541 17.1473C251.889 14.2574 259.269 17.2203 265.423 20.5031C283.332 30.0566 300.106 43.1568 309.575 61.1103C319.045 79.0638 319.865 102.5 307.799 118.822C312.194 113.79 321.302 120.048 320.782 126.709C320.261 133.37 314.377 138.203 308.76 141.82C303.143 145.437 296.866 149.186 294.646 155.488C289.059 171.351 280.182 186.047 268.742 198.374C261.752 205.906 253.728 212.682 248.543 221.554C243.359 230.426 241.627 242.348 247.674 250.656C255.715 242.098 269.574 239.691 280.03 245.038C290.485 250.384 296.647 263.029 294.416 274.558C308.985 275.809 322.073 287.35 325.137 301.648C354.676 331.424 378.803 366.552 395.993 404.81C406.904 429.095 415.007 454.527 423.085 479.895C426.246 489.821 429.445 500.219 427.684 510.487C424.109 531.336 401.491 543.619 380.482 546.087C354.324 549.16 327.067 541.53 306.306 525.323C295.217 559.808 284.147 597.477 296.754 631.438C299.454 638.71 294.055 646.971 287.002 650.202C279.95 653.434 271.832 652.962 264.093 652.425C220.716 649.419 177.34 646.412 133.963 643.405C124.873 642.775 112.445 637.427 115.663 628.903C122.848 609.865 124.901 588.918 121.549 568.848C118.991 582.366 114.557 595.526 108.412 607.835C108.412 607.835 86.7604 652.425 65.1676 629.541C52.8609 604.674 52.3303 575.556 55.963 548.05C59.5956 520.543 67.1054 493.626 70.0397 466.037C72.8984 439.159 71.3794 411.961 74.1748 385.077C76.9703 358.192 84.6972 330.66 103.047 310.814C117.566 295.112 132.085 279.41 146.604 263.707C150.513 259.48 154.633 255.107 160.038 253.124C165.444 251.141 172.51 252.402 175.29 257.444C178.717 253.181 182.727 248.586 188.167 248.015C193.608 247.445 199.285 254.11 195.793 258.319C202.052 252.634 202.448 242.623 199.385 234.741Z" fill="white"/>
<path id="Path_2" fill-rule="evenodd" clip-rule="evenodd" d="M315.137 301.648C344.676 331.423 368.803 366.552 385.993 404.81C396.904 429.095 405.007 454.527 413.085 479.895C416.246 489.821 419.445 500.219 417.684 510.487C414.109 531.336 391.491 543.619 370.482 546.087C344.324 549.16 318.745 539.937 297.984 523.73C286.895 558.215 274.147 597.477 286.754 631.437C287.896 634.515 290.876 637.996 289.606 640.972C287.876 645.028 281.07 648.338 277.002 650.202C275.931 650.693 278.791 640.547 278.666 625.657C278.454 600.317 267.829 512.279 292.838 518.095C353.92 532.299 399.973 530.097 400.939 514.944C405.842 438.014 312.073 287.35 315.137 301.648Z" fill="#E7EAEE"/>
<path id="Combined Shape" fill-rule="evenodd" clip-rule="evenodd" d="M181.826 217.995L181.826 217.994L181.826 217.994L181.825 217.993L181.825 217.993L181.824 217.992L181.824 217.992L181.823 217.991L181.823 217.99L181.822 217.99L181.822 217.989L181.821 217.989L181.821 217.988L181.821 217.987L181.82 217.987L181.82 217.986L181.819 217.986C180.699 216.535 179.58 215.085 178.498 213.618C165.069 195.428 156.741 173.513 154.701 150.995C153.612 138.974 157.747 80.301 179.614 66.5369C168.818 63.213 157.747 59.7472 148.892 52.734C140.037 45.7208 133.77 34.2551 136.153 23.2135C139.76 6.50152 161.465 -0.673288 177.655 4.8196C193.846 10.3125 205.492 24.2088 216.268 37.4819C221.943 37.0039 225.269 32.1833 228.683 27.233C231.468 23.1956 234.313 19.0719 238.541 17.1473C244.889 14.2574 252.269 17.2203 258.423 20.5031C276.332 30.0566 293.106 43.1568 302.575 61.1103C312.045 79.0638 312.865 102.5 300.799 118.822C305.194 113.79 314.302 120.048 313.782 126.709C313.261 133.37 307.377 138.203 301.76 141.82C301.461 142.012 301.16 142.205 300.858 142.399C295.486 145.843 289.748 149.522 287.646 155.488C282.059 171.351 273.182 186.047 261.742 198.374C259.882 200.378 257.948 202.329 256.015 204.28L256.014 204.28L256.014 204.28C250.682 209.661 245.348 215.043 241.543 221.554C236.359 230.426 234.627 242.348 240.674 250.656C248.715 242.098 262.574 239.691 273.03 245.038C283.485 250.384 289.647 263.029 287.416 274.558C301.985 275.809 315.073 287.35 318.137 301.648C347.676 331.424 371.803 366.552 388.993 404.81C399.904 429.095 408.007 454.527 416.085 479.895C419.246 489.821 422.445 500.219 420.684 510.487C417.109 531.336 394.491 543.619 373.482 546.087C347.324 549.16 320.067 541.53 299.306 525.323C288.217 559.808 277.147 597.477 289.754 631.438C290.87 634.444 290.602 637.619 289.405 640.538C281.196 622.7 279.692 602.339 281.888 582.817C284.102 563.136 289.889 544.057 295.649 525.108C296.604 521.966 291.613 521.137 288.359 520.691C282.581 519.899 278.389 514.976 274.775 510.399L260.084 491.788C250.602 479.777 239.67 466.885 224.545 464.559C220.35 463.914 216.105 464.149 211.854 464.384C209.265 464.527 206.673 464.67 204.088 464.615C194.05 464.4 184.1 461.096 175.927 455.264C173.967 453.866 171.978 452.114 171.576 449.74C171.183 447.422 173.278 444.704 175.503 445.294L175.661 445.342C175.637 445.334 175.613 445.326 175.589 445.319C175.561 445.31 175.532 445.302 175.503 445.294C168.422 443.158 161.678 439.905 155.598 435.692C154.478 434.916 153.335 434.054 152.758 432.819C151.51 430.151 153.575 426.883 156.296 425.757C159.018 424.631 162.1 425.042 165.014 425.471C161.538 424.765 157.954 424.014 155.041 421.99C152.129 419.965 150.042 416.311 150.944 412.881C151.845 409.451 156.573 407.328 159.238 409.668C158.075 406.205 160.596 402.368 163.894 400.797C167.192 399.226 171.013 399.35 174.661 399.551C189.965 400.395 205.227 402.029 220.363 404.442L218.146 373.304C218.056 372.034 217.946 370.704 217.258 369.633C216.376 368.261 214.744 367.607 213.215 367.04C182.404 355.626 150.708 346.604 118.505 340.08L125.719 475.233C125.941 479.377 127.095 484.634 131.19 485.307C156.631 489.495 181.588 496.622 205.404 506.501C208.749 507.889 211.195 503.205 211.811 499.637L217.914 464.266C218.762 479.218 216.623 494.334 211.659 508.463C215.455 509.356 217.652 504.341 218.259 500.489L223.77 465.536C224.709 477.926 223.625 490.468 220.576 502.514C219.875 505.28 218.812 508.339 216.225 509.543C214.036 510.562 211.472 509.901 209.154 509.225L128.566 485.724C127.299 485.354 125.977 484.953 125.037 484.026C123.64 482.646 123.449 480.492 123.341 478.531L116.634 356.666C116.199 348.766 116.631 340.847 117.062 332.947L119.273 292.488C106.302 338.181 105.077 386.616 110.541 433.799C116.006 480.982 128.009 527.153 141.16 572.795C135.627 563.33 131.585 552.995 129.23 542.287C122.798 551.493 116.049 561.987 117.884 573.067C120.966 591.675 119.001 611.095 112.253 628.709C110.714 632.726 113.481 637.359 117.269 639.397C121.058 641.434 125.551 641.535 129.853 641.589L187.117 642.3C185.538 640.295 186.108 636.968 188.265 635.604C187.687 641.827 195.67 644.757 201.863 645.6C231.123 649.58 262.227 653.312 289.119 641.193C287.327 645.06 283.92 648.407 280.002 650.202C272.95 653.434 264.832 652.962 257.093 652.425L126.963 643.405C117.873 642.775 105.445 637.427 108.663 628.903C115.848 609.865 117.901 588.918 114.549 568.848C111.991 582.366 107.557 595.526 101.412 607.835C103.932 587.283 110.823 567.277 121.492 549.532C129.086 536.901 124.711 520.829 120.811 506.616C102.342 439.327 99.4789 367.805 112.51 299.254C84.6989 319.583 73.0884 355.657 69.7897 389.947C68.4105 404.283 68.1824 418.719 67.9545 433.146C67.6374 453.226 67.3205 473.288 63.9005 493.04C62.338 502.064 60.1336 510.982 57.9308 519.893C54.4506 533.972 50.9743 548.036 50.0403 562.475C48.5816 585.024 53.3886 607.456 58.1676 629.541C45.8609 604.674 45.3303 575.556 48.963 548.05C50.6301 535.426 53.1138 522.927 55.5971 510.429L55.5972 510.429C58.5249 495.695 61.4521 480.965 63.0397 466.037C64.4795 452.5 64.8088 438.882 65.1381 425.264C65.4627 411.843 65.7873 398.421 67.1748 385.077C69.9703 358.192 77.6972 330.66 96.0473 310.814L139.604 263.707C143.513 259.48 147.633 255.107 153.038 253.124C158.444 251.141 165.51 252.402 168.29 257.444C171.717 253.181 175.727 248.586 181.167 248.015C186.608 247.445 192.285 254.11 188.793 258.319C195.052 252.634 195.448 242.623 192.385 234.741C189.984 228.562 185.899 223.27 181.826 217.995ZM289.119 641.193C289.22 640.977 289.315 640.758 289.405 640.538C289.472 640.683 289.539 640.827 289.606 640.972C289.538 641.003 289.469 641.035 289.4 641.066C289.306 641.109 289.213 641.151 289.119 641.193ZM417.711 499.081C419.184 511.361 412.6 523.706 402.831 531.292C393.062 538.878 380.554 542.211 368.215 543.059C342.235 544.843 315.681 535.936 296.031 518.847C311.115 503.387 311.958 476.227 297.861 459.861C309.989 454.219 322.39 448.499 335.686 447.037C348.982 445.575 363.574 449.104 372.217 459.313C373.694 461.057 374.972 462.96 376.249 464.861C377.817 467.197 379.384 469.53 381.317 471.565C379.642 460.495 371.013 451.249 360.683 446.93C350.354 442.611 338.603 442.707 327.673 445.137C316.744 447.567 306.449 452.201 296.243 456.804C294.302 457.679 292.85 454.886 292.534 452.781L290.706 440.582C289.952 435.554 290.032 428.972 294.769 427.125C298.328 425.738 297.395 420.31 295.04 417.304C294.645 416.8 294.222 416.294 293.796 415.782C291.675 413.242 289.449 410.574 290.011 407.445C295.981 374.21 301.984 340.841 312.607 308.789C312.936 307.796 313.336 306.719 314.241 306.195C315.464 305.485 317.01 306.099 318.241 306.794C328.193 312.418 334.14 322.465 340.075 332.491L340.075 332.492C342.169 336.03 344.262 339.565 346.529 342.903C350.026 348.052 354.033 352.819 358.041 357.588L358.042 357.589L358.042 357.59L358.043 357.591L358.044 357.592L358.045 357.593L358.045 357.594L358.046 357.595L358.047 357.596L358.048 357.597L358.048 357.597L358.049 357.598L358.05 357.599L358.05 357.6L358.051 357.601C361.024 361.138 363.997 364.675 366.763 368.371C383.834 391.176 392.209 418.605 400.601 446.093C404.429 458.632 408.261 471.182 412.924 483.312C413.113 483.804 413.304 484.296 413.495 484.789C415.299 489.444 417.117 494.135 417.711 499.081ZM283.962 427.307C286.397 427.284 288.947 427.232 291.08 426.056C293.213 424.879 294.72 422.184 293.734 419.957C292.797 417.843 290.098 417.081 287.805 417.381C286.477 417.555 285.207 417.989 283.936 418.424L283.935 418.424L283.935 418.424L283.935 418.424L283.934 418.424L283.934 418.424L283.934 418.424L283.933 418.424L283.933 418.424L283.933 418.425L283.932 418.425L283.932 418.425L283.932 418.425L283.932 418.425C283.01 418.74 282.087 419.056 281.14 419.272C276.42 420.352 271.602 418.929 266.81 417.514C261.623 415.982 256.466 414.459 251.497 416.13C254.711 410.81 254.499 404.229 254.297 397.977C254.287 397.65 254.276 397.324 254.266 396.999C253.246 363.797 260.613 330.371 275.495 300.674C270.002 304.603 266.059 310.643 264.673 317.254C264.508 318.039 264.377 318.836 264.245 319.632C263.908 321.678 263.571 323.724 262.668 325.577C259.008 333.087 248.672 333.643 240.351 332.892C233.533 332.277 226.387 331.382 220.833 327.378C218.047 325.37 215.805 322.674 213.574 319.993C210.605 316.424 207.658 312.881 203.481 311.023C196.552 307.94 189.148 310.509 181.656 313.108C174.889 315.456 168.05 317.829 161.426 316.082C157.693 315.098 155.112 319.68 153.992 323.374L149.111 339.468C146.834 330.671 149.615 320.747 156.132 314.414C153.341 312.583 154.093 308.825 154.837 305.103C155.59 301.334 156.337 297.603 153.386 295.953C144.479 290.97 142.716 279.135 141.956 268.958C130.623 273.142 124.158 285.391 122.165 297.306C120.99 304.33 121.004 311.458 121.018 318.593V318.593C121.027 323.563 121.036 328.537 120.644 333.481C154.812 340.17 188.49 349.358 221.32 360.948C223.33 361.658 225.441 362.448 226.782 364.105C228.224 365.887 228.493 368.316 228.705 370.599C229.777 382.144 230.789 394.165 226.659 404.998L226.694 371.238C226.696 369.369 226.376 367.029 224.597 366.457C221.83 365.566 220.532 369.794 220.76 372.693L222.737 397.789C223.007 401.224 223.507 405.094 226.271 407.151L176.597 402.161C171.437 401.643 165.253 401.557 162.235 405.774C162.732 409.809 167.555 411.503 171.535 412.332L203.155 418.925C193.26 420.97 182.861 419.136 173.499 415.334C172.789 415.045 172.082 414.745 171.373 414.445L171.369 414.443C168.405 413.186 165.431 411.925 162.253 411.505C158.315 410.985 153.864 412.058 151.577 415.306C165.725 424.662 182.167 430.521 199.043 432.219C198.941 434.05 196.498 434.599 194.669 434.465C189.909 434.119 185.331 432.723 180.749 431.325L180.748 431.325C178.621 430.676 176.494 430.027 174.347 429.483C167.573 427.766 159.979 427.197 153.966 430.758C167.5 441.796 185.345 445.632 202.456 449.13L174.123 448.526C179.134 457.442 190.377 460.727 200.59 461.268C203.611 461.428 206.658 461.424 209.705 461.42C216.96 461.41 224.208 461.401 231.066 463.607C243.514 467.611 252.53 478.174 260.858 488.256L276.916 507.698C279.105 510.349 283.277 510.642 286.371 509.143C289.465 507.644 291.648 504.755 293.36 501.773C296.76 495.848 298.782 488.891 297.685 482.149C296.587 475.406 291.935 469.035 285.38 467.113C274.119 463.811 266.125 453.803 260.599 443.451C258.702 439.897 256.998 436.23 255.294 432.566C252.036 425.556 248.781 418.555 244.189 412.366C242.812 410.511 241.312 408.722 239.813 406.934C236.107 402.514 232.403 398.097 230.569 392.688C240.003 401.816 248.009 412.416 254.209 423.987C254.881 425.241 255.622 426.595 256.921 427.178C257.752 427.551 258.697 427.549 259.609 427.54L283.962 427.307ZM281.365 144.251C283.645 143.955 285.448 142.246 287.078 140.625L295.01 132.735C280.357 169.043 259.432 204.147 227.713 227.099C221.273 231.759 213.617 236.051 205.792 234.653C201.693 233.92 198.016 231.672 194.756 229.081C187.966 223.687 182.595 216.702 178.001 209.347C165.032 188.583 157.831 164.18 157.94 139.698C158.05 115.217 165.537 90.7459 179.549 70.6703C180.031 69.9801 180.571 69.2558 181.366 68.9809C182.173 68.7019 183.057 68.9493 183.874 69.1977C213.242 78.1249 242.33 87.9756 271.079 98.7303C275.63 100.433 277.525 105.789 278.352 110.577C280.056 120.439 279.602 130.668 277.031 140.341C276.44 142.562 279.086 144.548 281.365 144.251ZM262.203 70.8462C265.667 70.877 268.083 75.5099 266.125 78.3678C264.167 81.2257 258.975 80.6466 257.695 77.4276C256.259 73.8169 252.555 71.8569 249.062 70.0081C248.691 69.8119 248.323 69.617 247.96 69.4215C236.219 63.0977 227.193 53.0559 218.211 43.0629L218.211 43.0626C215.854 40.4411 213.501 37.8229 211.103 35.2761C206.546 30.4374 201.766 25.8083 196.785 21.4081C191.321 16.5824 185.524 11.9768 178.834 9.08109C172.145 6.18537 164.41 5.13021 157.525 7.52596C160.626 7.68321 163.056 11.2173 162.092 14.1693C161.129 17.1213 157.082 18.5409 154.485 16.8379C151.888 15.1349 151.578 10.8574 153.901 8.79718C146.861 10.8814 140.945 16.4493 138.439 23.3506C137.945 24.7114 137.577 26.2162 138.029 27.5916C138.284 28.3671 138.784 29.0558 139.279 29.7366C139.977 30.6984 140.664 31.6445 140.632 32.7971C140.378 42.0234 149.411 50.377 158.59 49.4035C160.387 49.2129 161.112 51.0056 161.863 52.8653C162.221 53.7526 162.586 54.6552 163.076 55.3649C163.952 56.6327 165.416 57.3391 166.817 57.9801C181.063 64.4962 195.803 69.9297 210.87 74.2185C212.616 74.7155 215.006 74.9226 215.747 73.2651C216.74 71.041 219.627 69.8863 221.881 70.8118C224.134 71.7374 225.376 74.5882 224.519 76.8685C224.135 77.8903 225.395 78.7187 226.421 79.0898L277.746 97.6468C276.799 93.8483 281.625 90.0728 285.084 91.9055C288.543 93.7382 288.13 99.8512 284.455 101.201L303.214 110.66L306.582 83.1316C306.739 81.8456 306.225 79.9331 304.983 80.301C302.681 80.9827 299.968 79.6812 299.059 77.4595C298.15 75.2377 299.174 72.4079 301.293 71.2809C302.924 70.4136 303.532 68.2759 303.171 66.4639C302.811 64.652 301.695 63.0939 300.581 61.6198C288.534 45.6725 273.273 32.0958 255.77 22.447C251.079 19.8611 245.393 17.5308 240.545 19.8093C237.739 21.1284 235.851 23.7242 234.006 26.2619C233.712 26.6657 233.42 27.0681 233.125 27.4636C229.434 32.4115 224.867 36.7041 219.701 40.082L236.055 56.7198C234.702 53.7998 236.76 49.866 239.931 49.3126C243.101 48.7592 246.37 51.763 246.087 54.9686C245.804 58.1742 242.058 60.558 239.034 59.4571C245.863 64.9749 253.424 70.7679 262.203 70.8462ZM283.021 296.206C285.506 296.388 288.03 294.896 289.068 292.63C290.106 290.364 289.588 287.478 287.827 285.715C285.626 283.512 288.174 279.398 291.271 279.078C294.368 278.759 297.182 280.737 299.665 282.616L311.631 291.675C313.082 292.774 314.709 294.415 314.075 296.121C300.408 332.873 291.424 371.363 287.409 410.368C287.084 413.529 284.037 415.857 280.909 416.423C277.782 416.99 274.586 416.197 271.507 415.409L260.498 412.592C259.751 412.4 258.967 412.19 258.411 411.655C257.616 410.889 257.494 409.68 257.428 408.579C255.192 371.018 262.918 332.91 279.606 299.186C280.32 297.744 281.417 296.088 283.021 296.206ZM258.773 272.648C255.794 270.4 256.477 264.913 259.916 263.465C251.404 264.2 243.639 267.994 235.866 271.791C228.368 275.454 220.864 279.12 212.676 280.048C217.596 283.387 219.918 289.785 219.252 295.693C218.585 301.601 215.276 306.981 210.975 311.087C214.657 318.138 220.738 323.909 227.973 327.216C230.522 328.381 233.444 329.252 236.099 328.353C236.678 328.157 237.296 327.895 237.925 327.628C240.218 326.656 242.646 325.627 243.797 327.537C245.955 331.119 251.463 330.297 255.036 328.124C257.477 326.64 259.748 324.629 260.753 321.955C261.758 319.28 261.163 315.865 258.814 314.24C256.862 312.889 256.206 309.974 257.391 307.918C258.576 305.862 261.427 304.967 263.573 305.978C265.448 306.861 267.203 304.661 268.323 302.917C270.958 298.813 274.84 295.522 279.32 293.593C277.527 290.956 277.779 287.11 279.901 284.729C274.418 280.722 270.02 275.246 267.29 269.029C266.84 272.733 261.751 274.895 258.773 272.648ZM186.167 258.302L186.167 258.303C186.099 258.745 186.031 259.187 185.978 259.626C185.731 261.673 185.952 264.054 187.592 265.302C193.852 257.715 197.531 248.038 197.893 238.209C197.966 236.245 200.942 236.529 202.798 237.176C208.275 239.084 214.424 238.132 219.737 235.805C225.05 233.479 229.686 229.875 234.26 226.31C232.921 235.221 234.087 244.496 237.59 252.799L219.507 266.379C218.792 266.916 218.121 268.147 218.941 268.505C225.794 266.283 231.612 261.764 237.31 257.339L237.31 257.339L237.844 256.925C243.713 252.37 249.858 247.8 257.05 245.937C264.242 244.074 272.8 245.544 277.383 251.391C279.643 254.273 280.724 257.88 281.758 261.393L284.96 272.272C285.654 274.63 286.336 277.229 285.337 279.475C284.337 281.721 280.821 282.827 279.418 280.809L272.861 271.375C269.737 266.881 266.194 262.079 260.919 260.621C255.164 259.03 249.23 261.905 243.879 264.554C234.502 269.194 224.902 273.384 215.123 277.102C212.116 278.246 208.782 277.129 205.519 276.038C201.805 274.795 198.184 273.583 195.249 275.772C194.159 276.584 192.619 276.14 191.363 275.621C182.724 272.052 174.985 266.328 169.043 259.112L181.483 251.032C183.212 249.909 185.617 251.521 186.204 253.497C186.665 255.049 186.415 256.681 186.167 258.302V258.302ZM195.313 306.505C189.652 301.877 186.916 293.943 188.521 286.809C188.929 284.996 187.045 283.592 185.521 282.528C183.998 281.463 182.49 279.387 183.666 277.948C184.299 277.172 183.436 276.086 182.644 275.473L167.423 263.673C165.597 262.257 163.714 260.774 162.66 258.718C160.754 255.001 155.668 253.325 151.926 255.18C146.612 257.814 145.871 264.957 145.842 270.888C145.835 272.286 146.228 274.141 147.624 274.22C151.191 274.422 152.88 279.961 150.032 282.119C147.242 284.232 149.233 288.814 152.007 290.947C152.613 291.413 153.261 291.859 153.912 292.307C156.246 293.913 158.621 295.548 159.229 298.215C159.682 300.201 159.013 302.305 158.359 304.361C157.541 306.931 156.748 309.425 158.203 311.515C159.985 314.074 163.786 313.825 166.85 313.25C176.437 311.453 185.939 309.201 195.313 306.505ZM262.956 430.532C269.855 429.975 276.801 429.989 283.698 430.572C284.276 430.621 284.887 430.686 285.352 431.034C286.067 431.57 286.195 432.572 286.275 433.462C286.935 440.771 288.323 448.014 290.413 455.048C290.088 455.911 289.166 456.12 288.208 456.338C287.582 456.479 286.941 456.625 286.441 456.958C284.824 458.032 285.295 460.604 286.496 462.129C286.921 462.668 287.413 463.16 287.904 463.651L287.904 463.652C288.802 464.55 289.696 465.444 290.162 466.609C275.366 461.974 264.58 448.723 258.817 434.329C258.468 433.456 258.131 432.484 258.449 431.6C258.766 430.715 260.071 430.194 260.669 430.919C260.905 431.204 260.965 431.591 261.017 431.958L262.024 439.15C262.155 440.09 263.694 440.1 264.216 439.307C264.737 438.515 264.545 437.47 264.333 436.545L262.956 430.532ZM214.995 289.028C213.007 283.301 207.653 278.887 201.651 278.029C199.455 277.715 196.979 277.938 195.407 279.503C191.95 282.944 190.585 288.191 191.396 293C192.207 297.809 195.03 302.149 198.752 305.3C201.534 307.655 205.457 309.437 208.76 307.896C209.744 307.437 210.583 306.715 211.332 305.929C215.512 301.538 216.982 294.756 214.995 289.028ZM280.943 137.967C282.575 126.608 284.093 114.361 278.73 104.216C278.357 103.51 277.972 102.581 278.507 101.988L295.341 110.328C296.676 110.99 298.256 112.27 297.635 113.624C296.91 115.206 296.772 116.953 296.635 118.703C296.577 119.443 296.518 120.182 296.416 120.91C295.796 125.31 293.509 129.34 290.609 132.706C287.709 136.073 284.201 138.852 280.716 141.608C280.596 140.395 280.77 139.174 280.943 137.967ZM297.893 464.166C295.962 461.447 293.38 458.783 290.061 458.452C288.781 458.324 287.058 459.624 287.988 460.513C296.026 468.198 301.409 479.195 300.414 490.271C299.418 501.346 291.063 511.917 280.072 513.603C283.323 517.464 289.525 517.765 293.932 515.303C298.338 512.841 301.171 508.256 302.958 503.536C307.835 490.652 305.873 475.396 297.893 464.166ZM125.371 336.584C137.565 338.495 149.462 341.923 161.322 345.343L193.638 354.662C203.474 357.498 213.421 360.381 222.291 365.491C218.084 365.338 213.993 364.136 209.967 362.905C202.848 360.729 195.753 358.431 188.656 356.132C165.635 348.675 142.597 341.213 118.679 337.892C120.207 336.063 123.017 336.215 125.371 336.584ZM302.065 121.85C300.214 123.513 299.33 125.993 298.798 128.424C298.642 129.138 298.51 129.859 298.378 130.579L298.377 130.58C298.059 132.313 297.741 134.046 297.093 135.679C296.987 135.947 296.872 136.218 296.755 136.49C296.173 137.857 295.57 139.269 296.005 140.648C302.985 140.2 309.3 134.577 310.551 127.695C310.971 125.385 310.722 122.672 308.893 121.2C306.955 119.641 303.916 120.188 302.065 121.85ZM266.328 31.5044C267.131 33.7838 265.919 36.5816 263.707 37.5544C261.494 38.5271 258.613 37.5292 257.476 35.3964C256.225 33.0484 257.368 29.7482 259.804 28.6773C262.239 27.6064 265.444 28.995 266.328 31.5044ZM183.236 33.6558C183.375 31.5832 182.073 29.4925 180.153 28.7015C177.708 27.6948 174.565 29.0335 173.598 31.4937C172.63 33.9539 174.019 37.0749 176.494 38.0032C179.4 39.0932 183.03 36.7529 183.236 33.6558ZM277.778 54.5334C277.847 57.1555 280.253 59.4927 282.876 59.4855C285.658 59.4778 288.137 56.8026 287.934 54.0277C287.742 51.4118 285.229 49.1901 282.609 49.3205C279.989 49.451 277.709 51.9113 277.778 54.5334ZM203.005 57.5781C201.104 59.9549 196.952 59.9609 195.043 57.5897C193.134 55.2185 194.027 51.164 196.755 49.8136C199.483 48.4632 203.248 50.212 203.976 53.1678C204.349 54.6818 203.98 56.3606 203.005 57.5781ZM187.582 97.1943C185.973 99.709 185.629 102.991 186.683 105.785C187.073 106.821 187.655 107.802 188.483 108.537C191.136 110.898 195.673 109.901 197.907 107.139C200.141 104.378 200.448 100.482 199.789 96.9915C199.527 95.6001 199.043 94.1148 197.855 93.3432C197.029 92.8061 195.989 92.7094 195.006 92.7797C192.028 92.9929 189.191 94.6797 187.582 97.1943ZM241.024 122.931C240.147 122.034 239.568 120.879 239.209 119.677C237.876 115.222 239.752 110.003 243.616 107.415C245.363 106.245 247.616 105.594 249.594 106.311C252.019 107.189 253.351 109.834 253.811 112.372C254.469 116.003 253.678 120.073 251.004 122.617C248.33 125.16 243.606 125.568 241.024 122.931ZM174.071 173.022C174.16 170.778 174.342 168.538 174.617 166.31C174.712 165.537 175.38 164.874 176.153 164.784C176.511 170.28 176.678 175.789 176.653 181.296C174.222 179.514 173.951 176.033 174.071 173.022ZM264.367 149.162C263.637 145.82 261.127 142.923 257.924 141.723C257.389 141.522 257.413 140.665 257.863 140.312C258.314 139.959 258.955 139.995 259.51 140.131C262.556 140.874 264.44 143.863 265.832 146.672C266.201 147.415 266.563 148.281 266.239 149.044C265.914 149.808 264.544 149.972 264.367 149.162ZM208.68 636.113C208.36 635.39 207.547 635.045 206.804 634.774C195.171 630.534 182.821 628.27 170.44 628.108C168.676 628.085 166.614 628.255 165.643 629.729C166.588 630.524 167.945 630.523 169.18 630.504C182.288 630.307 195.431 632.74 207.599 637.618C208.333 637.912 209 636.836 208.68 636.113ZM212.879 130.792L212.879 130.793C212.008 131.335 211.137 131.876 210.371 132.556C208.926 133.837 207.882 135.91 208.629 137.69C209.551 139.89 212.515 140.305 214.862 139.882L214.958 139.864L215.087 139.84L215.157 139.827C215.899 139.687 216.658 139.544 217.38 139.742C218.199 139.966 218.918 140.828 218.637 141.629C218.44 142.191 217.851 142.505 217.296 142.722C213.857 144.067 209.565 143.567 207.013 140.897C204.462 138.228 204.398 133.34 207.312 131.073L218.698 122.215C218.582 124.924 217.216 127.532 215.123 129.256C214.424 129.832 213.651 130.312 212.879 130.792ZM258.723 152.12C259.43 156.12 258.405 160.23 256.953 164.023C250.703 180.355 235.946 193.155 218.894 197.032C212.032 198.593 204.461 198.685 198.354 195.187C192.247 191.689 188.322 183.823 190.999 177.315C194.143 169.676 203.874 167.534 212.132 167.361C212.856 167.345 213.587 167.335 214.323 167.324C221.986 167.21 230.167 167.088 235.713 161.986C237.686 160.17 239.11 157.886 240.537 155.597C241.739 153.667 242.943 151.735 244.48 150.077C247.841 146.454 254.423 144.722 257.377 148.685C258.118 149.68 258.507 150.898 258.723 152.12ZM255.214 158.215C256.065 154.96 255.691 150.277 252.363 149.785C251.125 149.603 249.891 150.157 248.863 150.87C246.305 152.644 244.666 155.317 243.018 158.005L243.018 158.005C241.71 160.138 240.396 162.28 238.613 163.99C233.957 168.454 226.993 169.244 220.566 169.801L208.215 170.87C205.065 171.143 201.801 171.45 199.059 173.026C193.91 175.985 192.124 183.55 195.406 188.5C198.956 193.852 206.358 195.014 212.751 194.396C232.457 192.49 250.204 177.368 255.214 158.215ZM262.252 408.408C261.582 408.485 260.885 408.296 260.346 407.891C259.981 407.616 259.689 407.247 259.506 406.829C258.911 405.47 259.714 403.682 261.126 403.224C262.538 402.767 264.237 403.744 264.552 405.194C264.867 406.644 263.726 408.238 262.252 408.408ZM285.097 408.592C284.61 408.165 283.959 407.931 283.312 407.95C281.719 407.998 280.441 409.795 280.917 411.314C281.393 412.834 283.469 413.58 284.803 412.711C286.138 411.841 286.295 409.642 285.097 408.592ZM237.069 292.88C235.415 290.976 235.557 287.777 237.372 286.027C239.188 284.276 242.39 284.252 244.232 285.975C246.199 287.816 246.226 291.33 244.286 293.199C242.347 295.069 238.836 294.913 237.069 292.88ZM215.422 308.755C215.043 309.772 215.011 310.914 215.334 311.95C216.251 314.896 220.324 316.298 222.86 314.541C225.397 312.784 225.516 308.479 223.08 306.584C220.644 304.69 216.501 305.864 215.422 308.755ZM171.62 301.262C171.049 303.148 169.242 304.594 167.276 304.737C164.375 304.949 161.665 302.069 162.052 299.186C162.438 296.303 165.811 294.24 168.554 295.208C170.909 296.039 172.343 298.872 171.62 301.262Z" fill="#00160A"/>
</g>
</svg>
