<svg width="750" height="750" viewBox="0 0 750 750" fill="none" xmlns="http://www.w3.org/2000/svg">
<path fill-rule="evenodd" clip-rule="evenodd" d="M375.267 140.635C551.855 170.299 675 271.088 675 432.01C675 624.894 522.014 424.483 416.524 536.94C311.034 649.396 86.2855 652.585 75.5346 432.01C65.4705 225.526 198.68 110.971 375.267 140.635Z" fill="#64FCD9"/>
<path fill-rule="evenodd" clip-rule="evenodd" d="M285.002 452.454L331.714 392.029L332.787 392.878C339.685 398.302 345.156 401.876 349.199 403.601L350.395 404.108C369.817 412.278 383.171 415.053 381.025 416.972L378.368 419.36C361.202 434.856 337.699 457.389 307.858 486.961C303.771 491.364 298.265 494.189 292.316 494.943L286.162 495.678C225.758 502.829 187.006 503.446 172.806 500.301C169.84 499.644 160.712 501.359 153.82 508.282C143.482 518.666 128.698 543.68 126.215 543.68C122.606 543.68 126.007 527.112 136.418 493.976L137.519 490.126C142.369 473.31 145.859 463.367 147.987 460.297C150.273 457.001 157.995 462.821 171.152 477.758L170.795 479.699C172.503 477.718 174.527 475.61 176.869 473.376L183.085 472.632C205.047 469.966 221.741 467.527 233.167 465.317L234.37 465.081C246.748 462.628 263.626 458.419 285.002 452.454Z" fill="white"/>
<path fill-rule="evenodd" clip-rule="evenodd" d="M575.889 389.854L593.257 402.942C596.59 405.45 599.035 408.967 600.226 412.967L603.516 423.986C605.064 427.319 603.71 431.28 600.446 432.966L594.312 437.517C590.367 439.553 585.558 437.348 584.521 433.027L581.069 420.747C581.069 420.747 566.433 416.3 564.485 398.88L575.889 389.854Z" fill="white"/>
<path fill-rule="evenodd" clip-rule="evenodd" d="M492.175 174.893C504.043 175.376 510.007 191.639 513.887 199.679C515.208 202.418 505.913 283.358 502.875 304.07C497.466 340.955 481.118 352.651 470.855 355.162C470.855 355.162 471.47 397.097 467.172 407.535C457.653 430.645 337.17 415.133 325.395 376.506C317.346 350.1 347.259 347.023 358.486 331.102C379.062 301.923 380.129 274.767 402.294 255.341C410.694 246.135 420.446 236.896 428.857 225.785L432.279 221.283C453.672 193.254 469.964 174.658 491.06 174.864L492.175 174.893Z" fill="white"/>
<path fill-rule="evenodd" clip-rule="evenodd" d="M432.668 245.052C430.703 245.999 427.827 246.294 426.802 244.368C423.584 238.323 413.737 237.492 409.553 242.912C413.569 241.531 418.249 240.214 421.841 242.482C422.84 243.113 423.704 243.997 424.558 244.873C425.982 246.331 427.38 247.763 429.34 247.956C430.797 248.099 432.184 247.485 433.565 246.875C435.046 246.219 436.521 245.568 438.065 245.858C439.78 246.181 440.982 247.545 442.185 248.909C443.384 250.27 444.583 251.63 446.291 251.96C447.689 252.23 449.093 251.729 450.485 251.232C452.041 250.676 453.58 250.126 455.077 250.666C456.864 251.31 457.681 253.152 458.499 254.995C459.312 256.829 460.126 258.664 461.896 259.324C462.945 259.715 464.078 259.574 465.196 259.355L466.306 259.129C468.92 258.609 471.743 258.562 474.135 259.739C476.189 260.75 477.809 262.843 477.941 265.077C477.994 264.595 478.042 264.114 478.083 263.634L478.497 260.914C476.126 258.131 472.4 256.556 468.75 256.798C468.124 256.84 467.499 256.931 466.874 257.023C465.672 257.198 464.473 257.374 463.279 257.192C461.466 256.916 459.624 255.373 459.93 253.566L459.958 253.371C460.29 250.345 456.234 248.609 453.117 248.864C452.455 248.918 451.776 249.006 451.094 249.095C448.495 249.432 445.837 249.778 443.796 248.283C443.007 247.706 442.398 246.898 441.795 246.098C440.95 244.978 440.117 243.873 438.821 243.437C437.389 242.956 435.933 243.461 434.52 244.131L434.051 244.36L432.668 245.052ZM410.062 266.099C411.415 267.915 414.2 266.898 416.35 266.113L416.462 266.072C422.227 263.969 429.173 265.61 433.386 270.071C435.696 272.516 439.114 271.833 442.653 271.125C445.609 270.534 448.65 269.926 451.199 271.112C452.391 271.666 453.497 272.604 454.581 273.523C456.567 275.207 458.479 276.827 460.705 275.91C464.928 274.17 470.11 275.098 473.501 278.143L473.489 279.102L473.474 281.218C470.105 277.842 464.647 276.749 460.237 278.566C458.01 279.484 456.099 277.863 454.112 276.179C453.028 275.26 451.922 274.323 450.73 273.768C448.181 272.582 445.141 273.19 442.184 273.782C438.646 274.489 435.228 275.173 432.918 272.727C428.789 268.355 422.035 266.692 416.341 268.607L415.204 269.014C413.177 269.733 410.808 270.386 409.594 268.756C405.763 263.614 398.071 261.811 392.354 264.716L393.093 261.926L393.431 261.771C399.074 259.285 406.366 261.138 410.062 266.099ZM396.936 289.029C394.817 289.896 392.073 291.019 390.652 289.257C388.063 286.046 382.146 285.812 372.903 288.554C373.61 289.034 375.433 288.986 377.681 288.928C381.915 288.818 387.657 288.669 390.286 291.929C391.562 293.511 393.904 292.768 395.902 291.972L397.022 291.521C402.639 289.389 409.452 290.792 413.745 295.002C416.148 297.357 419.537 296.543 423.046 295.7C425.977 294.996 428.992 294.271 431.585 295.359C432.797 295.867 433.938 296.762 435.057 297.638C437.106 299.245 439.079 300.791 441.268 299.789L441.573 299.655C444.055 298.608 448.821 300.372 453.142 301.972C456.285 303.136 459.192 304.212 460.811 304.055C450.795 298.162 444.403 295.849 441.635 297.116L441.415 297.209C439.312 298.014 437.404 296.518 435.423 294.966C434.304 294.089 433.163 293.194 431.951 292.686C429.358 291.599 426.343 292.323 423.412 293.028C419.903 293.871 416.514 294.685 414.111 292.33C409.73 288.034 402.726 286.661 397.046 288.984L396.936 289.029ZM416.571 386.317C419.111 387.948 422.402 390.06 424.753 388.901C428.904 386.854 436.385 388.67 447.197 394.351L448.236 394.904C447.177 395.099 444.798 394.367 441.865 393.466C436.339 391.767 428.846 389.463 424.497 391.607C422.386 392.648 419.518 391.052 417.116 389.535L415.77 388.681C409.426 384.787 400.855 383.472 394.212 385.309C392.083 386.196 389.117 385.158 385.859 384.018C383.642 383.242 381.29 382.419 378.973 382.121C376.116 381.755 374.645 381.975 373.353 382.168C372.057 382.362 370.942 382.528 368.791 382.048C367.128 381.676 364.47 380.513 360.818 378.56C354.343 375.452 342.869 375.828 336.831 377.989L336.505 378.101C330.049 380.236 330.103 377.897 336.595 375.463L337.087 375.282L337.475 375.148C344.374 372.851 357.151 373.102 363.838 377.391L363.97 377.476C366.511 379.107 369.802 381.219 372.152 380.059L372.326 379.982C373.97 379.306 377.817 379.317 379.009 379.396L379.229 379.415C383.244 379.86 384.116 380.223 385.071 380.919L385.754 381.437L386.145 381.587C387.595 382.152 389.134 382.82 390.762 383.592C391.434 383.532 392.208 383.355 393.123 383.028L393.511 382.894C400.41 380.597 409.752 381.943 416.438 386.232L416.571 386.317ZM386.68 309.257C388.184 311.019 391.087 309.896 393.328 309.029L393.444 308.984C399.453 306.661 406.863 308.034 411.498 312.33C414.04 314.685 417.625 313.871 421.337 313.028C424.439 312.323 427.628 311.599 430.371 312.686C431.653 313.194 432.861 314.089 434.044 314.966C436.14 316.518 438.159 318.014 440.383 317.209L440.616 317.116C443.544 315.849 450.307 318.162 460.903 324.055C459.19 324.212 456.115 323.136 452.79 321.972C448.219 320.372 443.176 318.608 440.551 319.655L440.228 319.789C437.912 320.791 435.825 319.245 433.657 317.638C432.474 316.762 431.266 315.867 429.984 315.359C427.241 314.271 424.051 314.996 420.95 315.7C417.238 316.543 413.652 317.357 411.111 315.002C406.569 310.792 399.361 309.389 393.419 311.521L392.234 311.972C390.12 312.768 387.643 313.511 386.293 311.929C383.511 308.669 377.437 308.818 372.957 308.928C370.579 308.986 368.651 309.034 367.903 308.554C377.682 305.812 383.941 306.046 386.68 309.257ZM385.155 331.029C382.577 331.896 379.237 333.019 377.507 331.257C374.355 328.046 367.154 327.812 355.903 330.554C356.763 331.034 358.982 330.986 361.718 330.928C366.872 330.818 373.861 330.669 377.061 333.929C378.614 335.511 381.465 334.768 383.897 333.972L385.26 333.521C392.097 331.389 400.389 332.792 405.616 337.002C408.539 339.357 412.665 338.543 416.936 337.7C420.504 336.996 424.174 336.271 427.329 337.359C428.805 337.867 430.194 338.762 431.555 339.638C434.05 341.245 436.451 342.791 439.116 341.789L439.487 341.655C442.507 340.608 448.309 342.372 453.568 343.972C457.394 345.136 460.933 346.212 462.903 346.055C450.712 340.162 442.931 337.849 439.562 339.116L439.294 339.209C436.735 340.014 434.412 338.518 432.001 336.966C430.64 336.089 429.25 335.194 427.775 334.686C424.619 333.599 420.949 334.323 417.381 335.028C413.11 335.871 408.985 336.685 406.061 334.33C400.728 330.034 392.203 328.661 385.289 330.984L385.155 331.029ZM365.131 348.257C367.072 350.019 370.817 348.896 373.709 348.029L373.859 347.984C381.613 345.661 391.174 347.034 397.155 351.33C400.434 353.685 405.061 352.871 409.85 352.028C413.852 351.323 417.968 350.599 421.507 351.686C423.162 352.194 424.72 353.089 426.246 353.966C428.95 355.518 431.556 357.014 434.425 356.209L434.726 356.116C438.505 354.849 447.231 357.162 460.903 363.055C458.693 363.212 454.725 362.136 450.434 360.972C444.536 359.372 438.029 357.608 434.642 358.655L434.226 358.789C431.237 359.791 428.544 358.245 425.747 356.638C424.22 355.762 422.662 354.867 421.007 354.359C417.468 353.271 413.352 353.996 409.351 354.7C404.561 355.543 399.934 356.357 396.655 354.002C390.794 349.792 381.494 348.389 373.827 350.521L372.298 350.972C369.57 351.768 366.374 352.511 364.632 350.929C361.042 347.669 353.204 347.818 347.425 347.928C344.356 347.986 341.868 348.034 340.903 347.554C353.521 344.812 361.597 345.046 365.131 348.257ZM364.709 363.029C361.817 363.896 358.072 365.019 356.131 363.257C352.597 360.046 344.521 359.812 331.903 362.554C332.868 363.034 335.356 362.986 338.425 362.928C344.204 362.818 352.042 362.669 355.632 365.929C357.374 367.511 360.57 366.768 363.298 365.972L364.827 365.521C371.999 363.527 380.6 364.626 386.479 368.222C388.282 369.662 391.418 369.481 394.865 369.283C397.21 369.149 399.698 369.006 402.007 369.359C404.854 369.794 406.208 370.411 407.396 370.952C408.589 371.496 409.614 371.963 411.815 372.094C414.367 372.246 420.44 370.94 420.44 370.94C427.521 369.736 438.446 373.261 443.655 377.002L443.938 377.2C449.694 381.126 450.174 378.653 444.155 374.33L443.819 374.094C437.821 369.984 425.469 366.704 417.859 368.984L417.709 369.029C414.817 369.896 411.072 371.019 409.131 369.257C407.779 368.028 403.359 366.831 402.507 366.686C398.003 365.918 397.392 366.159 396.025 366.696C395.915 366.739 395.8 366.785 395.677 366.831L395.26 366.868C393.71 367.012 392.047 367.23 390.269 367.523C389.639 367.28 388.944 366.896 388.155 366.33L387.819 366.094C381.821 361.984 372.469 360.704 364.859 362.984L364.709 363.029Z" fill="#FFB61D"/>
<path fill-rule="evenodd" clip-rule="evenodd" d="M488.346 187.069C505.218 187.127 518.533 201.44 517.395 218.29C517.395 218.29 497.721 303.879 507.693 334.301C511.551 346.07 567.248 382.694 564.894 386.456L557.034 405.288C554.241 409.745 468.753 352.561 468.753 352.561C460.552 346.05 459.027 216.607 459.027 216.607C458.865 200.305 472.058 187.011 488.346 187.069Z" fill="white"/>
<path d="M576.898 389.854L566.852 410.541L566.651 411.094C565.815 413.237 562.62 414.549 562.21 414.654L562.149 414.654L556.216 411.143C555.537 410.573 555.164 407.369 555.883 404.39L556.052 403.764C556.052 403.764 560.755 387.242 564.651 383.07C566.923 380.637 580.045 383.07 576.898 389.854Z" fill="white"/>
<path fill-rule="evenodd" clip-rule="evenodd" d="M433.779 580.631H409.794C409.794 580.631 437.943 507.55 437.943 488.373C437.943 482.424 415.816 491.386 419.026 482.424C423.44 470.102 438.712 448.065 434.951 437.003C431.017 425.435 416.343 421.243 403.564 416.555C401.115 415.656 445.784 418.758 458.036 409.012C474.197 396.156 461.075 367.765 465.416 377.776C470.652 389.853 504.68 420.154 497.935 452.965C491.364 484.93 433.779 580.631 433.779 580.631Z" fill="white"/>
<path fill-rule="evenodd" clip-rule="evenodd" d="M425.464 594.723L422.909 593.875C422.826 593.847 422.816 593.734 422.893 593.692L425.332 592.367V589.342C425.332 589.256 425.433 589.21 425.498 589.266L427.514 591.038L430.861 589.275C430.948 589.229 431.043 589.325 430.995 589.412L429.1 592.87L432.694 596.625C432.765 596.699 432.692 596.819 432.594 596.791L427.642 595.362L425.651 598.87C425.601 598.959 425.464 598.923 425.464 598.82V596.961V594.723Z" fill="#FFB61D"/>
<path fill-rule="evenodd" clip-rule="evenodd" d="M364.662 433.437C363.619 434.519 362.588 435.614 361.558 436.709L361.557 436.71L361.557 436.71L361.557 436.71L361.557 436.711L361.556 436.711L361.556 436.711L361.556 436.711C359.607 438.782 357.659 440.852 355.628 442.838C351.825 446.557 347.985 450.254 343.95 453.713C338.944 458.003 333.815 462.161 328.569 466.153C322.632 470.67 316.553 475.004 310.447 479.29C310.277 479.409 310.107 479.529 309.937 479.65C309.788 479.755 309.64 479.86 309.491 479.966L309.488 479.968L309.484 479.971L309.476 479.976C306.362 482.185 303.249 484.393 299.248 485.075C298.105 485.27 297.036 485.843 295.96 486.42C295.104 486.879 294.243 487.34 293.338 487.615C287.097 489.507 280.823 491.309 274.511 492.943C270.635 493.947 266.678 494.663 262.73 495.351C260.273 495.779 246.199 498.016 236.836 499.374C227.474 500.733 196.509 500.733 188.778 500.572C184.44 500.482 180.103 500.332 175.767 500.166C175.693 500.163 175.618 500.16 175.543 500.158C174.66 500.126 173.721 500.093 172.953 499.745C168.694 497.815 165.399 499.917 162.06 502.046L161.82 502.199C157.436 504.992 154.753 509.193 152.102 513.496C150.693 515.782 149.201 518.016 147.708 520.251L147.708 520.251L147.708 520.252C146.102 522.656 144.496 525.06 142.995 527.529C141.007 530.797 139.235 534.199 137.464 537.597C137.146 538.208 136.827 538.819 136.508 539.429C134.167 543.898 130.655 546.497 125.617 547.459C123.113 547.937 120.968 547.193 118.828 546.452L118.828 546.451C118.035 546.177 117.243 545.902 116.433 545.69C114.848 545.275 113.571 540.993 114.136 539.299C115.786 534.353 117.439 529.408 119.092 524.463L119.093 524.459C122.547 514.127 126.001 503.794 129.424 493.451C131.816 486.228 134.15 478.986 136.485 471.743C137.145 469.698 137.804 467.652 138.465 465.607C138.779 464.633 139.078 463.654 139.377 462.676L139.377 462.675C139.873 461.051 140.368 459.428 140.935 457.83C141.121 457.307 141.889 456.661 142.412 456.64C146.19 456.489 149.817 457.414 153.262 458.828C159.777 461.502 164.79 466.011 168.47 472.014C169.446 473.605 171.149 474.178 173.297 473.799C174.333 473.616 175.379 473.478 176.424 473.34L176.425 473.34L176.425 473.34L176.426 473.339L176.426 473.339L176.427 473.339L176.427 473.339L176.427 473.339C178.023 473.128 179.617 472.918 181.175 472.548C184.642 471.725 188.151 471.697 191.66 471.67C193.919 471.652 196.177 471.634 198.424 471.404C199.968 471.245 201.52 471.155 203.072 471.065H203.073C205.145 470.944 207.216 470.824 209.266 470.542C212.996 470.029 216.708 469.382 220.42 468.735C222.18 468.428 223.939 468.122 225.701 467.83C227.124 467.593 228.55 467.37 229.976 467.147L229.977 467.147L229.979 467.147L229.98 467.146L229.982 467.146L229.983 467.146L229.985 467.146L229.986 467.146C232.739 466.715 235.492 466.284 238.228 465.759C241.726 465.088 245.197 464.269 248.666 463.45L248.666 463.45L248.667 463.45L248.667 463.45L248.668 463.45L248.699 463.442C249.107 463.346 249.515 463.25 249.923 463.153C253.592 462.29 257.254 461.399 260.917 460.507C262.456 460.133 263.994 459.758 265.534 459.386C265.698 459.346 265.862 459.304 266.026 459.262C266.103 459.242 266.18 459.222 266.257 459.203C266.173 459.158 266.089 459.115 266.005 459.071L266.004 459.071C265.823 458.977 265.641 458.883 265.468 458.776C264.935 458.447 264.386 458.136 263.837 457.826C262.584 457.116 261.33 456.406 260.263 455.48C257.865 453.4 258.685 449.942 261.733 449.021C264.057 448.319 266.453 447.615 268.852 447.454C272.085 447.237 275.03 446.163 277.979 445.088C279.164 444.656 280.349 444.224 281.553 443.848C284.395 442.958 286.101 441.286 287.528 438.727C288.215 437.494 289.222 436.448 290.234 435.398C290.946 434.659 291.66 433.917 292.267 433.106C295.41 428.906 298.465 424.637 301.44 420.316C302.073 419.397 302.581 418.393 303.089 417.388C303.477 416.62 303.866 415.852 304.311 415.12C305.355 413.403 306.418 411.666 307.707 410.137L307.876 409.937L307.876 409.937C310.834 406.43 313.801 402.912 317.017 399.65C318.771 397.872 320.707 396.274 322.643 394.675C323.557 393.92 324.472 393.165 325.368 392.391C325.82 392 326.254 391.577 326.634 391.117C327.286 390.327 327.555 389.67 326.571 388.737C326.314 388.493 326.056 388.251 325.798 388.008C323.227 385.591 320.631 383.15 319.226 379.805C319.079 379.455 318.93 379.104 318.781 378.753C317.653 376.09 316.514 373.402 315.872 370.614C315.008 366.86 315.357 363.039 316.476 359.257C318.041 353.964 321.319 349.954 325.759 347.076C328.497 345.301 331.378 343.748 334.26 342.196L334.26 342.195L334.261 342.195L334.261 342.195L334.261 342.195L334.262 342.195L334.262 342.194L334.262 342.194L334.263 342.194C336.399 341.043 338.535 339.892 340.615 338.65C342.222 337.689 343.597 336.291 344.939 334.928L345.071 334.793C345.155 334.708 345.239 334.623 345.323 334.538C351.362 328.428 355.57 321.035 359.763 313.668L359.767 313.661C360.211 312.881 360.655 312.101 361.101 311.322C365.154 304.251 368.79 296.933 372.415 289.627C373.458 287.523 374.353 285.346 375.248 283.168L375.248 283.168L375.248 283.167L375.248 283.167L375.248 283.167L375.248 283.167L375.248 283.166L375.248 283.166C376.039 281.24 376.831 279.314 377.725 277.439C378.432 275.956 379.303 274.554 380.176 273.15C380.816 272.119 381.458 271.088 382.034 270.023C382.654 268.879 383.219 267.704 383.784 266.53C384.64 264.751 385.496 262.973 386.536 261.31C387.279 260.121 388.358 259.141 389.435 258.163L389.435 258.163L389.435 258.162L389.435 258.162L389.436 258.162L389.436 258.162L389.436 258.161L389.437 258.161C389.887 257.752 390.337 257.343 390.762 256.919C391.292 256.39 391.832 255.871 392.371 255.351C392.934 254.809 393.497 254.267 394.05 253.715C395.024 252.741 395.986 251.753 396.919 250.741C398.704 248.803 400.499 246.873 402.295 244.944L402.299 244.939L402.303 244.934L402.308 244.93L402.312 244.925L402.316 244.921L402.32 244.916L402.321 244.915L402.322 244.915C406.769 240.134 411.217 235.354 415.518 230.445C420.557 224.692 425.351 218.715 430.059 212.686C431.932 210.289 433.619 207.746 435.307 205.204L435.309 205.202C436.059 204.071 436.81 202.939 437.577 201.821C437.601 201.787 437.623 201.75 437.643 201.713L437.658 201.684C437.67 201.663 437.681 201.641 437.692 201.62L437.692 201.619C437.743 201.521 437.794 201.423 437.866 201.343C439.085 200 440.292 198.644 441.498 197.289L441.498 197.289L441.499 197.288L441.499 197.288L441.499 197.288L441.499 197.288L441.499 197.288L441.5 197.287C444.332 194.105 447.164 190.922 450.161 187.903C454.608 183.423 459.702 179.708 465.232 176.614C466.075 176.142 466.888 175.607 467.7 175.072C468.979 174.229 470.256 173.388 471.644 172.801C471.971 172.663 472.301 172.521 472.633 172.378C475.284 171.239 478.063 170.045 480.799 169.989C486.573 169.871 492.574 169.936 497.421 174.017C498.339 174.791 498.584 174.608 498.67 173.574C498.753 172.587 498.921 171.569 499.088 170.552C499.479 168.182 499.87 165.81 499.189 163.804C498.777 162.591 498.634 161.368 498.491 160.154C498.33 158.782 498.17 157.423 497.626 156.109C495.809 151.718 494.187 147.245 492.566 142.774L492.566 142.774L492.566 142.773L492.566 142.773L492.565 142.773L492.565 142.773L492.565 142.772L492.564 142.77L492.553 142.737L492.192 141.744C492.072 141.413 491.952 141.083 491.832 140.752C491.324 139.356 490.912 137.89 490.723 136.422C490.589 135.372 490.544 134.311 490.498 133.25V133.249C490.452 132.161 490.406 131.072 490.263 129.997C489.754 126.169 491.081 122.806 492.413 119.429L492.413 119.428C492.656 118.812 492.899 118.195 493.132 117.576C495.963 110.021 501.267 104.307 506.993 98.9411C511.923 94.3214 520.091 92.8679 526.696 91.7287C529.135 91.3079 546.26 90.9054 555.303 90.6929L555.304 90.6929C558.255 90.6236 560.345 90.5744 560.784 90.5515C562.567 90.4582 563.775 89.6285 564.983 88.7377C567.477 86.8991 568.117 84.0475 568.747 81.2414C568.809 80.9648 568.871 80.6886 568.934 80.4139C568.95 80.3471 568.964 80.2818 568.978 80.2181V80.218C569.141 79.4823 569.255 78.9666 570.361 79.0037C574.054 79.1277 575.953 81.5393 577.762 84.295C579.798 87.3981 581.448 90.6338 582.014 94.3326C582.703 98.8363 582.333 103.02 579.13 106.728C576.526 109.745 573.494 112.05 570.069 113.985C569.614 114.242 569.327 115.602 569.579 116.182C572.16 122.136 572.352 128.412 572.1 134.712C572.038 136.242 571.791 137.763 571.543 139.285L571.543 139.285C571.308 140.727 571.073 142.169 570.997 143.618C570.778 147.776 571.628 151.774 573.295 155.641C574.427 158.264 573.632 160.748 571.735 162.81C571.41 163.163 571.005 163.459 570.604 163.752C570.039 164.164 569.48 164.571 569.162 165.127C568.441 166.384 567.939 167.896 567.822 169.337C567.732 170.439 567.851 171.556 567.969 172.675V172.675V172.676V172.676V172.676V172.677V172.677V172.678C568.043 173.374 568.117 174.07 568.141 174.766C568.234 177.441 567.217 179.729 565.844 182.014C563.36 186.147 560.082 189.188 555.325 190.183C551.249 191.036 547.016 191.087 543.08 189.745C538.611 188.222 534.254 186.273 530.049 184.116C528.855 183.504 527.91 182.404 526.965 181.304C526.543 180.812 526.12 180.321 525.675 179.873C525.017 179.21 524.684 179.017 523.809 179.944C520.684 183.254 518.412 187.015 516.576 191.167C515.562 193.458 516.219 195.342 516.919 197.348L517.001 197.584L517.098 197.864L517.201 198.157C518.171 200.934 519.137 203.698 519.062 206.738C519.024 208.244 519.053 209.755 519.083 211.265C519.129 213.651 519.175 216.035 518.959 218.396C518.727 220.923 518.16 223.419 517.593 225.914L517.593 225.915C517.365 226.919 517.137 227.922 516.931 228.928C516.712 229.995 516.497 231.064 516.283 232.133L516.283 232.133L516.283 232.134L516.283 232.134L516.283 232.135L516.283 232.135L516.282 232.135L516.282 232.136C515.634 235.368 514.986 238.601 514.211 241.803C513.852 243.285 513.359 244.734 512.866 246.184C512.463 247.37 512.059 248.557 511.729 249.763C511.347 251.158 510.959 252.553 510.572 253.947L510.57 253.953C509.063 259.383 507.554 264.814 506.333 270.309C505.288 275.014 504.685 279.854 504.334 284.667C504.114 287.675 504.148 290.701 504.181 293.728V293.729V293.729V293.73V293.73V293.73V293.731V293.731C504.199 295.405 504.217 297.08 504.193 298.752C504.175 300.015 504.109 301.278 504.043 302.541L504.043 302.543V302.543V302.544V302.545V302.546V302.547V302.548V302.549C503.96 304.153 503.876 305.757 503.89 307.36C503.893 307.729 503.896 308.098 503.899 308.467L503.904 309.283V309.283C503.932 313.524 503.96 317.772 504.333 321.986C504.705 326.19 505.502 330.379 506.424 334.504C507.181 337.893 509.504 340.511 511.81 342.967C513.01 344.246 514.34 345.399 515.672 346.554L515.673 346.555L515.674 346.556L515.675 346.557L515.676 346.557L515.677 346.558L515.677 346.559L515.678 346.56C516.607 347.365 517.537 348.171 518.423 349.021C519.031 349.604 519.578 350.254 520.125 350.903L520.125 350.903C520.805 351.71 521.484 352.516 522.277 353.191C524.866 355.393 527.498 357.543 530.131 359.693C532.129 361.325 534.126 362.956 536.105 364.61C537.879 366.094 539.627 367.609 541.375 369.124L541.377 369.126C543.143 370.657 544.909 372.187 546.702 373.685C549.154 375.733 551.64 377.753 554.237 379.609C555.46 380.483 556.74 381.276 558.021 382.069C559.345 382.889 560.669 383.709 561.93 384.619C563.443 385.71 564.616 385.096 565.783 384.485C566.185 384.274 566.586 384.064 567 383.924C570.364 382.788 573.024 383.217 574.286 386.452C574.539 387.1 574.925 387.682 575.313 388.269C576.019 389.335 576.734 390.414 576.672 391.919C576.653 392.391 577.67 392.953 578.54 393.434C578.649 393.494 578.756 393.553 578.858 393.61C578.951 393.662 579.04 393.713 579.124 393.763C581.686 395.274 584.28 396.734 586.874 398.191C587.428 398.501 588.001 398.785 588.573 399.068C589.674 399.613 590.774 400.158 591.73 400.892C592.705 401.639 593.59 402.504 594.474 403.369C595.361 404.236 596.248 405.103 597.226 405.852C599.239 407.393 600.38 409.514 601.514 411.623C601.93 412.397 602.346 413.169 602.803 413.911C604.067 415.958 604.796 418.47 605.216 420.872C605.782 424.108 606.013 427.437 605.999 430.725C605.993 432.099 605.16 433.574 604.395 434.812C603.571 436.147 602.335 436.337 601.144 435.047C601.046 434.942 600.909 434.872 600.772 434.803L600.743 434.789L600.711 434.772C600.668 434.75 600.626 434.728 600.585 434.703C600.556 434.958 600.533 435.214 600.498 435.467C600.422 436.02 600.361 436.577 600.3 437.134C600.151 438.506 600.002 439.877 599.617 441.179C599.359 442.051 598.239 443.204 597.462 443.241C596.866 443.27 596.238 442.714 595.617 442.165L595.617 442.164L595.616 442.164L595.616 442.164C595.367 441.943 595.119 441.724 594.874 441.544C594.635 441.367 594.432 441.138 594.231 440.912L594.167 440.84C593.986 440.637 593.835 440.407 593.67 440.189C593.635 440.263 593.6 440.338 593.565 440.412L593.559 440.426L593.498 440.557C593.468 440.621 593.438 440.685 593.407 440.749C593.375 440.815 593.343 440.881 593.31 440.946C593.271 441.022 593.234 441.101 593.198 441.18C593.131 441.329 593.067 441.482 593.003 441.635L593.003 441.636L593.003 441.637L593.002 441.638L593.002 441.638C592.782 442.168 592.562 442.697 592.182 443.059C590.716 444.455 588.745 443.911 588.14 441.95C587.826 440.931 587.565 439.894 587.304 438.858C586.942 437.422 586.581 435.987 586.079 434.603C585.872 434.031 585.701 433.449 585.53 432.866C585.03 431.161 584.53 429.454 583.126 428.017C582.115 426.983 581.496 425.557 580.881 424.137C580.641 423.584 580.402 423.032 580.14 422.505C578.565 419.333 575.963 417.259 572.953 415.585C572.134 415.129 571.32 414.628 570.609 414.024C569.031 412.684 567.938 413.414 566.979 414.778C565.393 417.033 562.764 417.863 560.319 416.565C556.573 414.575 553.513 411.961 552.495 407.484C552.307 406.656 551.084 405.925 550.187 405.419C547.489 403.898 544.775 402.404 542.061 400.911L542.059 400.91L542.058 400.91L542.056 400.909L542.055 400.908L542.053 400.907L542.052 400.906L542.051 400.905C537.553 398.431 533.056 395.957 528.634 393.355C523.115 390.107 517.737 386.612 512.364 383.119L512.363 383.118L512.36 383.117C511.82 382.765 511.28 382.414 510.739 382.063C502.263 376.559 493.819 371.006 485.375 365.454C483.724 364.368 482.072 363.282 480.421 362.196C478.568 360.978 476.728 359.741 474.887 358.504C473.604 357.641 472.321 356.779 471.034 355.923C470.519 355.58 469.975 355.272 469.417 355.008C467.751 354.221 467.262 354.505 467.129 356.291C467.124 356.358 467.129 356.425 467.128 356.491C467.093 358.984 467.058 361.476 467.023 363.968C466.926 370.886 466.829 377.803 466.726 384.721C466.694 386.925 467.848 388.615 468.987 390.281C469.217 390.618 469.447 390.955 469.666 391.294C473.68 397.512 477.777 403.676 481.916 409.811C483.05 411.493 484.225 413.147 485.4 414.802L485.401 414.802L485.401 414.803L485.402 414.804L485.403 414.805L485.403 414.806L485.404 414.807L485.404 414.807C487.179 417.306 488.954 419.805 490.586 422.394C491.414 423.707 491.908 425.232 492.402 426.755C492.619 427.424 492.836 428.093 493.081 428.744C493.193 429.041 493.311 429.336 493.429 429.632L493.429 429.632C493.746 430.428 494.064 431.225 494.264 432.05C495.875 438.719 495.149 445.337 493.556 451.883C493.449 452.32 493.343 452.759 493.237 453.198C492.248 457.286 491.254 461.394 489.81 465.325C488.653 468.478 487.208 471.524 485.762 474.571L485.76 474.575L485.76 474.575L485.76 474.575L485.76 474.576L485.759 474.576L485.759 474.576L485.759 474.577C485.064 476.042 484.368 477.508 483.705 478.986C482.545 481.57 481.423 484.171 480.315 486.778C478.436 491.197 476.566 495.621 474.719 500.053C474.048 501.663 473.4 503.282 472.751 504.901C471.453 508.143 470.155 511.384 468.679 514.542C466.554 519.091 464.192 523.53 461.832 527.967L461.832 527.967C461.493 528.604 461.155 529.241 460.817 529.878C459.343 532.657 457.832 535.415 456.321 538.174L456.318 538.18C454.856 540.849 453.394 543.519 451.966 546.206C450.662 548.658 449.394 551.129 448.125 553.599C446.769 556.241 445.412 558.882 444.014 561.5C442.027 565.219 439.944 568.889 437.801 572.519C436.018 575.541 436.534 576.949 438.598 579.732C440.836 582.749 444.313 583.758 447.761 584.545C457.208 586.703 466.675 588.773 476.141 590.842L476.145 590.843L476.148 590.844L476.152 590.845L476.156 590.846L476.16 590.846L476.164 590.847L476.169 590.849L476.657 590.955C477.612 591.164 478.579 591.32 479.545 591.475L479.546 591.475C480.633 591.65 481.719 591.825 482.788 592.075C488.127 593.325 490.807 597.253 492.235 602.125C493.149 605.243 493.418 608.59 490.936 611.18C489.998 612.159 488.285 612.886 486.923 612.891C469.366 612.95 451.809 612.96 434.252 612.969H434.089C423.084 612.976 412.078 612.982 401.073 613C399.784 613.002 399.691 612.615 399.593 611.482C399.494 610.329 399.288 609.178 399.084 608.029C398.783 606.341 398.483 604.658 398.52 602.978C398.698 594.906 401.527 587.676 406.476 581.328C406.833 580.87 407.412 580.567 407.984 580.267C408.62 579.934 409.246 579.606 409.545 579.077C410.988 576.525 412.226 573.811 413.174 571.034C414.693 566.586 416.203 562.097 417.177 557.51C417.625 555.403 418.272 553.361 418.919 551.316C419.723 548.776 420.529 546.232 420.954 543.558C421.404 540.734 422.578 538.014 423.744 535.31L423.744 535.31C424.106 534.471 424.467 533.633 424.806 532.795C425.962 529.934 427.156 527.088 428.35 524.242C430.205 519.82 432.06 515.398 433.772 510.921C434.993 507.73 436.004 504.46 437.016 501.189L437.016 501.189L437.017 501.188L437.017 501.187L437.017 501.187L437.017 501.186L437.017 501.186L437.017 501.185C437.595 499.319 438.172 497.454 438.788 495.602C440.092 491.682 441.417 487.764 442.912 483.915C443.247 483.05 443.06 483.036 442.587 482.998C442.5 482.991 442.402 482.984 442.296 482.97C435.992 482.132 429.78 482.205 423.9 485.012C422.611 485.627 421.705 485.499 420.852 484.428C419.98 483.334 420.434 482.537 421.205 481.533C425.801 475.548 428.655 468.732 430.844 461.541C431.074 460.787 431.31 460.035 431.546 459.284L431.546 459.284C432.968 454.752 434.386 450.234 434.348 445.419C434.318 441.77 433.419 438.498 430.911 435.446C430.36 434.776 429.854 434.073 429.35 433.374L429.349 433.373C427.844 431.285 426.36 429.226 423.779 428.148C422.472 427.603 421.183 427.016 419.894 426.428L419.891 426.427L419.89 426.426L419.889 426.426L419.888 426.425L419.887 426.425L419.886 426.424L419.885 426.424L419.884 426.423C418.545 425.813 417.205 425.202 415.846 424.639C414.811 424.211 413.777 423.778 412.743 423.346C408.669 421.641 404.593 419.936 400.435 418.463C397.911 417.568 395.296 416.928 392.681 416.287L392.68 416.287L392.679 416.287L392.678 416.287L392.677 416.286L392.676 416.286L392.675 416.286L392.674 416.285C391.488 415.995 390.302 415.705 389.124 415.391C388.892 415.329 388.663 415.256 388.434 415.183C388.308 415.143 388.183 415.103 388.057 415.064C387.999 415.047 387.941 415.03 387.883 415.013C385.196 414.246 382.85 414.379 381.025 416.972C380.225 418.109 379.125 419.035 377.973 420.006C377.744 420.199 377.513 420.394 377.282 420.592C372.942 424.873 368.794 429.147 364.662 433.437ZM463.156 360.772C463.288 359.821 463.477 358.876 463.666 357.931C463.897 356.773 464.128 355.615 464.254 354.445L464.289 354.118L464.29 354.117C464.56 351.61 464.834 349.067 464.655 346.573C464.563 345.281 464.219 344.012 463.875 342.739C463.595 341.708 463.316 340.675 463.169 339.627C462.397 334.12 461.702 328.597 461.167 323.062C460.702 318.249 460.391 313.421 460.081 308.594C460.038 307.918 459.994 307.242 459.95 306.566C459.637 301.747 459.347 296.925 459.158 292.101C458.978 287.475 458.888 282.846 458.799 278.217V278.216C458.786 277.567 458.773 276.919 458.761 276.271C458.755 275.979 458.854 275.688 458.954 275.394C459.018 275.207 459.082 275.019 459.119 274.829C459.141 274.718 459.165 274.606 459.191 274.493L459.213 274.4L459.232 274.318L459.262 274.193L459.264 274.184C459.407 273.588 459.55 272.989 459.497 272.41C459.439 271.773 459.296 271.138 459.153 270.505L459.153 270.505C458.959 269.646 458.765 268.791 458.787 267.937C458.929 262.282 459.184 256.629 459.44 250.976L459.44 250.975C459.477 250.141 459.515 249.307 459.552 248.473C459.607 247.258 459.763 246.043 459.948 244.84C460.471 241.44 461.015 238.043 461.559 234.645L461.743 233.5L461.939 232.271C461.983 231.995 462.043 231.721 462.102 231.447C462.129 231.32 462.157 231.193 462.183 231.066C462.193 231.153 462.204 231.239 462.216 231.326C462.224 231.381 462.231 231.436 462.239 231.49C462.282 231.794 462.325 232.098 462.331 232.402C462.456 238.738 462.573 245.074 462.691 251.41L462.735 253.831C462.775 255.962 462.816 258.092 462.857 260.223L462.857 260.249C462.954 265.319 463.051 270.389 463.131 275.46C463.184 278.822 463.225 282.184 463.267 285.547C463.342 291.66 463.417 297.774 463.562 303.886C463.669 308.445 463.959 313.006 464.364 317.549C464.66 320.883 465.094 324.204 465.527 327.525L465.528 327.531L465.528 327.534L465.528 327.537L465.529 327.54L465.529 327.543L465.529 327.545C465.666 328.592 465.802 329.638 465.935 330.685C466.121 332.158 466.323 333.629 466.526 335.1L466.527 335.103C466.881 337.673 467.235 340.243 467.5 342.822C467.836 346.101 469.414 348.756 471.684 350.858C473.342 352.392 475.21 353.699 477.078 355.006L477.082 355.008C477.818 355.523 478.554 356.038 479.277 356.567C480.79 357.674 482.297 358.791 483.804 359.907L483.806 359.909C487.587 362.711 491.368 365.513 495.254 368.161C498.726 370.528 502.3 372.745 505.874 374.962L505.878 374.965L505.882 374.968L505.886 374.97C507.613 376.041 509.339 377.112 511.054 378.201C512.702 379.246 514.344 380.302 515.986 381.358L515.99 381.36L515.993 381.363L515.997 381.365C518.922 383.246 521.847 385.127 524.807 386.951L525.367 387.295C530.792 390.637 536.221 393.982 541.776 397.098C544.417 398.579 547.216 399.782 550.011 400.983L550.019 400.986L550.022 400.987C550.735 401.294 551.447 401.6 552.157 401.91C552.572 402.092 553.527 401.884 553.723 401.554C554.189 400.771 554.491 399.886 554.791 399.008L554.792 399.005C554.852 398.831 554.911 398.656 554.972 398.483C556.14 395.152 557.618 392.041 560.138 389.447C562.04 387.489 561.772 386.9 559.131 385.788C558.983 385.726 558.834 385.664 558.686 385.602L558.685 385.602L558.685 385.602L558.685 385.602L558.684 385.601L558.684 385.601L558.684 385.601L558.683 385.601C557.58 385.14 556.467 384.676 555.466 384.044C553.602 382.868 551.791 381.593 550.05 380.241C548.513 379.047 546.973 377.858 545.432 376.669L545.424 376.662L545.415 376.655L545.406 376.649L545.406 376.648L545.406 376.648L545.405 376.648L545.405 376.648L545.405 376.647L545.404 376.647L545.404 376.647C540.18 372.614 534.955 368.581 529.875 364.373C525.145 360.456 520.651 356.234 516.249 351.945C515.637 351.349 515.018 350.758 514.4 350.166L514.397 350.163C510.651 346.583 506.889 342.987 504.514 338.236C504.188 337.585 503.812 336.958 503.435 336.331C502.342 334.51 501.249 332.69 501.41 330.298C501.509 328.835 501.313 327.35 501.118 325.868C501.047 325.332 500.976 324.796 500.919 324.262C500.766 322.816 500.584 321.372 500.402 319.928C500.03 316.977 499.657 314.026 499.532 311.065C499.362 307.065 499.401 303.056 499.439 299.047C499.456 297.322 499.472 295.596 499.472 293.872C499.472 293.467 499.461 293.06 499.449 292.654C499.423 291.767 499.397 290.88 499.494 290.006C499.969 285.755 500.452 281.502 501.092 277.273C501.121 277.083 501.15 276.892 501.178 276.701C501.212 276.476 501.245 276.252 501.279 276.027C501.316 275.772 501.354 275.517 501.392 275.262L501.454 274.84L501.461 274.793L501.461 274.792C502.057 270.742 502.654 266.685 503.64 262.729C504.499 259.28 505.556 255.881 506.612 252.481L506.612 252.48L506.613 252.478L506.613 252.476L506.614 252.475C507.449 249.787 508.285 247.098 509.023 244.384C509.554 242.433 510.138 240.496 510.723 238.559L510.723 238.557L510.724 238.556L510.724 238.555L510.724 238.554L510.725 238.552L510.725 238.551L510.725 238.55L510.726 238.549C512.191 233.693 513.657 228.836 514.279 223.756C514.415 222.649 514.695 221.546 514.974 220.447C515.385 218.83 515.794 217.222 515.737 215.621C515.531 209.837 513.92 204.263 512.298 198.699C509.874 190.387 505.671 183.455 498.4 178.521C494.204 175.674 489.808 173.589 484.602 174.259C482.714 174.502 480.845 174.891 478.976 175.281C478.077 175.468 477.178 175.656 476.276 175.827C471.162 176.797 466.635 179.055 462.558 182.229C460.172 184.086 457.842 186.024 455.576 188.027C453.31 190.03 451.045 192.056 448.981 194.26C447.061 196.31 445.275 198.487 443.491 200.662L443.49 200.663C443.101 201.137 442.713 201.61 442.323 202.083C439.256 205.799 436.196 209.523 433.195 213.293C431.881 214.944 430.593 216.618 429.305 218.291L429.304 218.292L429.303 218.293L429.302 218.295L429.301 218.296L429.3 218.297L429.299 218.298L429.298 218.3C427.354 220.825 425.411 223.351 423.375 225.8C419.68 230.247 415.844 234.582 411.952 238.859C406.604 244.737 401.161 250.528 395.719 256.319C395.256 256.813 394.722 257.243 394.188 257.673C393.549 258.189 392.911 258.703 392.397 259.324C388.458 264.08 384.746 269.041 382.113 274.643C379.684 279.81 377.344 285.018 375.004 290.226C372.901 294.906 370.798 299.587 368.63 304.238C365.117 311.776 361.25 319.119 356.583 326.051L356.24 326.561C353.74 330.278 351.239 333.998 347.716 336.707C343.123 340.239 338.342 343.526 333.562 346.813C332.314 347.671 331.067 348.528 329.823 349.39C325.791 352.184 322.601 355.71 321.032 360.353C319.106 366.055 320.091 371.718 322.78 376.915C326.09 383.312 331.329 388.201 336.678 392.86C342.613 398.029 349.511 401.738 356.953 404.121C366.519 407.184 376.139 410.159 386.256 411.027C388.902 411.254 391.538 411.601 394.174 411.947C397.113 412.334 400.052 412.721 403.004 412.941C409.531 413.429 416.087 413.699 422.633 413.735C425.576 413.751 428.519 413.547 431.464 413.343H431.464H431.464H431.465H431.465H431.465H431.466H431.466C433.335 413.213 435.205 413.083 437.075 413.01C442.16 412.81 446.976 411.473 451.72 409.787C454.907 408.654 457.857 407.094 459.022 403.653C459.7 401.649 460.036 399.504 460.315 397.394L460.387 396.85C460.975 392.397 461.565 387.937 461.899 383.461C462.207 379.338 462.369 375.204 462.536 370.917C462.599 369.302 462.663 367.665 462.736 366C462.776 365.464 462.809 364.928 462.842 364.391C462.917 363.181 462.991 361.97 463.156 360.772ZM294.05 482.176C294.263 482.368 294.749 482.493 294.988 482.384C296.08 481.886 297.191 481.418 298.301 480.949L298.302 480.949C301.01 479.806 303.72 478.663 306.161 477.099C310.518 474.307 314.77 471.351 319.021 468.395L319.023 468.394L319.025 468.393C322.361 466.073 325.697 463.753 329.085 461.512C336.475 456.625 342.954 450.673 349.434 444.72C350.697 443.561 351.959 442.401 353.228 441.249C355.198 439.462 357.051 437.543 358.903 435.626C359.304 435.211 359.705 434.796 360.107 434.383C362.312 432.115 364.496 429.827 366.68 427.539C367.627 426.547 368.574 425.555 369.522 424.565C370.203 423.854 370.886 423.144 371.569 422.434C374.046 419.86 376.523 417.285 378.923 414.641C379.207 414.328 378.852 412.772 378.528 412.674C377.169 412.262 375.786 411.926 374.403 411.59L374.402 411.59L374.401 411.59L374.4 411.589L374.399 411.589L374.398 411.589L374.397 411.589L374.396 411.588C372.639 411.161 370.883 410.734 369.178 410.154L368.31 409.858C361.257 407.457 354.194 405.052 347.292 402.26C340.97 399.703 335.114 396.192 329.879 391.737C329.798 391.668 329.422 391.759 329.382 391.858C327.87 395.51 325.056 397.999 322.233 400.497L322.232 400.498C321.588 401.067 320.944 401.637 320.315 402.221C317.35 404.973 314.409 407.794 311.811 410.882C310.133 412.878 308.704 415.087 307.277 417.294L307.275 417.296L307.274 417.297L307.273 417.299L307.272 417.301L307.271 417.303L307.269 417.305C306.747 418.112 306.225 418.92 305.69 419.717C305.083 420.621 304.442 421.511 303.801 422.402C302.229 424.586 300.655 426.772 299.577 429.179C297.174 434.548 293.447 438.826 289.557 442.994C285.732 447.092 280.521 448.618 275.375 450.124C274.897 450.264 274.418 450.404 273.942 450.546C272.051 451.109 270.106 451.487 268.16 451.865L268.158 451.866L268.157 451.866L268.156 451.866L268.154 451.867L268.153 451.867L268.152 451.867L268.15 451.867C267.087 452.074 266.023 452.281 264.967 452.518C264.699 452.579 264.457 452.759 264.215 452.94C264.104 453.024 263.992 453.108 263.877 453.18C264.001 453.328 264.129 453.52 264.256 453.711C264.53 454.124 264.805 454.537 265.048 454.52C267.533 454.343 269.388 455.621 271.212 456.876L271.213 456.876C271.699 457.211 272.183 457.544 272.676 457.847C275.081 459.327 277.443 460.922 278.844 463.679C279.752 465.467 280.975 467.1 282.193 468.728C282.567 469.227 282.941 469.726 283.305 470.229C284.803 472.298 286.368 474.318 288.074 476.518L288.435 476.984C288.86 477.379 289.285 477.775 289.709 478.171C291.149 479.514 292.589 480.857 294.05 482.176ZM416.711 420.205C418.232 421.014 419.852 421.631 421.473 422.247C424.665 423.462 427.86 424.677 430.297 427.369C431.037 428.187 431.889 428.9 432.743 429.614C433.297 430.078 433.852 430.542 434.377 431.036C436.113 432.668 436.713 434.85 437.311 437.024L437.311 437.024C437.345 437.148 437.379 437.272 437.413 437.395C437.466 437.587 437.52 437.778 437.575 437.969C439.216 443.675 438.843 449.579 437.403 455.051L437.275 455.542L437.125 456.112C435.207 463.424 433.261 470.843 429.188 477.404C428.715 478.166 428.468 478.573 429.766 478.61C433.257 478.71 436.747 478.841 440.236 478.972L440.247 478.972C444.095 479.116 447.943 479.26 451.792 479.363C454.207 479.428 456.623 479.413 459.04 479.397C460.705 479.386 462.371 479.376 464.036 479.391C468.396 479.432 472.633 478.802 476.601 476.952C476.759 476.878 476.921 476.805 477.085 476.729L477.088 476.728C478.444 476.109 479.979 475.408 480.591 474.295C482.15 471.46 483.255 468.339 484.262 465.241C485.735 460.709 487.194 456.147 488.22 451.501C489.097 447.533 489.541 443.441 489.815 439.38C489.898 438.157 489.69 436.92 489.482 435.68C489.316 434.693 489.15 433.704 489.129 432.718C489.047 428.852 487.215 425.703 485.383 422.553C485.276 422.369 485.169 422.185 485.062 422C484.635 421.263 484.088 420.598 483.541 419.932C483.113 419.412 482.685 418.891 482.313 418.335C479.37 413.934 476.439 409.525 473.509 405.115C471.441 402.003 469.372 398.891 467.299 395.781C467.1 395.483 466.843 395.223 466.586 394.963C466.467 394.842 466.347 394.721 466.233 394.596C466.118 394.771 465.983 394.943 465.848 395.114L465.848 395.115C465.552 395.49 465.256 395.866 465.17 396.285C464.968 397.257 464.836 398.242 464.703 399.228L464.703 399.229C464.59 400.069 464.477 400.909 464.321 401.741C463.419 406.563 461.11 410.269 456.566 412.653C450.301 415.939 443.57 417.343 436.689 418.134C432.722 418.589 428.682 418.663 424.687 418.533C422.285 418.454 419.891 418.158 417.495 417.861C416.198 417.701 414.901 417.54 413.602 417.414C413.253 417.38 412.889 417.486 412.526 417.591C412.358 417.64 412.19 417.689 412.023 417.724C412.125 417.807 412.228 417.89 412.33 417.974C412.585 418.183 412.841 418.392 413.108 418.586C413.164 418.626 413.228 418.657 413.306 418.694C413.431 418.752 413.592 418.829 413.82 418.992C414.124 419.118 414.433 419.237 414.742 419.355C415.412 419.613 416.082 419.87 416.711 420.205ZM499.527 113.17C496.996 116.873 495.467 121.096 494.695 125.535C493.912 130.046 493.801 134.608 495.123 139.012C495.904 141.611 496.787 144.18 497.67 146.749L497.671 146.75L497.671 146.751C498.693 149.724 499.716 152.697 500.578 155.717C501.111 157.581 502.317 158.454 503.65 158.923C509.939 161.139 516.773 158.445 520.678 152.662C521.738 151.092 521.127 150.448 520.049 149.351C518.591 147.865 517.314 146.145 516.229 144.361C514.608 141.698 515.294 138.984 517.151 136.834C519.009 134.682 521.798 134.204 524.394 135.105C527.359 136.135 529.494 138.403 531.015 141.18C531.087 141.31 531.138 141.452 531.189 141.593L531.207 141.644C531.225 141.692 531.243 141.741 531.262 141.789L531.275 141.762L531.29 141.731L531.314 141.683C531.352 141.608 531.39 141.532 531.416 141.453C531.64 140.768 531.856 140.079 532.073 139.39L532.073 139.388C533.21 135.767 534.349 132.136 536.646 129.047C538.436 126.639 540.365 124.237 542.638 122.315C544.337 120.878 546.436 119.878 548.495 118.897C548.796 118.754 549.096 118.611 549.394 118.467C550.096 118.128 550.797 117.781 551.499 117.435L551.501 117.434C554.45 115.978 557.41 114.516 560.514 113.544C561.036 113.38 561.299 113.3 561.422 113.262L561.484 113.243L561.506 113.236C561.512 113.234 561.515 113.233 561.514 113.233C561.514 113.233 561.508 113.234 561.498 113.236L561.497 113.237C561.334 113.273 560.283 113.507 570.546 109.806C584.874 104.638 577.502 88.3592 573.26 84.778C572.944 84.5113 572.443 84.2248 572.103 84.2982C571.797 84.3642 571.41 84.8964 571.378 85.2515C571.059 88.8102 565.844 94.3326 553.455 93.4752C544.976 92.8883 544.792 92.9221 544.386 92.9966C544.199 93.031 543.965 93.074 542.849 93.0689C540.178 93.0566 530.93 93.9178 529.06 94.4465C528.381 94.6385 527.493 94.8242 526.447 95.0426C521.466 96.0834 512.923 97.8687 506.46 104.638C505.745 105.508 505.009 106.364 504.273 107.22C502.614 109.15 500.955 111.081 499.527 113.17ZM533.41 148.503C533.41 150.303 533.049 152.074 532.689 153.844L532.689 153.845L532.688 153.846L532.688 153.847C532.515 154.698 532.342 155.548 532.209 156.401C532.188 156.536 532.117 156.663 532.047 156.79C532.015 156.849 531.982 156.908 531.954 156.968C531.946 156.935 531.937 156.902 531.928 156.869L531.909 156.796C531.875 156.673 531.842 156.55 531.818 156.425C531.655 155.554 531.502 154.68 531.349 153.807L531.349 153.806L531.349 153.806L531.349 153.806L531.349 153.805L531.349 153.805L531.349 153.805L531.349 153.805C531.003 151.826 530.657 149.849 530.185 147.901C529.618 145.567 528.988 143.188 527.942 141.047C526.732 138.571 521.664 137.402 519.171 138.701C517.749 139.442 517.067 141.217 517.989 142.507C518.862 143.727 519.932 144.974 521.204 145.7C523.294 146.892 523.974 148.881 524.143 150.83C524.462 154.494 520.617 159.648 516.88 160.575C513.483 161.417 510.02 162.003 506.56 162.589C505.743 162.727 504.927 162.865 504.111 163.007C504.075 163.013 504.039 163.019 504.003 163.025L503.863 163.049L503.861 163.049C502.772 163.229 501.905 163.372 502.25 164.967C503.187 169.298 503.493 173.661 502.707 178.067C502.659 178.334 503.146 178.754 503.456 179.019C503.852 179.357 504.268 179.676 504.684 179.994C505.449 180.58 506.213 181.164 506.845 181.869C507.884 183.027 508.852 184.248 509.821 185.47L509.821 185.47L509.822 185.47L509.822 185.471L509.822 185.471L509.823 185.471L509.823 185.472C510.488 186.31 511.153 187.148 511.841 187.967C512.02 188.18 512.743 188.269 512.916 188.104C513.798 187.261 514.658 186.394 515.517 185.526L515.519 185.525C516.526 184.509 517.533 183.493 518.576 182.516C521.098 180.154 523.682 177.858 526.299 175.601C526.638 175.309 527.104 175.166 527.571 175.023L527.572 175.023C527.787 174.957 528.002 174.891 528.205 174.81C528.159 174.916 528.113 175.022 528.068 175.129C528.03 175.219 527.992 175.308 527.954 175.398C527.728 175.935 527.501 176.473 527.233 176.988C527.186 177.078 527.051 177.114 526.91 177.153C526.788 177.186 526.661 177.22 526.58 177.291C526.537 177.328 526.495 177.364 526.453 177.4L526.451 177.401C525.947 177.831 525.577 178.147 526.696 178.681C527.879 179.245 528.976 179.992 530.072 180.739L530.072 180.74C530.531 181.052 530.989 181.364 531.453 181.663C538.609 186.268 546.318 188.43 554.851 187.031C559.677 186.239 562.991 183.671 564.462 178.921C565.871 174.371 565.286 173.047 560.938 171.219L560.812 171.166L560.711 171.124L560.503 171.037L560.501 171.037L560.5 171.036L560.498 171.035L560.493 171.033C558.2 170.08 555.923 169.132 555.322 166.322C555.074 165.166 557.212 163.92 557.684 165.004C557.687 165.011 557.689 165.018 557.691 165.024C558.155 167.144 559.763 167.876 561.459 168.639C564.579 170.044 564.96 169.847 564.96 166.645C564.96 162.452 564.96 162.452 568.638 161.146C570.768 160.39 571.111 159.65 570.142 157.581C568.68 154.456 567.726 151.272 568.131 147.739C568.629 143.385 569.045 139.017 569.319 134.644C569.496 131.833 569.663 128.958 569.261 126.195C569.004 124.426 568.372 122.711 567.741 120.997L567.74 120.997C567.469 120.259 567.197 119.522 566.955 118.78C566.387 117.038 565.018 116.338 563.231 116.982C562.114 117.385 560.991 117.773 559.867 118.161L559.866 118.161C556.738 119.242 553.608 120.323 550.625 121.718C547.484 123.186 544.305 125.007 541.862 127.406C539.668 129.562 533.41 140.42 533.41 148.503ZM275.494 487.785C276.817 487.49 278.142 487.197 279.466 486.903C282.348 486.265 285.23 485.627 288.106 484.963C288.52 484.868 288.907 484.654 289.293 484.441C289.472 484.342 289.651 484.243 289.833 484.156C289.68 484.065 289.524 483.978 289.369 483.891C289.008 483.69 288.648 483.488 288.318 483.245C287.953 482.978 287.644 482.627 287.341 482.284L287.341 482.284L287.324 482.264C286.465 481.291 285.594 480.327 284.722 479.364L284.721 479.362L284.719 479.36L284.718 479.359L284.716 479.357L284.715 479.355L284.713 479.354C282.582 476.998 280.451 474.642 278.505 472.142C276.58 469.669 275.05 466.866 273.541 464.101L273.503 464.033C272.76 462.67 271.915 462.094 270.485 462.594C264.402 464.718 258.105 465.878 251.808 467.037L251.807 467.037C248.522 467.642 245.238 468.247 241.984 468.989C236.65 470.205 209.799 474.823 207.461 474.99C206.324 475.072 205.187 475.187 204.05 475.303L204.05 475.303L204.049 475.303L204.048 475.303L204.047 475.303L204.047 475.303L204.046 475.303L204.045 475.303C201.832 475.528 199.62 475.753 197.41 475.728C191.762 475.665 186.226 476.274 180.695 477.347C178.951 477.685 177.182 477.9 175.413 478.114C173.394 478.359 171.375 478.604 169.395 479.033C163.019 480.414 160.883 485.857 162.526 491.176C162.841 492.197 163.968 493.35 164.979 493.707C169.592 495.339 174.419 495.763 179.3 495.801C181.813 495.821 184.326 495.938 186.838 496.054H186.839H186.839H186.84H186.84H186.841H186.842H186.842C187.8 496.099 188.758 496.143 189.716 496.182C193.319 496.329 196.923 496.479 200.527 496.629C203.335 496.746 206.143 496.863 208.951 496.978C209.15 496.987 209.35 496.984 209.549 496.981C209.749 496.978 209.949 496.975 210.148 496.983C211.133 497.023 212.119 497.091 213.106 497.158C215.264 497.305 217.422 497.452 219.562 497.32C222.921 497.112 226.268 496.715 229.614 496.318C231.169 496.134 232.723 495.949 234.278 495.784C235.229 495.683 236.182 495.6 237.136 495.518L237.137 495.518L237.138 495.518L237.139 495.517L237.141 495.517L237.142 495.517L237.143 495.517C238.877 495.367 240.611 495.217 242.328 494.956L243.194 494.824C247.581 494.159 251.976 493.492 256.304 492.537C259.665 491.796 263.003 490.947 266.414 490.081L266.416 490.08L266.417 490.08L266.418 490.08L266.418 490.08C268.914 489.445 271.448 488.801 274.06 488.182C274.211 488.14 274.361 488.095 274.512 488.051C274.838 487.955 275.163 487.859 275.494 487.785ZM427.653 580.263C429.719 577.296 431.674 574.246 433.569 571.166C435.292 568.366 436.903 565.495 438.512 562.627C439.953 560.06 441.449 557.524 442.944 554.988L442.946 554.986C446.418 549.099 449.89 543.212 452.677 536.93C454.282 533.313 456.141 529.81 458 526.306L458.001 526.306L458.001 526.305L458.001 526.305L458.001 526.305L458.001 526.304L458.001 526.304L458.001 526.304L458.002 526.302L458.003 526.3L458.004 526.298L458.005 526.295L458.007 526.293L458.008 526.291L458.009 526.289C458.893 524.623 459.777 522.957 460.634 521.278C461.035 520.492 461.444 519.709 461.853 518.926L461.855 518.922L461.857 518.917L461.86 518.913L461.862 518.909L461.864 518.905L461.865 518.903C462.996 516.738 464.127 514.573 465.098 512.338C465.832 510.648 466.476 508.914 467.12 507.181C468.109 504.517 469.097 501.856 470.41 499.364C472.52 495.359 473.919 491.13 475.319 486.897L475.32 486.896C475.774 485.523 476.229 484.149 476.708 482.782C476.782 482.57 476.829 482.348 476.877 482.126L476.9 482.019C476.915 481.952 476.93 481.885 476.946 481.818C476.833 481.84 476.719 481.86 476.604 481.879C476.356 481.921 476.107 481.964 475.867 482.035C475.386 482.178 474.908 482.352 474.429 482.526C473.437 482.887 472.446 483.248 471.433 483.328C467.643 483.626 463.832 483.754 460.029 483.753C457.677 483.753 455.325 483.66 452.972 483.567C451.456 483.507 449.939 483.447 448.421 483.412C448.14 483.405 447.698 483.759 447.585 484.046C447.45 484.388 447.315 484.729 447.179 485.07L447.168 485.099L447.167 485.102C446.217 487.497 445.267 489.895 444.438 492.332C442.37 498.406 440.365 504.502 438.384 510.605C435.869 518.354 432.774 525.831 429.363 533.251C426.201 540.131 423.844 547.455 422.348 554.995C421.649 558.514 420.615 561.97 419.582 565.421C419.43 565.929 419.278 566.437 419.127 566.945C419.031 567.27 418.935 567.594 418.84 567.918C418.074 570.53 417.229 573.117 416.384 575.705C416.245 576.13 416.107 576.554 415.969 576.979C415.802 577.489 415.637 577.999 415.472 578.51C414.781 580.654 415.389 582.656 417.074 582.917C418.952 583.207 420.892 583.101 423.004 582.968C424.923 582.702 426.569 581.82 427.653 580.263ZM151.634 506.558C153.718 503.13 155.865 500.026 160.103 499.1C161.676 498.756 161.763 497.936 160.72 496.619C160.491 496.33 160.25 496.042 160.007 495.753C159.136 494.715 158.248 493.656 157.872 492.454C157.466 491.153 157.545 489.684 157.623 488.24L157.623 488.24L157.623 488.24L157.623 488.24L157.623 488.239C157.643 487.868 157.663 487.498 157.675 487.134C157.813 482.772 159.045 479.05 163.363 476.931C164.645 476.302 165.414 475.356 164.129 473.502C161.232 469.323 157.394 466.366 153.162 463.804C151.503 462.8 149.975 463.397 149.316 465.15C149.029 465.912 148.739 466.673 148.449 467.434C147.533 469.84 146.616 472.246 145.803 474.686C144.911 477.366 144.061 480.061 143.212 482.755L143.212 482.756L143.212 482.756C142.316 485.6 141.42 488.443 140.473 491.27C139.69 493.604 139.002 495.965 138.313 498.326L138.313 498.327C137.068 502.594 135.823 506.864 134.022 510.985C129.877 520.472 126.527 530.284 124.941 540.594C124.858 541.139 124.974 542.074 125.297 542.238C125.787 542.488 126.625 542.397 127.162 542.134C128.056 541.698 128.996 541.151 129.622 540.403C131.588 538.056 133.416 535.593 135.298 532.775C136.856 530.282 138.42 527.792 139.985 525.303L139.985 525.302L139.985 525.302C143.899 519.073 147.812 512.844 151.634 506.558ZM443.928 587.093L443.926 587.092C440.454 586.248 437.005 585.408 434.994 581.82C434.045 580.127 433.214 580.256 432.257 582.116C431.426 583.728 430.398 585.143 428.759 585.984C427.886 586.431 426.962 586.792 426.036 587.12C421.439 588.749 416.968 588.955 412.937 585.661C410.972 584.055 410.332 584.202 408.799 586.201C406.319 589.434 405.049 593.204 403.784 596.957L403.676 597.278C402.312 601.321 403.052 602.165 407.349 602.165H484.406C484.568 602.165 484.736 602.18 484.904 602.194C485.29 602.227 485.676 602.26 485.982 602.119C486.378 601.936 486.906 601.073 486.84 601C486.557 600.691 486.28 600.362 486.003 600.033L486.003 600.033C485.155 599.026 484.295 598.007 483.206 597.454C481.032 596.35 478.595 595.697 476.209 595.093C467.405 592.864 458.577 590.734 449.359 588.567C448.91 588.442 448.463 588.314 448.016 588.186C447.034 587.905 446.051 587.624 445.062 587.373C444.965 587.348 444.869 587.324 444.772 587.3L444.663 587.273L444.495 587.231C444.31 587.186 444.123 587.14 443.937 587.095L443.929 587.093L443.928 587.093ZM595.759 439.306C595.85 439.643 596.254 439.896 596.658 440.15C596.844 440.266 597.03 440.383 597.186 440.508C597.287 440.365 597.413 440.223 597.54 440.08C597.814 439.772 598.089 439.463 598.105 439.142C598.118 438.878 598.133 438.612 598.15 438.346C598.161 438.18 598.172 438.014 598.183 437.847V437.847C598.295 436.163 598.409 434.459 598.076 432.858C597.425 429.727 596.402 426.647 595.24 423.661C594.95 422.915 595.296 422.559 595.622 422.225C595.858 421.983 596.083 421.752 596.047 421.392C596.255 421.526 596.479 421.649 596.702 421.771C597.212 422.051 597.722 422.331 598.058 422.751C598.354 423.12 598.49 423.613 598.628 424.11L598.628 424.11C598.71 424.406 598.792 424.703 598.909 424.978C599.073 425.363 599.236 425.75 599.4 426.136L599.4 426.137C600.194 428.018 600.989 429.901 601.909 431.72C602.072 432.043 602.563 432.2 603.053 432.357C603.279 432.429 603.505 432.501 603.699 432.59C603.782 432.406 603.888 432.223 603.993 432.039C604.223 431.637 604.454 431.235 604.45 430.835C604.432 429.025 604.289 427.208 604.074 425.409C604.04 425.126 604.01 424.839 603.98 424.551C603.844 423.253 603.705 421.931 603.205 420.781C601.68 417.281 600.062 413.793 598.118 410.516C596.888 408.442 595.215 406.502 593.359 404.965C591.711 403.602 589.813 402.532 587.922 401.467L587.922 401.467L587.922 401.467L587.922 401.467L587.921 401.467L587.921 401.466L587.921 401.466L587.92 401.466L587.919 401.465L587.903 401.456C587.656 401.317 587.409 401.178 587.162 401.038C586.911 400.895 586.66 400.752 586.41 400.607C583.36 398.838 580.268 397.14 577.169 395.458C577.136 395.44 577.102 395.421 577.067 395.401C576.705 395.194 576.277 394.95 575.896 395.783C575.179 397.35 574.418 398.898 573.658 400.445L573.657 400.446C572.469 402.863 571.282 405.278 570.263 407.763C570.242 407.816 570.218 407.872 570.194 407.93C569.794 408.879 569.088 410.555 571.25 411.482C573.571 412.477 575.852 413.906 577.682 415.64C583.067 420.741 585.496 427.559 587.908 434.33L587.908 434.331L588.097 434.861C588.561 436.164 588.894 437.514 589.227 438.865L589.227 438.866L589.227 438.867C589.385 439.508 589.543 440.148 589.715 440.784C589.806 441.122 589.922 441.454 590.027 441.789C590.083 441.747 590.144 441.708 590.208 441.669C590.224 441.66 590.24 441.65 590.256 441.641C590.303 441.613 590.352 441.585 590.4 441.557L590.402 441.556C590.686 441.394 590.97 441.232 591.069 440.993C592.086 438.551 592.392 436.095 591.634 433.44C591.032 431.331 590.815 429.098 590.601 426.9L590.601 426.899L590.581 426.699C590.555 426.43 590.93 426.122 591.304 425.814C591.477 425.672 591.65 425.53 591.784 425.391C591.874 425.51 591.978 425.625 592.083 425.739C592.31 425.989 592.538 426.239 592.618 426.529C592.789 427.146 592.948 427.766 593.11 428.396L593.111 428.398C593.405 429.545 593.709 430.728 594.11 431.99C594.134 432.1 594.158 432.211 594.182 432.321L594.216 432.481L594.291 432.829C594.367 433.188 594.443 433.548 594.518 433.907L594.519 433.907L594.519 433.907L594.519 433.908L594.519 433.908L594.519 433.909L594.519 433.909L594.519 433.909C594.9 435.717 595.281 437.524 595.759 439.306ZM571.201 398.511C571.488 397.819 571.831 397.157 572.174 396.494C573.004 394.888 573.835 393.28 573.881 391.256C573.923 389.404 573.586 388.41 572.092 387.498C570.51 386.532 568.707 385.95 567.299 387.061C564.099 389.585 561.146 392.516 559.435 396.27C558.356 398.634 557.58 401.138 556.804 403.64C556.538 404.498 556.272 405.355 555.994 406.206C555.836 406.691 555.911 407.295 556.014 407.817C556.633 410.94 558.963 412.484 561.556 413.793C562.924 414.484 563.936 414.14 564.551 412.788C564.971 411.865 565.385 410.938 565.803 410.004C566.675 408.053 567.564 406.067 568.554 403.994C568.828 403.433 569.11 402.875 569.392 402.318C570.028 401.062 570.663 399.807 571.201 398.511ZM120.554 539.501C121.982 536.097 123.339 532.651 124.483 529.143C125.248 526.798 125.923 524.422 126.598 522.047C127.209 519.896 127.82 517.745 128.499 515.616C129.563 512.275 130.68 508.95 131.796 505.625L131.797 505.623C132.84 502.515 133.884 499.408 134.885 496.286C136.76 490.442 138.588 484.583 140.417 478.724L140.417 478.723L140.422 478.707L140.423 478.703C141.242 476.077 142.062 473.451 142.885 470.826C143.103 470.134 143.323 469.442 143.544 468.751L143.545 468.748C144.131 466.91 144.717 465.072 145.243 463.216C145.321 462.94 145.162 462.597 145.003 462.255C144.93 462.096 144.857 461.938 144.807 461.786C144.645 461.893 144.457 461.988 144.27 462.084L144.269 462.084L144.269 462.084C143.863 462.291 143.456 462.497 143.308 462.822C141.902 465.899 140.528 468.997 139.315 472.155C138.198 475.061 137.201 478.014 136.205 480.965C136.038 481.459 135.871 481.954 135.704 482.447C135.518 482.995 135.332 483.542 135.146 484.089C134.1 487.164 133.054 490.24 132.123 493.35C131.159 496.57 130.245 499.804 129.331 503.039L129.331 503.04L129.331 503.04C128.662 505.409 127.993 507.777 127.304 510.14C127.051 511.007 126.801 511.875 126.55 512.743L126.55 512.743C125.497 516.393 124.443 520.043 123.216 523.634C122.452 525.87 121.644 528.091 120.833 530.321C119.701 533.434 118.562 536.564 117.529 539.774C119.028 541.753 119.601 541.771 120.554 539.501ZM459.142 609.564C460.05 609.502 460.958 609.434 461.866 609.367L461.874 609.367C463.872 609.219 465.87 609.071 467.87 608.974C470.514 608.845 473.158 608.729 475.802 608.614C479.298 608.461 482.793 608.309 486.287 608.125C486.562 608.111 486.824 607.836 487.086 607.561C487.151 607.493 487.216 607.426 487.281 607.362C487.338 607.305 487.395 607.252 487.453 607.204C487.404 607.174 487.356 607.144 487.308 607.112C487.278 607.092 487.248 607.073 487.219 607.053L487.14 607C486.9 606.837 486.659 606.675 486.394 606.585C486.188 606.514 485.952 606.532 485.716 606.549L485.633 606.555C485.614 606.556 485.595 606.557 485.576 606.559C485.54 606.561 485.504 606.562 485.469 606.563C485.447 606.564 485.425 606.564 485.404 606.564H406.016C405.975 606.564 405.933 606.563 405.889 606.56C405.874 606.559 405.859 606.558 405.844 606.556C405.826 606.555 405.807 606.553 405.789 606.551C405.732 606.546 405.674 606.539 405.617 606.533C405.314 606.498 405.012 606.463 404.845 606.597C404.276 607.056 403.764 607.643 403.419 608.281C403.346 608.416 404.036 609.224 404.463 609.319C405.643 609.582 406.87 609.745 408.078 609.747C425.033 609.772 441.987 609.764 459.142 609.564ZM573.544 615.735L573.542 615.736L573.541 615.736L573.539 615.736C567.466 618.125 561.426 620.5 555.468 623.063C551.397 624.814 547.32 625.083 543.081 624.957C542.72 624.946 542.362 624.865 542.003 624.784C541.618 624.697 541.234 624.61 540.849 624.611C540.538 624.612 540.228 624.783 539.917 624.954C539.778 625.031 539.638 625.108 539.499 625.17C539.572 625.284 539.638 625.405 539.704 625.527C539.851 625.795 539.999 626.064 540.214 626.256C540.826 626.805 541.465 627.366 542.186 627.744C547.68 630.621 550.855 638.476 548.914 644.37C547.961 647.263 546.808 650.335 544.878 652.588C543.308 654.42 540.57 655.629 538.128 656.263C534.272 657.264 530.247 657.296 526.358 655.885C522.958 654.652 520.518 652.37 518.718 649.287C514.344 641.794 516.14 635.294 520.792 629.244C521.402 628.45 522.387 627.95 523.379 627.445C523.934 627.164 524.491 626.88 524.987 626.544C525.339 626.305 525.612 625.951 525.885 625.596C526.009 625.435 526.133 625.273 526.265 625.122C526.14 625.091 526.015 625.057 525.89 625.021C525.796 624.995 525.703 624.967 525.609 624.94C525.108 624.792 524.608 624.645 524.102 624.623C523.753 624.609 523.402 624.698 523.049 624.789C522.721 624.873 522.393 624.957 522.065 624.957L516.201 624.96L509.716 624.964C481.681 624.982 453.646 624.999 425.612 624.955C418.843 624.944 412.075 624.843 405.306 624.742C401.323 624.682 397.34 624.623 393.357 624.582C390.418 624.552 387.479 624.56 384.539 624.567H384.525C383.186 624.571 381.847 624.575 380.508 624.575C380.22 624.575 379.931 624.573 379.643 624.571H379.639C378.841 624.567 378.042 624.562 377.245 624.593C377.079 624.599 376.916 624.713 376.754 624.826C376.679 624.879 376.604 624.931 376.529 624.973C376.601 625.024 376.672 625.076 376.743 625.128C376.897 625.24 377.051 625.352 377.212 625.452C377.883 625.87 378.588 626.255 379.292 626.639C380.805 627.466 382.319 628.292 383.506 629.451C391.63 637.379 389.01 653.052 376.854 656.192C367.019 658.733 358.329 655.462 355.409 643.783C353.61 636.583 358.422 627.998 365.7 625.748C366.015 625.651 366.287 625.414 366.559 625.177C366.588 625.151 366.618 625.125 366.647 625.1L366.684 625.068C366.732 625.027 366.78 624.987 366.828 624.948C366.847 624.932 366.867 624.917 366.886 624.902C366.905 624.888 366.924 624.873 366.942 624.859C366.809 624.787 366.675 624.695 366.541 624.603C366.254 624.405 365.967 624.206 365.679 624.205C356.084 624.168 347.091 621.377 338.272 618.041C326.426 613.56 314.908 608.334 304.244 601.438L304.041 601.306C302.07 600.035 300.037 598.723 299.342 596.062C298.04 591.083 300.558 587.242 305.207 585.98C310.158 584.636 314.904 586.051 319.58 587.551C327.7 590.155 335.814 592.778 343.928 595.402C348.431 596.857 352.934 598.313 357.438 599.766L358.027 599.956C360.474 600.745 362.921 601.535 365.388 602.255C366.293 602.518 367.268 602.653 368.212 602.656C372.282 602.671 376.352 602.673 380.422 602.675C384.473 602.677 388.524 602.679 392.575 602.694C393.176 602.696 394.208 602.864 394.295 603.168C394.484 603.823 394.482 604.534 394.48 605.244C394.479 605.521 394.478 605.799 394.489 606.073C394.473 606.067 394.457 606.061 394.441 606.055L394.415 606.044C394.393 606.035 394.371 606.025 394.349 606.016L394.309 605.997L394.308 605.997C394.178 605.938 394.049 605.879 393.925 605.891C393.466 605.932 393.008 605.988 392.55 606.045C391.868 606.128 391.187 606.212 390.503 606.248C388.129 606.37 385.756 606.481 383.382 606.591C380.207 606.739 377.033 606.886 373.86 607.064C368.247 607.377 362.954 605.796 357.708 604.229L357.66 604.214C353.588 602.998 349.568 601.611 345.548 600.224L345.547 600.224C343.275 599.44 341.003 598.657 338.721 597.904C335.87 596.962 333.01 596.044 330.151 595.125L330.149 595.124L330.148 595.124L330.146 595.123L330.144 595.123L330.143 595.122L330.141 595.121L330.139 595.121L330.126 595.117C326.828 594.057 323.53 592.997 320.244 591.903C319.413 591.626 318.603 591.257 317.794 590.888C316.506 590.3 315.224 589.716 313.877 589.516C311.401 589.149 308.75 589.347 306.282 589.835C305.317 590.025 304.236 591.56 303.932 592.679C303.526 594.172 303.802 595.643 305.549 596.753C313.658 601.908 322.206 606.183 330.984 610.061C338.959 613.584 347.192 616.331 355.602 618.57C356.95 618.929 358.41 618.958 359.821 618.985C363.043 619.045 366.266 619.085 369.489 619.125C374.932 619.193 380.375 619.261 385.815 619.427C391.838 619.61 397.858 619.903 403.877 620.195H403.878H403.878H403.879H403.879H403.88H403.88H403.881C406.68 620.331 409.479 620.467 412.279 620.591C414.762 620.702 417.244 620.81 419.727 620.917C423.325 621.073 426.922 621.228 430.52 621.394C431.293 621.43 432.067 621.495 432.841 621.559L432.844 621.559L432.847 621.56L432.85 621.56C434.216 621.674 435.582 621.787 436.943 621.744C438.136 621.706 439.325 621.541 440.514 621.375L440.515 621.375C441.544 621.232 442.572 621.089 443.605 621.028C444.303 620.987 445.008 621.091 445.714 621.195H445.714H445.715H445.715H445.716H445.716H445.716C446.288 621.279 446.861 621.363 447.432 621.371C448.116 621.38 448.801 621.391 449.487 621.402H449.488H449.49H449.492H449.494H449.496H449.498H449.502H449.503H449.504H449.505H449.506H449.506H449.507C452.678 621.453 455.85 621.504 459.012 621.353C461.745 621.223 464.473 621.008 467.202 620.792C469.831 620.585 472.461 620.378 475.095 620.246C475.877 620.207 476.667 620.401 477.46 620.596L477.461 620.597C478.158 620.768 478.857 620.94 479.555 620.954C484.346 621.053 489.14 621.043 493.932 620.976C498.604 620.911 503.278 620.789 507.944 620.566C508.869 620.521 509.8 620.361 510.727 620.201C512.099 619.963 513.464 619.728 514.795 619.872C520.135 620.451 525.491 620.598 530.842 620.745C534.517 620.846 538.19 620.947 541.853 621.188C548.467 621.622 554.325 620.042 560.126 617.671C567.977 614.462 575.765 611.064 583.405 607.386C588.182 605.087 592.741 602.317 597.281 599.558L598.113 599.053C601.008 597.295 603.217 594.814 604.125 591.406C604.583 589.688 603.626 588.373 601.903 588.335C596.558 588.217 591.677 590.072 586.824 591.94C579.767 594.657 572.739 597.451 565.735 600.3C562.905 601.451 560.098 602.655 557.291 603.859L557.289 603.86L557.287 603.861L557.285 603.862L557.284 603.862L557.282 603.863L557.28 603.864L557.278 603.865L557.27 603.868C555.169 604.769 553.068 605.671 550.958 606.549C550.22 606.856 549.37 607.03 548.571 607.033C541.884 607.059 535.197 607.057 528.51 607.055L525.963 607.054C524.979 607.054 523.994 607.054 523.01 607.054C521.172 607.054 519.334 607.054 517.497 607.055C512.522 607.056 507.547 607.058 502.572 607.049C500.87 607.046 499.168 606.989 497.467 606.926C497.358 606.921 497.182 606.65 497.171 606.494C497.164 606.402 497.162 606.31 497.162 606.218C497.162 606.089 497.167 605.958 497.172 605.828C497.184 605.516 497.196 605.205 497.141 604.905C496.909 603.629 497.457 603.432 498.633 603.44C507.02 603.496 515.408 603.522 523.795 603.455C524.631 603.448 525.467 603.442 526.303 603.436H526.304C533.402 603.384 540.504 603.332 547.588 602.971C549.836 602.856 552.099 601.878 554.251 600.949C554.435 600.87 554.618 600.791 554.8 600.712C567.077 595.445 579.479 590.504 592.258 586.583C594.573 585.873 597.037 585.605 599.479 585.34L599.482 585.34L599.484 585.34L599.487 585.34L599.489 585.339L599.491 585.339C599.752 585.311 600.012 585.283 600.272 585.254C600.468 585.232 600.664 585.21 600.86 585.188C602.525 584.996 604.29 584.874 605.903 585.217C608.467 585.761 609.531 588.221 608.747 590.792C607.323 595.464 604.475 599.019 600.332 601.543C597.377 603.343 594.412 605.128 591.43 606.922L591.423 606.926L591.401 606.939C588.661 608.588 585.907 610.246 583.134 611.932C579.935 613.221 576.739 614.478 573.553 615.731L573.55 615.732L573.547 615.734L573.544 615.735ZM542.292 633.534C537.624 628.453 532.231 627.519 525.8 631.235C522.084 633.383 520.453 638.434 520.765 641.634C521.101 645.08 522.824 647.938 525.456 650.176C528.612 652.86 532.303 652.866 536.104 652.049C544.548 650.233 547.081 639.266 542.292 633.534ZM360.152 639.109C360.152 639.472 360.146 639.835 360.139 640.199V640.199C360.125 640.986 360.111 641.772 360.163 642.555C360.59 649.008 368.081 654.021 374.686 652.123C379.387 650.772 382.098 647.964 383.059 643.033C384.532 635.471 379.835 630.023 373.348 629.084C366.939 628.156 361.667 631.694 360.152 639.109ZM412.223 661.998H426.339H500.04C503.503 661.998 506.965 661.998 510.427 661.999C526.884 662.002 543.341 662.004 559.797 661.947C560.871 661.943 562.055 661.324 562.94 660.716C563.177 660.553 562.672 659.256 562.181 658.699C561.849 658.322 560.947 658.185 560.299 658.185C507.716 658.17 455.133 658.166 402.55 658.163C381.897 658.162 361.244 658.16 340.591 658.158C339.828 658.158 339.065 658.107 338.303 658.056L338.301 658.055L338.062 658.039L337.901 658.029C337.761 658.02 337.62 658.011 337.48 658.003C336.216 657.928 334.578 659.612 335.1 660.578C335.849 661.966 337.388 662 338.894 662C362.584 661.998 386.274 661.998 410.071 661.998H410.081H410.092H410.102H410.112H412.223ZM279.75 662.986L269.789 662.986C255.108 662.987 240.534 662.987 225.96 662.98C225.807 662.98 225.652 662.985 225.496 662.99C224.515 663.022 223.535 663.054 223.144 661.776C222.69 660.295 223.312 659.219 224.964 659.026C225.278 658.99 225.598 658.999 225.918 659.009C225.997 659.011 226.076 659.014 226.154 659.016C226.195 659.016 226.236 659.017 226.277 659.018L226.321 659.018L226.358 659.018L241.739 659.018C267.558 659.018 293.376 659.019 319.195 659.013L319.298 659.013L319.449 659.012C320.788 659.004 322.055 658.997 321.998 660.806C321.951 662.304 321.063 662.986 318.997 662.986C309.268 662.986 299.539 662.986 289.727 662.986H289.691H289.655H279.75ZM627.031 662.992L637.671 662.992C639.913 662.992 642.146 662.992 644.373 662.993C652.894 662.994 661.317 662.996 669.739 662.976C670.614 662.974 671.501 662.799 672.354 662.601C672.589 662.546 672.824 662.135 672.88 661.859C673.312 659.723 672.618 659.026 670.116 659.026C643.597 659.026 617.078 659.026 590.558 659.026H577.298C577.227 659.026 577.155 659.024 577.083 659.022C577.007 659.019 576.932 659.016 576.857 659.013C576.536 658.999 576.214 658.985 575.906 659.037C574.203 659.325 573.594 660.508 574.271 661.94C574.79 663.037 575.752 663.016 576.718 662.994C576.852 662.991 576.987 662.988 577.12 662.988C593.705 662.993 610.291 662.992 626.988 662.992H627.002H627.016H627.031ZM555 133.258C555.348 133.222 556.98 133.477 558.992 133.79C561.745 134.218 565.207 134.757 567.064 134.817C568.924 134.877 567.159 136.869 566.852 136.882C562.748 137.056 553.852 134.346 555 133.258ZM560.994 148.973C559.256 148.315 560.087 142.99 561.81 142.99C563.512 142.99 562.691 149.615 560.994 148.973ZM535.953 637.233C537.456 640.643 537.354 642.038 535.564 643.892C534.342 645.158 532.127 645.373 530.739 644.361C529.257 643.279 528.569 640.722 529.285 638.948C530.542 635.829 533.307 635.066 535.953 637.233ZM374.987 637.496C372.653 635.334 370.327 635.455 367.47 638.255C366.43 640.663 366.94 643.215 370.796 643.895C372.873 644.261 374.104 643.648 375.251 642.404C376.445 641.111 376.103 638.529 374.987 637.496Z" fill="#00160A"/>
<path fill-rule="evenodd" clip-rule="evenodd" d="M510.475 203.262C507.002 202.243 506.178 196.977 502.676 196.068C499.211 195.168 495.882 199.271 492.427 198.334C490.077 197.697 488.98 195.103 487.679 193.046C486.414 191.045 483.748 189.238 481.845 190.53L481.688 190.645C479.047 192.727 475.087 191.412 472.427 189.353C469.767 187.294 467.512 184.518 464.319 183.459C465.995 181.805 468.9 183.005 470.523 184.712C472.147 186.42 473.467 188.669 475.722 189.352C479.178 190.398 483.069 187.189 486.33 188.737C488.359 189.7 489.183 192.078 490.397 193.966C491.611 195.853 494.253 197.436 495.977 195.998C500.161 192.51 507.637 194.721 509.249 199.924C509.717 201.433 511.783 203.646 510.475 203.262Z" fill="#E7EAEE"/>
<path fill-rule="evenodd" clip-rule="evenodd" d="M303.354 598.645C313.001 604.328 343.22 621.07 365.372 621.625L548.597 622.202C548.597 622.202 644.94 588.319 574.5 601.104C570.514 601.827 559.096 608.656 540.738 610.144C507.179 612.865 365.372 611.126 365.372 611.126C365.372 611.126 300.816 597.15 303.354 598.645Z" fill="#E7EAEE"/>
<path fill-rule="evenodd" clip-rule="evenodd" d="M146 485.922C146.226 485.672 146.499 485.494 146.669 485.564C148.599 486.362 149.712 485.668 150.298 483.763C150.395 483.446 150.891 483.251 151.202 483C151.489 483.382 152.016 483.763 152.017 484.146C152.021 485.417 152.573 486.014 153.78 486.392C154.295 486.553 154.6 487.377 155 487.9C154.597 487.993 153.989 487.959 153.834 488.206C153.519 488.708 153.353 489.353 153.306 489.953C153.265 490.464 153.521 490.99 153.566 491.516C153.625 492.206 153.514 492.713 152.7 492.017C151.076 490.628 149.666 491.149 148.279 492.459C147.943 492.776 147.351 492.827 146.876 493C146.963 492.568 146.989 492.113 147.147 491.709C147.974 489.59 147.403 487.77 146 485.922Z" fill="#FFB61D"/>
<circle cx="544" cy="162" r="7" fill="#FFB61D"/>
<path fill-rule="evenodd" clip-rule="evenodd" d="M443.842 224.307L444.647 225.549L444.913 225.95C446.601 228.425 449.164 230.858 452.013 230.137C459.599 228.217 468.228 231.567 472.529 238.101C474.655 241.331 479.378 240.698 483.239 239.87L483.748 239.759C487.62 238.9 492.976 239.304 493.954 243.057L494.004 243.273C494.456 245.433 497.176 246.09 499.414 246.033L500.108 246.008C505.737 246.008 506.474 249.104 506.475 248.785C506.475 248.785 494.1 247.848 491.495 243.65L491.336 243.382C489.677 240.477 485.488 240.95 482.211 241.938L481.309 242.22L480.857 242.351C477.658 243.247 473.776 243.572 472.17 240.811C468.486 234.478 460.811 230.714 453.544 231.678C451.674 231.926 449.735 232.451 447.944 231.858C443.66 230.439 443.1 223.824 438.885 222.212C433.566 220.177 428.417 227.908 422.912 226.448C426.26 223.894 429.972 221.818 433.9 220.3C435.217 219.791 436.614 219.339 438.016 219.508C440.611 219.823 442.353 222.054 443.842 224.307ZM511.42 231.939C510.888 233.574 510.498 235.027 510.238 236.259C509.698 232.707 506.169 229.424 502.841 230.574L502.65 230.645C500.538 231.486 498.301 229.74 496.936 227.923L496.609 227.481L496.116 226.805C495.012 225.297 493.824 223.809 492.056 223.38C488.825 222.595 485.972 225.812 482.669 226.196C475.024 227.085 471.202 213.399 463.696 215.097C462.054 215.468 460.635 216.593 458.967 216.82C454.365 217.449 451.896 211.597 448.017 209.041C445.097 207.117 440.977 207.234 438.173 209.319C438.314 205.977 442.86 204.504 445.962 205.762C449.065 207.019 451.195 209.846 453.771 211.983C456.283 214.066 460.012 215.497 462.747 213.802L462.955 213.665C466.245 211.387 470.648 214.277 473.217 217.345L474.151 218.463C476.497 221.255 479.178 224.156 482.694 223.888C485.924 223.642 488.672 220.633 491.875 221.114C496.543 221.815 498.45 229.337 503.142 228.828C506.158 228.501 509.296 229.514 511.551 231.542L511.42 231.939ZM513.843 216.201C513.089 217.257 512.334 218.104 511.577 218.745L511.324 218.95L510.693 218.499C507.624 216.319 504.273 214.197 500.542 214.285C499.179 214.317 497.783 214.646 496.475 214.262C493.002 213.243 492.178 207.977 488.676 207.068C485.211 206.168 481.882 210.271 478.427 209.334C476.077 208.697 474.98 206.103 473.68 204.046C472.414 202.045 469.748 200.238 467.845 201.53L467.688 201.645C465.047 203.727 461.087 202.412 458.427 200.353C455.767 198.294 453.512 195.518 450.319 194.459C451.995 192.805 454.9 194.005 456.523 195.712C458.147 197.42 459.467 199.669 461.722 200.352C465.178 201.398 469.069 198.189 472.33 199.737C474.359 200.7 475.183 203.078 476.397 204.966C477.611 206.853 480.253 208.436 481.977 206.998C486.161 203.51 493.637 205.721 495.249 210.924C495.717 212.433 497.726 212.784 499.278 212.481C500.829 212.178 502.423 211.501 503.931 211.976C505.848 212.58 506.831 214.81 508.678 215.602C510.599 216.427 512.897 215.378 514.182 213.719L514.311 213.545C515.346 212.096 514.861 214.775 513.843 216.201Z" fill="#FFB61D"/>
<path fill-rule="evenodd" clip-rule="evenodd" d="M473.581 255.875L474.159 256.044C474.935 256.281 475.519 256.631 476.2 257.207L476.536 257.503L476.963 257.892C477.171 258.08 477.332 258.221 477.498 258.357C478.631 259.286 479.915 259.863 482.057 260.203C483.494 260.431 484.506 260.202 486.253 259.389L486.882 259.088C489.704 257.727 491.344 257.347 493.99 257.955C496.25 258.475 497.288 259.35 498.132 260.996L498.345 261.432C498.749 262.276 500.052 263.055 501.081 263.67C501.852 264.131 502.468 264.5 502.437 264.734C502.363 265.281 497.592 264.397 496.643 262.503L496.437 262.078C495.821 260.807 495.257 260.299 493.542 259.905C491.53 259.442 490.31 259.684 488.064 260.741L487.435 261.042C485.155 262.137 483.76 262.498 481.744 262.178C479.251 261.782 477.638 261.058 476.23 259.904C476.132 259.824 476.037 259.743 475.938 259.656L475.101 258.901C474.513 258.379 474.114 258.122 473.575 257.957L473.244 257.857C471.849 257.449 468.654 258.509 466.326 259.283C464.865 259.768 463.746 260.139 463.624 259.964C463.362 259.587 470.801 255.127 473.581 255.875ZM473.24 271.074L473.776 271.223C474.496 271.431 475.037 271.738 475.668 272.245L475.98 272.504L476.376 272.846C476.569 273.012 476.719 273.136 476.872 273.255C477.923 274.072 479.114 274.578 481.1 274.877C482.432 275.078 483.371 274.877 484.991 274.162L485.574 273.898C488.191 272.701 489.712 272.368 492.166 272.902C494.261 273.359 495.224 274.128 496.007 275.574L496.205 275.958C496.579 276.699 497.788 277.384 498.742 277.924C499.456 278.329 500.028 278.653 499.999 278.859C499.93 279.34 495.506 278.563 494.626 276.899L494.435 276.525C493.863 275.408 493.341 274.962 491.75 274.615C489.885 274.209 488.753 274.421 486.67 275.35L486.087 275.615C483.973 276.577 482.679 276.895 480.809 276.613C478.498 276.265 477.002 275.629 475.696 274.614C475.606 274.544 475.517 274.473 475.425 274.397L474.649 273.734C474.104 273.274 473.734 273.049 473.235 272.904L472.927 272.816C471.633 272.457 468.671 273.389 466.511 274.069L466.511 274.069C465.157 274.495 464.119 274.822 464.006 274.668C463.763 274.336 470.661 270.417 473.24 271.074ZM474.233 287.223L473.726 287.074C471.291 286.417 464.776 290.336 465.006 290.668C465.112 290.822 466.093 290.495 467.372 290.069C469.411 289.389 472.209 288.457 473.432 288.816L473.721 288.904C474.193 289.049 474.543 289.274 475.057 289.734L475.79 290.397C475.877 290.473 475.961 290.544 476.046 290.614C477.28 291.629 478.692 292.265 480.875 292.613C482.641 292.895 483.864 292.577 485.86 291.615L486.411 291.35C488.378 290.421 489.447 290.209 491.208 290.615C492.711 290.962 493.204 291.408 493.744 292.525L493.924 292.899C494.755 294.563 498.934 295.34 498.999 294.859C499.027 294.653 498.487 294.329 497.811 293.924C496.911 293.384 495.769 292.699 495.416 291.958L495.229 291.574C494.49 290.128 493.58 289.359 491.601 288.902C489.284 288.368 487.847 288.701 485.376 289.898L484.825 290.162C483.295 290.877 482.408 291.078 481.15 290.877C479.274 290.578 478.15 290.072 477.157 289.255C477.012 289.136 476.87 289.012 476.689 288.846L476.315 288.504L476.02 288.245C475.424 287.738 474.912 287.431 474.233 287.223ZM473.726 306.074L474.233 306.223C474.912 306.431 475.424 306.738 476.02 307.245L476.315 307.504L476.689 307.846C476.87 308.012 477.012 308.136 477.157 308.255C478.15 309.072 479.274 309.578 481.15 309.877C482.408 310.078 483.295 309.877 484.825 309.162L485.376 308.898C487.847 307.701 489.284 307.368 491.601 307.902C493.58 308.359 494.49 309.128 495.229 310.574L495.416 310.958C495.769 311.699 496.911 312.384 497.811 312.924C498.487 313.329 499.027 313.653 498.999 313.859C498.934 314.34 494.755 313.563 493.924 311.899L493.744 311.525C493.204 310.408 492.711 309.962 491.208 309.615C489.447 309.209 488.378 309.421 486.411 310.35L485.86 310.615C483.864 311.577 482.641 311.895 480.875 311.613C478.692 311.265 477.28 310.629 476.046 309.614C475.961 309.544 475.877 309.473 475.79 309.397L475.057 308.734C474.543 308.274 474.193 308.049 473.721 307.904L473.432 307.816C472.209 307.457 469.411 308.389 467.372 309.069C466.093 309.495 465.112 309.822 465.006 309.668C464.776 309.336 471.291 305.417 473.726 306.074ZM475.776 325.223L475.24 325.074C472.661 324.417 465.763 328.336 466.006 328.668C466.119 328.822 467.157 328.495 468.511 328.069L468.511 328.069C470.671 327.389 473.633 326.457 474.927 326.816L475.235 326.904C475.734 327.049 476.104 327.274 476.649 327.734L477.425 328.397C477.517 328.473 477.606 328.544 477.696 328.614C479.002 329.629 480.498 330.265 482.809 330.613C484.679 330.895 485.973 330.577 488.087 329.615L488.67 329.35C490.753 328.422 491.885 328.209 493.75 328.615C495.341 328.962 495.863 329.408 496.435 330.525L496.626 330.899C497.506 332.563 501.93 333.34 501.999 332.859C502.028 332.653 501.456 332.329 500.742 331.924C499.788 331.384 498.579 330.699 498.205 329.958L498.007 329.574C497.224 328.128 496.261 327.359 494.166 326.902C491.712 326.368 490.191 326.701 487.574 327.898L486.991 328.162C485.371 328.877 484.432 329.078 483.1 328.877C481.114 328.578 479.923 328.072 478.872 327.255C478.719 327.136 478.569 327.012 478.376 326.846L477.98 326.504L477.668 326.245C477.037 325.738 476.496 325.431 475.776 325.223ZM480.691 342.655L481.245 342.709C481.99 342.789 482.576 342.997 483.286 343.386L483.638 343.588L484.088 343.856C484.306 343.985 484.475 344.081 484.647 344.172C485.824 344.794 487.084 345.086 489.092 345.035C490.439 345.002 491.329 344.641 492.8 343.656L493.328 343.294C495.698 341.661 497.138 341.069 499.647 341.169C501.79 341.255 502.872 341.845 503.894 343.133L504.156 343.477C504.653 344.142 505.962 344.606 506.995 344.973L506.995 344.973C507.769 345.247 508.389 345.467 508.396 345.675C508.412 346.161 503.919 346.163 502.764 344.677L502.511 344.343C501.754 343.342 501.162 342.993 499.535 342.928C497.627 342.852 496.55 343.258 494.66 344.534L494.132 344.896C492.217 346.211 490.998 346.748 489.107 346.795C486.771 346.854 485.187 346.487 483.725 345.715L483.42 345.548L482.541 345.029C481.925 344.672 481.521 344.514 481.004 344.458L480.686 344.425C479.349 344.296 476.594 345.728 474.585 346.772C473.325 347.427 472.359 347.929 472.222 347.798C471.925 347.513 478.038 342.456 480.691 342.655ZM493.306 355.604L492.862 355.647C490.741 355.894 486.525 360.557 486.794 360.723C486.919 360.801 487.621 360.284 488.537 359.611C489.997 358.537 492 357.064 493.072 356.961L493.327 356.938C493.742 356.902 494.08 356.959 494.611 357.133L495.368 357.387L495.629 357.465C496.878 357.82 498.173 357.857 500.012 357.465C501.5 357.148 502.398 356.568 503.752 355.307L504.125 354.96C505.464 353.732 506.266 353.27 507.782 353.043C509.075 352.848 509.585 353.019 510.304 353.649L510.545 353.859C511.637 354.79 515.186 354.119 515.115 353.761C515.084 353.608 514.568 353.537 513.923 353.448C513.062 353.33 511.972 353.181 511.499 352.761L511.25 352.546C510.287 351.742 509.361 351.465 507.657 351.721C505.663 352.02 504.597 352.674 502.923 354.239L502.549 354.585C501.506 355.535 500.847 355.936 499.787 356.161C498.207 356.498 497.176 356.469 496.171 356.183C496.024 356.141 495.879 356.095 495.691 356.032L495.303 355.9L495 355.803C494.393 355.62 493.904 355.552 493.306 355.604ZM503.862 364.647L504.306 364.604C504.904 364.552 505.393 364.62 506 364.803L506.303 364.9L506.691 365.032C506.879 365.095 507.024 365.141 507.171 365.183C508.176 365.469 509.207 365.498 510.787 365.161C511.847 364.936 512.506 364.535 513.549 363.585L513.923 363.239C515.597 361.674 516.663 361.02 518.657 360.721C520.361 360.465 521.287 360.742 522.25 361.546L522.499 361.761C522.972 362.181 524.062 362.33 524.923 362.448C525.568 362.537 526.084 362.608 526.115 362.761C526.186 363.119 522.637 363.79 521.545 362.859L521.304 362.649C520.585 362.019 520.075 361.848 518.782 362.043C517.266 362.27 516.464 362.732 515.125 363.96L514.752 364.307C513.398 365.568 512.5 366.148 511.012 366.465C509.173 366.857 507.878 366.82 506.629 366.465L506.368 366.387L505.611 366.133C505.08 365.959 504.742 365.902 504.327 365.938L504.072 365.961C503 366.064 500.997 367.537 499.537 368.611C498.621 369.284 497.919 369.801 497.794 369.723C497.525 369.557 501.741 364.894 503.862 364.647ZM518.384 374.334L518.035 374.43C516.375 374.927 513.662 379.249 513.9 379.344C514.011 379.388 514.499 378.877 515.136 378.209C516.152 377.145 517.546 375.685 518.389 375.451L518.589 375.397C518.916 375.31 519.194 375.308 519.643 375.372L520.284 375.468L520.504 375.494C521.552 375.602 522.593 375.448 524.008 374.876C525.152 374.413 525.789 373.823 526.693 372.624L526.942 372.294C527.839 371.123 528.415 370.641 529.596 370.246C530.602 369.908 531.034 369.972 531.697 370.375L531.919 370.509C532.924 371.099 535.666 370.062 535.559 369.786C535.513 369.668 535.09 369.684 534.562 369.704C533.857 369.731 532.965 369.765 532.527 369.497L532.298 369.359C531.415 368.853 530.635 368.762 529.309 369.207C527.757 369.727 526.997 370.4 525.88 371.887L525.63 372.217C524.93 373.123 524.46 373.536 523.644 373.866C522.428 374.358 521.6 374.48 520.756 374.393C520.633 374.38 520.51 374.364 520.351 374.339L520.022 374.289L519.767 374.254C519.255 374.193 518.855 374.208 518.384 374.334ZM529.15 382.51L529.499 382.413C529.97 382.288 530.37 382.273 530.881 382.333L531.137 382.368L531.465 382.419C531.625 382.443 531.747 382.46 531.871 382.472C532.714 382.559 533.543 382.437 534.759 381.945C535.574 381.615 536.045 381.203 536.744 380.296L536.994 379.966C538.112 378.48 538.872 377.806 540.424 377.286C541.75 376.842 542.529 376.932 543.413 377.439L543.641 377.576C544.079 377.845 544.972 377.811 545.677 377.784C546.205 377.764 546.627 377.747 546.673 377.866C546.781 378.142 544.039 379.178 543.034 378.589L542.812 378.454C542.148 378.052 541.716 377.988 540.71 378.325C539.53 378.721 538.954 379.203 538.057 380.373L537.807 380.704C536.903 381.902 536.267 382.493 535.122 382.956C533.707 383.528 532.667 383.681 531.618 383.573L531.399 383.548L530.757 383.451C530.309 383.387 530.031 383.389 529.704 383.477L529.503 383.531C528.661 383.764 527.267 385.224 526.251 386.289C525.614 386.956 525.125 387.468 525.015 387.424C524.776 387.328 527.49 383.007 529.15 382.51ZM542.499 390.413L542.15 390.51C540.49 391.007 537.776 395.328 538.015 395.424C538.125 395.468 538.614 394.956 539.251 394.289C540.267 393.224 541.661 391.764 542.503 391.531L542.704 391.477C543.031 391.389 543.309 391.387 543.757 391.451L544.399 391.548L544.618 391.573C545.667 391.681 546.707 391.528 548.122 390.956C549.267 390.493 549.903 389.902 550.807 388.704L551.057 388.373C551.954 387.203 552.53 386.721 553.71 386.325C554.716 385.988 555.148 386.052 555.812 386.454L556.034 386.589C557.038 387.178 559.781 386.142 559.673 385.866C559.627 385.747 559.205 385.764 558.676 385.784C557.972 385.811 557.079 385.845 556.641 385.576L556.413 385.439C555.529 384.932 554.75 384.842 553.424 385.286C551.872 385.806 551.112 386.48 549.994 387.966L549.744 388.296C549.045 389.203 548.574 389.615 547.759 389.945C546.543 390.437 545.714 390.559 544.871 390.472C544.747 390.46 544.625 390.443 544.465 390.419L544.137 390.368L543.881 390.333C543.37 390.273 542.97 390.288 542.499 390.413Z" fill="#FFB61D"/>
</svg>
