<svg width="650" height="345" viewBox="0 0 650 345" fill="none" xmlns="http://www.w3.org/2000/svg">
    <path fill-rule="evenodd" clip-rule="evenodd"
        d="M578 238C578 106.556 471.444 0 340 0C208.556 0 91.9317 106.78 102 238C114 394.398 578 364.609 578 238Z"
        fill="#64FCD9" />
    <path
        d="M152.118 234.988C152.896 234.918 153.912 234.999 154.133 235.749C154.14 236.653 152.994 237.029 152.096 237.14C147.259 237.742 142.421 238.343 137.584 238.945C139.833 240.853 140.056 244.64 138.154 246.894C136.251 249.148 132.615 249.61 130.126 248.029C129.296 247.501 128.588 246.786 127.715 246.332C126.842 245.878 125.689 245.743 124.933 246.373C123.225 247.796 120.648 247.412 118.603 246.538C116.577 245.672 114.577 244.194 114.105 242.041C113.638 239.908 114.803 237.758 116.181 236.063C117.558 234.369 119.223 232.834 120.05 230.813C121.265 227.848 124.85 226.372 128.026 226.792C131.202 227.211 133.983 229.144 136.297 231.361C137.786 232.788 140.202 232.228 142.171 231.613C144.14 230.997 146.613 230.542 147.992 232.077"
        fill="white" />
    <path fill-rule="evenodd" clip-rule="evenodd"
        d="M431.405 226.663C431.405 204.467 447.812 199.352 458.222 199.613C468.633 199.875 478.563 206.577 482.427 215.925C486.291 225.273 483.883 236.73 476.571 243.897C469.258 251.065 453.819 251.152 449.368 249.801C444.918 248.45 431.405 239.052 431.405 226.663Z"
        fill="white" />
    <path fill-rule="evenodd" clip-rule="evenodd"
        d="M456.928 211.32C460.664 211.021 464.503 212.384 467.213 214.972C471.413 218.983 472.498 225.881 469.731 230.987C466.964 236.093 460.593 238.951 454.94 237.622C449.555 236.357 445.243 231.425 444.707 225.92C444.171 220.416 447.452 214.745 452.491 212.464C453.889 211.832 455.398 211.443 456.928 211.32M463.412 213.901C462.09 212.929 460.636 212.116 459.064 211.802C457.276 211.445 455.403 211.758 453.725 212.518C449.462 214.448 446.556 219.448 446.833 224.435C447.111 229.421 450.575 234.023 455.045 235.295C459.515 236.566 464.646 234.385 467.086 230.142C469.525 225.899 469.05 219.934 465.949 216.229C465.203 215.338 464.331 214.577 463.412 213.901V213.901Z"
        fill="#00160A" />
    <path fill-rule="evenodd" clip-rule="evenodd"
        d="M206.933 228.252C206.84 226.806 206.852 225.345 207.107 223.918C207.301 222.837 207.633 221.785 207.965 220.737C208.679 218.478 209.396 216.213 210.375 214.055C215.175 203.477 226.649 196.313 238.261 196.615C249.872 196.916 260.947 204.65 265.257 215.436C269.567 226.222 266.882 239.442 258.725 247.712C250.569 255.982 237.408 258.853 226.538 254.759C215.668 250.664 207.677 239.844 206.933 228.252"
        fill="white" />
    <path fill-rule="evenodd" clip-rule="evenodd"
        d="M238.082 97.5689C238.141 102.161 236.968 107.071 239.092 111.142C243.027 118.684 254.077 117.282 262.206 114.775C255.525 107.171 248.845 99.5675 242.164 91.9639C256.004 77.833 269.843 63.702 283.683 49.5711C284.837 48.3928 286.17 47.1337 287.818 47.1016C289.72 47.0646 291.207 48.6552 292.425 50.116C296.958 55.5536 301.491 60.9912 306.025 66.4288C309.76 70.9089 313.316 78.1652 308.744 81.7874C325.896 80.6236 343.047 79.4597 360.198 78.2959C356.987 59.9517 362.888 37.3723 368.714 19.6839C369.295 17.9209 369.997 16.0034 371.608 15.081C372.737 14.4349 374.103 14.409 375.403 14.4001C406.717 14.1841 438.031 13.9682 469.345 13.7522C471.241 13.7391 473.242 13.7524 474.881 14.7072C476.288 15.5265 477.235 16.9315 478.123 18.2958C504.615 59.023 521.154 110.174 525.91 158.526C526.507 164.591 534.279 208.024 525.91 209.312C486.055 215.447 493.866 179.326 451.773 184.61C417.189 188.951 423.723 209.312 403.734 213.279C385.778 216.843 324.532 217.729 304.679 218.723C277.443 220.087 275.518 178.914 234.042 180.586C192.565 182.259 193.515 229.354 171.17 223.962C170.239 223.738 160.122 217.854 159.894 217.149C156.602 206.973 154.133 169.727 154.133 169.727L146.333 167.994C146.333 167.994 145.76 148.767 146.333 148.153C147.343 147.07 165.023 149.012 172.676 148.153C170.415 132.454 168.154 116.756 165.894 101.057C165.698 99.7015 165.53 98.2118 166.266 97.0574C167.086 95.7738 168.731 95.3488 170.221 95.0374C190.162 90.8714 210.453 88.3858 230.809 87.6158C235.398 87.4422 238.022 92.9772 238.082 97.5689Z"
        fill="white" />
    <path fill-rule="evenodd" clip-rule="evenodd"
        d="M197.843 140.398L188.866 141.038L183.821 92.4761L191.681 91.1837L197.843 140.398Z" fill="#FFB61D" />
    <path fill-rule="evenodd" clip-rule="evenodd"
        d="M409.833 47.9055C412.264 47.4379 458.897 79.8004 458.414 80.3255C457.931 80.8506 408.871 48.0904 409.833 47.9055Z"
        fill="#E7EAEE" />
    <path fill-rule="evenodd" clip-rule="evenodd"
        d="M429.833 47.9055C431.719 47.5696 455.62 63.7292 454.956 64.6706C454.291 65.6119 428.628 48.1201 429.833 47.9055Z"
        fill="#E7EAEE" />
    <path fill-rule="evenodd" clip-rule="evenodd"
        d="M404.833 57.9055C403.927 56.3038 430.675 74.8112 429.956 74.6706C423.064 73.3234 405.099 58.3757 404.833 57.9055Z"
        fill="#E7EAEE" />
    <path fill-rule="evenodd" clip-rule="evenodd"
        d="M401.672 110.118C402.259 110.581 402.019 111.635 401.356 111.982C400.694 112.328 399.851 112.097 399.265 111.632C397.501 110.233 397.867 107.268 399.411 105.63C400.956 103.992 403.249 103.34 405.423 102.755C406.325 102.513 407.227 102.271 408.129 102.028C409.97 101.534 411.927 101.039 413.753 101.587C415.578 102.134 417.099 104.158 416.391 105.927C415.945 107.04 414.766 107.714 413.586 107.927C412.406 108.14 411.195 107.978 409.999 107.897C407.649 107.737 405.278 107.891 402.968 108.353C402.515 108.444 402.037 108.561 401.713 108.89C401.388 109.22 401.31 109.831 401.672 110.118Z"
        fill="#00160A" />
    <path fill-rule="evenodd" clip-rule="evenodd"
        d="M413.505 210.985C412.894 213.511 412.283 216.037 411.672 218.563C411.486 219.335 411.28 220.144 410.738 220.725C409.933 221.59 408.63 221.713 407.45 221.781C370.326 223.908 333.174 225.535 296.006 226.66C293.493 226.737 291.125 225.303 289.476 223.406C287.827 221.509 286.778 219.176 285.752 216.881C287.377 216.489 288.916 217.781 289.906 219.129C290.895 220.476 291.766 222.066 293.304 222.722C294.316 223.153 295.459 223.102 296.557 223.043C332.65 221.105 368.744 219.167 404.837 217.228C406.138 217.159 407.549 217.045 408.516 216.172C409.51 215.273 409.749 213.833 410.331 212.626C410.913 211.419 412.343 210.317 413.505 210.985L413.505 210.985Z"
        fill="#00160A" />
    <path fill-rule="evenodd" clip-rule="evenodd"
        d="M135.798 232.565C134.043 230.69 131.825 229.253 129.396 228.417C127.748 227.85 125.859 227.578 124.311 228.38C122.763 229.182 121.9 231.396 122.988 232.758C123.561 233.475 122.268 234.154 121.372 234.35C118.694 234.937 116.673 237.906 117.432 240.541C118.191 243.175 121.876 244.549 124.002 242.817C124.771 242.19 125.287 241.275 126.121 240.737C126.955 240.198 128.36 240.312 128.617 241.271C129.157 243.292 131.001 244.899 133.078 245.158C134.434 245.328 136.039 244.774 136.459 243.474C137.204 241.17 133.806 238.783 134.963 236.656C135.546 235.583 136.958 235.352 138.174 235.243C142.822 234.824 147.47 234.406 152.118 233.988C152.896 233.918 153.912 233.999 154.132 234.749C154.14 235.653 152.994 236.029 152.096 236.14C147.259 236.742 142.421 237.343 137.584 237.945C139.833 239.853 140.056 243.64 138.154 245.894C136.251 248.148 132.615 248.61 130.126 247.029C129.296 246.501 128.588 245.786 127.715 245.332C126.842 244.878 125.689 244.743 124.933 245.373C123.225 246.796 120.648 246.412 118.603 245.538C116.577 244.672 114.577 243.194 114.105 241.041C113.638 238.908 114.803 236.758 116.181 235.063C117.558 233.369 119.223 231.834 120.05 229.813C121.265 226.848 124.85 225.372 128.026 225.792C131.202 226.211 133.983 228.144 136.297 230.361C137.786 231.788 140.202 231.228 142.171 230.613C144.14 229.997 146.613 229.542 147.992 231.077C145.153 231.721 142.314 232.366 139.474 233.011C138.211 233.298 136.684 233.511 135.798 232.565Z"
        fill="#E7EAEE" />
    <path fill-rule="evenodd" clip-rule="evenodd"
        d="M192.643 229.816C192.507 227.684 192.523 225.531 192.9 223.429C193.186 221.835 193.675 220.285 194.164 218.741C195.217 215.411 196.273 212.071 197.716 208.891C204.791 193.301 221.702 182.742 238.816 183.187C255.93 183.631 272.254 195.029 278.606 210.927C284.958 226.825 281 246.308 268.979 258.497C256.957 270.686 237.56 274.918 221.539 268.883C205.518 262.849 193.74 246.901 192.643 229.816M201.622 213.868C200.861 215.891 200.268 218.011 200.27 220.172C200.277 226.798 200.799 233.52 203.048 239.753C207.775 252.852 220.518 262.658 234.387 263.925C248.255 265.192 262.54 257.882 269.67 245.92C276.8 233.957 276.446 217.947 268.838 206.282C261.23 194.618 246.755 187.843 232.919 189.422C219.082 191.001 206.524 200.833 201.622 213.868H201.622Z"
        fill="#00160A" />
    <path fill-rule="evenodd" clip-rule="evenodd"
        d="M472.443 189.385C486.951 195.483 497.049 210.835 496.904 226.572C496.759 242.308 486.379 257.472 471.761 263.301C457.143 269.131 439.178 265.272 428.243 253.953C417.309 242.635 414.071 224.547 420.401 210.139C421.898 206.732 423.924 203.478 426.801 201.119C433.324 195.771 440.077 190.308 448.145 187.849C456.066 185.436 464.81 186.176 472.443 189.385M438.696 197.001C436.791 198.219 434.991 199.641 433.582 201.41C432.093 203.281 431.085 205.481 430.092 207.656C428.604 210.917 427.108 214.197 426.18 217.659C422.989 229.557 427.305 243.114 436.743 251.029C446.181 258.944 460.239 260.842 471.467 255.774C482.694 250.707 490.56 238.952 491.03 226.643C491.5 214.334 484.588 202.043 473.858 195.992C463.129 189.94 449.075 190.367 438.696 197.001Z"
        fill="#00160A" />
    <path fill-rule="evenodd" clip-rule="evenodd"
        d="M459.618 27.8682C434.456 28.4039 409.293 28.9396 384.131 29.4753C383.503 29.4887 382.807 29.5301 382.367 29.978C382.083 30.2675 381.962 30.6755 381.854 31.0668C376.275 51.4168 380.795 72.9773 384.586 93.7351C386.949 106.676 389.021 119.671 390.8 132.705C392.081 142.092 393.211 151.531 393.132 161.004C393.107 164.016 395.224 166.739 397.861 168.194C400.499 169.649 403.584 170.042 406.593 170.188C412.931 170.496 419.316 169.822 425.45 168.197C426.593 167.895 427.777 167.557 428.938 167.774C430.1 167.991 431.218 168.968 431.147 170.147C431.065 171.511 429.589 172.295 428.302 172.753C420.203 175.634 411.312 176.253 402.892 174.523C398.852 173.692 394.64 172.125 392.324 168.712C391.007 166.77 390.444 164.428 389.931 162.139C384.773 139.102 382.198 115.577 379.683 92.1042C377.398 70.7729 375.152 49.2746 377.069 27.907C377.128 27.2465 377.2 26.5596 377.551 25.9967C378.302 24.7897 379.962 24.6258 381.383 24.5909C407.999 23.9372 434.615 23.2836 461.231 22.63C462.741 22.5929 464.363 22.5875 465.608 23.4412C466.527 24.0711 467.1 25.0794 467.642 26.0526C477.291 43.375 486.94 60.6974 496.59 78.0198C498.52 81.4855 500.513 85.4666 499.312 89.2476C498.421 92.0517 495.882 94.0856 493.124 95.1105C490.366 96.1354 487.376 96.3027 484.438 96.4595C479.164 96.741 473.89 97.0224 468.617 97.3039C455.589 97.9992 442.561 98.6945 429.533 99.3898C428.785 99.4297 427.95 99.44 427.397 98.9351C426.591 98.1981 426.939 96.7582 427.8 96.0855C428.661 95.4128 429.817 95.2953 430.906 95.2035C450.566 93.5455 470.226 91.8876 489.886 90.2296C491.427 90.0996 492.496 88.4818 492.566 86.937C492.635 85.3922 491.966 83.9211 491.308 82.5219C482.79 64.4216 473.567 46.6529 463.667 29.2698C462.923 27.9629 461.122 27.8362 459.618 27.8682V27.8682Z"
        fill="#00160A" />
    <path fill-rule="evenodd" clip-rule="evenodd"
        d="M222.323 201.682C231.117 196.815 242.556 197.384 251.022 202.8C259.488 208.216 264.763 218.152 264.874 228.202C264.987 238.438 259.438 248.925 250.168 253.267C246.936 254.781 243.375 255.535 239.809 255.674C226.814 256.181 213.811 247.636 209.647 235.316C205.483 222.995 210.945 207.98 222.323 201.682M242.395 251.271C245.811 250.702 249.13 249.483 252.036 247.598C255.014 245.666 257.539 243.041 259.353 239.99C264.074 232.048 263.47 221.381 258.23 213.772C252.99 206.162 243.511 201.821 234.289 202.384C230.851 202.594 227.438 203.439 224.365 204.994C213.76 210.36 208.89 224.521 213.377 235.527C217.865 246.532 230.671 253.225 242.395 251.271L242.395 251.271Z"
        fill="#00160A" />
    <path fill-rule="evenodd" clip-rule="evenodd"
        d="M314.303 183.977C312.772 182.617 310.328 182.687 308.836 181.284C309.256 179.764 310.66 178.765 311.646 177.533C313.975 174.621 313.73 169.971 311.108 167.32C309.782 165.978 307.857 164.951 307.506 163.098C310.248 162.627 313.02 161.743 315.084 159.878C317.149 158.013 318.346 154.99 317.439 152.36C317.161 151.553 316.694 150.781 316.684 149.927C316.673 149.073 317.415 148.127 318.237 148.361C322.636 149.616 327.778 146.691 328.947 142.268C329.449 140.368 332.244 140.556 334 141.44C335.755 142.324 337.99 143.442 339.482 142.162C340.744 141.079 340.976 138.563 342.639 138.594C343.5 138.611 344.11 139.395 344.71 140.013C346.781 142.141 350.227 142.786 352.928 141.551C353.873 141.119 354.747 140.476 355.773 140.311C356.799 140.146 358.063 140.723 358.128 141.76C358.328 144.896 361.754 147.401 364.803 146.639C365.966 146.348 367.941 146.411 367.547 147.544C366.344 151.002 368.917 155.237 372.54 155.765C373.462 155.899 374.442 155.834 375.277 156.249C376.111 156.664 376.664 157.848 376.037 158.537C373.341 161.497 374.479 166.985 378.129 168.628C379.113 169.071 378.881 170.606 378.136 171.387C377.392 172.168 376.318 172.642 375.773 173.573C374.826 175.192 375.954 177.256 377.33 178.531C378.707 179.805 380.437 180.876 381.082 182.637C378.49 181.647 375.28 182.666 373.733 184.969C372.186 187.272 372.457 190.629 374.353 192.654C373.352 194.454 370.677 193.737 368.625 193.918C366.129 194.138 363.944 196.299 363.697 198.793C363.589 199.877 363.803 201.015 363.417 202.035C363.031 203.054 361.621 203.791 360.85 203.021C357.983 200.154 352.498 200.731 350.289 204.13C349.764 204.938 349.248 205.971 348.289 206.058C346.779 206.194 346.297 204.012 345.068 203.125C343.545 202.025 341.382 203.273 340.311 204.817C339.24 206.361 338.571 208.289 336.994 209.312C334 207.113 334.908 200.889 331.228 200.38C329.639 200.161 328.24 201.34 326.735 201.896C325.231 202.452 322.912 201.709 323.193 200.13C323.653 197.546 323.264 194.102 320.726 193.432C318.222 192.771 315.018 195.375 313.29 193.446C315.162 190.521 316.899 186.284 314.303 183.977ZM315.971 167.89C314.822 169.971 315.031 172.497 314.817 174.865C314.602 177.234 313.607 179.907 311.334 180.606C313.904 180.788 316.308 182.49 317.333 184.854C318.359 187.217 317.96 190.136 316.338 192.137C318.443 190.559 321.655 191.019 323.566 192.827C325.477 194.635 326.163 197.488 325.773 200.09C327.94 198.541 330.993 198.345 333.34 199.603C335.687 200.862 337.213 203.514 337.122 206.175C337.769 203.814 339.624 201.75 341.992 201.129C344.36 200.508 347.137 201.518 348.329 203.657C348.438 202.045 349.959 200.904 351.454 200.293C354.658 198.984 358.413 199.098 361.531 200.599C361.15 195.572 366.407 190.958 371.342 191.988C369.798 190.378 369.885 187.755 370.743 185.695C371.824 183.099 374.356 180.836 377.154 181.134C375.53 180.54 374.218 179.149 373.72 177.493C372.884 174.715 374.407 171.615 376.774 169.937C373.786 169.31 372.823 165.593 372.453 162.562C372.26 160.982 372.354 158.913 373.862 158.405C370.75 157.525 367.939 155.61 365.982 153.035C365.077 151.844 364.429 149.963 365.579 149.006C363.192 148.882 360.839 148.167 358.788 146.941C357.226 146.009 355.69 144.3 356.282 142.58C352.105 144.644 346.843 144.317 342.954 141.75C341.779 143.599 339.475 144.496 337.284 144.488C335.093 144.479 332.982 143.699 330.977 142.818C331.214 144.267 330.236 145.63 329.176 146.647C326.481 149.231 322.857 150.826 319.13 151.069C320.788 156.769 316.37 163.422 310.473 164.106C311.897 165.85 313.852 167.127 315.971 167.89Z"
        fill="#00160A" />
    <path fill-rule="evenodd" clip-rule="evenodd"
        d="M460.884 249.577C457.149 250.086 453.299 249.724 449.725 248.525C438.394 244.726 430.987 231.767 433.464 220.075C435.941 208.383 447.966 199.541 459.865 200.662C471.763 201.784 481.925 212.717 482.174 224.665C482.422 236.614 472.725 247.961 460.884 249.577M469.436 244.528C477.396 239.697 481.766 229.594 479.836 220.483C477.905 211.373 469.813 203.911 460.576 202.724C451.34 201.537 441.624 206.71 437.452 215.036C433.28 223.361 434.953 234.241 441.433 240.929C448.504 248.227 460.749 249.801 469.436 244.528Z"
        fill="#00160A" />
    <path fill-rule="evenodd" clip-rule="evenodd"
        d="M344.559 144.874C354.717 144.758 364.702 150.806 369.304 159.862C373.906 168.918 372.905 180.548 366.823 188.685C360.741 196.821 349.87 201.074 339.881 199.223C331.058 197.589 323.227 191.329 319.688 183.083C316.15 174.836 317.01 164.848 321.905 157.327C326.801 149.806 335.587 144.977 344.559 144.874ZM370.477 170.617C370.222 166.572 368.986 162.591 366.906 159.112C360.561 148.504 345.855 143.861 334.569 148.901C323.283 153.942 316.926 167.991 320.591 179.796C324.255 191.601 337.451 199.581 349.607 197.345C361.764 195.108 371.254 182.954 370.477 170.617V170.617Z"
        fill="#00160A" />
    <path fill-rule="evenodd" clip-rule="evenodd"
        d="M358.769 172.349C356.85 174.589 353.782 175.789 350.853 175.443C349.841 175.323 348.277 175.576 348.549 176.559C352.012 177.776 355.474 178.993 358.937 180.21C360.854 180.884 361.403 183.64 360.262 185.322C359.121 187.004 356.865 187.633 354.847 187.384C352.83 187.136 350.983 186.166 349.188 185.212C347.379 184.251 345.569 183.29 343.759 182.329C346.201 181.363 348.85 182.845 351.164 184.085C353.478 185.326 356.551 186.295 358.536 184.576C358.836 184.316 359.102 183.982 359.156 183.588C359.284 182.646 358.237 182.019 357.356 181.661C354.575 180.529 351.794 179.397 349.012 178.265C347.608 177.694 345.954 178.19 344.75 179.112C343.546 180.034 342.691 181.325 341.818 182.565C339.97 185.189 337.745 187.825 334.663 188.718C331.581 189.611 327.579 187.868 327.262 184.675C327.063 182.668 328.323 180.79 329.815 179.433C331.308 178.076 333.083 177.035 334.45 175.552C334.622 175.365 334.796 175.153 334.817 174.899C334.861 174.37 334.266 174.044 333.768 173.86C331.083 172.869 328.398 171.879 325.713 170.888C324.551 170.459 325.274 168.453 326.503 168.304C327.731 168.156 328.809 169.045 329.791 169.798C332.382 171.786 335.975 173.18 338.869 171.664C340.931 170.583 342.119 168.051 341.63 165.774C340.965 162.671 342.129 159.244 344.548 157.189C346.967 155.134 350.537 154.539 353.492 155.697C351.236 156.758 350.207 159.838 351.372 162.042C352.537 164.246 355.661 165.131 357.809 163.865C358.596 163.401 359.643 162.716 360.277 163.374C360.454 163.556 360.538 163.807 360.606 164.052C361.399 166.892 360.687 170.108 358.769 172.349ZM344.282 163.71C344.274 167.105 346.178 170.6 349.327 171.867C352.476 173.135 356.653 171.566 357.68 168.33C357.908 167.61 357.517 166.452 356.829 166.763C354.952 167.613 352.739 166.631 351.154 165.314C350.121 164.457 349.185 163.407 348.791 162.124C348.397 160.841 348.655 159.293 349.683 158.43C348.069 158.069 346.272 158.744 345.296 160.078C344.541 161.11 344.285 162.432 344.282 163.71ZM330.6 185.102C334.698 189.154 337.138 183.846 338.13 182.707C340.429 180.065 342.867 177.544 345.43 175.157C345.934 174.688 345.952 173.863 345.66 173.24C345.368 172.617 344.832 172.148 344.311 171.698C343.535 171.028 342.286 171.22 341.478 171.849C340.669 172.479 326.503 181.051 330.6 185.102Z"
        fill="#FFB61D" />
    <path fill-rule="evenodd" clip-rule="evenodd"
        d="M235.928 213.32C239.664 213.021 243.503 214.384 246.213 216.972C250.413 220.983 251.498 227.881 248.731 232.987C245.964 238.093 239.593 240.951 233.94 239.622C228.555 238.357 224.243 233.425 223.707 227.92C223.171 222.416 226.452 216.745 231.491 214.464C232.889 213.832 234.398 213.443 235.928 213.32M242.412 217.525C241.09 216.626 239.636 215.873 238.064 215.583C236.276 215.253 234.403 215.542 232.725 216.245C228.462 218.031 225.556 222.658 225.833 227.272C226.111 231.886 229.575 236.144 234.045 237.321C238.515 238.498 243.646 236.479 246.086 232.553C248.525 228.627 248.05 223.108 244.949 219.68C244.203 218.855 243.331 218.151 242.412 217.525V217.525Z"
        fill="#00160A" />
    <path fill-rule="evenodd" clip-rule="evenodd"
        d="M238.082 91.5689C238.141 96.1606 236.968 101.071 239.092 105.142C243.027 112.684 254.077 111.282 262.206 108.775C255.525 101.171 248.845 93.5675 242.164 85.9639C256.004 71.833 269.844 57.702 283.683 43.5711C284.837 42.3928 286.17 41.1337 287.818 41.1016C289.72 41.0646 291.207 42.6552 292.425 44.116C296.958 49.5536 301.491 54.9912 306.025 60.4288C309.76 64.9089 313.316 72.1652 308.744 75.7874C325.896 74.6235 343.047 73.4597 360.198 72.2959C356.987 53.9517 362.888 35.3723 368.714 17.6839C369.295 15.9209 369.997 14.0034 371.608 13.081C372.737 12.4349 374.103 12.409 375.403 12.4001C406.717 12.1841 438.031 11.9682 469.345 11.7522C471.241 11.7391 473.242 11.7524 474.881 12.7072C476.288 13.5265 477.235 14.9315 478.123 16.2958C504.615 57.023 521.155 104.174 525.91 152.526C526.507 158.591 527.159 165.218 531.44 169.555C537.957 176.158 538.659 187.665 532.992 195.01C537.159 198.035 536.131 205.017 532.314 208.474C528.497 211.93 523.074 212.814 517.978 213.549C511.214 214.525 503.857 215.395 497.944 211.97C507.628 209.701 517.324 207.485 527.032 205.323C522.726 176.964 518.42 148.605 514.114 120.246C512.694 110.894 511.267 101.509 508.619 92.4284C505.769 82.6497 501.537 73.3387 497.32 64.0669C490.679 49.4638 484.038 34.8607 477.396 20.2576C476.673 18.6665 475.888 17 474.461 15.9904C472.733 14.7677 470.453 14.7705 468.336 14.8209C438.857 15.5227 409.378 16.2244 379.898 16.9262C378.199 16.9667 376.367 17.0523 375.032 18.1047C373.933 18.9704 373.376 20.3371 372.895 21.6505C361.287 53.369 368.087 88.5057 375.01 121.565C376.281 127.638 368.031 130.741 361.85 131.283C291.28 137.469 220.71 143.656 150.141 149.843C149.275 155.438 149.031 161.129 149.414 166.778C154.111 167.191 158.807 167.603 163.504 168.016C162.014 168.603 160.525 169.189 159.035 169.775C161.812 184.37 163.347 199.201 163.618 214.055C163.701 218.576 167.619 222.296 171.935 223.643C176.251 224.991 180.899 224.489 185.391 223.975C180.609 225.977 175.626 228.016 170.449 227.763C165.271 227.509 159.85 224.244 158.894 219.149C155.898 203.172 154.172 186.957 153.739 170.708C151.018 170.774 148.297 170.84 145.576 170.907C144.656 164.107 144.286 157.233 144.47 150.374C144.509 148.898 144.629 147.285 145.636 146.206C146.646 145.124 148.249 144.895 149.719 144.73C157.371 143.871 165.024 143.012 172.676 142.153C170.415 126.454 168.154 110.756 165.894 95.057C165.698 93.7015 165.53 92.2118 166.267 91.0574C167.086 89.7738 168.731 89.3488 170.221 89.0374C190.162 84.8714 210.453 82.3858 230.809 81.6158C235.398 81.4422 238.022 86.9772 238.082 91.5689ZM175.563 140.568C175.614 141.013 175.69 141.506 176.041 141.785C176.382 142.056 176.865 142.028 177.298 141.987C197.32 140.085 217.342 138.184 237.364 136.283C237.916 136.231 238.545 136.134 238.847 135.668C239.084 135.302 239.035 134.829 238.978 134.397C236.931 119.035 234.885 103.672 232.839 88.3101C232.783 87.8881 232.714 87.4381 232.429 87.1224C232.045 86.6982 231.406 86.6542 230.834 86.6417C211.051 86.2087 191.215 88.2242 171.923 92.6276C171.398 92.7474 170.823 92.9023 170.523 93.3496C170.242 93.7687 170.288 94.3185 170.345 94.82C172.084 110.069 173.824 125.319 175.563 140.568ZM361.842 79.1529C361.756 78.4406 361.607 77.6274 360.988 77.2645C360.594 77.033 360.107 77.0519 359.65 77.0777C341.825 78.0841 323.999 79.0905 306.174 80.0969C305.781 80.119 305.357 80.1534 305.06 80.4112C304.627 80.7875 304.651 81.4556 304.712 82.0263C306.344 97.4166 307.975 112.807 309.607 128.197C309.658 128.682 309.728 129.207 310.073 129.551C310.517 129.993 311.23 129.966 311.854 129.909C330.349 128.214 348.844 126.518 367.34 124.822C365.507 109.599 363.674 94.376 361.842 79.1529ZM266.09 105.083C266.35 105.32 266.634 105.567 266.983 105.608C267.475 105.666 267.906 105.299 268.266 104.957C280.315 93.5052 294.365 84.0532 306.415 72.6011C306.958 72.0853 307.542 71.4733 307.517 70.725C307.5 70.2236 307.206 69.7792 306.922 69.3657C302.12 62.3772 295.014 53.5965 289.626 47.0491C289.096 46.4059 288.413 45.701 287.587 45.806C287.06 45.8729 286.639 46.2607 286.256 46.6293C272.946 59.4521 259.636 72.275 246.326 85.0979C246.029 85.3834 245.711 85.7185 245.717 86.13C245.723 86.5423 246.051 86.8689 246.356 87.1463C252.934 93.1253 259.512 99.1044 266.09 105.083ZM304.606 111.379C304.503 110.719 304.357 109.987 303.811 109.601C303.327 109.259 302.68 109.301 302.089 109.357C283.664 111.111 265.239 112.865 246.814 114.62C245.85 114.711 244.722 114.913 244.302 115.785C244.072 116.265 244.129 116.827 244.192 117.356C244.813 122.617 245.435 127.879 246.057 133.14C246.145 133.882 246.286 134.716 246.903 135.137C247.397 135.473 248.046 135.435 248.642 135.383C267.697 133.73 286.753 132.078 305.809 130.425C306.284 130.384 306.813 130.315 307.112 129.943C307.419 129.561 307.359 129.011 307.283 128.526C306.391 122.81 305.499 117.095 304.606 111.379ZM300.777 83.9016C300.733 83.5824 300.585 83.1719 300.263 83.197C300.127 83.2076 300.014 83.3018 299.912 83.3915C290.434 91.6724 280.955 99.9532 271.477 108.234C281.332 107.408 291.178 106.468 301.012 105.416C301.857 105.325 302.833 105.15 303.237 104.403C303.501 103.915 303.433 103.322 303.358 102.772C302.497 96.4822 301.637 90.1919 300.777 83.9016ZM529.511 172.568C530.419 177.807 531.327 183.046 532.235 188.285C532.325 188.805 532.511 189.431 533.026 189.544C533.864 189.728 534.153 188.469 534.038 187.619C533.424 183.086 532.81 178.553 532.195 174.019C532.086 173.208 531.926 172.308 531.27 171.817C530.613 171.327 529.371 171.761 529.511 172.568Z"
        fill="#00160A" />
    <path fill-rule="evenodd" clip-rule="evenodd"
        d="M78.7849 276.429C61.2749 276.706 1.06014 281.167 0.0199429 278.933C-1.31082 276.075 64.353 272.317 78.6662 272.09L83.1495 272.029C96.1637 271.889 78.7849 276.429 78.7849 276.429ZM212.524 270.958C216.777 270.958 220.105 272.334 217.243 273.34C214.38 274.345 205.117 276.461 189.605 276.818C174.094 277.175 156.115 277.544 129.547 278.067C128.007 278.097 126.733 276.873 126.703 275.332C126.673 273.792 127.897 272.518 129.437 272.488L176.482 271.529C190.764 271.22 199.704 270.958 212.524 270.958ZM425.027 269.325C426.568 269.3 427.837 270.529 427.861 272.07C427.885 273.611 426.656 274.879 425.115 274.904L418.578 274.984L398.575 275.122C394.55 275.163 231.689 276.204 229.481 273.816C227.273 271.428 230.662 270.996 232.202 270.958C232.202 270.958 398.522 269.537 402.871 269.505L419.505 269.395C421.438 269.376 423.189 269.354 425.027 269.325ZM605.839 263.957C605.839 263.957 610.848 263.093 647.418 265.831C648.955 265.946 650.107 267.285 649.992 268.821C649.877 270.358 631.793 269.582 607.07 269.538L600.271 269.549C582.118 269.63 565.254 270.121 537.265 271.273L501.939 272.765C486.864 273.383 477.87 273.684 466.933 273.942C465.393 273.978 464.115 272.759 464.078 271.218C464.042 269.678 465.261 268.4 466.802 268.363L475.584 268.134C486.032 267.832 496.767 267.411 515.801 266.599L535.984 265.742C567.543 264.437 585.092 263.957 605.839 263.957Z"
        fill="#00160A" />
</svg>