<svg width="750" height="750" viewBox="0 0 750 750" fill="none" xmlns="http://www.w3.org/2000/svg">
<path fill-rule="evenodd" clip-rule="evenodd" d="M71.8094 333.046C90.17 217.707 431.855 72.5343 611.57 163.719C791.285 254.904 558.223 337.43 575.368 527.198C587.263 658.848 385.876 667.679 225.919 597.562C128.988 555.071 58.4028 417.265 71.8094 333.046Z" fill="#64FCD9"/>
<g clip-path="url(#clip0_0_5097)">
<path fill-rule="evenodd" clip-rule="evenodd" d="M552.504 88.997C556.022 88.9655 558.335 90.553 559.164 93.8724C559.578 95.5262 559.361 97.3452 559.373 99.0899C559.405 103.574 559.457 108.06 559.399 112.544C559.364 115.336 559.142 118.127 559.01 120.919C558.985 121.45 558.979 121.983 558.979 122.514C558.977 128.368 559.023 134.221 558.967 140.074C558.869 150.339 558.718 160.604 558.572 170.869C558.452 179.391 558.306 187.913 558.173 196.436C558.038 205.092 557.906 213.749 557.771 222.405C557.638 230.927 557.522 239.45 557.362 247.972C557.267 253.01 557.067 258.047 556.979 263.085C556.917 266.592 557.004 270.101 556.959 273.608C556.848 282.265 556.718 290.922 556.557 299.577C556.465 304.549 556.261 309.518 556.175 314.49C556.113 318.063 556.213 321.64 556.15 325.214C556.065 330.118 555.856 335.02 555.773 339.925C555.71 343.699 555.812 347.477 555.747 351.252C555.67 355.754 555.451 360.254 555.371 364.757C555.307 368.397 555.396 372.04 555.351 375.682C555.24 384.539 555.098 393.397 554.954 402.254C554.831 409.838 554.702 417.423 554.55 425.007C554.439 430.514 554.247 436.02 554.165 441.527C554.101 445.771 554.204 450.018 554.138 454.261C554.069 458.63 553.834 462.996 553.764 467.364C553.698 471.541 553.802 475.721 553.735 479.898C553.671 483.864 553.426 487.828 553.363 491.794C553.296 496.038 553.39 500.284 553.339 504.529C553.234 513.319 553.086 522.11 552.944 530.9C552.819 538.618 552.822 546.342 552.502 554.053C552.195 561.468 553.904 568.345 557.591 574.675C561.347 581.124 565.372 587.419 569.364 593.727C573.31 599.963 576.773 606.455 578.608 613.613C579.917 618.723 580.109 624.028 578.639 629.201C578.136 630.97 575.074 643.172 577.68 646.342C581.025 650.412 585.255 652.238 590.464 652.357C595.542 652.473 600.363 651.237 605.229 650.111C611.146 648.741 617.086 647.752 623.044 649.914C626.008 650.989 628.681 652.509 630.434 655.252C630.7 655.67 631.349 656.372 629.933 656.38C626.503 656.399 623.075 656.611 619.645 656.745C612.787 657.013 605.929 657.288 599.07 657.546C595.105 657.695 591.139 657.823 587.174 657.949C582.739 658.09 578.305 658.227 573.87 658.351C568.699 658.494 563.527 658.634 558.355 658.752C551.911 658.899 545.466 659.035 539.021 659.154C531.102 659.301 523.182 659.442 515.263 659.555C504.73 659.706 494.197 659.812 483.664 659.967C476.482 660.073 469.3 660.233 462.118 660.36C460.889 660.382 459.66 660.354 458.43 660.365C443.609 660.497 428.787 660.632 413.965 660.764C412.669 660.776 411.372 660.756 410.076 660.767C394.919 660.899 379.762 661.035 364.606 661.166C363.242 661.178 361.879 661.157 360.516 661.169C345.493 661.301 330.47 661.436 315.447 661.568C314.151 661.58 312.855 661.56 311.558 661.571C296.402 661.703 281.245 661.839 266.088 661.97C264.859 661.977 145.629 661.963 144.4 661.977C142.456 661.993 134.154 647.05 145.48 613.613C147.995 606.188 156.834 592.605 171.999 572.864C169.934 256.245 169.934 97.8982 171.999 97.8253C175.361 97.7067 178.723 97.5523 182.085 97.428C189.48 97.1546 266.875 96.8987 274.269 96.6178C277.096 96.5104 279.92 96.3222 282.748 96.2272C287.517 96.0671 292.287 95.9654 297.056 95.8135C300.553 95.7022 304.049 95.54 307.545 95.4184C311.711 95.2735 315.878 95.1592 320.044 95.0101C323.273 94.8945 326.5 94.7171 329.729 94.6182C334.9 94.4598 340.073 94.3548 345.244 94.206C349.277 94.0899 353.309 93.9355 357.341 93.8091C361.842 93.668 366.344 93.5394 370.846 93.4054C375.347 93.2713 379.848 93.1342 384.35 93.0041C389.12 92.8663 393.889 92.7372 398.659 92.6006C403.25 92.4692 407.841 92.3266 412.433 92.2008C417.605 92.0592 422.777 91.9317 427.948 91.7968C433.053 91.6636 438.157 91.5262 443.262 91.3956C448.635 91.2583 454.007 91.1281 459.38 90.9924C464.619 90.8601 469.859 90.7717 475.095 90.5754C479.092 90.4257 483.083 90.1222 487.079 89.928C487.671 89.8992 488.274 90.1837 488.87 90.1754C497.125 90.0609 505.379 89.9332 513.633 89.7823C519.811 89.6694 525.987 89.5133 532.164 89.3858C538.944 89.2457 545.724 89.0702 552.504 88.997ZM202.195 446.636C197.847 462.147 205.188 506.886 199.812 526.465C199.812 528.238 228.424 527.675 285.649 524.775C291.614 510.896 293.719 498.913 291.961 488.827C291.303 485.056 280.08 487.552 279.531 484.578C277.878 475.622 286.983 463.717 283.139 455.724C278.491 455.724 272.494 446.182 259.756 444.752C247.019 443.322 212.883 446.636 202.195 446.636ZM443.04 440.154C438.739 444.864 423.881 453.724 419.234 453.724C415.389 461.717 424.495 473.622 422.841 482.578C422.292 485.552 411.069 483.056 410.412 486.827C408.654 496.913 410.675 509.459 416.476 524.465C473.866 526.238 502.561 526.238 502.561 524.465C498.203 505.981 503.777 454.777 499.428 439.266L498.666 439.266C487.253 439.243 455.488 438.757 443.04 440.154Z" fill="white"/>
</g>
<path fill-rule="evenodd" clip-rule="evenodd" d="M206.708 148.829C210.817 168.509 210.834 188.783 210.835 208.887C210.839 312.811 210.843 416.736 210.847 520.66C210.847 522.331 210.808 524.129 209.82 525.477C208.833 526.825 206.514 527.285 205.552 525.918C205.086 525.257 205.068 524.392 205.066 523.583C204.846 415.089 204.625 306.595 204.405 198.101C204.372 181.643 204.343 165.116 206.708 148.829H206.708Z" fill="#00160A"/>
<path fill-rule="evenodd" clip-rule="evenodd" d="M208.857 139.809C219.882 142.353 229.107 153.23 240.225 151.131C249.438 149.391 254.934 139.345 263.81 136.326C280.624 130.606 300.011 152.202 314.871 142.476C317.567 140.711 319.644 138.07 322.486 136.553C334.636 130.068 350.356 147.514 362.091 140.304C364.812 138.632 366.7 135.858 369.364 134.095C380.806 126.522 394.918 141.488 408.605 140.514C421.108 139.624 431.603 125.42 443.529 129.278C448.471 130.877 452.066 135.36 456.999 136.987C467.738 140.53 479.359 129.336 490.026 133.089C493.558 134.331 496.455 137.112 500.096 137.986C504.618 139.071 509.252 137.013 513.359 134.831C517.466 132.649 521.78 130.216 526.421 130.507C531.062 130.797 535.729 135.265 534.278 139.683C530.915 149.922 530.514 160.864 530.143 171.635C526.181 286.58 522.219 401.525 518.257 516.47C515.551 516.314 514.83 512.69 514.892 509.98C517.709 387.15 520.526 264.319 523.343 141.489C517.967 138.457 512.228 145.19 506.128 146.131C499.748 147.115 494.3 141.62 488.051 139.999C476.217 136.929 462.87 147.963 452.224 141.953C448.614 139.915 446.067 136.163 442.183 134.716C431.335 130.671 423.239 146.453 411.911 148.845C399.626 151.438 388.708 137.481 376.261 139.131C364.739 140.658 356.098 155.157 344.9 152.041C337.381 149.948 331.902 140.152 324.413 142.352C320.084 143.625 317.931 148.446 314.276 151.093C308.538 155.247 300.45 153.254 294.132 150.051C287.814 146.848 281.656 142.494 274.576 142.268C264.143 141.935 255.759 150.514 245.925 154.016C232.353 158.849 215.722 152.475 208.857 139.809Z" fill="#00160A"/>
<path fill-rule="evenodd" clip-rule="evenodd" d="M357.609 158.438C357.711 160.971 355.754 163.06 353.936 164.825C346.819 171.732 339.692 178.658 333.335 186.27C325.617 195.511 318.981 205.816 309.722 213.513C308.745 212.363 309.672 210.635 310.599 209.445C324.062 192.16 338.561 175.681 353.991 160.127C354.977 159.133 356.261 158.058 357.609 158.438V158.438Z" fill="#E7EAEE"/>
<path fill-rule="evenodd" clip-rule="evenodd" d="M456.59 383.523C455.526 384.275 454.193 384.981 452.976 384.515C453.434 383.126 454.347 381.94 455.266 380.802C466.506 366.884 480.837 355.847 495.024 344.948C496.302 343.967 497.981 342.941 499.406 343.692C499.277 344.892 498.353 345.835 497.464 346.652C489.126 354.316 479.155 360.129 471.32 368.307C466.425 373.416 462.369 379.44 456.59 383.523Z" fill="#E7EAEE"/>
<path fill-rule="evenodd" clip-rule="evenodd" d="M225.173 272.003C225.846 270.601 227.727 270.405 229.282 270.402C245.758 270.371 262.234 270.34 278.71 270.308C278.822 235.108 278.312 199.906 277.179 164.723C277.139 163.493 277.122 162.173 277.802 161.146C278.481 160.12 280.143 159.672 280.94 160.61C281.526 197.34 282.111 234.071 282.697 270.801C282.713 271.832 282.708 272.939 282.123 273.788C281.188 275.145 279.257 275.245 277.61 275.209C262.365 274.876 247.12 274.542 231.875 274.209C229.438 274.156 226.656 273.937 225.173 272.003Z" fill="#00160A"/>
<path fill-rule="evenodd" clip-rule="evenodd" d="M175.843 108.159C195.513 246.905 173.572 388.557 187.343 528.012C305.453 527.324 423.563 526.636 541.674 525.948C544.482 525.932 547.652 525.759 549.502 523.646C551.037 521.891 551.154 519.345 551.192 517.014C553.498 375.984 555.804 234.955 558.11 93.9249C467.947 96.3539 377.785 98.7828 287.622 101.212C253.835 102.122 219.923 103.027 186.324 99.3493C308.368 93.4492 430.514 89.6679 552.689 88.0075C556.2 87.9598 560.116 88.068 562.615 90.5338C565.17 93.0538 565.275 97.0724 565.215 100.66C562.86 239.966 560.505 379.272 558.151 518.578C557.783 540.359 557.628 563.126 567.411 582.59C575.089 597.864 589.021 613.091 584.093 629.461C582.891 633.455 580.556 637.289 580.865 641.45C581.667 652.248 597.016 653.642 607.558 651.167C618.1 648.693 632.848 647.819 636.017 658.173C461.71 662.077 287.348 663.513 113 662.48C125.421 658.433 138.39 656.071 151.44 655.478C144.19 639.255 146.085 619.293 156.258 604.725C161.986 596.524 170.155 589.858 173.852 580.563C176.55 573.779 176.576 566.272 176.564 558.971C176.324 408.7 176.083 258.43 175.843 108.159ZM420.611 616.499C391.324 617.511 362.216 623.065 332.927 622.106C319.748 621.674 306.65 619.926 293.497 619.012C261.232 616.77 228.853 619.559 196.631 622.345C183.812 623.454 170.993 624.563 158.174 625.672C156.969 625.776 155.658 625.927 154.799 626.779C153.694 627.876 153.781 629.655 153.945 631.203C154.657 637.919 155.369 644.636 156.081 651.352C156.245 652.897 156.489 654.602 157.678 655.602C158.778 656.529 160.353 656.562 161.792 656.549C298.386 655.314 434.98 654.079 571.574 652.844C573.088 652.83 574.755 652.759 575.863 651.727C576.966 650.701 577.16 649.053 577.287 647.552C578.025 638.785 578.764 630.018 579.503 621.25C526.833 627.726 473.646 614.666 420.611 616.499ZM323.661 613.965C361.114 615.69 398.475 608.725 435.967 609.009C482.071 609.359 528.348 620.645 573.9 613.525C574.971 613.358 576.157 613.11 576.779 612.222C577.676 610.94 576.878 609.197 576.077 607.853C571.091 599.493 566.106 591.133 561.12 582.773C559.891 580.712 558.58 578.568 556.519 577.34C554.29 576.012 551.552 575.973 548.958 575.971C428.84 575.899 308.721 577.483 188.648 580.725C178.198 593.14 167.102 605.011 155.421 616.276C193.746 620.851 232.238 609.586 270.83 610.154C288.488 610.414 306.02 613.152 323.661 613.965ZM183.282 554.761C184.203 561.764 188.122 568.809 194.665 571.47C198.415 572.995 202.59 572.952 206.637 572.886C321.024 571.025 435.412 569.163 549.799 567.302C550.237 559.705 550.676 552.107 551.114 544.51C551.185 543.292 551.23 541.977 550.554 540.962C549.655 539.61 547.841 539.287 546.23 539.091C426.739 524.515 305.321 544.902 185.458 533.797C183.914 540.69 182.36 547.757 183.282 554.761Z" fill="#00160A"/>
<path fill-rule="evenodd" clip-rule="evenodd" d="M355.604 186.27C356.302 185.633 357.029 184.984 357.922 184.673C358.815 184.363 359.923 184.475 360.54 185.191C360.173 186.771 358.791 187.871 357.528 188.888C345.492 198.573 336.857 211.905 325.115 221.945C324.254 222.681 322.727 223.299 322.197 222.298C321.831 221.609 322.386 220.807 322.907 220.227C333.405 208.526 343.997 196.871 355.604 186.27Z" fill="#E7EAEE"/>
<path fill-rule="evenodd" clip-rule="evenodd" d="M221.514 393.711C221.497 391.661 223.323 390.138 224.962 388.907C235.043 381.33 244.39 372.779 252.831 363.41C253.581 362.578 255.095 363.568 255.1 364.688C255.105 365.808 254.247 366.72 253.446 367.503C244.94 375.817 236.404 384.157 226.891 391.297C225.291 392.499 223.515 393.716 221.514 393.711Z" fill="#E7EAEE"/>
<path fill-rule="evenodd" clip-rule="evenodd" d="M286.605 160.254C287.692 159.698 288.951 159.484 290.161 159.647C291.255 196.187 292.151 232.733 292.849 269.283C333.317 268.034 373.84 268.535 414.265 270.783C417.855 233.195 417.77 195.361 417.429 157.604C417.42 156.62 417.425 155.58 417.929 154.734C418.432 153.889 419.624 153.372 420.433 153.932C421.133 154.415 421.219 155.398 421.237 156.248C422.035 194.825 421 233.439 418.134 271.917C418.076 272.693 418 273.519 417.524 274.135C416.728 275.167 415.207 275.183 413.906 275.108C372.318 272.684 330.608 272.345 288.986 274.092C288.907 236.135 288.113 198.18 286.605 160.254Z" fill="#00160A"/>
<path fill-rule="evenodd" clip-rule="evenodd" d="M423.725 525.482C417.472 512.245 415.066 497.218 416.876 482.691C416.938 482.198 417.017 481.675 417.342 481.299C417.496 495.161 420.004 508.993 424.729 522.025C424.973 522.7 425.228 523.407 425.128 524.118C425.029 524.828 424.442 525.527 423.725 525.482H423.725Z" fill="#00160A"/>
<path fill-rule="evenodd" clip-rule="evenodd" d="M451.183 352.627C458.199 345.857 465.215 339.087 472.232 332.317C472.962 331.612 474.277 332.557 474.262 333.572C474.247 334.587 473.469 335.407 472.741 336.115C466.864 341.834 460.987 347.552 455.109 353.271C454.352 354.008 453.476 354.794 452.419 354.779C451.362 354.763 450.422 353.361 451.183 352.627H451.183Z" fill="#E7EAEE"/>
<path fill-rule="evenodd" clip-rule="evenodd" d="M302.106 482.683C319.972 482.748 337.822 481.718 355.659 480.688C376.322 479.496 396.985 478.303 417.647 477.111C422.258 476.845 427.053 476.527 431.073 474.254C426.402 468.794 423.278 462.024 422.156 454.926C422.048 454.244 421.966 453.508 422.284 452.895C422.602 452.282 423.483 451.922 424.008 452.371C424.941 460.072 427.979 467.506 432.706 473.657C433.663 474.903 432.009 476.496 430.548 477.077C425.505 479.081 419.976 479.404 414.557 479.704C398.623 480.586 382.689 481.467 366.755 482.349C346.537 483.468 326.319 484.586 306.085 485.358C302.129 485.509 297.475 485.318 295.218 482.065C293.341 479.36 293.997 475.706 294.772 472.505C296.014 467.379 297.367 462.28 298.83 457.212C299.248 455.764 300.088 454.006 301.593 454.088C298.532 461.15 296.912 468.832 296.861 476.529C296.847 478.622 297.154 481.079 298.969 482.122C299.901 482.657 301.031 482.679 302.106 482.683Z" fill="#00160A"/>
<path fill-rule="evenodd" clip-rule="evenodd" d="M301.187 194.345C300.059 193.839 300.7 192.133 301.483 191.176C310.442 180.233 319.401 169.29 328.36 158.346C328.735 157.888 329.134 157.412 329.683 157.189C330.231 156.967 330.973 157.099 331.235 157.631C331.537 158.241 331.078 158.939 330.645 159.464C321.675 170.334 312.705 181.204 303.735 192.074C303.004 192.96 302.235 193.876 301.187 194.345H301.187Z" fill="#E7EAEE"/>
<path fill-rule="evenodd" clip-rule="evenodd" d="M176.731 107.609C176.571 106.374 176.527 105.123 176.601 103.879C176.613 103.679 176.656 103.439 176.843 103.365C177.15 103.242 177.357 103.686 177.392 104.015C177.525 105.268 177.601 106.698 176.731 107.609H176.731Z" fill="#00160A"/>
<path fill-rule="evenodd" clip-rule="evenodd" d="M494.845 274.587C471.926 274.809 449.007 275.031 426.089 275.254C425.449 275.26 424.747 275.245 424.263 274.827C423.703 274.344 423.643 273.512 423.625 272.772C422.713 234.466 424.086 196.147 425.459 157.855C425.502 156.666 425.575 155.39 426.31 154.454C427.044 153.519 428.701 153.243 429.359 154.234C427.67 192.264 426.822 230.331 426.817 268.399C426.817 269.549 427.203 271.101 428.353 271.057C454.401 270.062 480.487 270.055 506.535 271.036C507.067 271.056 507.691 271.13 507.953 271.592C508.403 272.386 507.337 273.171 506.46 273.423C502.709 274.503 498.748 274.549 494.845 274.587Z" fill="#00160A"/>
<path fill-rule="evenodd" clip-rule="evenodd" d="M130.845 487.507C130.435 487.1 130.025 486.693 129.616 486.285C129.396 486.067 129.165 485.725 129.357 485.482C129.579 485.201 130.023 485.452 130.276 485.706C130.653 486.086 131.031 486.465 131.408 486.845C131.661 487.098 131.908 487.546 131.621 487.761C131.382 487.94 131.056 487.718 130.845 487.507L130.845 487.507Z" fill="#00160A"/>
<path fill-rule="evenodd" clip-rule="evenodd" d="M244.548 318.738C244.792 319.2 244.616 319.768 244.377 320.232C243.827 321.304 242.978 322.188 242.13 323.044C240.468 324.722 238.764 326.36 237.022 327.955C236.431 328.495 235.787 329.055 234.995 329.172C234.203 329.289 233.265 328.737 233.291 327.937C233.307 327.476 233.62 327.087 233.922 326.738C236.308 323.983 238.909 321.415 241.695 319.065C242.118 318.708 242.564 318.347 243.101 318.214C243.638 318.082 244.291 318.249 244.548 318.738Z" fill="#E7EAEE"/>
<path fill-rule="evenodd" clip-rule="evenodd" d="M230.612 256.633C230.437 256.626 230.431 256.299 230.606 256.285C230.782 256.298 230.777 256.627 230.601 256.634L230.612 256.633Z" fill="#00160A"/>
<path fill-rule="evenodd" clip-rule="evenodd" d="M229.048 348.026C228.852 347.333 229.416 346.672 229.959 346.198C231.163 345.146 232.49 344.245 233.788 343.311C238.664 339.804 243.188 335.809 247.271 331.405C247.743 330.895 248.228 330.367 248.862 330.082C249.495 329.797 250.324 329.822 250.796 330.332C251.244 330.818 251.233 331.598 250.946 332.194C250.66 332.79 250.152 333.245 249.656 333.684C246.184 336.758 242.711 339.832 239.238 342.905C236.964 344.918 234.663 346.951 231.981 348.377C231.48 348.644 230.944 348.894 230.376 348.894C229.809 348.893 229.203 348.572 229.048 348.026H229.048Z" fill="#E7EAEE"/>
<path fill-rule="evenodd" clip-rule="evenodd" d="M447.941 332.13C447.451 332.656 446.952 333.209 446.291 333.492C445.63 333.775 444.754 333.701 444.328 333.122C443.642 332.19 444.542 330.939 445.391 330.153C450.455 325.465 455.758 321.035 461.274 316.887C462.313 316.106 463.621 315.294 464.825 315.784C464.957 315.837 465.093 315.918 465.138 316.053C465.174 316.16 465.143 316.277 465.108 316.385C464.575 318.025 463.167 319.202 461.814 320.272C457.036 324.049 452.09 327.671 447.941 332.13Z" fill="#E7EAEE"/>
<path fill-rule="evenodd" clip-rule="evenodd" d="M307.019 488.819C307.891 492.789 309.251 499.418 308.775 503.455C307.917 510.732 305.93 515.958 304.315 523.106C304.056 524.248 302.541 525.02 301.458 525.465C300.788 524.537 301.072 523.258 301.372 522.154C304.336 511.262 306.23 500.08 307.019 488.819Z" fill="#00160A"/>
<path fill-rule="evenodd" clip-rule="evenodd" d="M370.96 524.218C370.387 524.847 369.364 524.263 368.754 523.669C365.238 520.246 362.06 516.478 359.28 512.435C359.145 512.24 358.857 512.471 358.749 512.682C356.719 516.623 354.69 520.564 352.661 524.505C352.574 524.674 352.456 524.864 352.266 524.879C351.884 524.909 351.88 524.311 352.034 523.959C354.025 519.388 356.017 514.817 358.008 510.246C358.099 510.038 358.194 509.823 358.365 509.672C359.017 509.097 359.968 509.877 360.48 510.581C363.453 514.664 366.746 518.514 370.318 522.085C370.902 522.668 371.516 523.608 370.96 524.218Z" fill="#00160A"/>
<path fill-rule="evenodd" clip-rule="evenodd" d="M220.697 420.529C219.922 421.639 219.971 423.107 220.052 424.459L220.909 438.909C221.009 440.585 221.203 442.459 222.492 443.534C223.695 444.537 225.429 444.486 226.992 444.382L257.756 442.335C266.641 441.744 276.333 441.369 283.566 446.562C296.981 456.193 317.8 453.186 327.942 440.153C329.131 438.624 331.341 438.463 333.277 438.431L391.69 437.473L391.846 437.47C394.481 437.426 397.924 437.368 399.194 439.362C410.01 456.346 438.247 453.153 452.274 439.466C454.972 436.833 459.07 436.417 462.831 436.145L499.914 433.465C504.228 433.153 507.481 429.031 508.275 424.78C509.068 420.528 507.976 416.176 506.891 411.989C506.556 410.696 506.128 409.275 504.983 408.588C504.139 408.082 503.093 408.099 502.11 408.131L424.582 410.668C423.081 368.128 423.834 325.508 426.839 283.048C455.301 281.673 483.806 281.201 512.298 281.634C513.152 279.308 509.618 278.035 507.142 278.098L427.688 280.114C426.315 280.149 424.802 280.24 423.817 281.197C422.834 282.154 422.701 283.662 422.629 285.032C420.431 327.029 419.766 369.106 420.636 411.151C419.028 411.416 417.344 411.206 415.85 410.555L416.456 283.756C416.461 282.617 416.398 281.32 415.527 280.587C414.83 280.001 413.836 279.973 412.925 279.974C371.484 280.018 330.044 280.576 288.616 281.648L290.913 415.495L285.537 416.137C283.473 371.956 282.758 327.711 283.392 283.486C283.427 281.05 280.223 280.168 277.789 280.061C259.431 279.256 241.039 279.238 222.68 280.007C225.463 282.983 230.003 283.275 234.076 283.369L279.701 284.421C278.966 328.084 279.615 371.77 281.646 415.392L225.653 418.678C223.827 418.785 221.744 419.029 220.697 420.529ZM292.531 283.793C332.366 283.584 372.199 283.207 412.031 282.662C412.853 282.651 413.111 283.76 413.104 284.582L411.914 411.202L294.674 415.717C293.59 371.749 292.876 327.772 292.531 283.793ZM308.972 426.612C306.686 426.703 304.83 428.453 303.406 430.243C303.178 430.529 302.954 430.82 302.729 431.112C301.543 432.651 300.339 434.213 298.623 435.08C297.019 435.889 295.163 435.986 293.368 436.066L224.676 439.155L223.424 422.84C316.093 417.642 408.84 413.807 501.622 411.336C502.259 411.319 502.958 411.323 503.448 411.73C504.033 412.215 504.093 413.076 504.107 413.836L504.401 429.376C482.694 432.56 460.709 433.262 438.781 433.959C435.707 434.057 432.422 434.1 429.826 432.451C428.056 431.327 426.848 429.567 425.65 427.821C425.369 427.411 425.089 427.002 424.802 426.603C423.292 424.501 421.265 422.446 418.685 422.234C416.105 422.021 413.373 424.768 414.524 427.086C412.157 423.964 406.078 425.844 405.889 429.758C405.146 426.785 401.352 425.036 398.609 426.402C395.867 427.768 394.977 431.85 396.903 434.234L330.08 435.403C330.167 432.987 328.269 430.655 325.885 430.251C323.5 429.847 320.94 431.423 320.226 433.734C320.285 430.079 314.556 428.134 312.378 431.07C313.553 429.107 311.258 426.522 308.972 426.612ZM414.924 447.133C411.534 446.39 408.022 445.332 405.609 442.837C404.383 441.568 403.517 440.002 402.667 438.456L399.418 432.55C399.031 431.847 398.631 431.082 398.733 430.285C398.834 429.489 401.369 427.065 403.629 429.758C405.889 432.451 406.718 433.52 408.459 436.896C408.602 437.174 408.746 437.462 408.892 437.754C410.055 440.088 411.354 442.691 413.851 442.83C414.332 441.009 413.5 439.125 412.69 437.425L410.426 432.678C409.707 431.17 409.015 429.282 410.01 427.94C415.198 429.69 418.091 435.09 420.323 440.089C420.604 440.718 420.901 441.373 421.441 441.8C421.981 442.227 422.841 442.334 423.325 441.845C423.963 441.2 423.556 440.123 423.129 439.324C421.004 435.349 419.128 431.242 417.518 427.032C417.33 426.54 417.161 425.933 417.498 425.528C417.906 425.037 418.694 425.242 419.267 425.523C422.817 427.26 425.676 430.366 427.114 434.047C427.225 434.33 427.328 434.618 427.431 434.905C427.768 435.844 428.105 436.784 428.701 437.576C430.536 440.012 434.053 440.217 437.103 440.202C437.93 440.198 438.788 440.188 439.539 439.839C440.289 439.49 440.903 438.701 440.774 437.883C440.653 437.114 441.729 436.805 442.507 436.812L452.133 436.897C447.308 442.656 439.556 444.856 432.288 446.76C430.231 447.299 428.164 447.839 426.05 448.073C422.334 448.484 418.576 447.934 414.924 447.133ZM278.708 441.494C281.836 440.838 285.007 440.391 288.194 440.156C287.937 441.252 288.674 442.378 289.631 442.968C291.864 444.346 294.893 443.379 296.84 441.62C298.152 440.435 299.135 438.958 300.12 437.479C300.596 436.764 301.073 436.048 301.587 435.364C303.625 432.656 309.089 426.492 310.171 429.376C310.807 431.07 309.233 434.207 307.48 437.7C306.25 440.153 304.931 442.78 304.227 445.207C306.428 443.534 307.35 442.002 308.327 440.089C309.453 437.883 311.789 434.786 313.609 432.55C314.428 431.543 315.649 430.941 316.805 431.458C317.961 431.975 318.306 433.374 318.001 434.047C317.284 435.624 316.83 436.785 316.376 437.946C315.923 439.107 315.469 440.268 314.752 441.845C314.707 441.945 314.636 442.088 314.551 442.26C314.12 443.131 313.325 444.739 313.609 445.215C313.901 445.705 314.697 444.857 315.509 443.992C315.7 443.788 315.893 443.583 316.08 443.394C316.365 443.106 316.849 442.254 317.483 441.138C319.023 438.428 321.445 434.166 324.037 432.678C326.164 431.458 327.102 434.582 326.656 435.525C325.834 437.263 324.961 438.975 324.037 440.66C322.812 442.895 320.458 445.13 318.481 446.739C315.97 448.783 312.691 449.622 309.481 450.042C298.321 451.499 287.63 448.354 278.708 441.494ZM292.531 442.335C290.892 442.493 289.631 440.156 289.631 440.156L296.379 439.666C296.379 439.666 294.171 442.176 292.531 442.335Z" fill="#00160A"/>
<defs>
<clipPath id="clip0_0_5097">
<rect width="492" height="573" fill="white" transform="translate(139 89)"/>
</clipPath>
</defs>
</svg>
