<svg width="674" height="571" viewBox="0 0 674 571" fill="none" xmlns="http://www.w3.org/2000/svg">
    <path fill-rule="evenodd" clip-rule="evenodd"
        d="M321.128 519.893C295.675 475.672 310.621 329.957 325.756 366.977C327.435 371.082 325.105 390.064 322.263 407.548C319.048 427.323 315.961 458.973 318.466 478.83C319.804 489.44 330.035 535.368 321.128 519.893Z"
        fill="#64FCD9" />
    <path fill-rule="evenodd" clip-rule="evenodd"
        d="M0.431381 257.91C3.20136 198.876 39.4634 96.2508 219.906 86.5332C437.48 74.8166 461.874 -87.0281 544.388 64.1825C626.899 215.393 745.197 374.566 618.262 497.382C500.468 611.358 346.42 582.256 148.509 483.275C4.12952 411.057 -2.34007 316.942 0.429661 257.911L0.431381 257.91Z"
        fill="#E7EAEE" />
    <path
        d="M362.588 302.173C362.588 302.173 355.013 307.246 350.038 300.05L348.187 298.795C348.187 298.795 342.26 300.567 346.571 290.509C346.571 290.509 348.623 287.826 348.187 285.934C348.187 285.934 349.506 287.826 352.491 285.934C352.491 285.934 354.336 285.891 356.297 286.96L357.285 285.934C357.285 285.934 353.531 282.573 358.786 278.35C358.786 278.35 360.44 275.916 360.362 273.96C360.362 273.96 360.843 276.352 362.647 276.301C362.647 276.301 366.697 275.701 368.155 277.67C368.155 277.67 372.589 270.162 377.48 269.19H380.551C380.551 269.19 376.829 268.269 377 262.8L377.45 261.478C377.45 261.478 373.872 259.598 375.537 255.876C375.537 255.876 377.313 253.386 379.575 252.511C379.575 252.511 381.686 251.337 381.977 250C381.977 250 382.415 252.026 385.064 252.293C385.064 252.293 390.073 252.202 390.563 255.872C390.563 255.872 390.656 259.463 390.202 262.048C390.202 262.048 392.356 257.225 402.191 262.974C402.191 262.974 404.56 265.488 407.402 263.954C407.402 263.954 404.942 265.52 405.436 268.376C405.436 268.376 406.487 272.728 404.222 275.293C404.222 275.293 410.209 275.649 414.174 278.775C414.174 278.775 418.499 282.893 415.938 290.373L414.99 292.108C414.99 292.108 418.236 290.594 420.188 294.647C420.188 294.647 421.755 295.69 423 294.511C423 294.511 421.747 295.664 421.631 297.663C421.631 297.663 422.435 306.087 417.693 307.11C417.693 307.11 414.421 306.802 412.929 305.316L411.321 304.702C411.321 304.702 409.835 308.891 404.963 309.082C404.963 309.082 401.298 308.81 399.992 307.305L398.45 305.814C398.45 305.814 398.365 308.936 395.974 309.878C395.974 309.878 388.443 311.44 385.81 303.385L384.369 301.346L383.267 301.481C383.267 301.481 382.141 306.198 375.387 306.169C375.387 306.169 367.021 307.841 362.588 302.173Z"
        fill="white" />
    <path fill-rule="evenodd" clip-rule="evenodd"
        d="M341.576 321.233C345.568 320.083 349.057 316.584 349.233 312.436C349.363 309.342 347.152 305.995 344.354 305.287C339.824 304.141 328.903 302.345 321.323 302.024C323.454 296.263 325.584 290.502 327.715 284.741C329.532 286.475 330.664 284.969 330.635 284.876C329.474 281.06 329.673 275.172 334.428 273.061C342.319 269.558 346.731 258.149 340.787 251.89C338.824 249.823 336.177 248.671 333.533 247.522C332.617 247.123 331.702 246.725 330.816 246.289C327.372 244.595 323.939 241.66 323.931 237.824C330.077 237.021 335.305 232.422 337.954 226.821C340.603 221.221 340.948 214.764 340.125 208.625C340.095 208.403 340.065 208.178 340.034 207.952C339.533 204.29 338.976 200.222 341.392 197.502C346.486 191.77 343.936 182.854 341.119 175.724C340.434 173.99 339.272 171.936 337.412 172.069C336.327 172.148 335.468 172.991 334.772 173.825C331.096 178.231 329.02 183.942 329.008 189.679C324.728 189.819 322.383 187.546 319.409 184.466C317.198 182.176 313.37 183.342 308.876 184.71C306.844 185.329 304.675 185.99 302.458 186.39C299.749 182.172 302.83 179.741 303.052 183.755C305.534 179.254 306.105 173.74 304.598 168.827C303.181 167.427 300.409 167.944 299.592 169.759C290.99 153.647 273.835 142.428 255.616 141C256.154 143.169 254.122 145.294 251.926 145.716C249.73 146.136 247.501 145.354 245.402 144.584C254.179 148.094 267.345 171.194 263.639 192.147C260.596 209.351 249.334 225.948 246.064 230.767C245.844 231.092 245.66 231.363 245.517 231.577C244.914 230.739 236.761 232.122 235.819 233.788C223.507 255.55 231.467 286.398 252.774 299.498C252.866 299.555 252.988 299.629 253.137 299.72C255.477 301.147 264.423 306.599 266.403 309.723C266.447 309.791 266.484 309.892 266.528 310.011C266.741 310.588 267.117 311.604 269.129 311.518C268.228 317.322 268.073 324.711 273.287 327.42C275.725 328.686 278.639 328.437 281.372 328.155L285.147 327.767C289.766 327.291 294.385 326.816 299.003 326.34C303.107 325.918 305.337 320.697 303.972 316.805C302.609 312.914 298.858 310.36 295.055 308.761C296.584 308.034 298.114 307.307 299.643 306.58C301.172 305.853 302.701 305.127 304.231 304.399C302.312 308.815 307.883 312.612 312.415 314.244C315.424 315.327 318.432 316.411 321.44 317.495C322.865 318.008 324.291 318.522 325.717 319.035C330.826 320.875 336.357 322.735 341.576 321.233ZM476.1 424.341C479.48 422.614 482.856 420.889 486.511 419.914C492.463 418.32 484.191 418.641 484.191 418.641C488.436 415.181 506.467 420.229 506.717 429.837C506.811 433.419 502.234 439.849 494.908 444.211C491.925 445.987 488.649 446.851 485.394 447.71C482.722 448.416 480.063 449.117 477.592 450.316C473.497 452.302 469.808 456.711 468 459.053C465.826 461.868 467.861 462.937 469.608 463.854C471.098 464.637 472.378 465.31 470.658 466.863C457.96 478.329 464.149 503.632 466.265 512.284C466.595 513.632 466.826 514.576 466.871 515C466.909 509.663 472.326 505.789 477.592 504.881C480.701 504.349 483.857 504.514 487.019 504.679C489.212 504.793 491.408 504.908 493.592 504.79C503.344 504.254 512.691 498.734 517.87 490.464C517.967 492.979 519.406 495.409 521.569 496.703C525.381 483.559 531.911 471.207 540.625 460.657C541.231 459.922 541.852 459.188 542.476 458.45C546.688 453.466 551.031 448.327 551.868 441.955C552.633 436.121 550.012 429.981 545.318 426.427C545.214 426.348 545.107 426.268 545 426.187C543.709 425.219 542.272 424.14 542.272 422.567C542.272 421.13 544.645 420.62 545.181 421.482C545.214 421.691 545.24 421.907 545.26 422.122C545.319 421.854 545.286 421.646 545.181 421.482C543.841 412.618 532.695 408.999 523.599 407.901C514.288 406.784 502.866 404.511 500.224 395.523C493.83 373.76 491.249 350.886 492.634 328.249C492.767 326.077 492.936 323.904 493.105 321.73C493.659 314.6 494.214 307.464 493.497 300.364C492.639 291.883 489.99 283.701 487.357 275.594C485.654 270.349 483.878 264.968 480.374 260.707C476.871 256.446 472.083 254.387 465.833 254.807C464.888 253.816 464.726 251.974 464.997 250.309C465.398 247.865 466.492 246.242 467.508 246.366C469.226 246.576 466.141 242.415 464.263 242.961C463.059 243.311 461.925 244.192 461.075 244.852C460.259 245.486 459.705 245.916 459.606 245.473C458.961 242.589 457.905 238.91 455.982 240.119C448.165 245.034 445.89 255.887 446.942 256.361C446.455 256.207 441.765 254.764 441.282 255.766C439.255 259.973 435.068 262.98 431.005 265.896C425.581 269.791 420.379 273.526 420.844 279.744C421.178 284.194 424.791 287.82 428.85 289.682C429.262 289.871 430.594 290.143 432.371 290.505C438.581 291.771 450.214 294.143 446.942 297.958C442.843 302.736 421.716 309.253 410.776 312.628C408.349 313.377 406.423 313.971 405.296 314.357C399.865 311.705 407.093 324.739 428.983 338.53C436.958 343.555 430.318 357.175 426.08 365.868C425.988 366.057 425.897 366.244 425.807 366.429C424.587 368.933 423.203 371.441 421.812 373.962C416.793 383.057 411.685 392.314 413.912 402.114C414.384 404.192 415.181 406.177 415.977 408.161C416.87 410.387 417.762 412.611 418.195 414.963C420.336 426.578 408.174 438.323 396.634 435.795C392.569 434.9 389.656 440.883 391.968 444.339C394.281 447.801 399.298 448.402 403.255 447.102C406.037 446.192 408.493 444.574 410.95 442.956C411.986 442.273 413.021 441.591 414.082 440.962C417.658 438.832 421.99 437.251 425.941 438.565C424.759 439.756 423.396 440.768 422.036 441.777C419.981 443.302 417.936 444.82 416.542 446.939C414.264 450.401 415.433 456.496 419.475 456.796C388.674 455.327 436.392 458.769 423.624 456.862C425.947 454.951 429.103 455.581 432.209 456.201C433.17 456.393 434.126 456.584 435.051 456.698C438.964 457.182 444.138 453.386 441.667 450.316C437.418 445.031 441.717 436.755 447.731 433.626C451.331 431.749 455.327 430.972 459.336 430.193C462.025 429.67 464.719 429.147 467.304 428.289C470.354 427.278 473.228 425.809 476.1 424.341ZM419.69 456.809L419.475 456.796C419.545 456.803 419.617 456.809 419.69 456.809ZM446.983 256.373L446.942 256.361C446.955 256.367 446.969 256.371 446.983 256.373Z"
        fill="white" />
    <path fill-rule="evenodd" clip-rule="evenodd"
        d="M278.537 257.36C278.242 256.293 262.655 266.462 274.817 285.322C286.978 304.183 293.756 302.574 290.367 309.406C290.367 309.406 294.519 308.785 298.358 303.288C302.199 297.791 304.719 285.39 294.432 276.542C284.145 267.695 281.915 269.596 278.537 257.36Z"
        fill="#E7EAEE" />
    <mask id="mask0_871_449" style="mask-type:luminance" maskUnits="userSpaceOnUse" x="389" y="312" width="15"
        height="18">
        <path fill-rule="evenodd" clip-rule="evenodd"
            d="M397.283 321.523C395.624 321.846 394.309 323.027 392.836 323.756C390.262 325.029 388.905 321.403 389.236 319.606C389.47 318.335 389.796 317.702 390.655 316.787C391.009 316.409 391.97 315.463 392.402 315.177C392.732 314.959 393.527 314.199 393.527 314.199C393.527 314.199 393.53 312.884 393.259 312.495C393.578 312.988 394.715 313.614 394.715 313.614C394.715 313.614 396.131 313.288 396.805 313.298C398.653 313.326 399.254 313.379 400.939 314.119C402.277 314.706 403.886 316.879 403.191 318.478C402.864 319.229 402.206 319.5 401.458 319.557C400.884 319.6 400.098 319.629 399.39 319.838C400.188 319.754 401.113 319.181 401.868 320.023C402.373 320.587 402.699 321.375 402.817 322.097C403.187 324.358 403.351 326.858 401.678 328.63C401.678 328.63 397.891 331.128 394.016 325.055"
            fill="white" />
    </mask>
    <g mask="url(#mask0_871_449)">
        <path
            d="M392.858 323.906C392.858 323.906 387.14 322.733 389.835 317.622C389.835 317.622 393.275 311.391 398.858 313.109C398.858 313.109 405.059 314.883 403.056 318.332C403.056 318.332 401.414 319.318 402.828 323.862C402.828 323.862 403.261 327.479 401.023 328.712C401.023 328.712 396.453 330.705 393.32 324.493L392.858 323.906Z"
            fill="white" />
    </g>
    <path fill-rule="evenodd" clip-rule="evenodd"
        d="M381.514 249.529L380.147 251.128C377.435 251.979 375.055 253.514 374.207 255.416C373.521 256.954 373.697 258.777 375.371 260.779C375.808 261.249 376.305 261.633 376.846 261.937C376.771 262.013 376.715 262.11 376.691 262.222C376.691 262.222 376.114 263.615 376.707 265.587C376.924 266.311 377.361 267.064 378.013 267.851L377.99 267.857C376.295 268.242 374.811 268.98 373.557 269.895C373.364 269.52 372.969 269.264 372.515 269.265C371.87 269.265 371.348 269.782 371.348 270.418C371.442 270.512 371.487 270.589 371.533 270.666C371.599 270.779 371.665 270.892 371.883 271.058C371.938 271.099 371.979 271.142 372.014 271.201C371.538 271.664 371.11 272.143 370.728 272.62C369.709 273.895 369.013 275.127 368.602 275.95C367.957 275.426 367.184 274.996 366.337 274.694C365.164 274.276 363.851 274.141 362.551 274.322C362.446 274.244 362.24 274.09 362.108 273.98C361.718 273.654 361.388 273.307 361.388 273.307C361.046 272.97 360.55 272.835 360.082 272.952C359.613 273.069 359.242 273.42 359.103 273.877C359.103 273.877 358.587 275.587 358.24 276.289C358.23 276.31 358.214 276.347 358.214 276.347C358.214 276.347 358.264 276.286 358.284 276.264C357.653 277.021 357.131 277.709 356.735 278.361C355.769 279.946 355.383 281.228 355.346 282.253C355.297 283.576 355.738 284.496 356.264 285.118C355.657 284.841 355.004 284.628 354.336 284.515C353.4 284.358 352.44 284.426 351.516 284.76C351.029 284.937 350.605 284.935 350.256 284.872C349.647 284.761 349.306 284.376 349.306 284.376C349.013 284.076 348.584 283.947 348.172 284.037C347.759 284.127 347.424 284.422 347.287 284.816C347.287 284.816 346.618 286.541 346.058 287.859C345.848 288.354 345.656 288.786 345.527 289.013C345.093 289.808 344.711 290.715 344.468 291.752C344.265 292.619 344.163 293.576 344.167 294.622C344.281 298.091 345.768 299.168 347.47 299.231C347.98 299.25 348.53 299.178 349.089 299.014C349.259 299.351 349.517 299.818 349.877 300.352C350.24 300.889 350.709 301.456 351.289 302.012C351.705 302.409 352.183 302.783 352.717 303.095C353.497 303.551 354.386 303.879 355.324 304.046C357.214 304.383 359.28 304.091 361.429 302.631C361.476 302.599 361.522 302.566 361.568 302.533L361.568 302.533C361.662 302.467 361.757 302.4 361.858 302.34C362.004 302.252 362.154 302.17 362.316 302.098C362.376 302.071 362.436 302.045 362.496 302.02C363.03 302.842 364.043 304.016 365.846 304.987C367.553 305.906 370.024 306.609 373.509 306.601C378.038 306.45 380.975 305.293 382.552 303.777C384.564 301.843 384.711 299.341 383.171 297.118C382.267 295.816 381.03 294.818 379.626 294.088C379.881 293.518 380.246 292.435 380.152 291.045C380.103 290.315 379.882 289.524 379.465 288.688C379.074 287.903 378.476 287.09 377.596 286.324C376.956 285.766 376.141 285.263 375.172 284.772C375.614 284.638 376.129 284.438 376.694 284.171C377.069 283.995 377.49 283.766 377.979 283.481C377.536 284.353 377.335 284.982 377.335 284.982C377.212 285.281 377.358 285.622 377.662 285.743C377.964 285.865 378.31 285.721 378.433 285.422C378.433 285.422 379.235 283.938 380.661 282.592C381.736 281.576 383.2 280.685 385.063 280.756C386.184 280.799 387.42 281.235 388.86 282.153C389.921 282.83 391.096 283.735 392.342 285C393.239 285.874 393.893 286.716 394.339 287.517C394.234 287.551 394.133 287.6 394.038 287.665C393.508 288.028 393.377 288.747 393.745 289.269C393.745 289.269 394.199 289.792 395.101 290.382C395.053 291.418 394.622 292.323 393.939 293.062C392.62 294.49 390.509 295.399 388.668 295.227C387.898 295.155 387.215 294.828 386.679 294.379C386.36 294.111 386.173 293.742 386.015 293.336C385.706 292.777 384.996 292.571 384.43 292.876C383.864 293.18 383.655 293.881 383.964 294.439C384.708 295.466 385.711 296.128 386.93 296.403C386.737 296.497 386.543 296.602 386.347 296.718C384.709 297.702 384.159 298.874 384.217 300.22C384.271 301.495 385.017 303.024 385.982 304.814C387.651 307.836 390.785 309.496 393.467 309.763C396.307 310.047 398.56 308.858 398.379 306.535C398.369 306.213 398.095 305.96 397.768 305.969C397.442 305.98 397.184 306.25 397.195 306.572C397.182 307.326 396.721 307.795 396.058 308.035C395.123 308.375 393.82 308.25 392.503 307.777C390.747 307.144 388.983 305.813 388.057 303.795C388 303.674 387.943 303.554 387.887 303.437L387.886 303.435L387.886 303.435C387.28 302.158 386.77 301.083 386.773 300.17C386.774 299.679 387.081 299.325 387.691 298.987C389.464 297.983 391.04 298.494 392.524 299.572C394.374 300.916 396.099 303.067 397.74 305.114L397.74 305.115C398.196 305.683 398.645 306.244 399.089 306.777C401.08 309.13 403.574 309.618 405.86 309.181C408.748 308.629 411.227 306.557 411.776 305.299C411.876 305.069 411.989 304.785 412.101 304.455C412.135 304.716 412.26 304.968 412.474 305.159C414.032 306.257 415.347 306.736 416.492 306.894C417.66 307.055 418.651 306.887 419.524 306.383C421.38 305.313 422.616 302.814 422.997 300.299C423.072 299.811 423.074 299.121 423.048 298.417C423.019 297.645 422.948 296.86 422.895 296.351C423.282 295.907 423.907 295.169 424.135 294.787C424.82 293.642 423.873 292.929 423.442 292.783C423.068 292.672 422.669 292.74 422.358 292.954C422.322 292.924 422.261 292.998 422.206 293.077C422.177 293.104 422.15 293.132 422.123 293.162L422.112 293.176C422.067 293.186 422.021 293.194 421.974 293.199C421.946 293.162 421.919 293.129 421.892 293.099C421.161 291.841 420.066 290.841 418.682 290.4C418.236 290.257 417.758 290.17 417.251 290.152C417.862 289.333 418.264 288.372 418.479 287.342C418.774 285.929 418.694 284.39 418.397 282.991C418.043 281.327 417.38 279.855 416.668 278.962C415.374 277.347 411.414 274.755 407.702 274.619C407.194 274.6 406.695 274.634 406.203 274.711C406.527 274.182 406.772 273.619 406.946 273.038C407.24 272.06 407.349 271.033 407.307 270.038C407.24 268.442 406.832 266.947 406.455 265.851C406.475 265.905 406.489 266.038 406.425 266.024C405.561 265.833 408.373 263.967 408.373 263.967C408.656 263.806 408.753 263.448 408.59 263.169C408.426 262.89 408.064 262.794 407.78 262.955C407.78 262.955 406.182 263.68 405.269 264.501C404.626 265.079 404.43 265.788 404.521 266.348C404.674 267.183 404.768 268.264 404.752 269.416C404.739 270.343 404.605 271.305 404.308 272.227C403.846 273.665 402.906 274.993 400.92 275.73L397.475 274.715C397.111 274.586 396.705 274.68 396.438 274.955C396.438 274.955 396.248 275.191 395.9 275.544L395.853 275.557C394.422 275.972 393.369 276.868 392.662 277.896C392.352 278.044 392.026 278.178 391.688 278.29C391.209 278.45 390.698 278.546 390.179 278.566C389.458 278.593 388.761 278.398 388.045 278.125C387.651 278.041 387.261 278.163 386.99 278.419C386.369 278.285 385.778 278.232 385.22 278.243C386.409 277.084 387.212 275.996 387.689 275.012C388.346 273.656 388.39 272.435 388.042 271.397C387.75 270.524 387.122 269.755 386.192 269.136C386.333 269.026 386.476 268.911 386.621 268.792C387.193 268.323 387.746 267.763 388.303 267.199C388.52 266.98 388.737 266.76 388.956 266.544C389.11 266.394 389.273 266.263 389.438 266.13L389.438 266.13L389.465 266.109C389.59 266.008 389.71 265.908 389.825 265.808C389.852 265.864 389.88 265.92 389.909 265.976C390.592 267.308 391.709 268.513 392.675 269.556L392.769 269.657C392.951 269.853 393.113 270.05 393.268 270.239L393.269 270.24L393.269 270.24C393.303 270.282 393.338 270.324 393.372 270.365C394.131 271.281 394.824 271.858 395.219 272.069C395.832 272.264 396.491 271.932 396.689 271.326C396.887 270.721 396.549 270.071 395.936 269.876C395.759 269.856 395.457 269.814 395.104 269.622C394.666 269.383 394.145 269.084 393.67 268.632C393.012 268.008 392.455 267.151 391.988 266.286C391.166 264.764 390.745 263.056 391.98 261.836C392.419 261.388 393.056 261.294 393.751 261.269C394.51 261.24 395.342 261.388 396.209 261.565C397.541 261.838 398.925 262.231 400.165 262.642C402.412 263.385 404.161 264.084 404.161 264.084C404.441 264.251 404.805 264.162 404.975 263.886C405.144 263.611 405.055 263.251 404.775 263.084C404.775 263.084 403.225 261.843 401.057 260.638C400.423 260.286 399.738 259.955 399.026 259.656C398.311 259.356 397.571 259.1 396.835 258.916C395.952 258.696 395.073 258.58 394.258 258.589C392.556 258.606 391.103 259.127 390.176 260.269C389.41 261.246 389.109 262.309 389.163 263.391C388.937 263.494 388.743 263.669 388.62 263.903C388.607 263.956 388.594 264.01 388.582 264.063C388.476 264.509 388.374 264.944 388.123 265.362C388.041 265.499 387.949 265.63 387.84 265.749C387.595 266.017 387.301 266.237 387.011 266.454L386.975 266.481C385.986 267.221 384.919 267.783 384.091 268.162C383.567 267.996 382.996 267.86 382.381 267.756C382.15 267.587 381.908 267.415 381.672 267.252C380.899 266.721 380.185 266.299 380.185 266.299L380.348 266.422C379.564 265.854 379.047 265.27 378.697 264.71C377.92 263.465 377.848 262.471 377.848 262.471C377.854 262.446 377.858 262.421 377.86 262.397C378.822 262.74 379.88 262.88 380.965 262.841C382.059 262.802 383.165 262.607 384.186 262.327C386.647 261.651 388.574 260.593 388.574 260.593C388.874 260.464 389.011 260.119 388.88 259.824C388.749 259.528 388.4 259.393 388.1 259.522C388.1 259.522 384.366 260.7 381.003 260.456C379.632 260.357 378.308 260.035 377.477 259.004C376.354 257.76 376.302 256.665 376.982 255.73C377.792 254.616 379.269 253.694 380.898 253.033C381.164 252.924 381.564 252.63 381.918 252.183C382.074 251.986 382.233 251.761 382.38 251.543C382.683 251.801 383.084 252.082 383.625 252.335C384.238 252.634 384.942 252.684 385.682 252.736C386.306 252.779 386.957 252.825 387.601 253.024C387.852 253.101 388.093 253.225 388.327 253.385C388.924 253.795 389.352 254.515 389.742 255.636C390.03 256.205 390.731 256.437 391.308 256.153C391.885 255.87 392.12 255.177 391.832 254.608C390.892 253.233 389.985 252.519 389.053 252.111C388.692 251.953 388.342 251.829 387.989 251.732C387.462 251.586 386.934 251.522 386.425 251.461C385.676 251.372 384.969 251.287 384.37 250.951C384.02 250.747 383.763 250.535 383.567 250.343C383.23 250.011 383.153 249.754 383.153 249.754C383.054 249.415 382.762 249.164 382.407 249.116C382.054 249.067 381.703 249.229 381.514 249.529ZM421.834 293.681C421.632 293.622 421.498 293.494 421.52 293.283C421.56 292.885 421.708 292.894 421.892 293.099C421.912 293.133 421.932 293.167 421.951 293.201L421.974 293.199C422.053 293.304 422.135 293.437 422.217 293.583C421.998 293.566 421.881 293.606 421.834 293.681ZM421.994 293.714C421.937 293.707 421.884 293.696 421.834 293.681C421.787 293.757 421.811 293.867 421.875 293.991C421.854 294.104 421.862 294.219 421.9 294.332L421.908 294.356C421.96 294.325 422.01 294.294 422.056 294.264C422.077 294.29 422.098 294.316 422.12 294.341L422.159 294.32L422.153 294.297C422.143 294.27 422.135 294.243 422.128 294.216C422.512 293.953 422.649 293.733 422.283 293.632C422.292 293.619 422.302 293.606 422.313 293.593C422.279 293.589 422.247 293.585 422.217 293.583L422.238 293.62L422.219 293.616L422.093 293.593L422.087 293.6C422.051 293.638 422.02 293.676 421.994 293.714ZM422.223 293.721C422.19 293.777 422.165 293.834 422.149 293.891C422.108 293.999 422.102 294.108 422.128 294.216C422.105 294.232 422.081 294.248 422.056 294.264C421.983 294.171 421.919 294.078 421.875 293.991C421.88 293.962 421.887 293.933 421.896 293.904C421.917 293.84 421.95 293.777 421.994 293.714C422.067 293.722 422.144 293.725 422.223 293.721ZM422.261 293.662L422.29 293.716C422.268 293.718 422.245 293.72 422.223 293.721L422.229 293.712L422.238 293.696C422.245 293.685 422.253 293.673 422.261 293.662ZM422.261 293.662C422.268 293.652 422.275 293.642 422.283 293.632L422.273 293.629C422.262 293.626 422.25 293.623 422.238 293.62L422.261 293.662ZM422.206 293.077C422.192 293.098 422.178 293.119 422.165 293.138L422.146 293.168C422.294 293.13 422.403 293.066 422.378 292.988C422.373 292.971 422.366 292.96 422.358 292.954L422.325 292.977C422.301 292.996 422.278 293.015 422.253 293.033L422.206 293.077ZM372.643 273.498C371.125 274.812 370.076 276.19 369.568 276.922C370.085 277.58 370.423 278.32 370.52 279.099C370.659 280.22 370.345 281.428 369.301 282.615C368.858 283.119 368.263 283.594 367.561 284.132L367.489 284.188L367.488 284.188C367.052 284.522 366.585 284.879 366.046 285.251C365.56 285.585 365.049 285.92 364.46 286.27C363.862 286.509 363.181 286.224 362.939 285.635C362.697 285.045 362.986 284.373 363.583 284.134L363.656 284.117L363.656 284.117C364.231 283.985 364.749 283.866 365.231 283.695C365.813 283.49 366.333 283.288 366.766 283.013C368.541 281.882 369.051 280.503 368.808 279.389C368.622 278.541 367.918 277.865 367.047 277.373C365.853 276.699 364.262 276.461 362.78 276.871C362.437 276.961 361.944 276.912 361.404 276.66C361.314 276.617 361.219 276.566 361.121 276.509C361.082 276.615 361.041 276.719 361.001 276.82C360.764 277.405 360.49 277.87 360.316 278.054C359.348 279.027 358.662 279.887 358.181 280.65C357.732 281.362 357.443 281.955 357.328 282.491C356.927 284.36 358.328 285.186 358.328 285.186C358.629 285.313 358.769 285.657 358.641 285.954C358.555 286.151 358.373 286.278 358.171 286.304C359.624 287.458 360.194 288.563 360.222 289.554C360.242 290.233 359.994 290.868 359.567 291.516C359.546 291.548 359.524 291.581 359.501 291.613C359.605 291.608 359.712 291.629 359.81 291.681C359.81 291.681 361.281 292.322 362.561 294.807C363.199 296.046 363.765 297.765 364.071 300.122C364.111 300.206 364.139 300.295 364.156 300.385C364.472 300.875 365.543 302.256 368.01 303.119C369.383 303.599 371.161 303.929 373.468 303.871C377.127 303.884 379.561 303.177 380.891 302.014C382.086 300.968 382.197 299.555 381.396 298.244C380.269 296.396 378.31 295.233 376.229 294.58C373.806 293.821 371.224 293.731 369.494 294.066C368.092 294.43 367.116 294.361 366.264 294.068C365.136 293.681 364.23 292.773 362.86 291.399L362.662 291.201C362.252 290.71 362.321 289.983 362.818 289.578C363.315 289.173 364.052 289.242 364.462 289.732L364.497 289.782C364.488 289.72 364.483 289.656 364.484 289.591C364.484 289.591 364.608 289.024 364.94 288.224C365.041 287.982 365.158 287.727 365.283 287.456L365.283 287.456L365.283 287.455L365.283 287.455L365.283 287.455C365.354 287.301 365.427 287.143 365.501 286.978C366.047 285.759 366.789 284.442 368.352 283.831C369.321 283.452 370.59 283.346 372.27 283.742C372.233 283.315 372.441 282.884 372.839 282.652C373.221 282.49 373.585 282.377 374.064 282.545C374.114 282.563 374.168 282.587 374.227 282.615L374.227 282.615C374.43 282.709 374.702 282.835 375.145 282.822C375.605 282.808 376.215 282.726 377.022 282.39C377.341 282.257 377.687 282.086 378.057 281.866C379.085 281.255 380.297 280.3 381.817 278.981C384.422 276.672 385.729 274.746 385.906 273.2C386.01 272.289 385.518 271.629 384.673 271.166C384.414 271.024 384.125 270.901 383.809 270.796C383.713 270.854 383.661 270.884 383.661 270.884C383.286 271.058 382.848 271.028 382.501 270.805C382.501 270.805 382.179 270.638 381.724 270.391C381.607 270.38 381.488 270.37 381.368 270.362C380.089 270.231 378.922 270.364 377.853 270.64C376.696 270.94 375.654 271.407 374.724 271.971C374.73 271.976 374.736 271.98 374.741 271.985C374.882 272.104 375.018 272.22 375.129 272.36C375.202 272.453 375.254 272.554 375.298 272.656C375.382 272.844 375.423 273.003 375.46 273.176C375.61 273.876 375.56 274.192 375.56 274.192C375.769 274.44 375.735 274.809 375.484 275.015C375.232 275.221 374.858 275.187 374.642 274.931C374.642 274.931 374.395 274.903 373.818 274.659C373.654 274.589 373.523 274.519 373.345 274.401C373.229 274.323 373.122 274.239 373.019 274.129C372.926 274.031 372.842 273.917 372.777 273.792C372.727 273.696 372.682 273.597 372.643 273.498ZM351.654 299.199C351.233 298.897 350.868 298.625 350.577 298.403C351.489 297.944 352.351 297.382 353.006 296.949C353.266 296.778 353.567 296.59 353.721 296.495L353.748 296.5C354.07 296.55 354.373 296.331 354.424 296.012C354.474 295.818 354.403 295.674 354.347 295.559L354.344 295.553C354.259 295.376 354.08 295.276 353.818 295.232C353.674 295.209 353.376 295.274 352.968 295.434C352.746 295.522 352.47 295.643 352.156 295.781L352.156 295.781L352.156 295.781L352.156 295.781C351.585 296.032 350.889 296.337 350.161 296.597C349.307 296.901 348.414 297.125 347.679 297.012C347.356 296.962 347.139 296.742 346.997 296.366C346.842 295.951 346.806 295.392 346.844 294.658C346.871 293.825 346.999 293.07 347.168 292.38C347.361 291.586 347.615 290.879 347.936 290.262C348.115 289.903 348.407 289.15 348.688 288.336C348.85 287.864 349.012 287.372 349.152 286.936C349.389 287.008 349.65 287.064 349.934 287.093C350.612 287.161 351.425 287.106 352.33 286.689C353.047 286.358 353.83 286.316 354.581 286.452C355.457 286.612 356.295 286.97 356.964 287.394C358.513 288.411 359.134 289.322 358.732 290.206C358.467 290.788 357.807 291.242 356.983 291.658C356.508 291.897 355.968 292.065 355.379 292.248L355.379 292.249C354.795 292.519 354.545 293.207 354.82 293.782C355.094 294.357 355.79 294.605 356.373 294.333C357.445 293.676 358.312 292.991 358.948 292.299C358.979 292.47 359.086 292.625 359.252 292.713C359.252 292.713 360.267 293.399 361.049 295.463C361.491 296.626 361.835 298.205 361.889 300.333C361.78 300.518 361.665 300.692 361.52 300.854C361.395 300.994 361.267 301.121 361.118 301.22C359.804 302.099 358.428 302.11 357.262 301.979C356.416 301.883 355.678 301.546 354.968 301.2C354.457 300.951 353.98 300.664 353.519 300.387L353.519 300.387L353.513 300.383C352.828 299.97 352.191 299.584 351.654 299.199ZM411.673 292.632C411.163 292.597 410.677 292.499 410.216 292.349C408.924 291.927 407.845 291.167 407.06 290.402C406.841 290.189 406.645 289.979 406.472 289.782C405.853 290.588 405.104 291.237 404.334 291.68C405.503 291.883 406.311 292.201 406.311 292.201L406.366 292.227C408.09 293.105 409.361 294.089 410.292 295.11C410.502 294.267 410.933 293.422 411.673 292.632ZM410.224 297.821C410.268 298.057 410.322 298.284 410.385 298.499C410.505 298.909 410.645 299.273 410.777 299.572C411.143 301.719 410.396 303.607 409.966 304.484C409.528 305.378 407.585 306.664 405.476 306.976C403.952 307.201 402.31 306.831 401.056 305.222C400.617 304.664 400.174 304.079 399.724 303.484C398.722 302.16 397.688 300.793 396.597 299.603C395.304 298.193 393.925 297.025 392.48 296.367C392.288 296.28 392.096 296.201 391.902 296.131C393.12 295.747 394.271 295.125 395.184 294.26C396.025 293.464 396.677 292.488 396.999 291.354C397.254 291.458 397.523 291.558 397.808 291.657C398.312 291.832 398.861 292.001 399.462 292.13C398.074 292.756 396.769 293.954 395.816 296.119C395.599 296.718 395.914 297.378 396.521 297.592C397.128 297.807 397.797 297.495 398.015 296.897C398.594 294.898 399.635 293.81 400.829 293.313C401.471 293.045 402.133 292.917 402.756 292.903C404.257 292.869 405.504 293.362 405.724 293.454C408.135 294.794 409.511 296.313 410.224 297.821ZM411.873 297.463C411.886 296.918 411.977 296.33 412.205 295.751C412.592 294.763 413.456 293.855 415.106 293.216C416.156 292.77 417.059 292.747 417.816 292.997C418.681 293.283 419.341 293.939 419.765 294.755C419.923 295.047 420.189 295.345 420.61 295.511C420.521 295.713 420.49 295.939 420.527 296.16C420.527 296.16 420.788 297.386 420.937 298.584C421.008 299.145 421.066 299.696 421.041 300.091C420.905 302.11 420.211 304.263 418.774 305.179C418.211 305.537 417.523 305.716 416.767 305.523C415.889 305.3 415.031 304.568 414.043 303.452C413.566 303.024 412.826 303.06 412.393 303.531C412.382 303.544 412.37 303.556 412.359 303.569C412.754 301.979 412.924 299.774 411.904 297.532L411.893 297.508L411.873 297.463ZM409.993 290.128C408.825 289.743 407.858 289.066 407.243 288.556C407.723 287.601 408.019 286.509 408.017 285.327C408.015 283.456 407.271 281.345 405.276 279.263C404.838 278.805 404.329 278.357 403.755 277.91C404.213 277.161 404.756 276.611 405.436 276.313C406.113 276.017 406.871 275.969 407.615 276.03C410.731 276.288 413.88 278.814 414.845 280.261C415.615 281.395 416.106 283.616 415.938 285.704C415.866 286.599 415.663 287.469 415.254 288.221C414.886 288.896 414.369 289.491 413.578 289.86C412.265 290.525 411.04 290.474 409.993 290.128ZM391.116 279.878L391.115 279.878L391.059 279.895C390.913 279.937 390.767 279.979 390.62 280.018C390.886 280.195 391.155 280.389 391.426 280.6C391.497 280.348 391.595 280.038 391.726 279.697C391.524 279.758 391.321 279.818 391.117 279.878L391.117 279.878L391.116 279.878L391.116 279.878L391.116 279.878L391.116 279.878ZM392.454 281.464C393.032 281.986 393.625 282.58 394.237 283.249C396.378 285.69 397.223 287.878 397.222 289.746C397.53 289.983 397.887 290.209 398.308 290.388C399.301 290.811 400.593 290.958 402.117 290.796C403.838 290.578 405.928 288.231 405.697 285.418C405.629 284.586 405.317 283.723 404.756 282.833C404.094 281.782 403.061 280.722 401.55 279.692C400.377 278.816 399.346 278.276 398.432 277.986C397.643 277.735 396.965 277.649 396.363 277.745C396.073 277.792 395.802 277.869 395.55 277.971C395.246 278.158 394.919 278.348 394.571 278.534C394.034 278.946 393.614 279.456 393.294 279.934C392.828 280.629 392.548 281.244 392.454 281.464ZM392.051 313.155C391.717 312.534 391.899 311.749 392.488 311.345C393.108 310.919 393.952 311.075 394.384 311.694L394.41 311.735L394.411 311.735L395.003 312.142C395.229 312.099 395.496 312.052 395.762 312.015C396.154 311.959 396.542 311.924 396.826 311.931C397.84 311.965 398.513 312.002 399.161 312.133C399.837 312.27 400.49 312.496 401.448 312.938C402.466 313.415 403.631 314.586 404.171 315.917C404.583 316.933 404.668 318.013 404.234 318.941C403.962 319.523 403.584 319.933 403.119 320.203C403.191 320.336 403.256 320.473 403.314 320.613C403.496 321.052 403.624 321.512 403.683 321.952C403.882 323.413 403.991 324.962 403.659 326.37C403.421 327.378 402.977 328.323 402.188 329.121C402.151 329.161 402.109 329.197 402.064 329.226C402.064 329.226 400.318 330.345 397.816 329.503C396.449 329.043 394.809 328.028 393.044 325.689C392.851 325.386 392.813 325.026 392.911 324.707C391.61 325.296 390.509 324.888 389.656 324.098C388.435 322.969 387.879 320.765 388.074 319.387C388.19 318.614 388.358 318.038 388.604 317.508C388.856 316.963 389.209 316.476 389.724 315.893C389.94 315.652 390.374 315.2 390.787 314.802C391.123 314.478 391.454 314.195 391.67 314.045L392.24 313.522V313.521L392.238 313.435C392.201 313.388 392.167 313.341 392.136 313.296L392.21 313.245C392.184 313.162 392.136 313.12 392.057 313.151L392.051 313.155ZM392.051 313.155C392.068 313.189 392.088 313.223 392.109 313.255L392.136 313.296C392.129 313.285 392.116 313.272 392.102 313.257C392.065 313.22 392.022 313.174 392.051 313.155ZM399.886 320.78C399.754 320.816 399.624 320.846 399.497 320.863C398.972 320.918 398.492 320.56 398.391 320.037C398.289 319.514 398.599 318.999 399.105 318.849C399.418 318.747 399.745 318.678 400.067 318.624C400.435 318.562 400.795 318.527 401.113 318.496C401.205 318.487 401.294 318.478 401.378 318.47C401.586 318.447 401.781 318.397 401.945 318.298C402.04 318.239 402.099 318.138 402.148 318.014C402.339 317.544 402.087 317.022 401.795 316.553C401.44 315.982 400.913 315.496 400.433 315.3C399.699 314.994 399.205 314.83 398.692 314.746C398.166 314.66 397.623 314.662 396.811 314.664H396.811L396.786 314.664L395.021 314.967C394.894 314.996 394.764 315.007 394.635 314.999C394.585 315.07 394.528 315.137 394.464 315.198L393.135 316.31L391.588 317.679C391.243 318.026 390.99 318.308 390.811 318.639C390.632 318.969 390.509 319.334 390.401 319.825C390.249 320.495 390.4 321.52 390.835 322.269C391.17 322.847 391.688 323.291 392.452 322.961C392.962 322.743 393.456 322.473 393.951 322.203C394.485 321.911 395.02 321.618 395.58 321.389C396.091 321.179 396.615 321.013 397.173 320.939C397.492 320.877 397.8 321.088 397.861 321.41C397.923 321.732 397.714 322.044 397.396 322.106C396.955 322.22 396.554 322.412 396.163 322.63C395.642 322.918 395.15 323.263 394.659 323.607L394.659 323.607L394.659 323.607C394.517 323.707 394.375 323.806 394.233 323.904C394.534 323.962 394.812 324.139 394.991 324.419C395.868 326.083 396.734 327.147 397.618 327.746C398.286 328.2 398.922 328.407 399.475 328.45C400.372 328.521 401.016 328.199 401.222 328.078C401.747 327.474 402.028 326.78 402.162 326.049C402.389 324.82 402.193 323.491 401.953 322.241C401.898 321.953 401.793 321.655 401.657 321.372C401.53 321.11 401.364 320.867 401.17 320.662L401.166 320.659C400.913 320.669 400.635 320.682 400.351 320.713C400.197 320.73 400.04 320.75 399.886 320.78ZM378.382 293.526C378.416 292.917 378.357 291.841 377.751 290.655C377.421 290.01 376.884 289.374 376.122 288.683C375.535 288.15 374.833 287.568 373.9 287.038C371.635 285.602 370.06 285.185 368.9 285.484C367.793 285.77 367.056 286.595 366.789 287.464C366.439 288.596 366.82 289.628 366.82 289.628C366.809 290.265 366.277 290.772 365.633 290.762C365.419 290.758 365.22 290.698 365.049 290.596C365.692 291.559 366.167 292.262 366.885 292.617C367.465 292.903 368.177 292.933 369.204 292.756C371.447 292.216 375.028 292.285 378.152 293.438C378.229 293.467 378.306 293.496 378.382 293.526ZM387.983 288.072C387.516 287.8 387.523 287.562 387.523 287.562L387.525 287.562C387.542 287.56 387.56 287.556 387.577 287.552L387.525 287.562C387.225 287.605 386.936 287.416 386.864 287.12C386.788 286.806 386.984 286.49 387.339 286.408C387.339 286.408 387.304 286.326 387.69 285.862C387.828 285.694 387.949 285.645 388.188 285.549C388.287 285.51 388.402 285.513 388.507 285.533L388.512 285.534L388.512 285.534C388.715 285.574 388.891 285.609 389.038 285.736C389.151 285.834 389.267 285.901 389.372 285.963C389.57 286.079 389.734 286.174 389.789 286.414C389.801 286.468 389.83 286.504 389.859 286.538C389.893 286.578 389.926 286.616 389.926 286.682C389.926 286.745 389.949 286.793 389.972 286.839C390 286.896 390.027 286.952 390.01 287.032C389.993 287.109 389.997 287.18 390.001 287.252C390.007 287.367 390.013 287.484 389.936 287.627C389.915 287.667 389.895 287.706 389.895 287.754L389.895 287.763C389.895 287.811 389.895 287.841 389.928 287.885C390.025 288.015 390.038 288.057 390.05 288.094C390.064 288.14 390.076 288.177 390.234 288.357C390.005 288.952 389.33 289.25 388.728 289.024C388.304 288.865 388.029 288.488 387.983 288.072ZM388.531 287.99C388.685 288.073 388.795 288.067 388.966 287.755C388.982 287.727 388.93 287.704 388.889 287.686C388.856 287.671 388.829 287.659 388.851 287.65C388.976 287.599 388.469 287.686 388.551 287.763C388.617 287.828 388.588 287.909 388.531 287.99ZM374.681 299.836C374.705 299.767 374.712 299.698 374.712 299.628C374.82 299.616 374.928 299.589 375.034 299.545C375.628 299.298 375.907 298.622 375.657 298.036C375.476 297.999 375.421 297.955 375.375 297.918C375.331 297.882 375.294 297.853 375.164 297.842C375.125 297.839 375.111 297.827 375.097 297.816C375.084 297.805 375.071 297.794 375.04 297.789C374.989 297.779 374.966 297.759 374.938 297.735C374.926 297.724 374.913 297.712 374.896 297.7C374.569 297.482 374.362 297.399 374.097 297.343C373.863 297.294 373.68 297.414 373.415 297.586C373.32 297.648 373.215 297.717 373.093 297.787C372.786 297.963 372.553 298.236 372.252 298.612C372.163 298.723 372.09 298.844 372.046 298.98C372.017 299.07 372.01 299.16 372.014 299.252C372.024 299.425 372.036 299.538 372.088 299.682C372.307 300.292 372.465 300.419 372.465 300.419C372.389 300.75 372.591 301.063 372.909 301.134C373.228 301.204 373.545 301.005 373.617 300.69C373.617 300.69 373.974 300.643 374.5 300.097C374.574 300.021 374.645 299.942 374.681 299.836ZM411.6 281.43C411.786 281.096 412.137 280.861 412.551 280.835C413.194 280.796 413.748 281.281 413.788 281.915C413.625 282.05 413.584 282.106 413.539 282.165C413.505 282.212 413.468 282.26 413.371 282.351C413.308 282.409 413.291 282.462 413.27 282.536C413.23 282.672 413.2 282.789 413.173 282.895L413.173 282.895L413.173 282.895L413.173 282.895L413.173 282.896C413.133 283.049 413.1 283.179 413.05 283.315C413.026 283.382 412.982 283.422 412.938 283.464C412.903 283.495 412.869 283.527 412.842 283.572C412.687 283.833 412.433 283.886 412.121 283.951L412.121 283.951C412.009 283.975 411.89 284 411.766 284.036C411.401 284.143 411.004 284.089 410.566 283.958C410.431 283.918 410.3 283.85 410.2 283.754C409.997 283.562 409.883 283.405 409.794 283.187C409.569 282.646 409.598 282.462 409.598 282.462L409.575 282.445C409.319 282.245 409.275 281.877 409.477 281.624C409.679 281.371 410.052 281.327 410.309 281.527C410.309 281.527 410.612 281.356 411.323 281.389C411.341 281.39 411.358 281.391 411.375 281.391C411.44 281.393 411.503 281.395 411.57 281.418L411.6 281.43ZM412.002 282.286C411.979 282.357 412.002 282.485 412.019 282.583C412.026 282.62 412.032 282.652 412.034 282.675C412.051 282.678 412.073 282.684 412.097 282.69C412.19 282.714 412.314 282.746 412.307 282.675C412.282 282.408 412.172 282.323 412.002 282.286ZM402.845 300.367C402.232 299.981 402.006 299.708 402.006 299.708C401.69 299.625 401.501 299.305 401.585 298.993C401.67 298.681 401.994 298.496 402.31 298.579C402.31 298.579 402.595 298.402 403.243 298.248C403.31 298.232 403.377 298.213 403.446 298.195C403.641 298.141 403.846 298.085 404.085 298.07C404.222 298.061 404.362 298.077 404.503 298.094L404.547 298.099C404.658 298.111 404.763 298.138 404.867 298.165C404.98 298.193 405.092 298.222 405.21 298.232C405.323 298.242 405.433 298.264 405.539 298.286C405.779 298.335 406.001 298.38 406.204 298.274L406.212 298.269C406.226 298.262 406.241 298.255 406.257 298.247L406.257 298.247C406.344 298.205 406.438 298.16 406.464 298.071C406.487 297.991 406.44 297.949 406.385 297.9C406.346 297.864 406.302 297.825 406.277 297.765C406.261 297.727 406.236 297.716 406.21 297.705C406.185 297.695 406.159 297.684 406.138 297.649C406.275 297.028 406.898 296.633 407.528 296.769C408.157 296.904 408.558 297.518 408.421 298.139C408.294 298.234 408.224 298.313 408.16 298.386C408.082 298.474 408.012 298.553 407.861 298.636C407.78 298.68 407.736 298.724 407.679 298.78C407.667 298.791 407.654 298.804 407.64 298.817C407.576 298.879 407.529 298.954 407.483 299.029C407.464 299.059 407.445 299.09 407.425 299.119C407.34 299.244 407.247 299.35 407.15 299.459L407.15 299.459L407.149 299.46C407.117 299.496 407.085 299.532 407.053 299.57C406.588 300.11 405.933 300.405 405.167 300.653C404.893 300.741 404.614 300.79 404.328 300.803C404.144 300.811 403.958 300.799 403.786 300.755C403.41 300.659 403.113 300.534 402.845 300.367Z"
        fill="#FFB61D" />
    <path fill-rule="evenodd" clip-rule="evenodd"
        d="M397.945 61.6257C398.617 60.1487 396.392 59.0896 394.77 59.0832C393.148 59.0766 390.887 58.6102 391.011 56.992C394.784 55.7017 399.046 55.9081 402.676 57.5566C400.808 60.6498 399.64 64.1631 399.283 67.7594C399.236 68.2253 399.259 68.7995 399.67 69.0216C399.986 69.1921 400.374 69.0595 400.703 68.9171C405.28 66.9336 409.108 63.2753 411.297 58.7925C411.911 57.5349 413.774 57.3854 414.956 58.1332C416.139 58.8805 416.8 60.2087 417.405 61.4709C418.057 62.8291 420.061 62.8702 421.376 62.1346C422.69 61.3991 423.655 60.1499 424.957 59.3927C426.259 58.635 428.247 58.6018 428.966 59.9253C426.736 61.5964 424.505 63.2682 422.275 64.9393C420.569 66.2165 418.029 67.4591 416.538 65.9375C415.738 65.1216 415.681 63.8456 415.164 62.8259C414.647 61.8067 413.012 61.158 412.46 62.1587C409.76 67.0546 405.061 70.8091 399.691 72.3611C398.635 72.6656 397.285 72.7963 396.639 71.9072C396.334 71.4878 396.277 70.9409 396.253 70.4229C396.112 67.4118 396.697 64.3695 397.945 61.6257Z"
        fill="#00160A" />
    <path fill-rule="evenodd" clip-rule="evenodd"
        d="M342.784 285.731C340.634 282.179 339.38 278.09 339.167 273.945C339.084 272.321 340.427 270.754 342.043 270.588C341.699 275.927 343.089 281.365 345.954 285.883C346.407 286.598 345.447 287.53 344.616 287.374C343.784 287.217 343.222 286.454 342.784 285.731Z"
        fill="#00160A" />
    <path fill-rule="evenodd" clip-rule="evenodd"
        d="M393.668 43.051C395.593 46.1417 395.945 50.1586 394.587 53.5367C394.496 53.7628 394.39 53.996 394.194 54.1411C393.4 54.7291 392.606 53.3898 392.51 52.4061C392.319 50.4265 392.128 48.4477 391.937 46.4681C391.796 45.0094 392.206 42.9378 393.668 43.051Z"
        fill="#00160A" />
    <path fill-rule="evenodd" clip-rule="evenodd"
        d="M327.979 225.072C327.979 225.072 329.999 223.582 333.693 224.714C333.693 224.714 335.322 225.94 333.549 226.95C333.549 226.95 332.408 227.34 331.513 227.899C331.59 228.148 329.796 227.489 328.694 227.112C328.694 227.112 326.849 226.528 327.979 225.072Z"
        fill="#FFB61D" />
    <path fill-rule="evenodd" clip-rule="evenodd"
        d="M434.237 120.427C433.941 118.731 433.648 117.048 432.346 116.02C430.066 114.216 430.208 110.673 431.238 107.954C431.561 107.102 431.95 106.268 432.339 105.434C433.192 103.607 434.042 101.784 434.185 99.7921C434.385 96.9846 433.156 94.3063 431.939 91.6548C430.544 88.6158 429.165 85.612 429.973 82.4892C430.976 78.6144 434.669 76.7246 438.428 74.8008C441.751 73.1003 445.125 71.3733 446.74 68.2254C448.567 64.6636 447.538 60.2924 445.804 56.6843C444.421 53.8061 442.529 51.0485 439.796 49.3971C437.063 47.7454 433.36 47.4254 430.743 49.2546C428.125 51.0839 427.288 55.2934 429.503 57.5938C430.754 57.2175 431.053 55.8759 431.361 54.4942C431.637 53.2561 431.92 51.9859 432.902 51.3491C434.12 50.5579 435.725 51.1909 437.027 51.8344C438.947 52.783 440.926 53.7778 442.29 55.4287C443.653 57.0804 444.23 59.5837 443.065 61.3802C442.559 62.1588 441.823 63.316 442.613 63.8033C443.96 64.6336 444.038 66.6901 443.191 68.0266C442.345 69.3634 440.873 70.1479 439.461 70.862L439.078 71.0559C435.458 72.8852 431.735 74.7665 429.137 77.8703C426.447 81.0838 425.319 86.0299 427.698 89.48C432.789 96.8601 429.749 106.872 426.553 115.249C429.124 116.1 430.08 118.8 431.035 121.5L431.035 121.501L431.035 121.501C431.399 122.528 431.762 123.554 432.214 124.479C435.735 131.687 445.513 133.023 453.423 131.693C454.966 131.433 456.951 130.366 456.394 128.905C455.102 128.962 453.808 129.081 452.515 129.201C449.729 129.458 446.945 129.715 444.18 129.349C440.133 128.815 435.95 126.537 434.723 122.643C434.501 121.939 434.369 121.182 434.237 120.427ZM407.496 113.763C397.794 122.099 386.754 128.736 375.474 134.767C373.443 135.852 371.398 136.923 369.35 137.996C357.673 144.109 345.919 150.263 336.463 159.366C331.667 163.983 327.545 169.298 324.267 175.092C322.356 173.672 323.372 170.646 324.675 168.652C335.343 152.312 353.457 142.892 370.867 133.839C371.91 133.296 372.95 132.755 373.987 132.214C392.319 122.639 411.407 110.96 419.464 91.9103C420.416 100.511 414.059 108.123 407.496 113.763ZM269.987 130.852C275.361 133.694 283.251 134.778 286.464 129.617C279.93 130.943 272.924 129.789 267.16 126.438C266.393 125.993 265.625 125.504 264.853 125.013C261.686 122.999 258.438 120.934 254.855 121.546C253.783 121.73 252.756 122.154 251.735 122.576C250.286 123.175 248.848 123.769 247.308 123.664C244.681 123.485 243.065 118.978 245.661 118.542C242.122 117.982 238.583 117.422 235.045 116.862L234.356 116.753L224.406 115.178C227.66 108.259 229.557 100.705 229.955 93.0685C229.199 93.1225 228.486 93.1702 227.822 93.2147L227.819 93.2149L227.817 93.215C221.168 93.6604 219.329 93.7836 226.13 96.6785C226.682 102.995 224.418 109.504 220.066 114.115C221.521 118.147 226.238 118.728 230.966 119.311C235.671 119.891 240.387 120.473 241.912 124.456C242.653 126.388 245.111 127.084 247.158 126.785C248.257 126.624 249.309 126.26 250.362 125.896C251.269 125.582 252.178 125.268 253.118 125.083C258.041 124.117 262.668 126.74 267.156 129.283C268.106 129.821 269.049 130.356 269.987 130.852ZM517.981 255.556C518.739 252.668 519.83 249.476 522.511 248.16C508.4 301.433 513.452 359.572 536.541 409.612C533.64 406.96 531.152 403.857 529.179 400.46C525.909 394.835 524.108 388.491 522.478 382.191C511.78 340.848 507.14 296.862 517.981 255.556ZM163.028 345.76C162.524 344.765 162.1 343.673 162.211 342.563C162.532 339.349 166.637 338.28 169.861 338.111C191.007 337.001 212.026 339.954 233.051 342.908C241.802 344.138 250.554 345.367 259.317 346.304C276.265 348.116 293.308 348.834 310.337 349.551C322.567 350.066 334.797 350.582 347.027 351.097L349.362 351.195L351.182 351.272L352.681 351.335C369.394 352.039 387.026 352.545 401.784 344.671C396.403 352.701 385.199 353.74 375.534 353.852C323.287 354.455 270.997 351.252 219.214 344.276C217.863 344.094 216.51 343.909 215.158 343.724L215.122 343.72C200.001 341.654 184.779 339.575 169.601 340.928C167.48 341.117 164.728 342.099 164.928 344.22C165.028 345.28 165.902 346.081 166.733 346.748C171.671 350.704 177.298 353.8 183.282 355.856C175.325 357.283 166.678 352.973 163.028 345.76ZM460.735 133.53C456.378 132.043 451.086 134.195 449.004 138.303C453.358 141.283 457.713 144.263 462.068 147.243L466.357 150.178C468.124 151.388 470.424 152.629 472.267 151.538C476.905 148.793 483.834 151.859 484.922 157.137C485.036 153.526 489.039 151.138 492.652 151.116C495.187 151.101 497.617 151.872 500.05 152.644C501.086 152.973 502.122 153.302 503.167 153.57C510.428 155.435 518.416 154.279 524.851 150.432C526.397 149.507 528.304 150.618 529.859 151.536C538.017 156.365 548.952 156.014 556.784 150.673C551.079 171.517 539.583 190.086 528.159 208.541C526.006 212.018 523.855 215.492 521.747 218.976C508.449 240.948 496.302 264.964 496.236 290.647C496.232 292.059 497.025 294.038 498.343 293.532C500.231 265.791 510.353 238.664 527.095 216.466C528.245 214.938 529.532 213.358 531.342 212.737C532.766 212.251 534.314 212.425 535.803 212.646C546.306 214.208 556.503 217.839 565.635 223.268C564.622 221.621 575.499 220.732 586.913 219.798L586.913 219.798C590.744 219.484 594.635 219.166 598.158 218.812C605.467 218.079 612.724 210.704 614.051 208.362C614.287 207.944 613.577 208.405 612.231 209.275C609.163 211.261 602.794 215.383 596.845 216.102L595.754 216.235C586.86 217.313 575.96 218.634 567.986 218.151C563.114 217.856 569.286 200.725 569.933 199.652C566.138 198.774 563.963 203.781 563.323 207.621C562.676 211.461 560.305 216.437 556.562 215.363C552.283 214.135 548.003 212.906 543.724 211.678L532.361 208.416C544.484 187.671 554.916 165.934 563.505 143.494C564.074 146.015 584.892 142.747 583.069 142.222C582.163 141.961 579.502 141.985 576.576 142.012C572.394 142.051 567.67 142.095 566.752 141.315C565.191 139.99 562.421 139.897 561.376 141.657C555.654 151.308 541.623 154.838 532.014 149.046C531.887 148.969 531.757 148.891 531.627 148.811C529.351 147.428 526.646 145.785 524.464 147.196C517.966 151.398 509.594 152.569 502.193 150.312C501.151 149.994 500.125 149.612 499.1 149.23C497.072 148.475 495.048 147.72 492.908 147.469C489.687 147.09 485.95 148.237 484.621 151.196C483.34 147.48 478.271 145.692 474.943 147.783C471.446 149.979 466.845 147.748 463.757 145.007C463.211 144.522 462.669 144.015 462.125 143.505L462.124 143.505L462.124 143.505L462.124 143.505L462.124 143.504L462.123 143.504L462.123 143.504L462.123 143.504C459.589 141.131 456.998 138.704 453.632 138.231L457.16 135.896L460.735 133.53ZM377.212 430.086C375.187 433.039 370.882 432.928 367.321 432.568C353.528 431.196 339.622 430.948 325.788 431.83C322.077 432.065 317.547 433.013 316.495 436.58C314.839 436.501 314.124 434.162 314.969 432.738C315.813 431.308 317.516 430.667 319.113 430.217C325.063 428.551 331.374 428.185 337.477 429.158C341.057 429.727 344.543 427.251 346.409 424.148C348.008 421.484 348.701 418.413 349.389 415.37L349.389 415.366C349.504 414.858 349.619 414.35 349.738 413.845C353.517 397.768 362.153 382.864 374.223 371.592C375.88 370.045 378.495 368.533 380.193 370.035C363.082 385.258 351.643 406.718 348.546 429.413C358.101 428.949 367.689 429.171 377.212 430.086ZM470.794 248.695C470.488 250.57 468.543 252.977 467.301 251.539C473.496 219.019 467.542 184.329 450.86 155.737C450.477 154.907 451.618 154.042 452.494 154.297C453.372 154.551 453.91 155.41 454.359 156.205C470.042 184.002 475.94 217.196 470.794 248.695ZM208.043 224.437C201.655 228.611 194.864 232.166 187.795 235.038C185.694 235.891 182.576 236.276 181.807 234.143L179.194 226.9L179.138 226.744C177.712 222.789 176.285 218.834 174.859 214.879C174.094 212.759 171.723 210.208 170.154 211.826C172.954 218.778 175.755 225.73 178.554 232.683C179.686 235.49 181.257 238.68 184.227 239.261C186.37 239.681 188.48 238.546 190.37 237.452C191.917 236.556 193.465 235.661 195.012 234.766C196.552 233.875 198.092 232.984 199.631 232.093C204.255 229.417 210.026 226.714 214.643 229.401C217.59 231.115 221.669 230.566 224.058 228.133C226.446 225.7 226.92 221.61 225.151 218.695C224.528 217.668 225.225 216.252 226.282 215.679C227.338 215.107 228.606 215.145 229.806 215.197L246.494 215.924C248.219 216 250.73 214.978 249.939 213.442C242.407 212.828 234.866 212.339 227.319 211.976C226.349 211.93 225.337 211.893 224.454 212.296C221.761 213.526 222.207 217.394 222.704 220.313C223.203 223.232 222.147 227.415 219.205 227.08C215.398 226.645 211.642 225.756 208.043 224.437ZM214.375 373.41C239.061 385.701 260.871 403.725 277.592 425.656C278.652 427.047 278.897 429.955 277.173 429.674C259.534 405.273 235.218 385.758 207.583 373.817C208.696 371.537 212.104 372.279 214.375 373.41ZM316.152 120.488C313.625 124.697 311.858 130.314 314.726 134.299C316.593 134.495 316.424 131.572 316.189 129.709C315.856 127.081 317.083 124.517 318.46 122.255C325.921 110.004 338.122 102.004 350.279 94.0333L350.279 94.0332C354.202 91.4612 358.12 88.8922 361.873 86.1841C364.632 84.1935 367.644 81.2329 366.726 77.9567C360.529 83.7994 353.317 88.6223 346.137 93.4239C334.619 101.126 323.184 108.774 316.152 120.488ZM386.045 513.797C387.564 516.515 388.623 520.206 386.535 522.512C383.62 511.7 374.89 503.586 366.476 496.198C361.256 491.612 356.005 487.065 350.722 482.551C345.312 477.925 339.458 473.156 332.408 472.196C332.301 472.181 332.193 472.167 332.084 472.152L332.058 472.148C329.702 471.829 326.863 471.444 326.211 469.211C333.682 467.074 341.257 471.778 347.438 476.488C356.774 483.602 365.689 491.272 374.117 499.444C378.6 503.795 382.998 508.349 386.045 513.797ZM136.652 193.156C141.313 196.728 145.75 200.877 148.243 206.194C149.832 209.584 150.482 213.84 148.343 216.914C148.059 218.183 150.117 218.384 151.335 217.927C157.125 215.752 162.89 213.515 168.633 211.218C167.339 209.516 164.697 209.63 162.736 210.482C162.006 210.8 161.307 211.195 160.609 211.589C159.433 212.254 158.261 212.917 156.949 213.202C154.86 213.656 152.168 212.565 152.036 210.43C151.452 200.985 142.944 194.265 135.194 188.835C133.458 187.618 131.521 186.345 129.41 186.545C127.317 186.743 125.752 188.287 124.21 189.808C123.782 190.231 123.355 190.651 122.919 191.041C120.917 192.832 117.403 193.895 115.823 191.722L113.75 188.869L113.743 188.86L113.737 188.851C112.595 187.281 111.454 185.71 110.312 184.14C109.434 182.932 108.499 181.675 107.148 181.041C105.796 180.406 103.906 180.65 103.19 181.961C108 185.541 112.037 190.155 114.948 195.397C116.291 197.816 120.074 197.066 122.185 195.279C122.796 194.762 123.373 194.179 123.949 193.597C125.363 192.169 126.774 190.743 128.686 190.292C131.53 189.621 134.333 191.379 136.652 193.156ZM386.006 247.151C385.42 245.979 385.511 244.59 385.718 243.296C387.153 234.344 393.488 226.736 401.156 221.9C408.824 217.065 417.754 214.655 426.629 212.807C429.562 212.196 433.596 212.257 434.41 215.142C424.915 216.14 415.28 217.629 406.738 221.894C398.195 226.158 390.793 233.627 388.747 242.954C388.363 244.701 387.776 246.901 386.006 247.151ZM573.218 418.366C566.824 415.602 559.802 414.315 552.845 414.622C553.113 416.857 555.921 417.621 558.162 417.876C566.177 418.79 574.949 420.43 580.005 426.715C581.142 428.126 582.069 429.824 582.023 431.634C581.945 435.377 578.026 437.736 574.512 439.01C568.195 441.296 561.474 442.465 554.759 442.446C553.877 442.439 553.616 443.824 554.236 444.451C554.857 445.079 555.843 445.111 556.725 445.092C564.1 444.889 571.435 443.236 578.183 440.257C579.646 439.611 581.109 438.885 582.252 437.762C585.263 434.802 585.218 429.668 583.056 426.029C580.893 422.397 577.098 420.045 573.218 418.366ZM453.788 477.259C449.904 479.853 447.865 484.412 446.288 488.809C442.218 500.17 439.914 512.158 439.485 524.217L439.482 524.293V524.293C439.428 525.812 439.372 527.401 438.608 528.712C436.996 527.745 436.805 525.517 436.845 523.636C437.152 509.12 440.366 494.676 446.242 481.401C446.935 479.833 447.718 478.219 449.096 477.2C450.473 476.181 452.623 475.998 453.788 477.259ZM571.029 455.995C574.034 452.807 577.104 448.744 576.091 444.484C575.386 443.89 574.236 444.341 573.727 445.105C573.333 445.701 573.193 446.41 573.053 447.117L573.053 447.118L573.032 447.226C573.018 447.295 573.004 447.364 572.99 447.432C572.969 447.535 572.947 447.637 572.923 447.738C572.27 450.475 570.356 452.716 568.443 454.774C561.728 461.973 554.163 468.368 545.959 473.804C545.577 474.056 545.192 474.308 544.807 474.559C541.864 476.481 538.892 478.421 536.651 481.108C536.775 482.297 538.591 482.035 539.61 481.415C551.159 474.398 561.76 465.821 571.029 455.995ZM274.601 377.499C275.448 376.27 277.33 377.423 278.278 378.574C290.289 393.149 302.474 408.442 307.25 426.715C307.491 427.636 307.694 428.681 307.191 429.485C306.686 430.295 305.17 430.36 304.958 429.432C301.27 413.303 291.914 398.976 280.949 386.592C280.795 386.417 280.64 386.243 280.484 386.068L280.484 386.067C278.161 383.451 275.787 380.778 274.601 377.499ZM422.859 237.518C427.96 236.027 433.186 234.967 438.464 234.351C436.686 231.131 431.947 231.751 428.426 232.821C418.039 235.979 407.071 239.504 399.985 247.731C397.98 250.059 396.518 253.99 398.952 255.864C402.393 246.002 412.833 240.446 422.859 237.518ZM405.172 507.46C405.629 509.263 405.802 511.674 404.126 512.471L394.641 483.406C395.225 482.668 396.449 482.766 397.176 483.367C397.902 483.968 398.254 484.896 398.57 485.784C401.109 492.899 403.313 500.137 405.172 507.46ZM515.66 158.018C517.732 163.306 518.793 168.988 518.771 174.668C518.76 177.18 518.54 179.688 518.208 182.178C517.613 186.626 516.657 191.026 515.352 195.32C514.936 196.688 514.514 198.282 515.332 199.455C516.941 199.296 517.752 197.471 518.196 195.916C520.814 186.726 521.905 177.101 521.409 167.558C521.303 165.529 521.114 163.452 520.242 161.616C519.371 159.781 517.682 158.21 515.66 158.018ZM499.757 508.617C500.498 507.304 501.306 505.958 502.574 505.148C503.842 504.344 505.707 504.259 506.717 505.376C502.488 509.335 499.784 514.607 497.163 519.775C495.86 522.342 494.556 524.91 493.253 527.484C491.724 527.66 491.636 525.249 492.239 523.838C494.455 518.625 496.967 513.542 499.757 508.617ZM411.675 262.116C410.238 263.949 409.111 266.932 410.991 268.307C416.414 258.919 426.412 252.325 437.175 251.037C438.18 250.917 438.285 249.305 437.488 248.682C436.69 248.059 435.561 248.166 434.565 248.344C425.603 249.949 417.291 254.95 411.675 262.116ZM441.462 272.149C440.368 273.059 438.402 271.987 438.486 270.567C438.57 269.146 440.488 268.269 441.674 269.055C442.859 269.842 442.883 271.826 441.781 272.726L441.462 272.149ZM307.669 211.65C307.623 213.129 309.556 214.26 310.798 213.456L311.088 213.655C312.271 212.767 312.189 210.652 310.914 209.901C309.639 209.151 307.715 210.171 307.669 211.65ZM466.022 508.356C468.047 504.318 472.846 502.424 477.349 502.097C479.762 501.919 482.179 502.088 484.596 502.256H484.597H484.597H484.598C486.69 502.402 488.783 502.549 490.876 502.47C498.471 502.182 505.903 498.798 511.105 493.258C514.16 490.005 518.957 485.739 522.153 488.855C524.515 477.841 529.799 467.473 537.318 459.092C537.723 458.64 538.138 458.182 538.558 457.718L538.561 457.716C544.299 451.382 551.009 443.976 547.984 436.253C547.083 433.94 545.406 432.094 543.721 430.24L543.721 430.239L543.721 430.239L543.72 430.238C542.745 429.165 541.767 428.089 540.936 426.917C538.67 423.723 537.86 418.614 541.061 416.36C530.341 413.407 519.617 410.454 508.895 407.508C506.289 406.79 503.604 406.032 501.488 404.353C497.991 401.57 496.755 396.886 495.725 392.541C492.7 379.774 489.664 366.924 488.982 353.824C488.561 345.723 489.046 337.622 489.531 329.516V329.516V329.516V329.515C489.875 323.758 490.22 317.999 490.24 312.237C490.288 298.362 488.237 283.919 480.466 272.426C482.205 264.384 473.393 258.511 465.767 255.184C465.714 255.507 465.527 255.805 465.231 255.987C464.692 256.314 463.994 256.136 463.673 255.587C463.219 254.481 463.217 253.312 463.535 252.085C463.654 251.623 463.793 251.158 463.949 250.69C464.599 248.748 465.688 246.876 466.182 246.077C466.011 245.481 465.768 245.061 465.509 244.76C465.121 244.313 464.674 244.249 464.497 244.244C462.701 244.725 461.247 245.623 460 246.655C460.002 247.261 459.529 247.777 458.904 247.829C458.847 247.834 458.791 247.835 458.735 247.832C458.291 248.292 457.881 248.771 457.497 249.257C456.469 250.559 455.634 251.9 454.993 253.139C453.732 255.575 453.143 257.513 453.143 257.513C453.089 257.832 452.791 258.047 452.478 257.991C452.164 257.936 451.954 257.632 452.008 257.312C452.008 257.312 452.133 255.101 453.088 252.295C453.594 250.809 454.338 249.172 455.404 247.641C456.053 246.708 456.832 245.822 457.734 245.038C457.732 244.854 457.722 244.675 457.7 244.5C457.632 243.957 457.481 243.488 457.315 243.084C456.75 241.704 456.001 241.143 455.577 240.925C453.656 242.177 452.247 244.119 451.065 246.143C450.585 246.964 450.151 247.802 449.733 248.62C449.281 249.504 448.845 250.359 448.465 251.175C448.113 251.931 447.79 252.634 447.509 253.279C446.67 255.203 446.202 256.513 446.202 256.513C446.14 256.837 445.823 257.05 445.494 256.99C445.166 256.929 444.949 256.617 445.01 256.294C445.01 256.294 445.104 254.159 445.835 251.286C446.069 250.365 446.387 249.381 446.786 248.374C447.033 247.749 447.317 247.118 447.647 246.5C448.295 245.287 449.09 244.112 449.996 243.042C451.407 241.376 453.09 239.976 455.043 239.106C455.247 239 455.483 238.973 455.706 239.028C455.706 239.028 456.882 239.312 457.907 241.006C458.244 241.562 458.547 242.288 458.853 243.215C458.881 243.299 458.909 243.384 458.939 243.47C458.972 243.568 459.008 243.667 459.048 243.767C459.075 243.837 459.103 243.907 459.131 243.978C460.551 243.045 462.215 242.36 464.12 242.024C464.147 242.018 464.175 242.014 464.202 242.01C464.228 242.006 464.254 242.004 464.281 242.002C464.281 242.002 465.567 241.903 466.662 243.035C467.227 243.619 467.801 244.536 467.987 246.077C468.03 246.329 467.965 246.588 467.808 246.788C467.808 246.788 465.729 248.986 465.103 251.461C464.933 252.138 464.949 252.83 465.089 253.455C465.171 253.82 465.386 254.11 465.622 254.397C465.709 254.546 465.76 254.707 465.777 254.87C470.988 253.852 476.423 256.747 479.816 260.878C483.317 265.139 485.092 270.52 486.794 275.765C489.425 283.873 492.073 292.056 492.929 300.537C493.646 307.637 493.091 314.773 492.537 321.903L492.537 321.904C492.368 324.078 492.2 326.252 492.067 328.424C490.683 351.063 493.261 373.939 499.652 395.703C502.292 404.692 513.705 406.959 523.009 408.083C532.097 409.181 543.238 412.802 544.574 421.662C544.036 420.8 541.663 421.311 541.668 422.749C541.668 424.329 543.115 425.41 544.408 426.376L544.409 426.377L544.41 426.378L544.412 426.378C544.513 426.454 544.613 426.529 544.712 426.604C549.402 430.164 552.021 436.305 551.25 442.139C550.42 448.513 546.079 453.652 541.869 458.637C541.247 459.375 540.627 460.108 540.022 460.842C531.315 471.393 524.788 483.746 520.98 496.891C518.818 495.597 517.381 493.167 517.284 490.652C512.109 498.922 502.769 504.443 493.024 504.972C490.835 505.093 488.636 504.979 486.439 504.865L486.437 504.865C483.284 504.702 480.137 504.539 477.036 505.07C471.775 505.971 466.361 509.852 466.324 515.189C458.787 502.659 458.587 486.053 465.821 473.353C467.823 469.831 469.325 463.808 465.337 463.116C465.049 456.629 470.823 451.396 476.824 448.92C479.403 447.856 482.103 447.108 484.801 446.361C488.381 445.37 491.956 444.38 495.231 442.655C500.975 439.63 505.782 433.065 503.705 426.911C501.468 420.286 492.702 418.287 485.948 420.097C482.297 421.072 478.923 422.797 475.546 424.524C472.676 425.992 469.804 427.461 466.756 428.472C464.174 429.33 461.482 429.853 458.795 430.376L458.794 430.376C454.789 431.156 450.795 431.933 447.198 433.809C441.189 436.939 436.893 445.216 441.139 450.501C443.607 453.571 438.438 457.367 434.528 456.883C433.602 456.769 432.645 456.577 431.683 456.385C428.582 455.763 425.429 455.132 423.11 457.047C435.868 458.954 448.813 459.601 461.698 458.98C461.566 461.149 458.676 461.744 456.502 461.711C434.803 461.378 413.123 459.804 391.604 456.994C387.435 456.452 383.249 455.864 379.053 455.275C352.477 451.544 325.482 447.755 299.86 454.982C304.45 459.673 310.76 462.639 317.301 463.188C312.381 464.252 306.858 465.213 302.634 462.476C298.409 459.738 298.164 451.703 303.088 450.671C328.102 445.412 353.553 449 379.091 452.6C392.378 454.473 405.69 456.349 418.975 456.985C419.042 456.99 419.109 456.993 419.178 456.994L418.975 456.985C414.927 456.694 413.755 450.587 416.032 447.123C417.426 445.005 419.469 443.487 421.522 441.962L421.522 441.962L421.522 441.961L421.522 441.961C422.881 440.952 424.244 439.94 425.425 438.748C421.477 437.435 417.148 439.016 413.574 441.139C412.521 441.767 411.492 442.447 410.463 443.126C408.002 444.751 405.543 446.375 402.755 447.287C398.803 448.587 393.788 447.986 391.478 444.523C389.166 441.067 392.077 435.083 396.14 435.978C407.671 438.507 419.824 426.754 417.685 415.145C417.252 412.793 416.361 410.57 415.468 408.344L415.468 408.344L415.468 408.344L415.468 408.343C414.672 406.359 413.876 404.373 413.404 402.295C411.179 392.494 416.284 383.236 421.299 374.14C422.689 371.619 424.072 369.111 425.29 366.607L425.563 366.047C429.798 357.354 436.434 343.732 428.464 338.707C406.591 324.915 399.369 311.879 404.795 314.531L422.532 308.451L439.022 302.798C442.789 301.507 447.396 297.572 444.768 294.58C443.916 293.609 442.562 293.283 441.294 293.04C440.389 292.867 439.478 292.708 438.565 292.55C435.062 291.942 431.549 291.331 428.331 289.855C424.275 287.993 420.665 284.366 420.332 279.916C419.867 273.698 425.064 269.963 430.484 266.068C434.544 263.151 438.729 260.144 440.754 255.937C441.972 253.407 442.321 250.557 442.581 247.761C443.674 235.988 443.423 223.794 439.096 212.792C434.768 201.789 425.775 192.113 414.263 189.424C398.211 185.676 381.972 196.119 371.78 209.077C356.577 228.405 350.203 254.412 354.746 278.58C348.478 268.594 349.37 255.724 352.125 244.26C358.265 218.714 374.948 193.586 400.287 186.653C393.829 182.69 385.343 183.101 378.472 186.294C371.601 189.487 366.146 195.121 361.639 201.213C350.835 215.817 344.664 233.797 344.222 251.96C342.922 253.204 341.411 250.614 341.494 248.816C342.602 224.923 354.147 201.698 372.525 186.393C360.545 187.544 349.943 197.405 347.927 209.271C345.79 208.935 345.647 205.881 346.331 203.828C349.427 194.538 357.723 187.614 366.948 184.334C376.174 181.054 386.257 181.017 395.981 182.157C411.027 183.921 426.699 189.065 436.003 201.022C445.853 213.682 446.493 231.083 445.485 247.093C445.091 253.332 443.888 260.568 438.397 263.553C434.517 265.662 430.55 267.893 427.807 271.353C425.064 274.813 423.816 279.839 425.941 283.709C428.066 287.581 434.208 288.956 437.042 285.57C436.957 286.32 436.872 287.07 436.788 287.82L436.765 288.016C436.679 288.782 436.592 289.547 436.506 290.313C440.512 288.711 445.523 290.177 448.033 293.687C450.544 297.196 450.315 302.413 447.506 305.688C448.781 303.395 443.957 302.702 442.399 304.814C442.038 305.303 441.696 305.855 441.352 306.412C440.208 308.259 439.034 310.156 437.026 309.973L437.495 305.579C432.731 308.016 427.967 310.453 423.203 312.89C432.659 313.308 442.223 310.809 450.266 305.819C452.586 304.38 456.656 303.41 457.138 306.097C441.664 313.804 424.116 317.29 406.872 316.085C406.976 319.258 409.724 321.654 412.398 323.365C427.1 332.774 446.803 333.774 462.382 325.902C454.449 333.586 442.405 334.65 431.379 335.287C435.22 344.606 432.479 355.313 428.455 364.555C427.443 366.881 426.348 369.186 425.252 371.491C421.994 378.346 418.732 385.209 417.628 392.672C416.153 402.641 419.89 414.387 429.216 418.202C428.094 413.287 433.223 409.671 437.448 406.693C437.664 406.541 437.878 406.39 438.088 406.241C448.734 398.695 454.854 385.872 456.345 372.907C457.835 359.943 455.12 346.812 450.874 334.473C454.584 335.092 456.142 339.487 456.877 343.176C461.233 365.054 460.563 391.065 443.531 405.476C442.713 406.169 441.845 406.867 440.964 407.576L440.962 407.578C435.674 411.831 429.887 416.486 431.113 422.801C433.165 433.365 426.968 444.954 417.041 449.109C416.738 451.304 418.577 453.552 420.786 453.689C422.994 453.833 425.101 451.834 425.077 449.619L428.012 454.107C430.159 454.708 432.048 452.657 433.334 450.834C433.963 453.251 436.77 454.858 439.173 454.172C433.004 444.236 441.316 428.962 453.012 428.747C464.487 428.537 475.669 422.181 481.719 412.427C482.1 414.139 482.479 415.844 482.859 417.556C488.175 416.504 493.883 416.432 498.808 418.699C503.732 420.959 507.653 425.931 507.475 431.346C507.189 440.088 497.586 445.131 489.22 447.653L489.177 447.666C480.82 450.184 471.03 453.135 468.064 461.339C470.496 461.365 472.092 464.174 471.859 466.598C471.659 468.687 470.551 470.534 469.464 472.347C469.289 472.637 469.116 472.926 468.947 473.216C462.817 483.707 461.712 496.995 466.022 508.356ZM544.653 422.305C544.713 422.039 544.677 421.825 544.574 421.662C544.606 421.873 544.633 422.087 544.653 422.305ZM397.847 439.362C396.545 439.617 395.149 439.944 394.274 440.937C393.4 441.936 393.478 443.824 394.719 444.295C395.664 443.197 396.88 442.335 398.229 441.812C397.684 443.981 400.794 445.961 402.53 444.549C408.133 439.989 414.971 436.965 422.114 435.88C422.301 435.852 422.489 435.824 422.678 435.797C424.27 435.566 425.899 435.329 427.214 434.423C428.684 433.411 429.523 431.209 428.437 429.798C427.764 428.921 428.019 427.78 428.272 426.647C428.362 426.244 428.451 425.842 428.499 425.454C429.002 421.377 424.785 418.47 421.14 416.582C420.545 418.285 420.396 420.089 420.247 421.896C420.109 423.569 419.971 425.243 419.478 426.839C418.181 431.039 414.547 434.175 410.55 435.991C407.009 437.606 403.155 438.344 399.325 439.077L399.314 439.08L399.303 439.082C398.817 439.175 398.331 439.268 397.847 439.362ZM348.827 312.099C348.958 309.014 346.749 305.676 343.954 304.971C339.43 303.828 328.522 302.037 320.951 301.717C323.079 295.972 325.207 290.228 327.335 284.484C329.347 290.585 332.84 296.195 337.43 300.699C337.193 297.162 335.418 294.046 333.635 290.917C332.811 289.471 331.986 288.022 331.311 286.527C329.174 281.801 329.291 274.942 334.04 272.837C341.922 269.344 346.329 257.968 340.391 251.726C338.431 249.666 335.787 248.518 333.146 247.371C332.232 246.974 331.318 246.577 330.433 246.142C326.993 244.453 323.564 241.526 323.556 237.702C329.695 236.901 334.917 232.315 337.562 226.73C340.208 221.146 340.552 214.707 339.731 208.586C339.701 208.364 339.67 208.141 339.639 207.916C339.139 204.264 338.583 200.207 340.996 197.495C346.084 191.779 343.537 182.889 340.723 175.779C340.039 174.051 338.879 172.002 337.02 172.136C335.937 172.214 335.079 173.054 334.384 173.886C330.712 178.279 328.638 183.974 328.627 189.694C324.352 189.834 320.871 185.903 319.813 181.768C318.965 178.448 319.253 174.992 319.539 171.554V171.554V171.554C319.609 170.71 319.679 169.868 319.733 169.029C320.482 157.232 317.743 145.235 311.947 134.926C311.245 133.679 310.499 132.453 309.753 131.227C307.99 128.331 306.228 125.436 305.061 122.265C303.399 117.751 303.12 112.384 305.814 108.396C308.137 104.96 312.054 103.266 315.95 101.58C317.215 101.033 318.477 100.487 319.682 99.883C325.791 96.8186 330.891 91.7919 334.039 85.7355C335.015 83.8582 335.82 81.688 335.205 79.6642C334.59 77.6404 331.935 76.2028 330.251 77.4879C333.127 81.8209 331.023 87.954 327.195 91.4799C324.166 94.2697 320.333 95.9135 316.519 97.5495C315.512 97.9811 314.507 98.4122 313.518 98.8637C308.78 101.026 303.985 104.089 302.129 108.946C301.714 110.032 301.437 111.213 301.161 112.389C300.541 115.028 299.927 117.645 297.772 119.124C294.674 121.25 289.642 118.661 289.581 114.91C288.719 117.613 287.857 120.316 286.996 123.019L286.979 123.07L286.847 123.483L285.486 127.751C287.472 123.907 291.993 121.534 296.293 122.078C303.083 122.938 307.289 129.785 309.871 136.107C314.854 148.304 317.605 161.404 317.95 174.57C318.139 181.774 309.218 185.132 302.109 186.416C299.403 182.21 295.873 178.534 291.775 175.659C287.805 172.874 282.046 177.298 281.687 182.128C281.329 186.956 284.292 191.328 287.048 195.313C289.804 199.299 292.607 203.845 291.881 208.631C291.19 213.177 287.516 216.6 284.073 219.656C271.602 230.724 258.662 243.089 255.175 259.375C252.205 273.242 256.655 287.5 261.055 300.984C248.353 295.675 238.246 284.525 234.226 271.383C230.206 258.243 232.348 243.363 239.914 231.883C239.775 234.176 242.539 235.778 244.798 235.33C247.058 234.881 248.786 233.101 250.263 231.338C269.068 208.883 270.322 173.582 253.158 149.854C254.692 149.358 256.226 148.861 257.76 148.364C256.512 147.556 257.055 145.419 258.372 144.73C259.689 144.04 261.289 144.354 262.725 144.741C277.979 148.844 291.296 159.631 298.453 173.682L299.316 173.224L302.036 171.781L302.355 177.52L302.703 183.788C305.181 179.299 305.751 173.801 304.246 168.902C302.831 167.507 300.063 168.022 299.247 169.832C290.655 153.767 273.52 142.579 255.323 141.155C255.861 143.318 253.831 145.437 251.637 145.858C249.444 146.277 247.219 145.497 245.122 144.729C256.773 156.349 263.438 172.788 263.159 189.221C262.882 205.655 255.666 221.861 243.63 233.083C244.645 231.212 242.157 229 240.07 229.444C237.985 229.887 236.6 231.825 235.55 233.677C223.253 255.377 231.203 286.136 252.484 299.198C253.531 299.841 254.612 300.454 255.697 301.068C259.674 303.323 263.687 305.597 266.098 309.394C254.489 315.467 241.263 313.981 227.891 312.479C216.987 311.254 205.986 310.018 195.685 312.859C193.182 313.55 190.183 315.635 191.205 318.016C202.658 312.592 215.816 314 228.886 315.398C243.063 316.914 257.137 318.42 268.82 311.184C267.92 316.971 267.765 324.339 272.973 327.04C275.408 328.302 278.319 328.054 281.049 327.773L285.183 327.348C289.674 326.887 294.167 326.425 298.658 325.963C302.757 325.542 304.984 320.336 303.621 316.456C302.259 312.576 298.514 310.029 294.715 308.435L299.297 306.26L303.879 304.086C301.964 308.489 307.528 312.275 312.054 313.902C314.933 314.937 317.811 315.972 320.689 317.007L320.766 317.035L320.844 317.063L325.34 318.679C330.443 320.514 335.967 322.369 341.18 320.871C345.167 319.724 348.651 316.235 348.827 312.099ZM291.927 217.415C295.881 226.438 304.291 233.387 313.914 235.584C316.923 236.271 321.081 238.487 319.461 241.108C315.786 241.56 312.112 242.012 308.438 242.464C305.97 242.767 303.367 243.125 301.411 244.658C299.455 246.19 298.536 249.327 300.184 251.186C295.754 249.605 292.236 245.691 291.143 241.126C288.314 247.452 295.495 254.022 302.327 255.256C304.913 255.723 307.58 255.815 310.237 255.906H310.237C314.599 256.056 318.936 256.205 322.852 258.011C320.446 268.072 310.202 275.653 299.853 275.033C289.505 274.412 280.245 265.662 279.063 255.386C276.06 260.064 278.892 266.422 282.947 270.23C284.58 271.764 286.402 273.095 288.222 274.424C290.92 276.395 293.611 278.36 295.664 280.971C301.348 288.205 300.237 299.824 293.284 305.856C291.483 307.418 292.462 310.509 294.265 312.068C295.105 312.795 296.075 313.352 297.043 313.908C298.153 314.546 299.262 315.183 300.172 316.073C301.875 317.74 302.444 321.032 300.387 322.239C297.855 323.725 295.195 320.538 293.977 317.87C294.768 320.428 293.13 323.474 290.555 324.231C287.98 324.987 284.949 323.313 284.223 320.735C283.736 319.003 282.693 316.242 281.286 317.368C283.315 320.207 281.516 324.871 278.104 325.621C274.691 326.37 271.094 322.891 271.741 319.466C272.702 314.366 269.89 309.499 267.252 304.936L266.996 304.493C266.85 304.239 266.705 303.986 266.561 303.735C257.708 288.236 253.946 268.915 260.601 252.358C266.502 237.677 279.476 227.206 291.927 217.415ZM336.07 252.318C337.24 253.03 338.826 253.997 339.531 254.777C345.156 260.999 336.433 275.081 328.002 270.02C326.129 279.879 322.937 289.489 318.537 298.514L318.519 298.55C318.011 299.592 317.482 300.679 317.507 301.837C317.533 303.008 318.344 304.255 319.516 304.328C321.108 304.428 322.878 304.487 324.732 304.55C333.982 304.861 345.338 305.243 347.224 311.023C347.126 311.826 346.695 312.585 346.056 313.083C345.767 312.256 344.539 311.955 343.898 312.555C344.827 313.84 344.63 315.806 343.465 316.883C342.299 317.96 340.32 318.006 339.105 316.983C338.638 316.59 338.209 316.05 337.787 315.517C336.851 314.34 335.944 313.197 334.714 313.756C335.641 314.796 335.627 316.54 334.684 317.564C333.739 318.589 331.999 318.75 330.882 317.917C324.665 313.274 316.728 311.742 309.092 310.335C306.642 309.885 306.798 306.324 307.658 303.99C311.132 294.561 315.681 285.525 321.188 277.115C323.376 273.774 325.095 269.626 325.416 265.907C325.748 262.054 325.718 255.594 321.752 255.186C323.783 250.658 330.984 248.258 334.768 251.476C334.97 251.648 335.465 251.949 336.07 252.318ZM301.608 277.702C301.98 277.673 302.35 277.645 302.716 277.61C310.482 276.863 317.806 272.407 322.028 265.862C322.439 271.316 319.164 275.82 315.829 280.404C313.28 283.908 310.697 287.46 309.698 291.52C308.927 294.652 306.737 297.212 304.615 299.645C303.272 301.185 301.929 302.725 300.586 304.265C299.457 303.729 300.007 302.045 300.602 300.948C304.467 293.834 302.712 284.15 296.595 278.836C298.094 277.971 299.862 277.835 301.608 277.702H301.608ZM312.358 245.466C313.424 244.884 314.489 244.303 315.684 244.169C318.111 243.898 320.56 245.88 320.794 248.305C321.028 250.73 319.001 253.142 316.567 253.337C311.669 253.728 306.707 253.312 301.943 252.111L302.586 249.819C302.752 249.229 302.918 248.638 303.083 248.048C303.505 246.545 305.146 244.69 306.191 245.852C307.336 247.127 309.421 246.893 310.98 246.177C311.446 245.963 311.902 245.714 312.358 245.466ZM368.53 241.777C366.601 249.565 369.122 252.578 370.386 246.067C375.264 220.957 396.745 199.914 422 195.506C420.765 193.388 417.66 193.608 415.287 194.242C392.733 200.254 374.129 219.167 368.53 241.777ZM324.501 248.929L323.535 248.387L323.609 248.248C322.667 246.527 322.067 244.62 321.855 242.67C324.255 244.229 326.982 247.048 325.45 249.462L324.501 248.929ZM332.381 185.553C333.248 181.244 334.12 176.907 337.837 175.008C338.44 177.186 339.042 179.363 339.645 181.541L340.951 186.262C338.611 189.442 337.667 193.608 338.407 197.484C336.308 195.464 333.647 194.031 330.801 193.389C332.839 195.995 334.909 198.659 336.029 201.77C337.148 204.88 337.175 208.57 335.281 211.282C335.048 211.614 335.255 212.062 335.446 212.419C337.635 216.504 337.338 221.797 334.705 225.612L334.738 225.666C335.052 226.178 335.144 226.329 334.201 227.918C333.977 230.465 330.652 231.447 328.127 231.016C327.411 230.893 326.693 230.71 325.974 230.528C324.158 230.066 322.344 229.604 320.583 230.121C321.812 232.243 323.943 233.825 326.333 234.389C317.899 236.167 309.327 231.908 302.59 226.543C299.088 223.755 295.755 220.49 294.145 216.32C291.664 209.891 294.16 201.916 299.865 198.036C301.495 196.929 300.636 194.387 299.522 192.764C297.941 190.459 295.973 188.185 293.28 187.421C290.588 186.657 287.127 188.12 286.736 190.885C285.68 187.422 285.116 183.811 285.066 180.192C285.056 179.494 285.082 178.744 285.498 178.184C286.371 177.009 288.221 177.434 289.524 178.103C295.09 180.958 299.344 186.249 300.928 192.289C301.475 194.376 302.994 197.231 304.89 196.193C304.468 194.556 304.046 192.919 303.625 191.283C303.487 190.749 303.354 190.163 303.591 189.666C303.825 189.173 304.358 188.904 304.859 188.683C307.802 187.38 310.912 186.45 314.088 185.922L314.428 187.318L314.768 188.715C318.218 188.857 321.645 189.539 324.887 190.728C323.453 192.166 325.61 194.799 327.6 194.384C329.59 193.968 330.761 191.907 331.35 189.967C331.775 188.57 332.078 187.063 332.381 185.553L332.381 185.553L332.381 185.553ZM296.35 195.488C296.027 195.384 295.705 195.282 295.374 195.332C294.556 195.456 294.253 196.321 293.95 197.186C293.648 198.051 293.345 198.916 292.528 199.042C290.35 196.654 289.595 193.062 290.626 190.001C293.743 190.036 296.753 192.026 298.002 194.875C298.116 195.387 297.427 195.723 296.909 195.637C296.72 195.606 296.535 195.547 296.35 195.488Z"
        fill="#00160A" />
    <path fill-rule="evenodd" clip-rule="evenodd"
        d="M422.107 275.508C422.592 274.186 427.464 273.517 427.95 274.402C428.437 275.286 425.198 276.635 425.025 280.815C425.008 281.231 423.691 280.815 423.691 280.815C423.691 280.815 421.499 277.163 422.107 275.508Z"
        fill="#FFB61D" />
    <path fill-rule="evenodd" clip-rule="evenodd"
        d="M322.138 256.269C322.138 256.269 322.697 255.195 323.753 254.021C324.886 252.764 326.629 251.418 329.018 251.369C330.416 251.34 332.009 251.802 333.876 252.938C334.799 253.499 335.788 254.21 336.832 255.13C339.713 257.521 340.028 260.877 338.96 263.806C337.782 267.041 335.01 269.83 331.831 270.421C331.278 270.515 328.707 270.459 326.63 269.305C325.737 268.809 324.981 268.067 324.526 267.13C324.269 266.6 324.187 265.989 324.203 265.3C324.153 264.657 323.592 264.176 322.95 264.226C322.308 264.277 321.828 264.839 321.878 265.481C322.231 267.565 323.385 268.949 324.881 269.904C325.523 270.314 326.207 270.659 326.903 270.941C329.152 271.848 331.495 272.061 332.071 271.986C335.908 271.522 339.476 268.435 341.087 264.648C342.71 260.838 342.329 256.373 338.642 253.035C337.436 252.007 336.308 251.194 335.232 250.597C332.78 249.237 330.653 248.856 328.87 249.045C326.778 249.268 325.126 250.233 323.905 251.418C321.889 253.371 321.045 255.814 321.045 255.814C320.92 256.116 321.063 256.463 321.365 256.588C321.667 256.714 322.013 256.571 322.138 256.269Z"
        fill="#FFB61D" />
    <path fill-rule="evenodd" clip-rule="evenodd"
        d="M328.091 258.87C328.091 258.87 328.797 258.926 329.667 259.087C330.071 259.162 330.464 259.333 330.841 259.538C331.052 259.652 331.22 259.818 331.34 260.073C331.475 260.36 331.618 260.704 331.629 261.178C331.63 261.157 331.715 262.435 330.36 262.628C330.155 262.658 329.924 262.693 329.673 262.65C329.574 262.632 329.478 262.595 329.379 262.549C329.061 262.4 328.842 262.15 328.503 261.874C327.916 261.67 327.271 261.975 327.065 262.556C326.857 263.137 327.166 263.775 327.753 263.979C328.197 263.969 328.522 263.956 328.893 263.93C329.061 263.919 329.211 263.912 329.365 263.926C330.491 264.028 331.267 264.05 331.887 263.826C333.647 263.193 333.923 261.363 333.923 261.363C333.923 261.356 333.924 261.349 333.924 261.342C334.105 260.248 333.942 259.408 333.639 258.766C333.436 258.337 333.147 257.988 332.805 257.731C332.161 257.246 331.367 256.985 330.568 257.001C330.143 257.009 329.743 257.049 329.366 257.154C328.425 257.415 327.773 257.783 327.773 257.783C327.47 257.869 327.295 258.184 327.383 258.484C327.47 258.784 327.788 258.957 328.091 258.87Z"
        fill="#FFB61D" />
    <path opacity="0.01" fill-rule="evenodd" clip-rule="evenodd"
        d="M397.841 284.858C397.841 284.858 398.246 285.105 399.141 285.312C399.413 285.376 399.692 285.371 400.035 285.364C400.272 285.359 400.512 285.311 400.768 285.24C400.994 285.177 401.224 285.078 401.447 284.95C401.692 284.809 401.93 284.644 402.159 284.436C402.865 283.795 403.27 282.831 404.066 281.774C404.128 281.692 404.202 281.633 404.291 281.576C404.553 281.41 404.708 281.353 405.002 281.201C405.317 280.645 405.114 279.943 404.551 279.633C403.988 279.323 403.276 279.523 402.962 280.079C402.977 280.408 403.111 280.601 403.005 280.887C402.923 281.11 402.715 281.252 402.552 281.4C402.011 281.896 401.415 282.08 400.885 282.303C400.696 282.382 400.51 282.419 400.337 282.487C400.156 282.559 399.98 282.616 399.822 282.691C399.481 282.854 399.236 283.052 398.977 283.177C398.33 283.488 398.029 283.704 398.029 283.704C397.706 283.652 397.402 283.869 397.35 284.188C397.298 284.507 397.519 284.807 397.841 284.858Z"
        fill="#FFB61D" />
</svg>