<svg width="601" height="467" viewBox="0 0 601 467" fill="none" xmlns="http://www.w3.org/2000/svg">
<g clip-path="url(#clip0_27_1092)">
<path fill-rule="evenodd" clip-rule="evenodd" d="M510.177 66.4908C413.256 10.873 337.687 174.131 282.799 194.683C172.179 236.103 -33.2867 272.128 5.89772 352.654C59.7008 463.223 246.905 474.255 380.778 463.223C554.906 448.873 700.732 175.84 510.177 66.4908Z" fill="#BB6BD9"/>
<path fill-rule="evenodd" clip-rule="evenodd" d="M496.123 244.7C497.122 245.581 497.461 246.96 497.711 248.28L499.23 256.565C499.441 257.717 500.408 258.262 500.78 257.606C501.174 256.912 502.226 257.2 502.931 257.575L511.732 262.259C508.738 264.408 505.205 265.801 501.549 266.273C499.747 266.505 499.456 268.974 499.647 270.781L500.169 275.697C500.331 277.228 497.921 277.749 496.717 276.788C495.514 275.827 495.057 274.218 494.109 273.004C492.576 271.044 489.868 270.313 487.39 270.54C484.912 270.767 482.592 271.806 480.324 272.83C478.862 273.491 477.254 271.741 477.368 270.141C477.469 268.729 478.372 267.545 479.293 266.444L479.661 266.007C480.694 264.78 481.727 263.326 481.553 261.731C481.407 260.403 480.459 259.334 479.508 258.379L478.952 257.82C478.07 256.919 477.233 255.917 477.078 254.685C476.902 253.277 478.187 251.655 479.538 252.092C484.74 253.773 491.003 250.495 492.586 245.263C492.997 243.903 495.058 243.76 496.123 244.7Z" fill="white"/>
<path fill-rule="evenodd" clip-rule="evenodd" d="M496.123 244.7C497.122 245.581 497.461 246.96 497.711 248.28L499.23 256.565C499.441 257.717 498.977 259.5 497.877 259.097C496.311 255.776 495.478 252.112 495.454 248.441C494.857 247.867 493.967 248.721 493.596 249.461L489.882 256.861C489.228 258.164 487.275 257.876 485.987 257.195L485.296 256.83C484.178 256.25 482.96 255.736 481.9 256.308C481.359 257.928 483.765 258.736 485.013 259.903C486.438 261.234 486.354 263.626 485.357 265.303C484.361 266.979 482.677 268.11 481.049 269.183C483.388 269.569 485.883 268.885 487.7 267.361C488.52 266.672 489.272 265.788 490.32 265.569C491.942 265.23 493.4 266.636 494.242 268.064C495.084 269.491 495.75 271.162 497.189 271.986C497.909 270.851 497.524 269.427 497.071 268.115L496.855 267.503C496.334 266.037 496.1 264.094 497.377 263.204C497.857 262.869 498.453 262.771 499.039 262.707L505.317 262.079L501.7 259.444C501.091 259 500.408 258.262 500.78 257.606C501.174 256.912 502.226 257.2 502.931 257.575L511.732 262.259C508.738 264.408 505.205 265.801 501.549 266.273C499.747 266.505 499.456 268.974 499.647 270.781L500.169 275.697C500.331 277.228 497.921 277.749 496.717 276.788C495.514 275.827 495.057 274.218 494.109 273.004C492.576 271.044 489.868 270.313 487.39 270.54C484.912 270.767 482.592 271.806 480.324 272.83C478.862 273.491 477.254 271.741 477.368 270.141C477.469 268.729 478.372 267.545 479.293 266.444L479.661 266.007C480.694 264.78 481.727 263.326 481.553 261.731C481.407 260.403 480.459 259.334 479.508 258.379L478.952 257.82C478.07 256.919 477.233 255.917 477.078 254.685C476.902 253.277 478.187 251.655 479.538 252.092C484.74 253.773 491.003 250.495 492.586 245.263C492.997 243.903 495.058 243.76 496.123 244.7Z" fill="#FFB61D"/>
<path fill-rule="evenodd" clip-rule="evenodd" d="M149.824 96.1275C146.058 79.3892 156.319 51.6046 174.653 40.4331C192.987 29.2615 216.439 28.4962 236.857 35.1304C236.206 15.4053 256.21 -1.52094 275.879 0.108716C295.547 1.73838 311.866 19.3968 314.509 38.9549C316.568 54.1942 308.745 72.3463 293.617 75.1065C298.964 94.2127 301.938 114.315 299.003 133.937C296.068 153.559 286.73 172.727 270.971 184.781C266.62 190.633 269.906 199.462 275.634 203.975C281.362 208.489 288.775 210.076 295.629 212.567C324.347 223.004 344.566 251.337 349.279 281.528C353.992 311.718 344.579 343.029 327.566 368.411C315.914 385.796 300.062 401.236 280.229 407.922C252.392 417.307 221.87 408.169 194.839 396.666C184.535 392.281 174.042 387.298 166.768 378.783C158.97 369.655 144.233 374.585 133.605 380.168C140.672 383.1 147.739 386.032 154.805 388.964C156.324 389.594 157.971 390.343 158.675 391.828C160.157 394.955 156.506 397.964 153.415 399.521C150.094 401.193 146.772 402.866 143.451 404.538C123.064 414.804 101.832 425.293 79.0152 425.927C54.0692 426.621 30.5053 415.471 8.05447 404.574C5.55902 403.363 2.91382 402.014 1.55695 399.595C0.200087 397.176 0.958542 393.403 3.64021 392.694C28.8262 386.033 52.6713 374.343 73.3618 358.513C71.7791 348.658 72.1521 338.493 74.4529 328.781C74.7857 327.377 75.2644 325.836 76.5162 325.117C79.5938 323.349 82.267 328.007 82.8108 331.514C84.1833 340.368 85.5559 349.221 86.9285 358.074C103.41 356.251 119.406 350.197 132.965 340.65C122.39 332.134 111.815 323.617 101.24 315.101C95.1383 310.187 89.2487 307.248 85.9534 297.626C83.7565 291.211 85.5296 284.622 91.2727 277.857C84.8615 245.907 82.0563 221.822 82.857 205.603C83.0707 201.274 83.5553 196.6 86.4693 193.391C91.613 187.727 101.713 190.17 106.408 196.211C111.103 202.253 111.889 210.36 112.496 217.987C130.373 215.803 148.25 213.619 166.126 211.435C172.667 210.636 179.44 209.855 185.735 211.802C193.633 214.244 199.976 221.161 201.726 229.24C209.27 227.201 217.486 224.69 221.746 218.139C226.007 211.589 222.398 200.195 214.591 200.533C190.171 201.589 166.288 183.468 160.73 159.665C159.316 153.611 158.767 146.884 154.517 142.347C147.782 135.157 142.651 125.888 142.684 116.037C142.717 106.186 146.844 105.011 149.824 96.1275ZM4.05298 399.293C4.60281 400.115 5.56246 400.545 6.47137 400.934C15.7968 404.925 25.1223 408.916 34.4477 412.907C38.691 414.723 42.9479 416.544 47.3854 417.813C59.7607 421.354 73.096 420.491 85.4004 424.271C86.8929 424.729 88.4949 424.256 89.9809 423.777C100.713 420.32 111.318 416.472 121.769 412.242C132.703 407.816 143.538 402.934 153.246 396.234C154.129 395.624 155.045 394.947 155.448 393.952C155.851 392.958 155.48 391.575 154.448 391.282C147.896 389.421 141.44 387.226 135.111 384.708C133.077 383.899 130.787 382.745 130.355 380.599C124.78 380.823 119.905 384.339 115.793 388.11C111.681 391.881 107.818 396.139 102.751 398.475C97.6842 400.811 90.8836 400.609 87.3735 396.273C86.9986 395.809 86.6221 395.277 86.0457 395.126C85.4692 394.975 84.7287 395.549 84.9974 396.081C85.6933 397.459 84.1986 399.201 82.658 399.105C81.1175 399.009 79.913 397.606 79.5338 396.11C79.1546 394.614 77.0963 397.287 74.1132 397.732C71.1301 398.176 67.9652 396.262 66.9743 393.413C66.1577 391.066 62.956 391.024 60.5094 390.585C54.9465 389.586 50.7221 383.757 51.5045 378.159C35.5172 383.491 19.8197 389.692 4.50437 396.725C3.60593 397.138 3.50315 398.472 4.05298 399.293Z" fill="white"/>
<path d="M228.5 169C233.194 169 237 165.194 237 160.5C237 155.806 233.194 152 228.5 152C223.806 152 220 155.806 220 160.5C220 165.194 223.806 169 228.5 169Z" fill="#FFB61D"/>
<path d="M169.5 162C171.985 162 174 159.985 174 157.5C174 155.015 171.985 153 169.5 153C167.015 153 165 155.015 165 157.5C165 159.985 167.015 162 169.5 162Z" fill="#FFB61D"/>
<path fill-rule="evenodd" clip-rule="evenodd" d="M269.091 194.614C269.87 198.655 272.184 202.569 275.264 204.996C280.992 209.51 293.867 214.157 300.721 216.648C301.345 216.875 297.828 218.861 293.288 223.253C280.998 235.142 254.125 256.433 227.872 245.733C224.804 244.483 222.238 243.043 220.148 241.517C218.222 240.111 235.897 242.137 252.421 239.004C269.035 235.854 284.493 227.532 280.355 220.935C276.466 214.733 265.529 204.23 264.676 198.052C263.539 189.821 268.422 191.142 269.091 194.614Z" fill="#E7EAEE"/>
<path fill-rule="evenodd" clip-rule="evenodd" d="M3.71558 396.955C3.71558 393.658 14.1125 390.99 31.8862 384.304C44.1107 379.706 67.9383 366.401 79.6616 365.781C87.4625 365.369 118.637 376.781 138.983 384.978C149.213 389.1 157.104 391.681 157.104 393.004C157.104 395.659 135.383 408.481 113.183 416.908C102.347 421.022 92.1804 424.706 82.8569 424.457C54.432 423.698 3.71558 405.303 3.71558 396.955Z" fill="white"/>
<path fill-rule="evenodd" clip-rule="evenodd" d="M405.282 123.093C364.521 140.503 330.47 170.25 298.026 200.501L296.041 202.354C294.149 204.123 291.276 205.972 289.233 204.378L295.538 198.639C328.524 168.67 362.629 138.953 403.442 121.297C434.821 107.722 434.487 110.62 405.282 123.093ZM229.707 413.077L248.828 433.905C249.765 434.925 250.741 436.021 251.003 437.381C251.266 438.742 250.477 440.403 249.099 440.547L209.73 444.664C203.191 445.348 196.523 440.814 194.64 434.514C192.757 428.215 195.77 420.836 201.466 417.551C207.161 414.266 214.973 415.302 219.7 419.871C220.871 421.003 222.928 420.041 223.759 418.641C224.591 417.241 224.77 415.523 225.629 414.14C226.488 412.756 228.606 411.877 229.707 413.077ZM197.96 425.099C195.518 429.732 197.062 436.008 201.241 439.165C203.288 440.711 205.802 441.541 208.336 441.95C211.914 442.527 216.066 442.09 218.366 439.289C219.206 438.266 219.721 437.013 220.072 435.737C221.242 431.491 220.647 426.787 218.458 422.965C217.862 421.925 216.946 420.839 215.748 420.891C215.179 420.915 214.65 421.203 214.083 421.262C213.14 421.359 212.267 420.82 211.407 420.42C206.66 418.209 200.401 420.466 197.96 425.099ZM228.009 417.255C227.257 420.389 225.702 423.328 223.532 425.711C222.921 426.383 223.07 427.42 223.194 428.319C223.797 432.699 222.8 437.281 220.432 441.014C224.313 440.095 228.282 439.546 232.267 439.376C237.73 439.144 243.429 439.582 248.436 437.384C245.761 436.22 243.491 434.15 242.086 431.593C241.26 430.089 240.117 428.788 238.984 427.501L230.278 417.607C229.649 416.892 228.231 416.329 228.009 417.255ZM129.138 417.067C130.386 420.965 135.082 422.302 139.15 423.004L166.297 427.537C172.575 428.585 179.018 429.632 185.26 428.394C186.438 428.16 187.061 430.031 186.284 430.946C185.507 431.861 184.155 431.97 182.954 431.974C177.515 431.992 172.108 431.269 166.725 430.46L160.992 429.586C150.845 428.027 140.702 426.366 130.77 423.782C129.07 423.339 127.308 422.834 126.007 421.653C124.706 420.473 124.029 418.412 124.944 416.913C125.86 415.414 128.602 415.394 129.138 417.067ZM275.879 0.108716C295.547 1.73838 311.866 19.3968 314.509 38.9549C316.568 54.1942 308.745 72.3463 293.617 75.1065C298.964 94.2127 301.938 114.315 299.003 133.937C296.068 153.559 286.73 172.727 270.971 184.781C266.62 190.633 269.906 199.462 275.634 203.975C281.362 208.489 288.775 210.076 295.629 212.567C324.347 223.004 344.566 251.337 349.279 281.528C353.992 311.718 344.579 343.029 327.566 368.411C315.914 385.796 300.062 401.236 280.229 407.922C252.67 417.213 222.48 408.35 195.651 397.01L194.839 396.666C184.75 392.372 174.479 387.505 167.227 379.311L166.768 378.783C158.97 369.655 144.233 374.585 133.605 380.168L154.805 388.964C156.324 389.594 157.971 390.343 158.675 391.828C160.157 394.955 156.506 397.964 153.415 399.521L140.967 405.787C121.34 415.639 100.907 425.319 79.0152 425.927C54.3593 426.612 31.0535 415.728 8.83809 404.954L7.42832 404.268C5.1271 403.131 2.80075 401.813 1.55695 399.595C0.200087 397.176 0.958542 393.403 3.64021 392.694C28.8262 386.033 52.6713 374.343 73.3618 358.513C71.7791 348.658 72.1521 338.493 74.4529 328.781L74.5701 328.309C74.9016 327.044 75.4035 325.757 76.5162 325.117C79.5938 323.349 82.267 328.007 82.8108 331.514L86.9285 358.074C103.41 356.251 119.406 350.197 132.965 340.65L100.387 314.413C94.5546 309.694 88.6492 304.592 85.9534 297.626C83.126 290.319 85.4006 280.415 92.707 277.588C93.2835 249.911 91.8246 222.192 88.346 194.729C83.536 222.158 87.4017 250.28 91.2727 277.857C84.6352 254.882 81.7611 230.823 82.7955 206.93L82.857 205.603C83.0707 201.274 83.5553 196.6 86.4693 193.391C91.613 187.727 101.713 190.17 106.408 196.211C111.103 202.253 111.889 210.36 112.496 217.987L167.355 211.286C173.512 210.549 179.833 209.977 185.735 211.802C193.633 214.244 199.976 221.161 201.726 229.24L203.013 228.889C210.187 226.904 217.728 224.319 221.746 218.139C225.961 211.658 222.474 200.437 214.839 200.526L214.591 200.533C190.171 201.589 166.288 183.468 160.73 159.665C159.316 153.611 158.767 146.884 154.517 142.347C147.782 135.157 142.651 125.888 142.684 116.037C142.717 106.186 148.998 96.0269 158.564 93.672C168.129 91.3171 179.45 99.2978 178.625 109.114C183.265 108.642 188.012 109.246 192.387 110.865C189.892 104.139 196.359 96.7152 203.466 95.739C210.573 94.7628 217.498 98.3126 223.408 102.379C229.319 106.445 234.966 111.232 241.837 113.292L242.154 112.559C243.574 109.244 244.882 105.703 244.166 102.197C243.398 98.4328 239.156 95.1769 235.722 96.9007C233.311 89.9937 229.475 83.5877 224.525 78.2015L210.767 84.688C208.994 82.0333 207.908 78.924 207.643 75.7429C198.559 80.9343 188.699 84.7656 178.493 87.0699L179.537 79.2776L149.038 95.119C144.535 74.1272 156.319 51.6046 174.653 40.4331C192.987 29.2615 216.439 28.4962 236.857 35.1304C236.206 15.4053 256.21 -1.52094 275.879 0.108716ZM425.922 342.25C408.351 346.49 391.294 352.857 375.243 361.166L374.082 361.772C365.187 366.458 356.457 372.073 350.882 380.404C354.647 379.752 358.666 380.733 361.707 383.047C363.628 384.509 365.232 386.701 365.118 389.111C365.058 390.361 364.539 391.553 363.839 392.59C361.104 396.642 355.314 398.288 350.857 396.279C346.4 394.271 343.797 388.843 345.021 384.11C326.112 390.565 309.857 404.455 300.512 422.113L300.199 422.709C299.739 423.598 299.176 424.593 298.2 424.814C296.857 425.118 295.662 423.619 295.723 422.244C295.785 420.869 296.666 419.684 297.518 418.603C308.536 404.611 321.414 391.293 337.893 384.54L339.134 384.041C343.022 382.499 347.091 380.985 349.601 377.696C355.69 369.719 364.456 364.244 373.357 359.609C381.324 355.461 389.565 351.841 398.008 348.778C406.481 345.705 415.144 343.198 423.826 340.769L453.236 332.58C445.282 338.171 435.373 339.97 425.922 342.25ZM51.5045 378.159C35.5172 383.491 19.8197 389.692 4.50437 396.725C3.60593 397.138 3.50315 398.472 4.05298 399.293C4.60281 400.115 5.56246 400.545 6.47137 400.934L34.4477 412.907C38.691 414.723 42.9479 416.544 47.3854 417.813C59.7607 421.354 73.096 420.491 85.4004 424.271C86.8929 424.729 88.4949 424.256 89.9809 423.777C100.713 420.32 111.318 416.472 121.769 412.242C132.703 407.816 143.538 402.934 153.246 396.234C154.129 395.624 155.045 394.947 155.448 393.952C155.851 392.958 155.48 391.575 154.448 391.282C147.896 389.421 141.44 387.226 135.111 384.708L134.672 384.529C132.759 383.729 130.756 382.592 130.355 380.599C124.78 380.823 119.905 384.339 115.793 388.11C111.681 391.881 107.818 396.139 102.751 398.475C97.6842 400.811 90.8836 400.609 87.3735 396.273L87.1468 395.99C86.84 395.612 86.5069 395.246 86.0457 395.126C85.4692 394.975 84.7287 395.549 84.9974 396.081C85.6933 397.459 84.1986 399.201 82.658 399.105C81.1175 399.009 79.913 397.606 79.5338 396.11C79.29 395.148 79.3115 394.154 79.428 393.162L79.4574 392.918C78.7724 395.344 76.6253 397.357 74.1132 397.732C71.1301 398.176 67.9652 396.262 66.9743 393.413C66.1577 391.066 62.956 391.024 60.5094 390.585C54.9465 389.586 50.7221 383.757 51.5045 378.159ZM89.2863 284.731C85.9908 290.593 89.0518 298.011 93.1109 303.373C105.84 320.186 127.16 328.255 141.707 343.522C145.362 347.358 148.548 351.608 151.693 355.875L161.579 369.301C163.396 371.769 165.219 374.244 167.339 376.457C172.868 382.226 180.147 385.948 187.347 389.413C201.956 396.442 216.985 402.902 232.846 406.257C248.707 409.613 265.56 409.727 280.821 404.255C295.105 399.134 307.413 389.311 316.975 377.529C326.31 366.028 333.162 352.696 338.654 338.933L339.053 337.925C339.843 335.918 340.62 333.818 340.456 331.667C340.282 329.392 339.07 327.324 337.656 325.534C332.262 318.711 323.248 314.852 314.616 315.918C306.119 316.968 298.339 322.864 295.226 330.831L295.082 331.212C288.317 349.549 271.473 363.34 252.551 368.234C233.629 373.127 213.048 369.621 195.777 360.473C178.505 351.324 164.412 336.843 153.904 320.363L153.331 319.454C151.432 316.407 149.706 313.201 149.038 309.686C148.303 305.819 149.051 301.47 151.843 298.697C153.687 296.864 156.312 295.789 157.654 293.562C158.996 291.335 157.42 287.402 154.945 288.197L153.294 288.72C141.918 292.259 128.72 295.005 119.568 287.64L118.688 286.936C114.418 283.543 109.855 280.304 104.55 279.137C98.8786 277.889 92.1318 279.669 89.2863 284.731ZM134.634 344.154C120.835 352.872 105.263 358.77 89.1512 361.38C87.0242 361.725 86.4525 364.483 86.419 366.637C86.3126 373.485 86.6442 380.34 87.4111 387.146C89.1563 386.324 89.8703 384.271 91.0601 382.753C92.2499 381.235 94.9652 380.403 95.8849 382.099C96.5274 383.283 95.6699 384.766 94.5751 385.552C93.4802 386.337 92.1338 386.763 91.1574 387.691C88.7282 390.001 89.998 394.545 92.9574 396.119C95.9169 397.694 99.6604 396.872 102.498 395.087C105.335 393.301 107.527 390.684 109.933 388.35C115.079 383.357 121.372 379.555 128.186 377.323C136.835 374.49 146.467 374.069 154.076 369.075C154.589 368.739 155.119 368.344 155.313 367.762C155.577 366.968 155.13 366.143 154.656 365.436L145.551 352.216C144.101 350.11 142.432 347.848 139.947 347.245C138.811 346.97 137.6 347.076 136.485 346.724C135.37 346.373 134.319 345.28 134.634 344.154ZM71.0684 363.358C67.5186 365.015 65.4177 368.912 64.9502 372.802C64.4827 376.692 65.4008 380.608 66.4913 384.371C67.1607 386.68 67.9029 388.983 69.01 391.118C69.7159 392.479 70.6506 393.837 72.0652 394.429C73.4798 395.021 75.4429 394.489 75.9027 393.026C76.0921 392.423 76.0072 391.772 75.8976 391.15C75.4856 388.812 74.7464 386.532 73.7092 384.396L73.2736 383.531C72.6496 382.282 72.0619 380.81 72.8642 379.72C73.6303 378.679 75.5133 378.249 75.3333 376.97L73.5752 364.473C73.5239 364.108 73.4635 363.722 73.2264 363.44C72.727 362.846 71.7716 363.03 71.0684 363.358ZM352.504 382.633C351.332 382.628 350.098 382.79 349.157 383.488C348.607 383.897 348.19 384.469 347.898 385.089C346.661 387.712 347.802 391.083 350.146 392.791C352.49 394.499 355.737 394.659 358.451 393.636C360.526 392.853 362.522 391.081 362.452 388.865C362.398 387.116 361.07 385.656 359.606 384.698C357.514 383.329 355.003 382.644 352.504 382.633ZM77.7288 327.945C77.4288 328.168 77.2804 328.536 77.1536 328.888C75.3078 334.009 75.0818 339.561 75.1327 345.005C75.2604 358.654 77.0139 372.288 80.3445 385.525L80.5101 386.169C81.1909 388.754 82.1216 391.405 84.2299 393.004C84.6221 372.026 83.2611 351.017 80.1656 330.265C79.9647 328.919 78.8217 327.132 77.7288 327.945ZM61.1057 373.034C60.665 373.157 60.3821 373.577 60.1621 373.979C58.362 377.263 58.2405 381.413 59.8453 384.798C60.5648 386.315 61.7985 387.79 63.4675 387.976C64.1479 387.129 63.8369 385.908 63.4557 384.871L63.1265 383.992C61.9015 380.672 60.896 377.078 61.9758 373.74C62.1167 373.305 61.5463 372.91 61.1057 373.034ZM55.1006 377.584C53.8383 380.39 54.4007 383.922 56.4724 386.197C57.3276 385.323 56.9514 383.891 56.6594 382.703C56.2023 380.845 56.0991 378.9 56.3569 377.003C56.0385 376.536 55.3326 377.068 55.1006 377.584ZM81.7079 277.558C83.6213 279.206 84.838 282.763 82.5655 283.865C81.1095 284.571 79.4598 283.539 78.0849 282.686C70.941 278.253 61.8066 277.926 53.7074 280.181C45.6081 282.436 38.3673 287.03 31.5715 291.979C24.8039 296.908 18.2785 302.317 13.1898 308.965C8.101 315.614 4.50162 323.625 4.20625 331.992C3.85232 342.018 8.18386 351.603 13.1926 360.296C16.3849 365.836 19.9847 371.298 24.9403 375.321L25.959 376.126C27.3648 377.255 28.8082 378.654 28.4497 380.352C23.5924 380.132 20.0669 375.787 17.3919 371.726C13.5882 365.953 10.121 359.957 7.01359 353.781C4.4298 348.645 2.06807 343.294 1.28309 337.599C-0.193219 326.888 4.15542 315.997 10.9146 307.558C17.6737 299.118 26.6691 292.785 35.7672 286.943C42.6781 282.506 49.7904 278.25 57.5482 275.554C65.5487 272.773 75.2904 272.031 81.7079 277.558ZM287.024 230.382C275.519 241.121 260.227 247.717 244.521 248.717C237.58 249.158 230.413 248.495 224.132 245.506C217.851 242.518 212.561 236.946 211.101 230.146L210.579 230.307C206.033 231.745 200.829 234.348 200.874 239.033C201.069 258.902 200.606 278.778 199.488 298.617C199.274 302.424 197.824 307.421 194.013 307.309C180.472 306.911 166.842 310.038 154.829 316.298C168.351 337.504 187.581 356.044 211.502 363.811C235.422 371.579 264.272 366.725 281.035 347.975C286.408 341.965 290.363 334.86 294.171 327.742L295.048 326.099C295.857 324.581 296.682 322.777 295.962 321.214C295.502 320.216 296.493 319.179 297.403 318.563C310.779 309.51 330.695 311.966 341.47 323.998C340.617 322.328 341.393 320.027 343.084 319.215C344.428 321.374 344.712 324.16 343.832 326.547C344.415 327.371 345.483 326.046 345.575 325.041C347.012 309.4 346.899 293.618 345.239 278C344.641 272.368 343.827 266.702 341.812 261.409C340.045 256.767 337.39 252.513 334.48 248.488C327.786 239.229 319.647 231.015 310.449 224.236L309.781 223.75C308.322 222.706 306.787 221.744 305.064 221.275C298.243 219.418 292.191 225.559 287.024 230.382ZM194.088 221.385C186.482 223.944 178.247 223.452 170.242 224.005C158.961 224.785 147.833 227.719 137.634 232.602C133.241 234.705 128.992 237.176 124.346 238.639C114.48 241.746 103.17 239.827 94.8806 233.641C93.0935 247.284 93.6207 261.227 96.4327 274.696C96.6133 275.561 97.1829 276.668 98.0278 276.408C103.634 274.686 109.664 277.122 114.649 280.212C119.634 283.302 124.319 287.155 129.981 288.684C136.623 290.478 143.662 288.82 150.236 286.736L150.729 286.579C154.099 285.497 158.457 284.595 160.618 287.398C162.441 289.762 161.29 293.294 159.36 295.572C157.431 297.849 154.814 299.543 153.239 302.079C151.306 305.194 151.296 309.4 153.215 312.524C165.77 307.488 179.21 304.663 192.73 304.217C195.442 304.128 196.393 300.619 196.559 297.911C198.02 274.183 198.468 250.394 197.903 226.628C197.842 224.095 196.489 220.577 194.088 221.385ZM397.373 285.547L397.911 285.817C401.24 287.509 404.784 289.764 405.28 293.41C405.443 294.61 405.238 295.831 404.952 297.008C404.557 298.639 403.955 300.312 402.688 301.411C401.344 302.576 399.456 302.907 397.678 302.838C394.179 302.702 390.676 301.072 388.648 298.215C386.621 295.359 386.295 291.274 388.186 288.326C390.078 285.378 394.235 283.992 397.373 285.547ZM392.182 289.626C390.107 290.492 389.36 293.297 390.226 295.372C391.092 297.446 393.148 298.811 395.284 299.511C397.469 300.226 400.284 300.168 401.586 298.273C402.019 297.642 402.224 296.882 402.344 296.127C402.605 294.481 402.447 292.659 401.387 291.373C400.073 289.781 397.832 289.461 395.739 289.342L395.219 289.316C394.193 289.271 393.129 289.231 392.182 289.626ZM130.287 246.74C130.55 247.735 130.348 248.787 130.169 249.801C128.906 256.943 128.815 264.292 129.897 271.464L130.097 272.734C130.229 273.632 130.283 274.579 129.767 275.302C129.172 276.136 127.504 276.052 127.42 275.031C126.71 266.341 126.255 257.63 126.055 248.913C126.017 247.248 126.452 245.033 128.113 244.906C129.139 244.826 130.025 245.744 130.287 246.74ZM71.8499 229.325C73.0779 229.695 74.2576 230.536 74.6135 231.768C74.9694 233 74.1594 234.557 72.8795 234.638C71.6866 234.713 70.7762 233.626 69.6803 233.15C67.7126 232.294 65.5049 233.489 63.696 234.643L62.7752 235.238C61.0385 236.381 59.3561 237.665 58.4025 239.488C57.4269 241.354 57.3452 243.547 57.3753 245.652C57.3963 247.115 57.4649 248.6 57.9173 249.991C58.8989 253.011 61.6999 255.273 64.8068 255.928C67.9137 256.583 71.2366 255.734 73.8648 253.953L74.3793 253.603C74.8434 253.297 75.3299 253.031 75.8758 253.004C76.6264 252.968 77.4481 253.676 77.1929 254.383C77.1164 254.595 76.9593 254.766 76.8021 254.928C72.5062 259.341 65.0881 260.286 59.8233 257.09C58.8841 256.52 58.0086 255.832 57.2988 254.993C55.1654 252.473 54.7673 248.94 54.7086 245.638C54.6769 243.852 54.7211 242.038 55.2289 240.325C56.3262 236.623 59.4271 233.873 62.6501 231.746C65.3866 229.941 68.7103 228.381 71.8499 229.325ZM46.9954 221.73L57.7053 234.448C57.1161 235.086 56.0835 235.127 55.2875 234.781C54.5799 234.474 54.0156 233.924 53.4838 233.359L47.2 226.6C46.3433 233.46 44.2679 240.165 41.0999 246.309C40.7916 246.907 41.6652 247.412 42.3344 247.481C43.9688 247.648 45.6216 247.462 47.2333 247.142L48.0639 246.975C49.3655 246.716 50.7002 246.513 51.9135 246.994C53.3868 247.578 54.296 249.722 53.1145 250.778C52.3862 251.429 51.283 251.348 50.3136 251.228L39.8831 249.938L39.5626 249.892C38.5329 249.724 37.4011 249.32 37.2502 248.328C37.1592 247.73 37.4915 247.158 37.8025 246.639C41.515 240.443 43.9884 233.508 45.0384 226.362L45.1966 225.229C45.4007 223.838 45.7619 222.328 46.9954 221.73ZM411.882 241.712C413.174 242.627 414.394 244.422 413.393 245.648C412.766 246.416 411.558 246.435 410.658 246.022C409.757 245.609 409.057 244.869 408.28 244.254C405.093 241.735 400.306 241.47 396.86 243.621C396.37 243.927 395.882 244.308 395.683 244.851C395.484 245.394 395.704 246.123 396.258 246.287C400.657 244.424 405.901 244.684 410.093 246.975C410.699 247.306 411.335 247.746 411.484 248.42C411.633 249.095 410.91 249.903 410.307 249.566C407.571 248.035 404.307 247.471 401.216 247.997C399.775 248.242 398.366 248.716 396.905 248.762C395.444 248.808 393.846 248.321 393.071 247.082C392.355 245.939 392.525 244.396 393.223 243.242C393.921 242.088 395.064 241.27 396.261 240.648C401.13 238.114 407.401 238.541 411.882 241.712ZM265.967 179.879C255.524 188.658 243.253 195.25 230.17 199.115L229.296 199.369C227.598 199.854 225.46 200.929 225.817 202.659L226.037 203.733C226.69 206.96 227.243 210.247 226.778 213.495C226.276 216.997 224.345 220.503 221.15 221.975L220.856 222.103C215.166 224.445 214.367 232.944 218.098 237.836C221.829 242.729 228.299 244.623 234.411 245.33C252.349 247.405 271.069 241.39 284.442 229.256C289.292 224.855 293.632 219.586 299.637 216.972L284.62 211.475C280.569 209.992 276.465 208.482 272.938 205.996C269.412 203.511 266.471 199.893 265.75 195.64C264.867 190.43 267.365 184.976 265.967 179.879ZM92.7385 193.966C92.3616 194.133 91.9768 194.356 91.7955 194.726C91.614 195.097 91.6753 195.535 91.7393 195.943L95.1801 217.632C96.194 224.023 97.6185 231.106 102.89 234.86C108.664 238.972 116.594 237.361 123.318 235.013L123.677 234.887C136.193 230.441 148.239 224.253 161.358 222.171C170.776 220.676 180.653 221.316 189.559 217.906C186.302 212.989 179.244 213.015 173.341 213.66L125.108 219.142C121.372 219.567 117.447 220.062 114.413 222.283C113.085 223.255 111.828 224.591 110.184 224.659C108.584 224.725 107.193 222.395 108.447 221.538L108.558 221.47C109.933 220.714 109.84 218.74 109.559 217.196L108.1 209.198C107.362 205.23 106.462 201.192 104.088 197.953C101.524 194.455 96.7018 192.204 92.7385 193.966ZM425.716 226.382C426.879 227.737 426.929 229.815 426.154 231.423C425.379 233.03 423.911 234.213 422.323 235.027C420.407 236.011 418.297 236.523 416.182 236.961L415.125 237.176C414.711 237.259 414.274 237.341 413.874 237.208C413.54 237.097 413.27 236.847 413.051 236.572C411.961 235.204 412 233.186 412.737 231.6C413.475 230.014 414.796 228.781 416.153 227.678C417.54 226.55 419.049 225.487 420.789 225.074C422.528 224.662 424.552 225.026 425.716 226.382ZM420.013 228.762L419.456 229.137C418.624 229.707 417.822 230.33 417.262 231.161C416.579 232.178 416.341 233.596 417.016 234.618L421.49 232.129C422.218 231.723 422.973 231.294 423.446 230.608C423.919 229.921 424.013 228.896 423.429 228.301C422.551 227.408 421.056 228.069 420.013 228.762ZM348.649 179.801C348.962 179.927 349.173 180.21 349.355 180.499L355.909 191.204C357.081 193.117 359.745 193.33 361.983 193.173C366.271 192.871 370.519 191.995 374.577 190.577C375.258 190.34 375.904 191.206 375.757 191.912C375.611 192.618 375.003 193.121 374.435 193.564L364.591 201.237C363.382 201.152 363.725 199.173 364.705 198.46L364.996 198.258C365.94 197.621 367.086 196.991 367.027 195.896L361.338 197.673C360.252 198.013 359.044 198.346 358.011 197.869C357.324 197.552 356.843 196.93 356.408 196.304L349.181 185.755L349.056 194.993C349.046 195.75 349.013 196.572 348.533 197.157C348.191 197.573 347.68 197.796 347.171 197.984L337.199 201.562C339.862 204.225 344.846 201.423 348.033 203.43C350.217 204.805 350.59 207.869 350.118 210.406C349.647 212.942 348.568 215.411 348.708 217.987C350.528 216.667 351.864 214.695 352.417 212.516C352.639 211.637 352.749 210.703 353.238 209.939C354.585 207.836 357.803 208.264 360.033 209.389C362.264 210.514 364.578 212.134 367.018 211.599L363.478 205.939C363.155 205.422 362.82 204.863 362.849 204.255C362.877 203.646 363.455 203.031 364.038 203.208C364.293 203.285 364.484 203.487 364.652 203.699L372.55 213.936C369.776 215.765 366.117 214.613 362.914 213.73L362.439 213.606C359.315 212.833 355.501 212.756 353.776 215.404C352.56 217.27 351.133 218.998 349.531 220.546C348.856 221.198 348.086 221.847 347.154 221.954C346.222 222.061 345.15 221.354 345.233 220.419L346.151 210.067C346.211 209.397 346.256 208.667 345.883 208.108C345.489 207.518 344.748 207.289 344.065 207.1L335.437 204.717C333.561 204.199 333.547 201.279 334.954 199.935C336.361 198.591 338.434 198.309 340.309 197.789C342.184 197.269 344.212 196.165 344.55 194.248L346.74 181.846C346.927 180.785 347.651 179.396 348.649 179.801ZM116.517 4.93973L114.924 6.23457C104.307 14.8863 93.8453 23.9565 86.0589 35.2032C77.8833 47.0121 72.8641 61.6556 75.2981 75.8108C78.8451 96.4385 97.2959 112.866 98.0847 133.782C98.1895 136.56 101.019 138.289 103.386 139.748C112.727 145.504 119.649 154.641 124.217 164.618C128.642 174.283 131.004 184.755 132.722 195.251L132.886 196.267C133.142 197.867 133.329 199.689 132.296 200.938C131.264 202.188 128.609 201.75 128.712 200.133C129.924 181.116 123.012 161.715 110.05 147.747C106.683 144.119 102.771 140.756 98.0296 139.335C97.7276 146.66 95.2614 154.124 90.0406 159.271C84.8199 164.418 76.5838 166.769 69.8251 163.929C63.0665 161.089 58.9317 152.513 61.9735 145.843C64.5216 140.255 70.8498 137.432 76.8749 136.242C82.7866 135.075 88.9149 135.014 94.8486 136.064C95.647 136.205 95.9949 135.089 95.9789 134.278C95.5498 112.538 75.4539 95.5174 72.816 73.9335C71.3743 62.1378 75.399 50.2637 81.2397 39.9146C88.9099 26.324 99.8215 14.577 112.81 5.92676L113.15 5.70613C114.191 5.05122 115.404 4.49264 116.517 4.93973ZM182.685 115.668C179.777 117.538 179.851 121.689 179.611 125.139C179.281 129.87 177.654 134.605 174.482 138.131C171.309 141.656 166.489 143.822 161.783 143.23C160.566 143.077 160.196 144.839 160.355 146.055C163.091 166.907 175.74 187.378 195.4 194.844C207.419 199.409 220.995 198.802 233.249 194.912C245.211 191.114 256.038 184.359 265.933 176.627L266.655 176.06C268.09 174.926 269.533 173.746 270.53 172.213C271.541 170.659 272.039 168.82 272.281 166.982C273.579 157.133 266.998 146.827 257.516 143.863C256.4 143.514 256.658 141.704 257.637 141.065C258.617 140.426 259.877 140.469 260.995 140.128C264.025 139.202 265.418 135.752 266.109 132.661C267.059 128.414 267.326 123.571 264.694 120.105C261.137 115.421 254.221 115.427 248.357 115.876L238.841 116.605C235.557 116.856 231.33 118.014 231.176 121.304C230.844 128.39 227.723 135.448 222.208 139.91C216.693 144.372 208.751 145.915 202.204 143.184C195.76 140.496 191.209 133.482 191.953 126.557L191.993 126.222C192.381 123.292 192.167 120.112 190.451 117.706C188.735 115.301 185.17 114.069 182.685 115.668ZM261.277 4.9353C257.034 6.14152 252.958 8.08702 249.609 10.9572C244.927 14.9684 241.815 20.7648 241.058 26.8828C240.789 29.0505 241.221 31.8463 243.326 32.4287C248.469 33.8514 253.071 37.1503 256.069 41.5642C251.207 38.671 245.877 36.5659 240.35 35.3557L263.711 48.5742C265.065 49.3404 266.471 50.1542 267.322 51.4563C268.174 52.7585 268.263 54.7019 267.093 55.7275L265.46 54.4566C261.367 51.289 257.183 48.2184 252.603 45.8212C249.119 43.9984 245.443 42.5841 241.747 41.2369L239.73 40.5067C232.887 38.038 225.982 35.5537 218.775 34.5674C212.086 33.6519 205.218 34.0583 198.684 35.7565L197.395 36.0868C188.567 38.3206 179.363 40.1472 172.064 45.5445C167.723 48.755 164.323 53.0531 161.095 57.3815L160.334 58.4145C153.92 67.2203 148.059 78.077 151.812 88.1802C169.04 86.0581 182.462 72.7282 198.069 65.1295C199.262 64.5488 201.229 64.371 201.41 65.6853L183.946 76.0054C184.431 78.6704 183.973 81.4972 182.671 83.8725C195.431 80.2671 207.36 73.7568 217.299 64.9813L217.93 64.4181C219.507 62.9987 222.545 61.8244 223.216 63.8365L222.362 64.3138C219.228 66.0768 216.11 68.005 213.95 70.8598C211.593 73.974 210.654 78.5013 212.744 81.8012L234.79 68.8202C235.686 68.2929 236.662 67.7466 237.696 67.8552C238.73 67.9637 239.699 69.0769 239.252 70.0153L238.502 70.1716C236.123 70.6772 233.71 71.3107 231.857 72.8608C229.809 74.5741 228.748 77.7859 230.27 79.9799C233 83.9154 235.215 88.2073 236.841 92.7121C236.877 90.7422 239.562 89.7347 241.332 90.5996C243.102 91.4645 244.038 93.4166 244.68 95.2795C246.515 100.608 247 106.396 246.077 111.956C251.621 113.914 258.123 111.602 263.456 114.078C268.405 116.376 270.827 122.338 270.483 127.784C270.139 133.231 267.565 138.267 264.817 142.981C272.498 148.932 276.601 159.183 275.148 168.79C276.487 168.572 277.619 167.416 277.809 166.072L280.855 167.994C276.09 170.687 272.701 175.685 271.961 181.108C292.894 161.519 299.844 130.471 296.824 101.961L296.706 100.898C295.509 90.6021 292.661 79.8704 284.918 73.0508C289.069 70.6575 294.393 71.5988 298.835 69.8017C303.032 68.1037 305.916 64.1677 307.864 60.0811C314.377 46.4187 312.134 29.0357 302.367 17.4739C292.599 5.91211 275.835 0.796555 261.277 4.9353ZM192.842 176.277C193.503 176.387 194.252 176.61 194.51 177.227C194.923 178.213 193.766 179.114 192.765 179.487C191.311 180.029 189.784 180.376 188.239 180.515C186.942 180.633 185.306 180.382 184.905 179.144C184.642 178.329 185.1 177.414 185.793 176.912C186.486 176.41 187.363 176.24 188.214 176.148C189.753 175.981 191.315 176.025 192.842 176.277ZM169.161 162.149C173.717 167.503 180.844 170.338 187.874 170.394C194.904 170.449 201.801 167.908 207.637 163.988L208.128 163.659C208.869 163.166 209.638 162.703 210.508 162.552C211.57 162.367 212.833 162.813 213.195 163.829C207.09 169.014 199.438 172.438 191.462 173.162C183.486 173.885 175.225 171.839 168.716 167.172C167.542 166.329 166.329 165.221 166.28 163.777C166.232 162.333 168.225 161.049 169.161 162.149ZM73.6701 139.471C70.5023 140.482 67.3141 141.962 65.3155 144.62C62.3467 148.568 62.8658 154.558 66.0724 158.315C69.2789 162.072 74.7011 163.572 79.5386 162.574C84.3761 161.575 88.576 158.311 91.2944 154.187C94.0128 150.063 95.3437 145.139 95.747 140.216C95.8146 139.391 95.6646 138.298 94.8506 138.147C87.8251 136.84 80.4781 137.299 73.6701 139.471ZM185.925 120.235C186.057 121.37 185.618 122.484 185.214 123.554C182.932 129.596 181.544 135.975 181.107 142.42C181.036 143.464 180.996 144.546 181.378 145.52C181.74 146.44 182.579 147.24 183.552 147.295L183.725 147.296C184.611 147.265 185.031 148.585 184.474 149.274C183.917 149.964 182.871 150.041 182.022 149.788C180.278 149.269 179.028 147.646 178.522 145.898C178.016 144.15 178.145 142.284 178.398 140.482C179.258 134.373 181.488 128.449 181.597 122.281C181.628 120.54 181.984 118.194 183.719 118.055C184.859 117.965 185.793 119.099 185.925 120.235ZM207.603 99.6165C203.98 100.362 201.214 103.334 199.335 106.52C195.486 113.047 194.389 121.141 196.363 128.457C197.249 131.742 198.763 134.917 201.14 137.352C203.516 139.787 206.818 141.422 210.22 141.365C212.594 141.326 214.899 140.483 216.961 139.306C223.85 135.376 228.226 127.411 227.85 119.49C227.473 111.568 222.361 104.054 215.131 100.795C212.777 99.7338 210.133 99.096 207.603 99.6165ZM157.601 96.3688C151.128 98.7669 146.949 105.489 146.058 112.335C145.167 119.181 147.088 126.105 149.824 132.443C150.562 134.15 151.4 135.885 152.815 137.09C154.23 138.296 156.373 138.836 157.981 137.903C158.729 137.469 159.429 138.485 159.997 139.138C161.128 140.439 163.119 140.549 164.81 140.212C170.381 139.098 174.662 134.231 176.394 128.821C178.069 123.591 177.712 117.931 176.722 112.519L176.618 111.96C175.574 106.503 173.215 100.369 167.902 98.7442C165.116 97.8922 161.755 98.3901 159.602 96.428C159.082 95.9543 158.26 96.1244 157.601 96.3688ZM260.472 119.509C262.662 121.935 261.765 125.702 260.67 128.815L260.581 129.066C260.143 130.287 259.689 131.537 258.851 132.527C258.013 133.517 256.697 134.208 255.427 133.944C254.157 133.679 253.168 132.207 253.701 131.025C254.363 129.557 256.613 129.482 257.425 128.092L255.231 127.885C253.753 127.746 252.162 127.558 251.068 126.556C249.973 125.553 249.835 123.432 251.167 122.775C252.089 122.32 253.2 122.766 254.054 123.34C254.908 123.914 255.725 124.64 256.742 124.796C257.759 124.953 258.996 124.154 258.786 123.147C258.494 121.745 259.214 120.192 260.472 119.509ZM210.389 128.98C210.562 129.944 210.626 130.967 210.265 131.879C209.904 132.79 209.024 133.552 208.045 133.511C206.528 133.448 205.716 131.702 205.451 130.207C205.124 128.36 205.635 125.819 207.506 125.682C209.106 125.564 210.105 127.4 210.389 128.98ZM163.665 125.06C164.421 126.161 164.314 127.632 164.014 128.933C163.63 130.597 162.665 132.454 160.965 132.628C159.431 132.785 158.12 131.412 157.619 129.953C157.006 128.173 157.303 125.999 158.693 124.729C160.083 123.459 162.6 123.508 163.665 125.06ZM165.08 106.274C165.758 106.586 166.236 107.44 165.893 108.103L165.237 108.275C161.503 109.272 157.521 110.659 155.738 114.035C155.31 114.844 155.033 115.737 154.501 116.482C153.968 117.226 153.071 117.818 152.175 117.629C151.155 117.415 150.564 116.24 150.673 115.203C150.782 114.165 151.413 113.261 152.089 112.467C154.838 109.237 158.712 106.984 162.879 106.191C163.613 106.052 164.402 105.962 165.08 106.274ZM212.809 108.139C213.926 109.039 214.775 110.238 215.903 111.123C216.856 111.871 218.061 112.462 218.494 113.593C218.928 114.725 217.624 116.323 216.679 115.565C214.21 113.587 211.47 111.948 208.559 110.71C207.239 110.148 207.539 107.928 208.826 107.295C210.113 106.663 211.693 107.239 212.809 108.139ZM198.978 101.042C196.544 101.845 194.815 104.405 194.98 106.962C195.911 106.486 196.62 105.596 196.876 104.582L196.84 104.48C197.92 103.626 198.69 102.389 198.978 101.042Z" fill="#00160A"/>
<path fill-rule="evenodd" clip-rule="evenodd" d="M61.868 407.467C62.8469 407.476 63.7473 407.929 64.6026 408.428L65.0648 408.703C70.3072 411.841 75.8391 414.496 81.5672 416.622C82.3544 416.914 82.1099 418.236 81.3426 418.577C80.5753 418.918 79.6898 418.614 78.9073 418.31L61.9906 411.727C60.9081 411.306 59.6515 410.664 59.5566 409.507C59.462 408.353 60.7111 407.457 61.868 407.467Z" fill="#E7EAEE"/>
<path fill-rule="evenodd" clip-rule="evenodd" d="M34.8996 389.036L87.2316 407.6L87.5605 407.722C88.9436 408.263 90.4396 409.188 90.2917 410.617C90.1713 411.78 88.8835 412.531 87.7141 412.491C86.7247 412.458 85.8108 412.019 84.9364 411.534L84.4633 411.268C77.1665 407.13 69.5109 403.715 61.6593 400.766C52.7653 397.424 43.6198 394.679 34.4596 392.151C33.0588 391.764 31.2836 390.513 32.0869 389.302C32.6503 388.453 33.9391 388.695 34.8996 389.036Z" fill="#E7EAEE"/>
</g>
<defs>
<clipPath id="clip0_27_1092">
<rect width="601" height="467" fill="white"/>
</clipPath>
</defs>
</svg>
